M48
;Layer_Color=9474304
;FILE_FORMAT=4:2
METRIC,LZ
;TYPE=PLATED
T01F00S00C0.30
T02F00S00C0.41
T04F00S00C0.71
T06F00S00C0.85
T07F00S00C1.00
T08F00S00C1.02
T09F00S00C1.05
T10F00S00C3.20
%
T01
X003224Y004474
X003226Y005067
X00268Y005448
X002565Y005715
X00318Y006033
X003171Y006118
T02
X005778Y000254
X005931Y000752
X00555
X007049Y002286
X007404Y002057
X007696Y002017
X008026Y002223
X007417Y003658
X006287Y003416
X005448Y004216
X005423Y004801
X005651Y004877
X005677Y004699
X006166Y005035
X005372Y005232
X004864
X004712Y005359
X00455Y005283
X004635Y005144
X004724Y004978
X004826Y004813
X004902Y004597
X004389Y004597
X004313Y004529
X004204Y004737
X004318Y004864
X004458Y00489
X004013Y005131
X003988Y005321
X003671Y00493
X003596Y004854
X003442Y004928
X003264Y004915
X002756Y00494
X002565Y004864
X00268Y005144
X002773Y005276
X003111Y004102
X003327Y004039
X003099Y003531
X004623Y003581
X004534Y003785
X004204Y004026
X003741Y004521
X003818Y004638
X004254Y003073
X004547Y002565
X004648Y001803
X001074Y005305
X001232Y005537
X000152Y006185
X00019Y007303
X002324Y006096
X00347Y006073
X003594Y006007
X003721Y005867
X003899Y005842
X004092Y005802
X004163Y00588
X004257Y005967
X004177Y006191
X004417Y006136
X004722Y006035
X004795Y005812
X004902Y005893
X004889Y005703
X004851Y005436
X004552Y005448
X004572Y005753
X004196Y005486
X003365Y005867
X003378Y006731
X00442Y006579
X004557Y006634
X004674Y006617
X005309Y006363
X005436Y006807
X006045Y006985
X005778Y005829
X005626Y005728
X005448Y005702
X005524Y005855
X007264Y005677
T04
X000356Y00061
X000368Y000813
X000584Y00061
X000787
X001041
X001257
X001274Y000813
X002019Y000927
Y000686
X003594
X00494Y001029
X004915Y00141
X005944Y001067
X006248Y001054
X007163Y001194
X007391Y001029
X008547Y001143
X007214Y001745
X00616Y001473
X005918Y001801
X007734Y003683
X007747Y004318
X002515Y005042
X001727Y00508
X001778Y004153
X001626Y002629
X001664Y00221
X002375Y002832
X003124Y002095
X003302Y001727
X001308Y002629
X000572Y002324
X00033Y002337
X000356Y002108
X00061Y002095
X000495Y003823
X000368Y00461
X00093Y005728
X00174Y00569
X002565Y007125
X002921
X006007Y006452
X006045Y006223
X007417Y00602
T06
X000575Y006505
Y007005
T07
X004081Y000483
X004331
X004581
X004831
X005081
X005331
X005581
X005831
X006581Y000533
X006831
X007081
X007331
X007581
X007831
X008081
X008331
X008369Y003001
Y003251
Y003501
Y003751
X008357Y004622
Y004872
Y005122
Y005372
X00521Y007874
X00496
X003231Y007899
X002981
X002731
X002481
X002231
X001981
X001731
X001481
X00546Y007874
X00571
X00596
X00621
X00646
X00671
X007534
X007784
X008034
X008284
X008534
X008344Y006998
Y006748
Y006498
Y006248
T08
X001829Y000305
X002248
X009576Y001842
Y002095
Y00235
Y002603
Y002858
Y003111
Y003365
Y003619
Y003874
Y004128
Y004381
Y004635
Y00489
Y005144
X009322
Y00489
Y004635
Y004381
Y004128
Y003874
Y003619
Y003365
Y003111
Y002858
Y002603
Y00235
Y002095
Y001842
X00762Y002388
Y002642
X007366
Y002388
X006668Y002426
Y00268
X006414
Y002426
X005626Y002908
Y003162
X005372
X005118
X004864
Y002908
X005118
X005372
X000813Y008026
X009322Y006668
Y006414
Y00616
Y005906
Y005651
Y005397
X009576
Y005651
Y005906
Y00616
Y006414
Y006668
T09
X004066Y007872
X004316
T10
X000279Y000279
X009487Y00047
X000356Y008039
X009436Y008064
M30
