G04*
G04 #@! TF.GenerationSoftware,Altium Limited,Altium Designer,24.2.2 (26)*
G04*
G04 Layer_Color=32768*
%FSLAX44Y44*%
%MOMM*%
G71*
G04*
G04 #@! TF.SameCoordinates,251A4116-46B9-4EB5-9C36-AF9AACF17162*
G04*
G04*
G04 #@! TF.FilePolarity,Positive*
G04*
G01*
G75*
%ADD16C,0.1200*%
D16*
X55359Y157767D02*
X50361D01*
Y155268D01*
X51194Y154435D01*
X54526D01*
X55359Y155268D01*
Y157767D01*
X54526Y149437D02*
X55359Y150270D01*
Y151936D01*
X54526Y152769D01*
X51194D01*
X50361Y151936D01*
Y150270D01*
X51194Y149437D01*
X52860Y147771D02*
Y144438D01*
X55359Y139440D02*
Y141106D01*
Y140273D01*
X51194D01*
X50361Y141106D01*
Y141939D01*
X51194Y142772D01*
X53693Y136941D02*
Y135275D01*
X52860Y134442D01*
X50361D01*
Y136941D01*
X51194Y137774D01*
X52027Y136941D01*
Y134442D01*
X53693Y129443D02*
Y131942D01*
X52860Y132775D01*
X51194D01*
X50361Y131942D01*
Y129443D01*
Y127777D02*
X55359D01*
X52027D02*
X53693Y125278D01*
X52027Y127777D02*
X50361Y125278D01*
Y122779D02*
Y121113D01*
Y121946D01*
X55359D01*
X54526Y122779D01*
X947379Y422118D02*
X942381D01*
Y424617D01*
X943214Y425450D01*
X944880D01*
X945713Y424617D01*
Y422118D01*
X947379Y427116D02*
Y428782D01*
Y427949D01*
X942381D01*
X943214Y427116D01*
M02*
