G04*
G04 #@! TF.GenerationSoftware,Altium Limited,Altium Designer,24.2.2 (26)*
G04*
G04 Layer_Physical_Order=4*
G04 Layer_Color=16711680*
%FSLAX44Y44*%
%MOMM*%
G71*
G04*
G04 #@! TF.SameCoordinates,251A4116-46B9-4EB5-9C36-AF9AACF17162*
G04*
G04*
G04 #@! TF.FilePolarity,Positive*
G04*
G01*
G75*
%ADD14C,0.2540*%
%ADD17C,0.2032*%
%ADD24R,1.2000X1.4500*%
%ADD26R,1.4546X1.5562*%
%ADD28R,1.5562X1.4546*%
%ADD81C,0.8128*%
%ADD83C,0.5080*%
%ADD88C,1.5300*%
G04:AMPARAMS|DCode=89|XSize=4mm|YSize=1.8mm|CornerRadius=0.45mm|HoleSize=0mm|Usage=FLASHONLY|Rotation=90.000|XOffset=0mm|YOffset=0mm|HoleType=Round|Shape=RoundedRectangle|*
%AMROUNDEDRECTD89*
21,1,4.0000,0.9000,0,0,90.0*
21,1,3.1000,1.8000,0,0,90.0*
1,1,0.9000,0.4500,1.5500*
1,1,0.9000,0.4500,-1.5500*
1,1,0.9000,-0.4500,-1.5500*
1,1,0.9000,-0.4500,1.5500*
%
%ADD89ROUNDEDRECTD89*%
G04:AMPARAMS|DCode=90|XSize=4mm|YSize=1.8mm|CornerRadius=0.45mm|HoleSize=0mm|Usage=FLASHONLY|Rotation=180.000|XOffset=0mm|YOffset=0mm|HoleType=Round|Shape=RoundedRectangle|*
%AMROUNDEDRECTD90*
21,1,4.0000,0.9000,0,0,180.0*
21,1,3.1000,1.8000,0,0,180.0*
1,1,0.9000,-1.5500,0.4500*
1,1,0.9000,1.5500,0.4500*
1,1,0.9000,1.5500,-0.4500*
1,1,0.9000,-1.5500,-0.4500*
%
%ADD90ROUNDEDRECTD90*%
%ADD91C,1.5080*%
%ADD92R,1.5080X1.5080*%
%ADD93C,1.4500*%
%ADD94R,1.5750X1.5750*%
%ADD95C,1.5750*%
%ADD96R,1.5080X1.5080*%
%ADD97C,1.6000*%
G04:AMPARAMS|DCode=98|XSize=1.6mm|YSize=1.6mm|CornerRadius=0.4mm|HoleSize=0mm|Usage=FLASHONLY|Rotation=270.000|XOffset=0mm|YOffset=0mm|HoleType=Round|Shape=RoundedRectangle|*
%AMROUNDEDRECTD98*
21,1,1.6000,0.8000,0,0,270.0*
21,1,0.8000,1.6000,0,0,270.0*
1,1,0.8000,-0.4000,-0.4000*
1,1,0.8000,-0.4000,0.4000*
1,1,0.8000,0.4000,0.4000*
1,1,0.8000,0.4000,-0.4000*
%
%ADD98ROUNDEDRECTD98*%
%ADD99C,1.5200*%
%ADD100C,1.2700*%
%ADD101C,0.9144*%
%ADD102C,0.6096*%
%ADD103C,0.2032*%
D14*
X390187Y483333D02*
Y568663D01*
X372110Y586740D02*
X390187Y568663D01*
X291940Y740390D02*
X292100Y740230D01*
X351173Y442909D02*
X391160Y402922D01*
Y393955D02*
X451105Y334010D01*
X391160Y393955D02*
Y402922D01*
X336804Y586486D02*
X345694D01*
X336550Y586740D02*
X336804Y586486D01*
X461050Y536956D02*
X472734Y548640D01*
X452485Y536956D02*
X461050D01*
X374947Y489646D02*
Y557233D01*
X445516Y529987D02*
X452485Y536956D01*
X445516Y519176D02*
Y529987D01*
X369388Y462534D02*
X390187Y483333D01*
X344170Y595194D02*
X380027Y559337D01*
X363076Y477774D02*
X374947Y489646D01*
X359725Y586823D02*
X385107Y561441D01*
X365180Y472694D02*
X380027Y487541D01*
Y559337D01*
X367284Y467614D02*
X385107Y485437D01*
Y561441D01*
X345895Y599653D02*
Y606245D01*
X344170Y597928D02*
X345895Y599653D01*
X344170Y595194D02*
Y597928D01*
X345895Y606245D02*
X346964Y607314D01*
X358152Y593670D02*
X358341Y593859D01*
Y599641D02*
X359410Y600710D01*
X358341Y593859D02*
Y599641D01*
X358152Y591566D02*
Y593670D01*
Y591566D02*
X359725Y589993D01*
Y586823D02*
Y589993D01*
X413004Y399539D02*
Y478620D01*
X427482Y493098D01*
Y501142D01*
X445516Y519176D01*
X445513Y367030D02*
X453390D01*
X462280Y358140D01*
X413004Y399539D02*
X445513Y367030D01*
X455314Y344170D02*
X509270D01*
X537210Y316230D01*
X529590Y349250D02*
X561340Y317500D01*
X456827Y349250D02*
X529590D01*
X561340Y317500D02*
X562610D01*
Y316230D02*
Y317500D01*
X408432Y397645D02*
X456827Y349250D01*
X399288Y393012D02*
Y401978D01*
X408432Y397645D02*
Y407202D01*
X366776Y448858D02*
X408432Y407202D01*
X356253Y445013D02*
X399288Y401978D01*
X361333Y447118D02*
X403860Y404590D01*
X399288Y393012D02*
X453209Y339090D01*
X403860Y394982D02*
Y404590D01*
Y394982D02*
X419462Y379380D01*
X420104D01*
X455314Y344170D01*
X453209Y339090D02*
X488950D01*
X451105Y334010D02*
X468630D01*
X486410Y316230D01*
X351173Y466593D02*
X362354Y477774D01*
X363076D01*
X361333Y462384D02*
X366562Y467614D01*
X356253Y464488D02*
X364458Y472694D01*
X366562Y467614D02*
X367284D01*
X364458Y472694D02*
X365180D01*
X361333Y447118D02*
Y462384D01*
X366776Y459922D02*
X369388Y462534D01*
X369388D01*
X351173Y442909D02*
Y466593D01*
X356253Y445013D02*
Y464488D01*
X366776Y448858D02*
Y459922D01*
X345694Y586486D02*
X374947Y557233D01*
X476544Y548640D02*
X476916Y548268D01*
X483628Y543560D02*
X485140D01*
X478920Y548268D02*
X483628Y543560D01*
X476916Y548268D02*
X478920D01*
X472734Y548640D02*
X476544D01*
X488950Y339090D02*
X511810Y316230D01*
D17*
X939449Y574134D02*
G03*
X921446Y560870I-7269J-8984D01*
G01*
X920776Y558835D02*
X920776Y558836D01*
X493630Y83820D02*
X546354D01*
X554990Y75184D01*
X458070Y48260D02*
X493630Y83820D01*
X641984Y558166D02*
X920107D01*
X479769Y617474D02*
X582676D01*
X641984Y558166D01*
X580782Y612902D02*
X640090Y553594D01*
X934679D01*
X478593Y612902D02*
X580782D01*
X552450Y543560D02*
X835660Y260350D01*
X337820Y673100D02*
X412750D01*
X427990Y657860D01*
X326390Y491490D02*
X335280Y482600D01*
X246723Y591477D02*
X344170Y494030D01*
Y492760D02*
Y494030D01*
X246723Y591477D02*
Y691267D01*
X477520Y532130D02*
X518262D01*
X473710Y528320D02*
X477520Y532130D01*
X454985Y528320D02*
X473710D01*
X471424Y536194D02*
X536289D01*
X471170Y535940D02*
X471424Y536194D01*
X427990Y657860D02*
X441960D01*
X555600Y494792D02*
X569366D01*
X665058Y361102D02*
Y382590D01*
X518262Y532130D02*
X555600Y494792D01*
X570636Y477012D02*
X665058Y382590D01*
X463550Y514350D02*
X528422D01*
X565760Y477012D01*
X570636D01*
X546862Y525621D02*
X862933Y209550D01*
X538321Y534162D02*
X542696D01*
X540004Y538226D02*
X544379D01*
X536289Y536194D02*
X538321Y534162D01*
X542696D02*
X546862Y529996D01*
X544830Y545433D02*
Y570230D01*
X544379Y538226D02*
X550926Y531679D01*
X500380Y577850D02*
X540004Y538226D01*
X550926Y527304D02*
Y531679D01*
X546862Y525621D02*
Y529996D01*
X569366Y494792D02*
X880008Y184150D01*
X862933Y209550D02*
X932180D01*
X550926Y527304D02*
X859790Y218440D01*
X544830Y545433D02*
X554990Y535273D01*
Y532130D02*
Y535273D01*
Y532130D02*
X838326Y248794D01*
X552450Y543560D02*
Y585470D01*
X533917Y689102D02*
X823652D01*
X471664Y626850D02*
X533917Y689102D01*
X580043Y600710D02*
X765463Y415290D01*
X578889Y608330D02*
X766849Y420370D01*
X555606Y593090D02*
X741026Y407670D01*
X523240Y469900D02*
X567690D01*
X524170Y673608D02*
X675650D01*
X473348Y622785D02*
X524170Y673608D01*
X675650D02*
X676882Y674840D01*
X834390D01*
X823652Y689102D02*
X834390Y699840D01*
X456352Y663362D02*
X556618Y763628D01*
X455709Y663362D02*
X456352D01*
X396079Y614492D02*
Y614833D01*
X387884Y605790D02*
Y606298D01*
X396079Y614492D01*
Y614833D02*
X400384Y619139D01*
X417694D01*
X433962Y605790D02*
X441740Y613568D01*
X406400Y605790D02*
X433962D01*
X404301Y584200D02*
X408341Y580160D01*
X389890Y584200D02*
X404301D01*
X408341Y580160D02*
X409170D01*
X424513Y595504D02*
X425680Y596670D01*
X336550Y408958D02*
Y453390D01*
X332740Y405148D02*
X336550Y408958D01*
X332740Y403860D02*
Y405148D01*
X335280Y454660D02*
X336550Y453390D01*
X335280Y473176D02*
Y482600D01*
X764475Y194310D02*
X766420Y196255D01*
Y196826D02*
X769620Y200026D01*
Y201676D01*
X766420Y196255D02*
Y196826D01*
X651579Y194310D02*
X764475D01*
X768756Y187198D02*
X778764Y197206D01*
X651183Y187198D02*
X768756D01*
X778764Y197206D02*
Y203396D01*
X680901Y213360D02*
X768800D01*
X778764Y203396D01*
X648970Y205740D02*
X740410D01*
X656102Y238160D02*
X680901Y213360D01*
X630702Y224008D02*
X648970Y205740D01*
X626638Y219251D02*
X651579Y194310D01*
X551962Y286420D02*
X651183Y187198D01*
X802640Y222250D02*
Y251460D01*
X477418Y608330D02*
X578889D01*
X456968Y609794D02*
X465896Y618722D01*
X478521D01*
X485794Y600710D02*
X580043D01*
X478521Y618722D02*
X479769Y617474D01*
X500546Y593090D02*
X555606D01*
X310515Y353695D02*
Y409575D01*
X309880Y353060D02*
X310515Y353695D01*
X265430Y581660D02*
Y681990D01*
X222410Y725010D02*
X265430Y681990D01*
X222410Y725010D02*
Y740410D01*
X271940Y585926D02*
Y739140D01*
X271940Y585926D02*
X317811Y540056D01*
X222410Y740410D02*
Y764300D01*
X601726Y83820D02*
X668332D01*
X593090Y75184D02*
X601726Y83820D01*
X526342Y718112D02*
X581618Y773388D01*
X467360Y661670D02*
X523802Y718112D01*
X526342D01*
X490220Y589280D02*
X496736D01*
X500546Y593090D01*
X479508Y581198D02*
X479552Y581242D01*
Y594468D01*
X464747Y567763D02*
X484731D01*
X487249Y570281D01*
X457200Y575310D02*
X464747Y567763D01*
X487249Y570281D02*
X488899D01*
X479552Y594468D02*
X485794Y600710D01*
X486410Y577850D02*
X500380D01*
X480387Y571827D02*
X486410Y577850D01*
X466417Y582603D02*
X474980Y591166D01*
X470881Y571827D02*
X480387D01*
X474980Y591166D02*
Y595354D01*
X466417Y576291D02*
Y582603D01*
Y576291D02*
X470881Y571827D01*
X473151Y597182D02*
X474980Y595354D01*
X473151Y597182D02*
Y602539D01*
X472209Y603481D02*
X473151Y602539D01*
X461032Y604005D02*
Y608111D01*
X448840Y609773D02*
Y613161D01*
X450088Y586594D02*
X465097Y601603D01*
X427482Y588415D02*
X448840Y609773D01*
X452905Y608090D02*
Y611478D01*
X440690Y583662D02*
X461032Y604005D01*
X465097Y601603D02*
Y606427D01*
X435610Y585048D02*
X456968Y606406D01*
X431546Y586731D02*
X452905Y608090D01*
X456968Y606406D02*
Y609794D01*
X467579Y614658D02*
X476838D01*
X469263Y610593D02*
X475154D01*
X465097Y606427D02*
X469263Y610593D01*
X461032Y608111D02*
X467579Y614658D01*
X462529Y626850D02*
X471664D01*
X448840Y613161D02*
X462529Y626850D01*
X464212Y622785D02*
X473348D01*
X452905Y611478D02*
X464212Y622785D01*
X475154Y610593D02*
X477418Y608330D01*
X476838Y614658D02*
X478593Y612902D01*
X450088Y549910D02*
X455168Y544830D01*
X450088Y549910D02*
Y586594D01*
X423418Y584351D02*
Y590098D01*
X424513Y591193D01*
X398780Y559713D02*
X423418Y584351D01*
X424513Y591193D02*
Y595504D01*
X398780Y532130D02*
Y559713D01*
X435610Y524510D02*
Y585048D01*
X419608Y556768D02*
X431546Y568706D01*
Y586731D01*
X440690Y520457D02*
Y583662D01*
X405892Y517652D02*
Y561077D01*
X419608Y548640D02*
X419608Y548640D01*
Y556768D01*
X405892Y561077D02*
X427482Y582667D01*
Y588415D01*
X397271Y486171D02*
X435610Y524510D01*
X416875Y496642D02*
X440690Y520457D01*
X392894Y470364D02*
X397271Y474741D01*
X393060Y464783D02*
X416875Y488598D01*
X397271Y474741D02*
Y486171D01*
X393060Y452671D02*
Y464783D01*
X391870Y451480D02*
X393060Y452671D01*
X374782Y451480D02*
X391870D01*
X401320Y513080D02*
X405892Y517652D01*
X359586Y485420D02*
Y486067D01*
X354881Y490772D02*
X359586Y486067D01*
X320036Y540056D02*
X367073Y493019D01*
X265430Y581660D02*
X354881Y492209D01*
X148050Y789940D02*
X246723Y691267D01*
X354881Y490772D02*
Y492209D01*
X317811Y540056D02*
X320036D01*
X570708Y802052D02*
X838788D01*
X556618Y787962D02*
X570708Y802052D01*
X556618Y763628D02*
Y787962D01*
X838788Y802052D02*
X853440Y787400D01*
X591644Y797988D02*
X807826D01*
X818414Y787400D01*
X828440D01*
X581618Y773388D02*
Y787962D01*
X591644Y797988D01*
X565150Y487680D02*
X566420D01*
X802640Y251460D01*
X880008Y184150D02*
X932180D01*
X835660Y260350D02*
X932180D01*
X838326Y248794D02*
X936967D01*
X616636Y503504D02*
X741680Y378460D01*
X915670Y218440D02*
X932180Y234950D01*
X859790Y218440D02*
X915670D01*
X416875Y488598D02*
Y496642D01*
X497483Y480060D02*
X542290D01*
X490728Y481068D02*
X496816Y474980D01*
X518160D02*
X523240Y469900D01*
X496816Y474980D02*
X518160D01*
X651510Y328444D02*
Y349213D01*
X615710Y390760D02*
X655574Y350896D01*
X647446Y294141D02*
Y347529D01*
X610660Y378568D02*
X643382Y345846D01*
X659638Y341122D02*
Y352579D01*
X655574Y330127D02*
Y350896D01*
X614026Y386696D02*
X651510Y349213D01*
X643382Y295824D02*
Y345846D01*
X617393Y394824D02*
X659638Y352579D01*
X612343Y382632D02*
X647446Y347529D01*
X659638Y341122D02*
X736600Y264160D01*
X655574Y330127D02*
X732189Y253512D01*
X736907D01*
X662339Y278618D02*
X677759D01*
X717617Y238760D02*
X736600D01*
X677759Y278618D02*
X717617Y238760D01*
X626638Y279080D02*
X643382Y295824D01*
X630702Y277397D02*
X647446Y294141D01*
X641350Y252911D02*
X651998Y263559D01*
X656102Y272381D02*
X662339Y278618D01*
X656102Y238160D02*
Y272381D01*
X651998Y263559D02*
Y327956D01*
X630702Y224008D02*
Y277397D01*
X626638Y219251D02*
Y279080D01*
X641350Y242570D02*
Y252911D01*
X665058Y361102D02*
X762000Y264160D01*
X651510Y328444D02*
X651998Y327956D01*
X751658Y238760D02*
X762000D01*
X736907Y253512D02*
X751658Y238760D01*
X537718Y393192D02*
X607531D01*
X453644Y378714D02*
X518444D01*
X566168Y378568D02*
X610660D01*
X492327Y438583D02*
X537718Y393192D01*
X603504Y397256D02*
X609214D01*
X563660Y374504D02*
X604666D01*
X534924Y465836D02*
X603504Y397256D01*
X566750Y385064D02*
X569182Y382632D01*
X612343D01*
X536035Y389128D02*
X568433D01*
X570865Y386696D02*
X614026D01*
X568433Y389128D02*
X570865Y386696D01*
X438912Y459683D02*
X515817Y382778D01*
X521905Y381000D02*
X563736D01*
X518444Y378714D02*
X520222Y376936D01*
X607531Y393192D02*
X609962Y390760D01*
X434384Y474269D02*
X523589Y385064D01*
X446830Y478333D02*
X536035Y389128D01*
X515817Y382778D02*
X520127D01*
X523589Y385064D02*
X566750D01*
X520127Y382778D02*
X521905Y381000D01*
X563736D02*
X566168Y378568D01*
X561228Y376936D02*
X563660Y374504D01*
X520222Y376936D02*
X561228D01*
X433013Y474269D02*
X434384D01*
X427990Y469246D02*
X433013Y474269D01*
X453390Y378460D02*
X453644Y378714D01*
X522551Y371348D02*
X573258Y320640D01*
X450444Y371348D02*
X522551D01*
X680720Y228600D02*
X704850D01*
X666750Y242570D02*
X680720Y228600D01*
X551962Y295240D02*
X560252Y303530D01*
X609962Y390760D02*
X615710D01*
X628650Y341630D02*
Y350520D01*
X604666Y374504D02*
X628650Y350520D01*
X611646Y394824D02*
X617393D01*
X609214Y397256D02*
X611646Y394824D01*
X420370Y473710D02*
X424993Y478333D01*
X446830D01*
X430990Y453260D02*
Y461048D01*
Y453260D02*
X431330Y452920D01*
X427990Y464048D02*
X430990Y461048D01*
X388353Y470364D02*
X392894D01*
X381794Y463804D02*
X388353Y470364D01*
X427990Y464048D02*
Y469246D01*
X492327Y438583D02*
Y442393D01*
X451460Y502412D02*
X482956Y470916D01*
X500880D02*
X505960Y465836D01*
X482956Y470916D02*
X500880D01*
X505960Y465836D02*
X534924D01*
X445770Y488950D02*
X492327Y442393D01*
X431800Y495198D02*
X439014Y502412D01*
X451460D01*
X431800Y486410D02*
Y495198D01*
X420370Y401422D02*
X450444Y371348D01*
X420370Y401422D02*
Y402590D01*
X472440Y497840D02*
X481076Y489204D01*
X482600Y481330D02*
X482862Y481068D01*
X490728D01*
X573258Y311819D02*
Y320640D01*
X564969Y303530D02*
X573258Y311819D01*
X560252Y303530D02*
X564969D01*
X551962Y286420D02*
Y295240D01*
X441686Y279674D02*
X526054D01*
X311150Y410210D02*
X441686Y279674D01*
X488340Y489204D02*
X497483Y480060D01*
X481076Y489204D02*
X488340D01*
X741680Y365760D02*
Y378460D01*
X727630Y570230D02*
X836930D01*
X726440Y569040D02*
X727630Y570230D01*
X726440Y567690D02*
Y569040D01*
X836930Y570230D02*
X859790Y593090D01*
X803440Y787400D02*
X859790Y731050D01*
Y593090D02*
Y731050D01*
X920776Y558836D02*
X921446Y559505D01*
X947040Y541233D02*
X956097D01*
X921446Y560452D02*
Y560870D01*
X956097Y541233D02*
X957580Y539750D01*
X934679Y553594D02*
X947040Y541233D01*
X920107Y558166D02*
X920776Y558835D01*
X921446Y559505D02*
Y560452D01*
X766849Y420370D02*
X840740D01*
X765463Y415290D02*
X836930D01*
X741026Y407670D02*
X835660D01*
X932180Y311150D01*
X836930Y415290D02*
X905510Y346710D01*
X840740Y420370D02*
X899160Y361950D01*
X374142Y452120D02*
X374782Y451480D01*
X939449Y574134D02*
X939449D01*
X940217Y574134D01*
X940217D02*
X941164Y574134D01*
X310515Y409575D02*
X311150Y410210D01*
X526054Y279674D02*
X537210Y290830D01*
X558070Y46720D02*
X577850Y26940D01*
Y25400D02*
Y26940D01*
X558070Y46720D02*
Y48260D01*
X698040Y54112D02*
X707348D01*
X668332Y83820D02*
X698040Y54112D01*
X707348D02*
X708120Y53340D01*
X941164Y574134D02*
X957580Y590550D01*
X899160Y361950D02*
X932180D01*
X905510Y346710D02*
X922020D01*
X932180Y336550D01*
X943736Y255563D02*
Y265137D01*
X936967Y248794D02*
X943736Y255563D01*
X933663Y275210D02*
X943736Y265137D01*
X933663Y275210D02*
Y284267D01*
X932180Y285750D02*
X933663Y284267D01*
X271940Y739140D02*
X273050Y740250D01*
Y789940D01*
X222410Y764300D02*
X248050Y789940D01*
D24*
X271940Y739140D02*
D03*
X291940D02*
D03*
X222410Y740410D02*
D03*
X242410D02*
D03*
D26*
X406400Y605790D02*
D03*
X387884D02*
D03*
D28*
X335280Y454660D02*
D03*
Y473176D02*
D03*
D81*
X15240Y618490D02*
D03*
X604520Y698500D02*
D03*
X19050Y730250D02*
D03*
X464820Y180340D02*
D03*
X554990Y75184D02*
D03*
X326390Y491490D02*
D03*
X277271Y527608D02*
D03*
X267970Y514350D02*
D03*
X275590Y494030D02*
D03*
X537210Y523240D02*
D03*
X577850Y582930D02*
D03*
X562610Y572770D02*
D03*
X552450Y585470D02*
D03*
X567690Y469900D02*
D03*
X454660Y256540D02*
D03*
X543560Y680720D02*
D03*
X441960Y657860D02*
D03*
X455709Y663362D02*
D03*
X417694Y619139D02*
D03*
X389890Y584200D02*
D03*
X372110Y586740D02*
D03*
X425680Y596670D02*
D03*
X441740Y613568D02*
D03*
X256540Y486410D02*
D03*
X332740Y403860D02*
D03*
X769620Y201676D02*
D03*
X740410Y205740D02*
D03*
X802640Y222250D02*
D03*
X530860Y636270D02*
D03*
X544830Y570230D02*
D03*
X123190Y553720D02*
D03*
X309880Y353060D02*
D03*
X593090Y75184D02*
D03*
X107421Y530536D02*
D03*
X336550Y586740D02*
D03*
X467360Y661670D02*
D03*
X490220Y589280D02*
D03*
X479508Y581198D02*
D03*
X472209Y603481D02*
D03*
X488899Y570281D02*
D03*
X457200Y575310D02*
D03*
X471170Y535940D02*
D03*
X455168Y544830D02*
D03*
X454985Y528320D02*
D03*
X409170Y580160D02*
D03*
X416306Y588009D02*
D03*
X419608Y548640D02*
D03*
X398780Y532130D02*
D03*
X401320Y513080D02*
D03*
X359586Y485420D02*
D03*
X367073Y493019D02*
D03*
X344170Y492760D02*
D03*
X565150Y487680D02*
D03*
X616636Y503504D02*
D03*
X542290Y480060D02*
D03*
X704850Y228600D02*
D03*
X628650Y341630D02*
D03*
X359410Y600710D02*
D03*
X346964Y607314D02*
D03*
X420370Y473710D02*
D03*
X431330Y452920D02*
D03*
X438912Y459683D02*
D03*
X445770Y488950D02*
D03*
X431800Y486410D02*
D03*
X420370Y402590D02*
D03*
X453390Y378460D02*
D03*
X472440Y497840D02*
D03*
X482600Y481330D02*
D03*
X463550Y514350D02*
D03*
X741680Y365760D02*
D03*
X726440Y567690D02*
D03*
X462280Y358140D02*
D03*
X374142Y452120D02*
D03*
X381794Y463804D02*
D03*
X485140Y543560D02*
D03*
X311150Y410210D02*
D03*
X577850Y25400D02*
D03*
D83*
X292100Y712470D02*
Y740230D01*
X338290Y805180D02*
X413650D01*
X431600Y787230D01*
X242410Y726600D02*
Y740410D01*
Y726600D02*
X256540Y712470D01*
X323050Y771500D02*
Y789940D01*
X291940Y740390D02*
X323050Y771500D01*
Y789940D02*
X338290Y805180D01*
D88*
X224790Y30480D02*
D03*
X81280Y802640D02*
D03*
X182880Y30480D02*
D03*
D89*
X116360Y139440D02*
D03*
X58360D02*
D03*
D90*
X86360Y91440D02*
D03*
D91*
X273050Y789940D02*
D03*
X835660Y537210D02*
D03*
X621030Y787400D02*
D03*
X708120Y53340D02*
D03*
X758120D02*
D03*
X808120D02*
D03*
X833120D02*
D03*
X783120D02*
D03*
X683120D02*
D03*
X733120D02*
D03*
X458070Y48260D02*
D03*
X508070D02*
D03*
X558070D02*
D03*
X583070D02*
D03*
X533070D02*
D03*
X433070D02*
D03*
X483070D02*
D03*
X148050Y789940D02*
D03*
X173050D02*
D03*
X198050D02*
D03*
X223050D02*
D03*
X298050D02*
D03*
X248050D02*
D03*
X496030Y787400D02*
D03*
X521030D02*
D03*
X546030D02*
D03*
X571030D02*
D03*
X646030D02*
D03*
X596030D02*
D03*
X828440D02*
D03*
X803440D02*
D03*
X778440D02*
D03*
X753440D02*
D03*
X834390Y699840D02*
D03*
Y674840D02*
D03*
Y649840D02*
D03*
X835660Y512210D02*
D03*
Y487210D02*
D03*
X836930Y325120D02*
D03*
Y350120D02*
D03*
Y375120D02*
D03*
D92*
X853440Y787400D02*
D03*
X658120Y53340D02*
D03*
X408070Y48260D02*
D03*
X323050Y789940D02*
D03*
X671030Y787400D02*
D03*
D93*
X57480Y700480D02*
D03*
Y650480D02*
D03*
D94*
X431600Y787230D02*
D03*
D95*
X406600D02*
D03*
D96*
X834390Y624840D02*
D03*
X835660Y462210D02*
D03*
X836930Y300120D02*
D03*
D97*
X932180Y463550D02*
D03*
X957580D02*
D03*
X932180Y438150D02*
D03*
Y412750D02*
D03*
X957580Y438150D02*
D03*
Y412750D02*
D03*
X932180Y311150D02*
D03*
Y285750D02*
D03*
X957580Y311150D02*
D03*
Y285750D02*
D03*
X932180Y184150D02*
D03*
X957580Y209550D02*
D03*
X932180D02*
D03*
X957580Y234950D02*
D03*
X932180D02*
D03*
X957580Y260350D02*
D03*
X932180D02*
D03*
X957580Y336550D02*
D03*
X932180D02*
D03*
X957580Y361950D02*
D03*
Y387350D02*
D03*
X932180Y361950D02*
D03*
Y387350D02*
D03*
X957580Y488950D02*
D03*
Y514350D02*
D03*
Y539750D02*
D03*
Y565150D02*
D03*
X932180Y488950D02*
D03*
Y514350D02*
D03*
Y539750D02*
D03*
Y565150D02*
D03*
X957580Y590550D02*
D03*
Y641350D02*
D03*
Y666750D02*
D03*
X932180Y590550D02*
D03*
Y615950D02*
D03*
Y641350D02*
D03*
Y666750D02*
D03*
X957580Y615950D02*
D03*
D98*
Y184150D02*
D03*
D99*
X486410Y290830D02*
D03*
Y316230D02*
D03*
X511810Y290830D02*
D03*
Y316230D02*
D03*
X537210Y290830D02*
D03*
Y316230D02*
D03*
X562610Y290830D02*
D03*
Y316230D02*
D03*
X666750Y267970D02*
D03*
Y242570D02*
D03*
X641350Y267970D02*
D03*
Y242570D02*
D03*
X762000Y264160D02*
D03*
Y238760D02*
D03*
X736600Y264160D02*
D03*
Y238760D02*
D03*
D100*
X49530Y382270D02*
D03*
X36830Y461010D02*
D03*
X130810Y262890D02*
D03*
X57150Y232410D02*
D03*
X237490Y283210D02*
D03*
X359410Y68580D02*
D03*
X330200Y172720D02*
D03*
X162560Y262890D02*
D03*
X33020Y233680D02*
D03*
X92964Y572770D02*
D03*
X173990Y568960D02*
D03*
X251460Y504190D02*
D03*
X104140Y60960D02*
D03*
X172720Y508000D02*
D03*
X177800Y415290D02*
D03*
X127360Y81280D02*
D03*
X125730Y60960D02*
D03*
X773430Y368300D02*
D03*
X774700Y431800D02*
D03*
X615950Y147320D02*
D03*
X600710Y645160D02*
D03*
X591820Y180086D02*
D03*
X721402Y174474D02*
D03*
X604520Y622300D02*
D03*
X256540Y712470D02*
D03*
X292100D02*
D03*
X494030Y102870D02*
D03*
X624840Y105410D02*
D03*
X739140Y102870D02*
D03*
X854710Y114300D02*
D03*
X716280Y119380D02*
D03*
X594360Y106680D02*
D03*
X491490Y140970D02*
D03*
X312420Y209550D02*
D03*
X166370Y220980D02*
D03*
X741680Y601980D02*
D03*
X36830Y81280D02*
D03*
X201930Y92710D02*
D03*
Y68580D02*
D03*
X60960Y209550D02*
D03*
X35560Y210820D02*
D03*
X78740Y60960D02*
D03*
X58420D02*
D03*
X35560D02*
D03*
D101*
X425450Y307340D02*
D03*
X232410Y609600D02*
D03*
X544830Y421640D02*
D03*
X490220Y459740D02*
D03*
X486410Y523240D02*
D03*
X337820Y673100D02*
D03*
D102*
X322419Y447387D02*
D03*
X267970Y544830D02*
D03*
X256540Y571500D02*
D03*
X322580Y506730D02*
D03*
X317101Y611800D02*
D03*
X318025Y603250D02*
D03*
D103*
X921446Y560452D02*
D03*
X940217Y574134D02*
D03*
M02*
