G04*
G04 #@! TF.GenerationSoftware,Altium Limited,Altium Designer,24.2.2 (26)*
G04*
G04 Layer_Color=32768*
%FSLAX44Y44*%
%MOMM*%
G71*
G04*
G04 #@! TF.SameCoordinates,251A4116-46B9-4EB5-9C36-AF9AACF17162*
G04*
G04*
G04 #@! TF.FilePolarity,Positive*
G04*
G01*
G75*
%ADD12C,0.2000*%
%ADD104C,0.1000*%
%ADD105C,0.0500*%
%ADD106C,0.0508*%
G36*
X275690Y331420D02*
Y328320D01*
X266690D01*
Y331420D01*
X266690D01*
Y338420D01*
X275690D01*
Y331420D01*
D02*
G37*
G36*
X275690Y265430D02*
X275690D01*
Y258427D01*
X266690D01*
Y262220D01*
X266690D01*
Y268520D01*
X275690D01*
Y265430D01*
D02*
G37*
G36*
X287690Y259027D02*
X287931Y259016D01*
X288264Y258668D01*
X288264Y258186D01*
X287931Y257838D01*
X287691Y257828D01*
X287450Y257838D01*
X287117Y258186D01*
X287116Y258668D01*
X287449Y259016D01*
X287690Y259027D01*
Y259027D01*
D02*
G37*
G36*
X405230Y280670D02*
X405230D01*
Y273667D01*
X396230D01*
Y277460D01*
X396230D01*
Y283760D01*
X405230D01*
Y280670D01*
D02*
G37*
G36*
X417230Y274266D02*
X416989Y274256D01*
X416656Y273908D01*
X416657Y273426D01*
X416990Y273078D01*
X417231Y273068D01*
X417471Y273078D01*
X417804Y273426D01*
X417804Y273908D01*
X417471Y274256D01*
X417230Y274266D01*
X417230Y274266D01*
D02*
G37*
G36*
X405230Y346660D02*
Y343560D01*
X396230D01*
Y346660D01*
X396230D01*
Y353660D01*
X405230D01*
Y346660D01*
D02*
G37*
D12*
X19459Y587301D02*
X74521D01*
Y558239D02*
Y587301D01*
X19459Y558239D02*
X74521D01*
X19459D02*
Y587301D01*
X140180Y441829D02*
Y519871D01*
X73180Y441829D02*
X140180D01*
X73180D02*
Y519871D01*
X140180D01*
X315350Y712560D02*
Y740560D01*
X332350D01*
Y712560D02*
Y740560D01*
X315350Y712560D02*
X332350D01*
X414900Y713710D02*
Y741710D01*
X397900Y713710D02*
X414900D01*
X397900D02*
Y741710D01*
X414900D01*
X548331Y717631D02*
X591393D01*
Y692069D02*
Y717631D01*
X548331Y692069D02*
X591393D01*
X548331D02*
Y717631D01*
X774619Y603677D02*
Y646739D01*
X800181D01*
Y603677D02*
Y646739D01*
X774619Y603677D02*
X800181D01*
X222169Y447099D02*
X247731D01*
Y490161D01*
X222169D02*
X247731D01*
X222169Y447099D02*
Y490161D01*
X82140Y378660D02*
X126140D01*
X82140D02*
Y403660D01*
X126140D01*
Y378660D02*
Y403660D01*
X345490Y743210D02*
X383490D01*
Y712210D02*
Y743210D01*
X345490Y712210D02*
X383490D01*
X345490D02*
Y743210D01*
X793100Y129430D02*
Y181430D01*
X826600D01*
Y129430D02*
Y181430D01*
X793100Y129430D02*
X826600D01*
X673570D02*
Y181430D01*
X707070D01*
Y129430D02*
Y181430D01*
X673570Y129430D02*
X707070D01*
X325201Y246439D02*
Y289501D01*
X299639Y246439D02*
X325201D01*
X299639D02*
Y289501D01*
X325201D01*
X222410Y115469D02*
X268472D01*
X222410D02*
Y138531D01*
X268472D01*
Y115469D02*
Y138531D01*
X224619Y72289D02*
X270681D01*
X224619D02*
Y95351D01*
X270681D01*
Y72289D02*
Y95351D01*
X193945Y149530D02*
Y218770D01*
Y149530D02*
X278495D01*
Y218770D01*
X193945D02*
X278495D01*
X456011Y315921D02*
Y358983D01*
X430449Y315921D02*
X456011D01*
X430449D02*
Y358983D01*
X456011D01*
X218521Y276919D02*
Y319981D01*
X192959Y276919D02*
X218521D01*
X192959D02*
Y319981D01*
X218521D01*
X24839Y529181D02*
X53901D01*
X24839Y474119D02*
Y529181D01*
Y474119D02*
X53901D01*
Y529181D01*
X535097Y368219D02*
X578159D01*
X535097D02*
Y393781D01*
X578159D01*
Y368219D02*
Y393781D01*
X585411Y632379D02*
Y657941D01*
X542349D02*
X585411D01*
X542349Y632379D02*
Y657941D01*
Y632379D02*
X585411D01*
X75339Y195019D02*
X130401D01*
X75339D02*
Y224081D01*
X130401D01*
Y195019D02*
Y224081D01*
X154049Y95383D02*
X173611D01*
X154049Y61221D02*
Y95383D01*
Y61221D02*
X173611D01*
Y95383D01*
X487739Y393781D02*
X530801D01*
Y368219D02*
Y393781D01*
X487739Y368219D02*
X530801D01*
X487739D02*
Y393781D01*
X544749Y501709D02*
Y544771D01*
X570311D01*
Y501709D02*
Y544771D01*
X544749Y501709D02*
X570311D01*
X662174Y159056D02*
Y202118D01*
X636612Y159056D02*
X662174D01*
X636612D02*
Y202118D01*
X662174D01*
X145850Y276450D02*
Y320450D01*
X120850Y276450D02*
X145850D01*
X120850D02*
Y320450D01*
X145850D01*
X314399Y105819D02*
Y160881D01*
X343461D01*
Y105819D02*
Y160881D01*
X314399Y105819D02*
X343461D01*
X38890Y256889D02*
Y334931D01*
X105890D01*
Y256889D02*
Y334931D01*
X38890Y256889D02*
X105890D01*
X150501Y141531D02*
X205563D01*
Y112469D02*
Y141531D01*
X150501Y112469D02*
X205563D01*
X150501D02*
Y141531D01*
X147670Y200150D02*
X181660D01*
Y168150D02*
Y200150D01*
X147670Y168150D02*
X181660D01*
X147670D02*
Y200150D01*
X215201Y232789D02*
Y252351D01*
X181039D02*
X215201D01*
X181039Y232789D02*
Y252351D01*
Y232789D02*
X215201D01*
X754299Y103297D02*
Y146359D01*
X779861D01*
Y103297D02*
Y146359D01*
X754299Y103297D02*
X779861D01*
X636612Y100389D02*
X662174D01*
Y143451D01*
X636612D02*
X662174D01*
X636612Y100389D02*
Y143451D01*
X514269Y95833D02*
Y138895D01*
X539831D01*
Y95833D02*
Y138895D01*
X514269Y95833D02*
X539831D01*
X388656Y103098D02*
Y146160D01*
X414218D01*
Y103098D02*
Y146160D01*
X388656Y103098D02*
X414218D01*
X192959Y378887D02*
Y421949D01*
X218521D01*
Y378887D02*
Y421949D01*
X192959Y378887D02*
X218521D01*
X585411Y594279D02*
Y619841D01*
X542349D02*
X585411D01*
X542349Y594279D02*
Y619841D01*
Y594279D02*
X585411D01*
X182961Y276919D02*
Y319981D01*
X157399Y276919D02*
X182961D01*
X157399D02*
Y319981D01*
X182961D01*
X388656Y204827D02*
X414218D01*
X388656Y161765D02*
Y204827D01*
Y161765D02*
X414218D01*
Y204827D01*
X628223Y368219D02*
Y393781D01*
X585161D02*
X628223D01*
X585161Y368219D02*
Y393781D01*
Y368219D02*
X628223D01*
X212970Y558650D02*
Y586650D01*
X195970Y558650D02*
X212970D01*
X195970D02*
Y586650D01*
X212970D01*
X777159Y451811D02*
Y494873D01*
X802721D01*
Y451811D02*
Y494873D01*
X777159Y451811D02*
X802721D01*
X227490Y572220D02*
X247490D01*
X227490Y535220D02*
Y572220D01*
Y535220D02*
X247490D01*
Y572220D01*
X68521Y727629D02*
Y753191D01*
X25459D02*
X68521D01*
X25459Y727629D02*
Y753191D01*
Y727629D02*
X68521D01*
X195970Y505430D02*
X212970D01*
Y533430D01*
X195970D02*
X212970D01*
X195970Y505430D02*
Y533430D01*
X550380Y124874D02*
X583880D01*
Y176873D01*
X550380D02*
X583880D01*
X550380Y124874D02*
Y176873D01*
X423230Y131970D02*
X456730D01*
Y183970D01*
X423230D02*
X456730D01*
X423230Y131970D02*
Y183970D01*
X512999Y188792D02*
X538561D01*
X512999Y145730D02*
Y188792D01*
Y145730D02*
X538561D01*
Y188792D01*
X780969Y299779D02*
X806531D01*
Y342841D01*
X780969D02*
X806531D01*
X780969Y299779D02*
Y342841D01*
D104*
X38980Y675480D02*
X48980D01*
X43980Y670480D02*
Y680480D01*
X40620Y602020D02*
Y607020D01*
X38120Y604520D02*
X43120D01*
X778510Y734140D02*
Y744140D01*
X773510Y739140D02*
X783510D01*
X665560Y647700D02*
X675560D01*
X670560Y642700D02*
Y652700D01*
X408260Y527330D02*
Y537330D01*
X403260Y532330D02*
X413260D01*
X673100Y318850D02*
Y328850D01*
X668100Y323850D02*
X678100D01*
X672940Y360760D02*
Y370760D01*
X667940Y365760D02*
X677940D01*
X312420Y320120D02*
Y330120D01*
X307420Y325120D02*
X317420D01*
X441960Y275830D02*
Y285830D01*
X436960Y280830D02*
X446960D01*
X485140Y240110D02*
Y250110D01*
X480140Y245110D02*
X490140D01*
X513182Y240110D02*
Y250110D01*
X508182Y245110D02*
X518182D01*
X572770Y238840D02*
Y248840D01*
X567770Y243840D02*
X577770D01*
X542290Y240110D02*
Y250110D01*
X537290Y245110D02*
X547290D01*
X35560Y422950D02*
Y427950D01*
X33060Y425450D02*
X38060D01*
X46990Y355680D02*
Y365680D01*
X41990Y360680D02*
X51990D01*
X328930Y63580D02*
Y73580D01*
X323930Y68580D02*
X333930D01*
X328970Y38100D02*
X333970D01*
X331470Y35600D02*
Y40600D01*
X195660Y467200D02*
X205660D01*
X200660Y462200D02*
Y472200D01*
X856060Y154940D02*
X866060D01*
X861060Y149940D02*
Y159940D01*
D105*
X239990Y30480D02*
G03*
X239990Y30480I-15200J0D01*
G01*
X96480Y802640D02*
G03*
X96480Y802640I-15200J0D01*
G01*
X198080Y30480D02*
G03*
X198080Y30480I-15200J0D01*
G01*
X52860Y134440D02*
Y144440D01*
X47860Y139440D02*
X57860D01*
X127360Y80440D02*
Y186440D01*
X-21640Y80440D02*
X127360D01*
X-21640D02*
Y186440D01*
X127360D01*
X3980Y717480D02*
X65730D01*
X3980Y633480D02*
Y717480D01*
Y633480D02*
X65730D01*
Y717480D01*
X631120Y16840D02*
X860120D01*
X631120D02*
Y79340D01*
X860120D01*
Y16840D02*
Y79340D01*
X381070Y11760D02*
X610070D01*
X381070D02*
Y74260D01*
X610070D01*
Y11760D02*
Y74260D01*
X26920Y599520D02*
Y609520D01*
Y599520D02*
X54320D01*
X26920Y609520D02*
X54320D01*
Y599520D02*
Y609520D01*
X379600Y823730D02*
X458600D01*
Y761230D02*
Y823730D01*
X379600Y761230D02*
X458600D01*
X379600D02*
Y823730D01*
X121050Y763940D02*
Y826440D01*
Y763940D02*
X350050D01*
Y826440D01*
X121050D02*
X350050D01*
X469030Y761400D02*
Y823900D01*
Y761400D02*
X698030D01*
Y823900D01*
X469030D02*
X698030D01*
X726440Y761400D02*
Y823900D01*
Y761400D02*
X880440D01*
Y823900D01*
X726440D02*
X880440D01*
X757510Y751640D02*
X799510D01*
X757510Y726640D02*
X799510D01*
X757510D02*
Y751640D01*
X799510Y726640D02*
Y751640D01*
X808390Y726840D02*
X870890D01*
X808390Y597840D02*
Y726840D01*
Y597840D02*
X870890D01*
Y726840D01*
X619560Y615700D02*
Y679700D01*
X721560Y615700D02*
Y679700D01*
X619560D02*
X721560D01*
X619560Y615700D02*
X721560D01*
X809660Y564210D02*
X872160D01*
X809660Y435210D02*
Y564210D01*
Y435210D02*
X872160D01*
Y564210D01*
X286760Y653830D02*
X529760D01*
X286760Y410830D02*
X529760D01*
Y653830D01*
X286760Y410830D02*
Y653830D01*
X939880Y425450D02*
X949880D01*
X944880Y420450D02*
Y430450D01*
X898380Y-12050D02*
Y862950D01*
X985380D01*
Y-12050D02*
Y862950D01*
X898380Y-12050D02*
X985380D01*
X471210Y334030D02*
X577810D01*
X471210Y273030D02*
Y334030D01*
Y273030D02*
X577810D01*
Y334030D01*
X626150Y224770D02*
X681950D01*
Y285770D01*
X626150D02*
X681950D01*
X626150Y224770D02*
Y285770D01*
X721400Y220960D02*
X777200D01*
Y281960D01*
X721400D02*
X777200D01*
X721400Y220960D02*
Y281960D01*
X652100Y336350D02*
X694100D01*
X652100Y311350D02*
X694100D01*
X652100D02*
Y336350D01*
X694100Y311350D02*
Y336350D01*
X651940Y378260D02*
X693940D01*
X651940Y353260D02*
X693940D01*
X651940D02*
Y378260D01*
X693940Y353260D02*
Y378260D01*
X299920Y346120D02*
X324920D01*
X299920Y304120D02*
X324920D01*
Y346120D01*
X299920Y304120D02*
Y346120D01*
X429460Y301830D02*
X454460D01*
X429460Y259830D02*
X454460D01*
Y301830D01*
X429460Y259830D02*
Y301830D01*
X472640Y224110D02*
X497640D01*
X472640Y266110D02*
X497640D01*
X472640Y224110D02*
Y266110D01*
X497640Y224110D02*
Y266110D01*
X500682Y224110D02*
X525682D01*
X500682Y266110D02*
X525682D01*
X500682Y224110D02*
Y266110D01*
X525682Y224110D02*
Y266110D01*
X560270Y222840D02*
X585270D01*
X560270Y264840D02*
X585270D01*
X560270Y222840D02*
Y264840D01*
X585270Y222840D02*
Y264840D01*
X529790Y224110D02*
X554790D01*
X529790Y266110D02*
X554790D01*
X529790Y224110D02*
Y266110D01*
X554790Y224110D02*
Y266110D01*
X42560Y407950D02*
Y442950D01*
X28560D02*
X42560D01*
X28560Y407950D02*
Y442950D01*
Y407950D02*
X42560D01*
X25990Y348180D02*
X67990D01*
X25990Y373180D02*
X67990D01*
Y348180D02*
Y373180D01*
X25990Y348180D02*
Y373180D01*
X307930Y56080D02*
X349930D01*
X307930Y81080D02*
X349930D01*
Y56080D02*
Y81080D01*
X307930Y56080D02*
Y81080D01*
X313970Y31100D02*
X348970D01*
Y45100D01*
X313970D02*
X348970D01*
X313970Y31100D02*
Y45100D01*
X213160Y446200D02*
Y488200D01*
X188160Y446200D02*
Y488200D01*
X213160D01*
X188160Y446200D02*
X213160D01*
X873560Y133940D02*
Y175940D01*
X848560Y133940D02*
Y175940D01*
X873560D01*
X848560Y133940D02*
X873560D01*
X873430Y273120D02*
Y402120D01*
X810930Y273120D02*
X873430D01*
X810930D02*
Y402120D01*
X873430D01*
D106*
X287690Y268420D02*
Y328420D01*
X254690D02*
X287690D01*
X254690Y268420D02*
Y328420D01*
Y268420D02*
X287690D01*
X417230Y283660D02*
Y343660D01*
X384230D02*
X417230D01*
X384230Y283660D02*
Y343660D01*
Y283660D02*
X417230D01*
M02*
