G04*
G04 #@! TF.GenerationSoftware,Altium Limited,Altium Designer,24.2.2 (26)*
G04*
G04 Layer_Color=32896*
%FSLAX44Y44*%
%MOMM*%
G71*
G04*
G04 #@! TF.SameCoordinates,251A4116-46B9-4EB5-9C36-AF9AACF17162*
G04*
G04*
G04 #@! TF.FilePolarity,Positive*
G04*
G01*
G75*
%ADD12C,0.2000*%
%ADD16C,0.1200*%
%ADD19C,0.1194*%
D12*
X380611Y617571D02*
X413673D01*
X380611Y594009D02*
X413673D01*
X323499Y447387D02*
Y480449D01*
X347061Y447387D02*
Y480449D01*
X280940Y732890D02*
X282940D01*
X280940Y745390D02*
X282940D01*
X231410Y734160D02*
X233410D01*
X231410Y746660D02*
X233410D01*
D16*
X220726Y759460D02*
Y764458D01*
X218227D01*
X217394Y763625D01*
Y761959D01*
X218227Y761126D01*
X220726D01*
X219060D02*
X217394Y759460D01*
X215728Y760293D02*
X214895Y759460D01*
X213228D01*
X212395Y760293D01*
Y763625D01*
X213228Y764458D01*
X214895D01*
X215728Y763625D01*
Y762792D01*
X214895Y761959D01*
X212395D01*
X270256Y758190D02*
Y763188D01*
X267757D01*
X266924Y762355D01*
Y760689D01*
X267757Y759856D01*
X270256D01*
X268590D02*
X266924Y758190D01*
X265258Y762355D02*
X264425Y763188D01*
X262759D01*
X261925Y762355D01*
Y761522D01*
X262759Y760689D01*
X261925Y759856D01*
Y759023D01*
X262759Y758190D01*
X264425D01*
X265258Y759023D01*
Y759856D01*
X264425Y760689D01*
X265258Y761522D01*
Y762355D01*
X264425Y760689D02*
X262759D01*
X312816Y460149D02*
X313649Y459316D01*
Y457649D01*
X312816Y456816D01*
X309484D01*
X308651Y457649D01*
Y459316D01*
X309484Y460149D01*
X308651Y465147D02*
Y461815D01*
X311983Y465147D01*
X312816D01*
X313649Y464314D01*
Y462648D01*
X312816Y461815D01*
X308651Y466813D02*
Y468479D01*
Y467646D01*
X313649D01*
X312816Y466813D01*
D19*
X385796Y630021D02*
X386629Y630854D01*
X388295D01*
X389128Y630021D01*
Y626689D01*
X388295Y625856D01*
X386629D01*
X385796Y626689D01*
X380797Y625856D02*
X384130D01*
X380797Y629188D01*
Y630021D01*
X381631Y630854D01*
X383297D01*
X384130Y630021D01*
X375799Y625856D02*
X379131D01*
X375799Y629188D01*
Y630021D01*
X376632Y630854D01*
X378298D01*
X379131Y630021D01*
M02*
