G04*
G04 #@! TF.GenerationSoftware,Altium Limited,Altium Designer,24.2.2 (26)*
G04*
G04 Layer_Color=65535*
%FSLAX44Y44*%
%MOMM*%
G71*
G04*
G04 #@! TF.SameCoordinates,251A4116-46B9-4EB5-9C36-AF9AACF17162*
G04*
G04*
G04 #@! TF.FilePolarity,Positive*
G04*
G01*
G75*
%ADD10C,0.1270*%
%ADD11C,0.2500*%
%ADD12C,0.2000*%
%ADD13C,0.6000*%
%ADD14C,0.2540*%
%ADD15C,0.4000*%
%ADD16C,0.1200*%
%ADD17C,0.2032*%
%ADD18C,0.1016*%
%ADD19C,0.1194*%
%ADD20C,0.1800*%
%ADD21R,0.8000X4.2000*%
G36*
X712577Y567988D02*
X713192D01*
Y567834D01*
X713653D01*
Y567680D01*
X713961D01*
Y567526D01*
X714422D01*
Y567373D01*
X714730D01*
Y567219D01*
X715191D01*
Y567065D01*
X715499D01*
Y566911D01*
X715806D01*
Y566757D01*
X716114D01*
Y566604D01*
X716268D01*
Y566450D01*
X716575D01*
Y566296D01*
X716883D01*
Y566142D01*
X717190D01*
Y565988D01*
X717344D01*
Y565835D01*
X717652D01*
Y565681D01*
X717805D01*
Y565527D01*
X718113D01*
Y565373D01*
X718267D01*
Y565219D01*
X718574D01*
Y565066D01*
X718728D01*
Y564912D01*
X718882D01*
Y564758D01*
X719190D01*
Y564604D01*
X719343D01*
Y564450D01*
X719497D01*
Y564297D01*
X719651D01*
Y564143D01*
X719805D01*
Y563989D01*
X719958D01*
Y563835D01*
X720266D01*
Y563681D01*
X720420D01*
Y563528D01*
X720574D01*
Y563374D01*
X720727D01*
Y563220D01*
X720881D01*
Y563066D01*
X721035D01*
Y562759D01*
X721189D01*
Y562605D01*
X721343D01*
Y562451D01*
X721496D01*
Y562298D01*
X721650D01*
Y562144D01*
X721804D01*
Y561990D01*
X721958D01*
Y561682D01*
X722112D01*
Y561529D01*
X722265D01*
Y561375D01*
X722419D01*
Y561067D01*
X722573D01*
Y560913D01*
X722727D01*
Y560606D01*
X722880D01*
Y560452D01*
X723034D01*
Y560144D01*
X723188D01*
Y559991D01*
X723342D01*
Y559683D01*
X723496D01*
Y559375D01*
X723650D01*
Y559068D01*
X723803D01*
Y558760D01*
X723957D01*
Y558453D01*
X724111D01*
Y558145D01*
X724265D01*
Y557838D01*
X724418D01*
Y557376D01*
X724572D01*
Y556915D01*
X724726D01*
Y556454D01*
X724880D01*
Y555992D01*
X725034D01*
Y555377D01*
X725187D01*
Y554608D01*
X725341D01*
Y553685D01*
X725495D01*
Y551686D01*
X723188D01*
Y552609D01*
X723034D01*
Y553839D01*
X722880D01*
Y554762D01*
X722727D01*
Y555377D01*
X722573D01*
Y555838D01*
X722419D01*
Y556300D01*
X722265D01*
Y556761D01*
X722112D01*
Y557069D01*
X721958D01*
Y557530D01*
X721804D01*
Y557838D01*
X721650D01*
Y558145D01*
X721496D01*
Y558453D01*
X721343D01*
Y558760D01*
X721189D01*
Y558914D01*
X721035D01*
Y559222D01*
X720881D01*
Y559375D01*
X720727D01*
Y559683D01*
X720574D01*
Y559837D01*
X720420D01*
Y560144D01*
X720266D01*
Y560298D01*
X720112D01*
Y560452D01*
X719958D01*
Y560760D01*
X719805D01*
Y560913D01*
X719651D01*
Y561067D01*
X719497D01*
Y561221D01*
X719343D01*
Y561375D01*
X719190D01*
Y561529D01*
X719036D01*
Y561682D01*
X718882D01*
Y561836D01*
X718728D01*
Y561990D01*
X718574D01*
Y562144D01*
X718421D01*
Y562298D01*
X718267D01*
Y562451D01*
X718113D01*
Y562605D01*
X717959D01*
Y562759D01*
X717805D01*
Y562913D01*
X717652D01*
Y563066D01*
X717344D01*
Y563220D01*
X717190D01*
Y563374D01*
X717037D01*
Y563528D01*
X716729D01*
Y563681D01*
X716575D01*
Y563835D01*
X716268D01*
Y563989D01*
X716114D01*
Y564143D01*
X715806D01*
Y564297D01*
X715499D01*
Y564450D01*
X715345D01*
Y564604D01*
X715037D01*
Y564758D01*
X714730D01*
Y564912D01*
X714422D01*
Y565066D01*
X714115D01*
Y565219D01*
X713807D01*
Y565373D01*
X713346D01*
Y565527D01*
X713038D01*
Y565681D01*
X712577D01*
Y565835D01*
X712115D01*
Y565988D01*
X711808D01*
Y566450D01*
X711962D01*
Y566911D01*
X712115D01*
Y567373D01*
X712269D01*
Y567834D01*
X712423D01*
Y568141D01*
X712577D01*
Y567988D01*
D02*
G37*
G36*
X711654Y564297D02*
X712115D01*
Y564143D01*
X712577D01*
Y563989D01*
X712884D01*
Y563835D01*
X713346D01*
Y563681D01*
X713653D01*
Y563528D01*
X713961D01*
Y563374D01*
X714268D01*
Y563220D01*
X714576D01*
Y563066D01*
X714730D01*
Y562913D01*
X715037D01*
Y562759D01*
X715191D01*
Y562605D01*
X715499D01*
Y562451D01*
X715652D01*
Y562298D01*
X715960D01*
Y562144D01*
X716114D01*
Y561990D01*
X716268D01*
Y561836D01*
X716575D01*
Y561682D01*
X716729D01*
Y561529D01*
X716883D01*
Y561375D01*
X717037D01*
Y561221D01*
X717190D01*
Y561067D01*
X717344D01*
Y560913D01*
X717498D01*
Y560760D01*
X717652D01*
Y560606D01*
X717805D01*
Y560452D01*
X717959D01*
Y560298D01*
X718113D01*
Y560144D01*
X718267D01*
Y559991D01*
X718421D01*
Y559837D01*
X718574D01*
Y559529D01*
X718728D01*
Y559375D01*
X718882D01*
Y559222D01*
X719036D01*
Y558914D01*
X719190D01*
Y558760D01*
X719343D01*
Y558453D01*
X719497D01*
Y558299D01*
X719651D01*
Y557991D01*
X719805D01*
Y557684D01*
X719958D01*
Y557376D01*
X720112D01*
Y557069D01*
X720266D01*
Y556761D01*
X720420D01*
Y556454D01*
X720574D01*
Y555992D01*
X720727D01*
Y555531D01*
X720881D01*
Y555069D01*
X721035D01*
Y554454D01*
X721189D01*
Y553685D01*
X721343D01*
Y551994D01*
X721496D01*
Y551686D01*
X717652D01*
Y551994D01*
X717498D01*
Y553224D01*
X717344D01*
Y553993D01*
X717190D01*
Y554454D01*
X717037D01*
Y554916D01*
X716883D01*
Y555377D01*
X716729D01*
Y555685D01*
X716575D01*
Y555992D01*
X716421D01*
Y556300D01*
X716268D01*
Y556454D01*
X716114D01*
Y556761D01*
X715960D01*
Y556915D01*
X715806D01*
Y557222D01*
X715652D01*
Y557376D01*
X715499D01*
Y557530D01*
X715345D01*
Y557838D01*
X715191D01*
Y557991D01*
X715037D01*
Y558145D01*
X714883D01*
Y558299D01*
X714730D01*
Y558453D01*
X714576D01*
Y558606D01*
X714422D01*
Y558760D01*
X714268D01*
Y558914D01*
X714115D01*
Y559068D01*
X713807D01*
Y559222D01*
X713653D01*
Y559375D01*
X713499D01*
Y559529D01*
X713192D01*
Y559683D01*
X713038D01*
Y559837D01*
X712730D01*
Y559991D01*
X712577D01*
Y560144D01*
X712269D01*
Y560298D01*
X711962D01*
Y560452D01*
X711654D01*
Y560606D01*
X711346D01*
Y560760D01*
X711039D01*
Y560913D01*
X710577D01*
Y561067D01*
X710116D01*
Y561682D01*
X710270D01*
Y562144D01*
X710424D01*
Y562605D01*
X710577D01*
Y562913D01*
X710731D01*
Y563374D01*
X710885D01*
Y563835D01*
X711039D01*
Y564297D01*
X711193D01*
Y564450D01*
X711654D01*
Y564297D01*
D02*
G37*
G36*
X683818Y529233D02*
X675206D01*
Y529387D01*
X673976D01*
Y529540D01*
X673207D01*
Y529694D01*
X672745D01*
Y529848D01*
X672130D01*
Y530002D01*
X671669D01*
Y530155D01*
X671361D01*
Y530309D01*
X671054D01*
Y530463D01*
X670746D01*
Y530617D01*
X670592D01*
Y530771D01*
X670285D01*
Y530924D01*
X670131D01*
Y531078D01*
X669823D01*
Y531232D01*
X669669D01*
Y531386D01*
X669362D01*
Y531540D01*
X669208D01*
Y531693D01*
X669054D01*
Y531847D01*
X668901D01*
Y532001D01*
X668747D01*
Y532155D01*
X668593D01*
Y532309D01*
X668439D01*
Y532462D01*
X668285D01*
Y532616D01*
X668132D01*
Y532770D01*
X667978D01*
Y532924D01*
X667824D01*
Y533078D01*
X667670D01*
Y533231D01*
X667516D01*
Y533385D01*
X667363D01*
Y533539D01*
X667209D01*
Y533847D01*
X667055D01*
Y534000D01*
X666901D01*
Y534154D01*
X666748D01*
Y534308D01*
X666594D01*
Y534462D01*
X666440D01*
Y534769D01*
X666286D01*
Y534923D01*
X666132D01*
Y535077D01*
X665979D01*
Y535231D01*
X665825D01*
Y535384D01*
X665671D01*
Y535538D01*
X665517D01*
Y535692D01*
X665363D01*
Y535999D01*
X665210D01*
Y536153D01*
X665056D01*
Y536307D01*
X664902D01*
Y536461D01*
X664748D01*
Y536615D01*
X664594D01*
Y536768D01*
X664441D01*
Y537076D01*
X664287D01*
Y537230D01*
X664133D01*
Y537384D01*
X663979D01*
Y537537D01*
X663826D01*
Y537691D01*
X663672D01*
Y537845D01*
X663518D01*
Y538153D01*
X663364D01*
Y538306D01*
X663210D01*
Y538460D01*
X663057D01*
Y538614D01*
X662903D01*
Y538768D01*
X662749D01*
Y538922D01*
X662595D01*
Y539229D01*
X662441D01*
Y539383D01*
X662288D01*
Y539537D01*
X662134D01*
Y539691D01*
X661980D01*
Y539844D01*
X661826D01*
Y539998D01*
X661673D01*
Y540306D01*
X661519D01*
Y540459D01*
X661365D01*
Y540613D01*
X661211D01*
Y540767D01*
X661057D01*
Y540921D01*
X660903D01*
Y541075D01*
X660750D01*
Y541382D01*
X660596D01*
Y541536D01*
X660442D01*
Y541690D01*
X660288D01*
Y541843D01*
X660135D01*
Y541997D01*
X659981D01*
Y542151D01*
X659827D01*
Y542459D01*
X659673D01*
Y542612D01*
X659519D01*
Y542766D01*
X659366D01*
Y542920D01*
X659212D01*
Y543074D01*
X659058D01*
Y543228D01*
X658904D01*
Y543381D01*
X658751D01*
Y543689D01*
X658597D01*
Y543843D01*
X658443D01*
Y543997D01*
X658289D01*
Y544150D01*
X658135D01*
Y544304D01*
X657981D01*
Y544458D01*
X657828D01*
Y544766D01*
X657674D01*
Y544919D01*
X657520D01*
Y545073D01*
X657366D01*
Y545227D01*
X657213D01*
Y545381D01*
X657059D01*
Y545688D01*
X656905D01*
Y545842D01*
X656751D01*
Y545996D01*
X656597D01*
Y546150D01*
X656444D01*
Y546303D01*
X656290D01*
Y546457D01*
X656136D01*
Y546611D01*
X655982D01*
Y546918D01*
X655828D01*
Y547072D01*
X655675D01*
Y547226D01*
X655521D01*
Y547380D01*
X655367D01*
Y547534D01*
X655213D01*
Y547687D01*
X655060D01*
Y547995D01*
X654906D01*
Y548149D01*
X654752D01*
Y548303D01*
X654598D01*
Y548456D01*
X654444D01*
Y548610D01*
X654291D01*
Y548764D01*
X654137D01*
Y549072D01*
X653983D01*
Y549225D01*
X653829D01*
Y549379D01*
X653676D01*
Y549533D01*
X653522D01*
Y549687D01*
X653368D01*
Y549841D01*
X653214D01*
Y549994D01*
X653060D01*
Y550148D01*
X652906D01*
Y550302D01*
X652753D01*
Y550456D01*
X652445D01*
Y550610D01*
X652291D01*
Y550763D01*
X651984D01*
Y550917D01*
X651830D01*
Y551071D01*
X651522D01*
Y551225D01*
X651061D01*
Y551378D01*
X650753D01*
Y551532D01*
X649677D01*
Y551686D01*
X649369D01*
Y551532D01*
X649216D01*
Y529233D01*
X642295D01*
Y543843D01*
X638143D01*
Y537845D01*
X637835D01*
Y543997D01*
X637528D01*
Y543843D01*
X637220D01*
Y543689D01*
X636912D01*
Y543535D01*
X636605D01*
Y543381D01*
X636297D01*
Y543228D01*
X635990D01*
Y543074D01*
X635682D01*
Y542920D01*
X635374D01*
Y542766D01*
X635067D01*
Y542612D01*
X634913D01*
Y542459D01*
X634606D01*
Y542305D01*
X634298D01*
Y542151D01*
X633991D01*
Y541997D01*
X633683D01*
Y541843D01*
X633375D01*
Y541690D01*
X633068D01*
Y541536D01*
X632760D01*
Y541382D01*
X632453D01*
Y541228D01*
X632145D01*
Y541075D01*
X631837D01*
Y540921D01*
X631530D01*
Y540767D01*
X631222D01*
Y540613D01*
X630915D01*
Y540459D01*
X630607D01*
Y540306D01*
X630299D01*
Y540152D01*
X629992D01*
Y539998D01*
X629684D01*
Y539844D01*
X629377D01*
Y539691D01*
X629069D01*
Y539537D01*
X628762D01*
Y539383D01*
X628454D01*
Y539229D01*
X628147D01*
Y539075D01*
X627839D01*
Y538922D01*
X627531D01*
Y538768D01*
X627224D01*
Y538614D01*
X626916D01*
Y538460D01*
X626609D01*
Y538306D01*
X626455D01*
Y538153D01*
X625993D01*
Y543843D01*
X621534D01*
Y541997D01*
X602771D01*
Y546765D01*
X621534D01*
Y544304D01*
X625993D01*
Y550148D01*
X626301D01*
Y549994D01*
X626609D01*
Y549841D01*
X626916D01*
Y549687D01*
X627224D01*
Y549533D01*
X627531D01*
Y549379D01*
X627685D01*
Y549225D01*
X627993D01*
Y549072D01*
X628300D01*
Y548918D01*
X628608D01*
Y548764D01*
X628915D01*
Y548610D01*
X629223D01*
Y548456D01*
X629531D01*
Y548303D01*
X629838D01*
Y548149D01*
X630146D01*
Y547995D01*
X630453D01*
Y547841D01*
X630761D01*
Y547687D01*
X631068D01*
Y547534D01*
X631376D01*
Y547380D01*
X631684D01*
Y547226D01*
X631991D01*
Y547072D01*
X632299D01*
Y546918D01*
X632606D01*
Y546765D01*
X632914D01*
Y546611D01*
X633222D01*
Y546457D01*
X633529D01*
Y546303D01*
X633837D01*
Y546150D01*
X634144D01*
Y545996D01*
X634452D01*
Y545842D01*
X634759D01*
Y545688D01*
X635067D01*
Y545534D01*
X635374D01*
Y545381D01*
X635682D01*
Y545227D01*
X635990D01*
Y545073D01*
X636297D01*
Y544919D01*
X636451D01*
Y544766D01*
X636759D01*
Y544612D01*
X637066D01*
Y544458D01*
X637374D01*
Y544304D01*
X637681D01*
Y544150D01*
X637835D01*
Y550148D01*
X638143D01*
Y544304D01*
X642295D01*
Y558453D01*
X650600D01*
Y558299D01*
X651984D01*
Y558145D01*
X652906D01*
Y557991D01*
X653368D01*
Y557838D01*
X653829D01*
Y557684D01*
X654137D01*
Y557530D01*
X654598D01*
Y557376D01*
X654906D01*
Y557222D01*
X655060D01*
Y557069D01*
X655367D01*
Y556915D01*
X655675D01*
Y556761D01*
X655828D01*
Y556607D01*
X656136D01*
Y556454D01*
X656290D01*
Y556300D01*
X656444D01*
Y556146D01*
X656597D01*
Y555992D01*
X656905D01*
Y555838D01*
X657059D01*
Y555685D01*
X657213D01*
Y555531D01*
X657366D01*
Y555377D01*
X657520D01*
Y555223D01*
X657674D01*
Y555069D01*
X657828D01*
Y554916D01*
X657981D01*
Y554762D01*
X658135D01*
Y554608D01*
X658289D01*
Y554454D01*
X658443D01*
Y554300D01*
X658597D01*
Y553993D01*
X658751D01*
Y553839D01*
X658904D01*
Y553685D01*
X659058D01*
Y553531D01*
X659212D01*
Y553378D01*
X659366D01*
Y553224D01*
X659519D01*
Y553070D01*
X659673D01*
Y552762D01*
X659827D01*
Y552609D01*
X659981D01*
Y552455D01*
X660135D01*
Y552301D01*
X660288D01*
Y552147D01*
X660442D01*
Y551994D01*
X660596D01*
Y551840D01*
X660750D01*
Y551532D01*
X660903D01*
Y551378D01*
X661057D01*
Y551225D01*
X661211D01*
Y551071D01*
X661365D01*
Y550917D01*
X661519D01*
Y550763D01*
X661673D01*
Y550456D01*
X661826D01*
Y550302D01*
X661980D01*
Y550148D01*
X662134D01*
Y549994D01*
X662288D01*
Y549841D01*
X662441D01*
Y549687D01*
X662595D01*
Y549533D01*
X662749D01*
Y549225D01*
X662903D01*
Y549072D01*
X663057D01*
Y548918D01*
X663210D01*
Y548764D01*
X663364D01*
Y548610D01*
X663518D01*
Y548456D01*
X663672D01*
Y548149D01*
X663826D01*
Y547995D01*
X663979D01*
Y547841D01*
X664133D01*
Y547687D01*
X664287D01*
Y547534D01*
X664441D01*
Y547380D01*
X664594D01*
Y547226D01*
X664748D01*
Y546918D01*
X664902D01*
Y546765D01*
X665056D01*
Y546611D01*
X665210D01*
Y546457D01*
X665363D01*
Y546303D01*
X665517D01*
Y546150D01*
X665671D01*
Y545996D01*
X665825D01*
Y545688D01*
X665979D01*
Y545534D01*
X666132D01*
Y545381D01*
X666286D01*
Y545227D01*
X666440D01*
Y545073D01*
X666594D01*
Y544919D01*
X666748D01*
Y544766D01*
X666901D01*
Y544458D01*
X667055D01*
Y544304D01*
X667209D01*
Y544150D01*
X667363D01*
Y543997D01*
X667516D01*
Y543843D01*
X667670D01*
Y543689D01*
X667824D01*
Y543535D01*
X667978D01*
Y543228D01*
X668132D01*
Y543074D01*
X668285D01*
Y542920D01*
X668439D01*
Y542766D01*
X668593D01*
Y542612D01*
X668747D01*
Y542305D01*
X668901D01*
Y542151D01*
X669054D01*
Y541997D01*
X669208D01*
Y541843D01*
X669362D01*
Y541690D01*
X669516D01*
Y541536D01*
X669669D01*
Y541382D01*
X669823D01*
Y541075D01*
X669977D01*
Y540921D01*
X670131D01*
Y540767D01*
X670285D01*
Y540613D01*
X670439D01*
Y540459D01*
X670592D01*
Y540306D01*
X670746D01*
Y540152D01*
X670900D01*
Y539844D01*
X671054D01*
Y539691D01*
X671207D01*
Y539537D01*
X671361D01*
Y539383D01*
X671515D01*
Y539229D01*
X671669D01*
Y539075D01*
X671823D01*
Y538922D01*
X671976D01*
Y538614D01*
X672130D01*
Y538460D01*
X672284D01*
Y538306D01*
X672438D01*
Y538153D01*
X672591D01*
Y537999D01*
X672745D01*
Y537845D01*
X672899D01*
Y537691D01*
X673053D01*
Y537537D01*
X673207D01*
Y537384D01*
X673514D01*
Y537230D01*
X673668D01*
Y537076D01*
X673822D01*
Y536922D01*
X674129D01*
Y536768D01*
X674283D01*
Y536615D01*
X674591D01*
Y536461D01*
X674898D01*
Y536307D01*
X675514D01*
Y536153D01*
X676282D01*
Y535999D01*
X676898D01*
Y558453D01*
X683818D01*
Y529233D01*
D02*
G37*
G36*
X635221Y552147D02*
X601387D01*
Y551994D01*
X601080D01*
Y551840D01*
X600772D01*
Y551686D01*
X600618D01*
Y551225D01*
X600464D01*
Y537537D01*
X600618D01*
Y537076D01*
X600772D01*
Y536922D01*
X601080D01*
Y536768D01*
X601387D01*
Y536615D01*
X635374D01*
Y529848D01*
X599849D01*
Y530002D01*
X598927D01*
Y530155D01*
X598311D01*
Y530309D01*
X597696D01*
Y530463D01*
X597235D01*
Y530617D01*
X596927D01*
Y530771D01*
X596620D01*
Y530924D01*
X596312D01*
Y531078D01*
X596004D01*
Y531232D01*
X595851D01*
Y531386D01*
X595543D01*
Y531540D01*
X595389D01*
Y531693D01*
X595236D01*
Y531847D01*
X595082D01*
Y532001D01*
X594928D01*
Y532155D01*
X594774D01*
Y532309D01*
X594621D01*
Y532462D01*
X594467D01*
Y532770D01*
X594313D01*
Y532924D01*
X594159D01*
Y533231D01*
X594005D01*
Y533539D01*
X593852D01*
Y533847D01*
X593698D01*
Y534308D01*
X593544D01*
Y534923D01*
X593390D01*
Y535846D01*
X593236D01*
Y552916D01*
X593390D01*
Y553839D01*
X593544D01*
Y554454D01*
X593698D01*
Y554916D01*
X593852D01*
Y555223D01*
X594005D01*
Y555531D01*
X594159D01*
Y555838D01*
X594313D01*
Y555992D01*
X594467D01*
Y556300D01*
X594621D01*
Y556454D01*
X594774D01*
Y556607D01*
X594928D01*
Y556761D01*
X595082D01*
Y556915D01*
X595236D01*
Y557069D01*
X595389D01*
Y557222D01*
X595543D01*
Y557376D01*
X595851D01*
Y557530D01*
X596004D01*
Y557684D01*
X596312D01*
Y557838D01*
X596620D01*
Y557991D01*
X596927D01*
Y558145D01*
X597235D01*
Y558299D01*
X597696D01*
Y558453D01*
X598311D01*
Y558606D01*
X598927D01*
Y558760D01*
X600003D01*
Y558914D01*
X635221D01*
Y552147D01*
D02*
G37*
G36*
X773939Y551532D02*
X739951D01*
Y551378D01*
X739643D01*
Y551225D01*
X739490D01*
Y551071D01*
X739336D01*
Y550763D01*
X739182D01*
Y536922D01*
X739336D01*
Y536615D01*
X739490D01*
Y536461D01*
X739643D01*
Y536307D01*
X739951D01*
Y536153D01*
X740566D01*
Y535999D01*
X774092D01*
Y529233D01*
X739490D01*
Y529387D01*
X738106D01*
Y529540D01*
X737183D01*
Y529694D01*
X736721D01*
Y529848D01*
X736260D01*
Y530002D01*
X735799D01*
Y530155D01*
X735491D01*
Y530309D01*
X735184D01*
Y530463D01*
X734876D01*
Y530617D01*
X734568D01*
Y530771D01*
X734415D01*
Y530924D01*
X734261D01*
Y531078D01*
X734107D01*
Y531232D01*
X733800D01*
Y531386D01*
X733646D01*
Y531540D01*
X733492D01*
Y531847D01*
X733338D01*
Y532001D01*
X733184D01*
Y532155D01*
X733031D01*
Y532462D01*
X732877D01*
Y532770D01*
X732723D01*
Y533078D01*
X732569D01*
Y533385D01*
X732415D01*
Y533847D01*
X732262D01*
Y534462D01*
X732108D01*
Y535384D01*
X731954D01*
Y552301D01*
X732108D01*
Y553378D01*
X732262D01*
Y553839D01*
X732415D01*
Y554300D01*
X732569D01*
Y554762D01*
X732723D01*
Y555069D01*
X732877D01*
Y555223D01*
X733031D01*
Y555531D01*
X733184D01*
Y555685D01*
X733338D01*
Y555838D01*
X733492D01*
Y556146D01*
X733646D01*
Y556300D01*
X733800D01*
Y556454D01*
X734107D01*
Y556607D01*
X734261D01*
Y556761D01*
X734415D01*
Y556915D01*
X734722D01*
Y557069D01*
X734876D01*
Y557222D01*
X735184D01*
Y557376D01*
X735491D01*
Y557530D01*
X735799D01*
Y557684D01*
X736260D01*
Y557838D01*
X736721D01*
Y557991D01*
X737337D01*
Y558145D01*
X738106D01*
Y558299D01*
X739643D01*
Y558453D01*
X773939D01*
Y551532D01*
D02*
G37*
G36*
X709962Y559529D02*
X710270D01*
Y559375D01*
X710577D01*
Y559222D01*
X711039D01*
Y559068D01*
X711346D01*
Y558914D01*
X711500D01*
Y558760D01*
X711808D01*
Y558606D01*
X712115D01*
Y558453D01*
X712269D01*
Y558299D01*
X712577D01*
Y558145D01*
X712730D01*
Y557991D01*
X712884D01*
Y557838D01*
X713038D01*
Y557684D01*
X713192D01*
Y557530D01*
X713346D01*
Y557376D01*
X713499D01*
Y557222D01*
X713653D01*
Y557069D01*
X713807D01*
Y556915D01*
X713961D01*
Y556761D01*
X714115D01*
Y556607D01*
X714268D01*
Y556300D01*
X714422D01*
Y556146D01*
X714576D01*
Y555992D01*
X714730D01*
Y555685D01*
X714883D01*
Y555377D01*
X715037D01*
Y555069D01*
X715191D01*
Y554762D01*
X715345D01*
Y554300D01*
X715499D01*
Y553839D01*
X715652D01*
Y553224D01*
X715806D01*
Y552147D01*
X715960D01*
Y551532D01*
X713499D01*
Y528464D01*
X706271D01*
Y550763D01*
X689201D01*
Y557530D01*
X708732D01*
Y557838D01*
X708886D01*
Y558299D01*
X709040D01*
Y558760D01*
X709193D01*
Y559222D01*
X709347D01*
Y559683D01*
X709962D01*
Y559529D01*
D02*
G37*
G36*
X764557Y521851D02*
X763481D01*
Y522466D01*
X764557D01*
Y521851D01*
D02*
G37*
G36*
X745641D02*
X744411D01*
Y522466D01*
X745641D01*
Y521851D01*
D02*
G37*
G36*
X714883D02*
X713807D01*
Y522466D01*
X714883D01*
Y521851D01*
D02*
G37*
G36*
X701965D02*
X700889D01*
Y522466D01*
X701965D01*
Y521851D01*
D02*
G37*
G36*
X627378Y522312D02*
Y522159D01*
Y521851D01*
X626301D01*
Y522466D01*
X627378D01*
Y522312D01*
D02*
G37*
G36*
X695506Y520928D02*
X695352D01*
Y520621D01*
X695506D01*
Y519390D01*
X695352D01*
Y518621D01*
X695199D01*
Y518468D01*
X694891D01*
Y518314D01*
X691661D01*
Y518468D01*
X691508D01*
Y518621D01*
X691354D01*
Y518775D01*
X691200D01*
Y520928D01*
Y521082D01*
Y521236D01*
X692277D01*
Y519083D01*
X694276D01*
Y521236D01*
X695506D01*
Y520928D01*
D02*
G37*
G36*
X768864Y521236D02*
X769171D01*
Y521082D01*
X769325D01*
Y520928D01*
X769479D01*
Y519083D01*
Y518929D01*
Y518314D01*
X768402D01*
Y520467D01*
X768248D01*
Y520621D01*
X766249D01*
Y518314D01*
X765173D01*
Y521390D01*
X768864D01*
Y521236D01*
D02*
G37*
G36*
X764557Y520005D02*
Y519852D01*
Y518314D01*
X763481D01*
Y521390D01*
X764557D01*
Y520005D01*
D02*
G37*
G36*
X763173Y520621D02*
X761635D01*
Y520467D01*
X761482D01*
Y518314D01*
X760405D01*
Y520928D01*
X760559D01*
Y521082D01*
X760713D01*
Y521236D01*
X761020D01*
Y521390D01*
X763173D01*
Y520621D01*
D02*
G37*
G36*
X759482Y521236D02*
X759636D01*
Y521082D01*
X759790D01*
Y519852D01*
X759636D01*
Y519698D01*
X759329D01*
Y519544D01*
X756714D01*
Y519390D01*
X756868D01*
Y519083D01*
X759790D01*
Y518314D01*
X756253D01*
Y518468D01*
X755945D01*
Y518621D01*
X755791D01*
Y519083D01*
X755638D01*
Y520774D01*
X755791D01*
Y521082D01*
X755945D01*
Y521236D01*
X756253D01*
Y521390D01*
X759482D01*
Y521236D01*
D02*
G37*
G36*
X754869D02*
X755022D01*
Y520928D01*
X755176D01*
Y520005D01*
X755022D01*
Y519698D01*
X754715D01*
Y519544D01*
X752101D01*
Y519236D01*
X752254D01*
Y519083D01*
X755022D01*
Y518314D01*
X751485D01*
Y518468D01*
X751331D01*
Y518621D01*
X751178D01*
Y518775D01*
X751024D01*
Y520928D01*
X751178D01*
Y521236D01*
X751485D01*
Y521390D01*
X754869D01*
Y521236D01*
D02*
G37*
G36*
X749947D02*
X750255D01*
Y521082D01*
X750409D01*
Y520621D01*
X750563D01*
Y518314D01*
X749332D01*
Y520621D01*
X747179D01*
Y518314D01*
X746103D01*
Y521390D01*
X749947D01*
Y521236D01*
D02*
G37*
G36*
X745488Y519852D02*
Y519698D01*
Y518929D01*
X745641D01*
Y518314D01*
X744411D01*
Y521390D01*
X745488D01*
Y519852D01*
D02*
G37*
G36*
X738413Y521236D02*
X738721D01*
Y521082D01*
X738875D01*
Y520928D01*
X739028D01*
Y520313D01*
X739182D01*
Y518314D01*
X737952D01*
Y520005D01*
Y520159D01*
Y520621D01*
X735799D01*
Y518314D01*
X734722D01*
Y521390D01*
X738413D01*
Y521236D01*
D02*
G37*
G36*
X734107Y521543D02*
X729186D01*
Y521390D01*
X729032D01*
Y520774D01*
X734107D01*
Y519852D01*
X729032D01*
Y519390D01*
X729186D01*
Y519236D01*
X734261D01*
Y518314D01*
X728571D01*
Y518468D01*
X728263D01*
Y518621D01*
X728109D01*
Y518929D01*
X727956D01*
Y521697D01*
X728109D01*
Y522005D01*
X728263D01*
Y522159D01*
X728417D01*
Y522312D01*
X728725D01*
Y522466D01*
X734107D01*
Y521543D01*
D02*
G37*
G36*
X724111Y521236D02*
X724418D01*
Y521082D01*
X724572D01*
Y520774D01*
X724726D01*
Y518314D01*
X723650D01*
Y520467D01*
X723496D01*
Y520621D01*
X721496D01*
Y518314D01*
X720420D01*
Y518775D01*
Y518929D01*
Y521390D01*
X724111D01*
Y521236D01*
D02*
G37*
G36*
X719190D02*
X719497D01*
Y521082D01*
X719651D01*
Y520928D01*
X719805D01*
Y518775D01*
X719651D01*
Y518621D01*
X719497D01*
Y518468D01*
X719190D01*
Y518314D01*
X715960D01*
Y518468D01*
X715806D01*
Y518621D01*
X715652D01*
Y518775D01*
X715499D01*
Y520928D01*
X715652D01*
Y521082D01*
X715806D01*
Y521236D01*
X716114D01*
Y521390D01*
X719190D01*
Y521236D01*
D02*
G37*
G36*
X714883Y520928D02*
Y520774D01*
Y518314D01*
X713807D01*
Y521390D01*
X714883D01*
Y520928D01*
D02*
G37*
G36*
X712884Y522159D02*
Y521390D01*
X713499D01*
Y520621D01*
X712884D01*
Y518314D01*
X711808D01*
Y520621D01*
X711193D01*
Y521390D01*
X711808D01*
Y522312D01*
X712884D01*
Y522159D01*
D02*
G37*
G36*
X710424Y521236D02*
X710731D01*
Y521082D01*
X710885D01*
Y520774D01*
X711039D01*
Y518775D01*
X710885D01*
Y518621D01*
X710731D01*
Y518468D01*
X710424D01*
Y518314D01*
X707194D01*
Y518468D01*
X707040D01*
Y518621D01*
X706887D01*
Y518775D01*
Y519852D01*
X707040D01*
Y520005D01*
X707348D01*
Y520159D01*
X709962D01*
Y520467D01*
X709809D01*
Y520621D01*
X706887D01*
Y521390D01*
X710424D01*
Y521236D01*
D02*
G37*
G36*
X706425Y520621D02*
X703811D01*
Y520467D01*
X703657D01*
Y519236D01*
X703811D01*
Y519083D01*
X706425D01*
Y518314D01*
X703195D01*
Y518468D01*
X702888D01*
Y518621D01*
X702734D01*
Y518775D01*
X702580D01*
Y520928D01*
X702734D01*
Y521082D01*
X702888D01*
Y521236D01*
X703195D01*
Y521390D01*
X706425D01*
Y520621D01*
D02*
G37*
G36*
X701965Y518314D02*
X700889D01*
Y520467D01*
Y520621D01*
Y521390D01*
X701965D01*
Y518314D01*
D02*
G37*
G36*
X699812Y521236D02*
X700120D01*
Y521082D01*
X700274D01*
Y520774D01*
X700427D01*
Y518314D01*
X699351D01*
Y520467D01*
X699197D01*
Y520621D01*
X697044D01*
Y519083D01*
Y518929D01*
Y518314D01*
X695967D01*
Y521390D01*
X699812D01*
Y521236D01*
D02*
G37*
G36*
X689970D02*
X690277D01*
Y521082D01*
X690431D01*
Y520928D01*
X690585D01*
Y518314D01*
X689508D01*
Y520621D01*
X688278D01*
Y518314D01*
X687202D01*
Y520621D01*
X685971D01*
Y518314D01*
X684895D01*
Y521390D01*
X689970D01*
Y521236D01*
D02*
G37*
G36*
X683664D02*
X683972D01*
Y521082D01*
X684126D01*
Y520928D01*
X684279D01*
Y518314D01*
X683203D01*
Y520467D01*
X683049D01*
Y520621D01*
X681973D01*
Y518314D01*
X680896D01*
Y520621D01*
X679666D01*
Y518314D01*
X678589D01*
Y521390D01*
X683664D01*
Y521236D01*
D02*
G37*
G36*
X677359D02*
X677666D01*
Y521082D01*
X677820D01*
Y520928D01*
X677974D01*
Y518775D01*
X677820D01*
Y518621D01*
X677666D01*
Y518468D01*
X677359D01*
Y518314D01*
X674283D01*
Y518468D01*
X673976D01*
Y518621D01*
X673822D01*
Y518775D01*
X673668D01*
Y520928D01*
X673822D01*
Y521082D01*
X673976D01*
Y521236D01*
X674283D01*
Y521390D01*
X677359D01*
Y521236D01*
D02*
G37*
G36*
X673207Y520621D02*
X670439D01*
Y519083D01*
X673207D01*
Y518314D01*
X669823D01*
Y518468D01*
X669669D01*
Y518621D01*
X669516D01*
Y518775D01*
X669362D01*
Y520928D01*
X669516D01*
Y521082D01*
X669669D01*
Y521236D01*
X669823D01*
Y521390D01*
X673207D01*
Y520621D01*
D02*
G37*
G36*
X668439Y521236D02*
X668747D01*
Y520621D01*
X668901D01*
Y520313D01*
X668747D01*
Y519852D01*
X668593D01*
Y519698D01*
X668439D01*
Y519544D01*
X665825D01*
Y519083D01*
X668747D01*
Y518314D01*
X665210D01*
Y518468D01*
X664902D01*
Y518775D01*
X664748D01*
Y521082D01*
X664902D01*
Y521236D01*
X665210D01*
Y521390D01*
X668439D01*
Y521236D01*
D02*
G37*
G36*
X664133Y518314D02*
X663057D01*
Y522466D01*
X664133D01*
Y518314D01*
D02*
G37*
G36*
X662134Y521236D02*
X662288D01*
Y521082D01*
X662441D01*
Y519852D01*
X662288D01*
Y519698D01*
X661980D01*
Y519544D01*
X659366D01*
Y519390D01*
X659519D01*
Y519083D01*
X662441D01*
Y518314D01*
X658904D01*
Y518468D01*
X658597D01*
Y518621D01*
X658443D01*
Y518929D01*
X658289D01*
Y520774D01*
X658443D01*
Y521082D01*
X658597D01*
Y521236D01*
X658904D01*
Y521390D01*
X662134D01*
Y521236D01*
D02*
G37*
G36*
X658289Y521543D02*
X655675D01*
Y518314D01*
X654598D01*
Y521543D01*
X652138D01*
Y522159D01*
Y522312D01*
Y522466D01*
X658289D01*
Y521543D01*
D02*
G37*
G36*
X648908Y518929D02*
X648754D01*
Y518621D01*
X648600D01*
Y518468D01*
X648293D01*
Y518314D01*
X645063D01*
Y518468D01*
X644910D01*
Y518621D01*
X644756D01*
Y518775D01*
X644602D01*
Y520928D01*
X644756D01*
Y521082D01*
X644910D01*
Y521236D01*
X645063D01*
Y521390D01*
X647831D01*
Y522466D01*
X648908D01*
Y518929D01*
D02*
G37*
G36*
X643372Y521236D02*
X643679D01*
Y521082D01*
X643833D01*
Y520621D01*
X643987D01*
Y518314D01*
X642756D01*
Y519698D01*
Y519852D01*
Y520621D01*
X640603D01*
Y518314D01*
X639527D01*
Y521390D01*
X643372D01*
Y521236D01*
D02*
G37*
G36*
X638604D02*
X638758D01*
Y521082D01*
X638912D01*
Y520928D01*
X639066D01*
Y518775D01*
X638912D01*
Y518621D01*
X638758D01*
Y518468D01*
X638604D01*
Y518314D01*
X635221D01*
Y518468D01*
X635067D01*
Y518775D01*
X634913D01*
Y519698D01*
X635067D01*
Y520005D01*
X635374D01*
Y520159D01*
X637989D01*
Y520467D01*
X637835D01*
Y520621D01*
X635067D01*
Y521082D01*
X634913D01*
Y521390D01*
X638604D01*
Y521236D01*
D02*
G37*
G36*
X631837Y520621D02*
X629223D01*
Y520467D01*
X629069D01*
Y519083D01*
X631837D01*
Y518621D01*
Y518468D01*
Y518314D01*
X628608D01*
Y518468D01*
X628300D01*
Y518621D01*
X628147D01*
Y518775D01*
X627993D01*
Y520928D01*
X628147D01*
Y521082D01*
X628300D01*
Y521236D01*
X628454D01*
Y521390D01*
X631837D01*
Y520621D01*
D02*
G37*
G36*
X627378Y519544D02*
Y519390D01*
Y518314D01*
X626301D01*
Y521390D01*
X627378D01*
Y519544D01*
D02*
G37*
G36*
X625071Y521236D02*
X625378D01*
Y521082D01*
X625532D01*
Y520774D01*
X625686D01*
Y518314D01*
X624609D01*
Y520621D01*
X622456D01*
Y519698D01*
Y519544D01*
Y518314D01*
X621380D01*
Y521390D01*
X625071D01*
Y521236D01*
D02*
G37*
G36*
X620149D02*
X620457D01*
Y521082D01*
X620611D01*
Y520928D01*
X620765D01*
Y518775D01*
X620611D01*
Y518621D01*
X620457D01*
Y518468D01*
X620149D01*
Y518314D01*
X617074D01*
Y518468D01*
X616766D01*
Y518621D01*
X616612D01*
Y518775D01*
X616459D01*
Y520928D01*
X616612D01*
Y521082D01*
X616766D01*
Y521236D01*
X617074D01*
Y521390D01*
X620149D01*
Y521236D01*
D02*
G37*
G36*
X615997Y520621D02*
X614459D01*
Y518314D01*
X613229D01*
Y518775D01*
X613383D01*
Y519083D01*
X613229D01*
Y520621D01*
X613383D01*
Y520928D01*
X613536D01*
Y521082D01*
X613690D01*
Y521236D01*
X613844D01*
Y521390D01*
X615997D01*
Y520621D01*
D02*
G37*
G36*
X612460Y522005D02*
X612306D01*
Y521390D01*
X612921D01*
Y520774D01*
Y520621D01*
X612306D01*
Y518775D01*
X612460D01*
Y518314D01*
X611384D01*
Y520621D01*
X610768D01*
Y521390D01*
X611384D01*
Y522312D01*
X612460D01*
Y522005D01*
D02*
G37*
G36*
X610461Y520621D02*
X607846D01*
Y520159D01*
X607692D01*
Y519544D01*
X607846D01*
Y519083D01*
X610461D01*
Y518314D01*
X607231D01*
Y518468D01*
X606924D01*
Y518621D01*
X606770D01*
Y519236D01*
X606616D01*
Y520621D01*
X606770D01*
Y521082D01*
X606924D01*
Y521236D01*
X607231D01*
Y521390D01*
X610461D01*
Y520621D01*
D02*
G37*
G36*
X605847Y521236D02*
X606001D01*
Y521082D01*
X606155D01*
Y519852D01*
X606001D01*
Y519698D01*
X605693D01*
Y519544D01*
X603233D01*
Y519083D01*
X606155D01*
Y518314D01*
X602617D01*
Y518468D01*
X602310D01*
Y518621D01*
X602156D01*
Y519083D01*
X602002D01*
Y520621D01*
X602156D01*
Y521082D01*
X602310D01*
Y521236D01*
X602617D01*
Y521390D01*
X605847D01*
Y521236D01*
D02*
G37*
G36*
X601541Y518314D02*
X600464D01*
Y519390D01*
Y519544D01*
Y522466D01*
X601541D01*
Y518314D01*
D02*
G37*
G36*
X599849Y521543D02*
X594928D01*
Y521390D01*
X594774D01*
Y520774D01*
X599849D01*
Y519852D01*
X594774D01*
Y519236D01*
X600003D01*
Y518314D01*
X594313D01*
Y518468D01*
X594005D01*
Y518621D01*
X593852D01*
Y518775D01*
X593698D01*
Y521851D01*
X593852D01*
Y522159D01*
X594159D01*
Y522312D01*
X594467D01*
Y522466D01*
X599849D01*
Y521543D01*
D02*
G37*
G36*
X773939Y521236D02*
X774246D01*
Y521082D01*
X774400D01*
Y517699D01*
X774246D01*
Y517545D01*
X774092D01*
Y517391D01*
X773631D01*
Y517237D01*
X770248D01*
Y518160D01*
X772554D01*
Y518006D01*
X772862D01*
Y518160D01*
X773323D01*
Y518775D01*
X770401D01*
Y518929D01*
X770248D01*
Y519083D01*
X770094D01*
Y521082D01*
X770248D01*
Y521236D01*
X770555D01*
Y521390D01*
X773939D01*
Y521236D01*
D02*
G37*
G36*
X743488D02*
X743796D01*
Y520928D01*
X743950D01*
Y517852D01*
X743796D01*
Y517545D01*
X743488D01*
Y517391D01*
X743027D01*
Y517237D01*
X739797D01*
Y518160D01*
X742104D01*
Y518006D01*
X742412D01*
Y518160D01*
X742873D01*
Y518775D01*
X739951D01*
Y518929D01*
X739797D01*
Y519083D01*
X739643D01*
Y521082D01*
X739797D01*
Y521236D01*
X740105D01*
Y521390D01*
X743488D01*
Y521236D01*
D02*
G37*
G36*
X667203Y490265D02*
X667461Y490218D01*
X667743Y490124D01*
X668048Y490007D01*
X668354Y489842D01*
X668612Y489631D01*
X668636Y489607D01*
X668706Y489513D01*
X668824Y489372D01*
X668941Y489161D01*
X669035Y488903D01*
X669153Y488597D01*
X669223Y488245D01*
X669247Y487845D01*
Y484392D01*
X667061D01*
Y487751D01*
Y487775D01*
Y487822D01*
X666991Y487986D01*
X666944Y488080D01*
X666850Y488151D01*
X666733Y488198D01*
X666568Y488221D01*
X664172D01*
X664007Y488174D01*
X663913Y488104D01*
X663819Y488033D01*
X663772Y487916D01*
X663749Y487751D01*
Y484791D01*
Y484767D01*
Y484744D01*
X663772Y484603D01*
X663796Y484415D01*
X663866Y484156D01*
X663960Y483875D01*
X664101Y483569D01*
X664313Y483264D01*
X664594Y482982D01*
X664618D01*
X664665Y482935D01*
X664735Y482888D01*
X664829Y482817D01*
X664970Y482723D01*
X665111Y482629D01*
X665487Y482418D01*
X665511Y482394D01*
X665628Y482347D01*
X665769Y482277D01*
X665981Y482159D01*
X666498Y481901D01*
X666521D01*
X666545Y481878D01*
X666615Y481830D01*
X666709Y481783D01*
X666944Y481642D01*
X667226Y481478D01*
X667531Y481267D01*
X667837Y481032D01*
X668119Y480773D01*
X668377Y480515D01*
X668424Y480468D01*
X668518Y480327D01*
X668659Y480092D01*
X668824Y479786D01*
X668965Y479411D01*
X669106Y478941D01*
X669200Y478424D01*
X669247Y477836D01*
Y474782D01*
Y474758D01*
Y474735D01*
Y474594D01*
X669223Y474383D01*
X669176Y474124D01*
X669082Y473842D01*
X668988Y473537D01*
X668824Y473255D01*
X668612Y472996D01*
X668589Y472973D01*
X668495Y472902D01*
X668354Y472785D01*
X668142Y472691D01*
X667884Y472574D01*
X667578Y472456D01*
X667203Y472385D01*
X666803Y472362D01*
X663819D01*
X663608Y472385D01*
X663349Y472433D01*
X663067Y472527D01*
X662762Y472621D01*
X662457Y472785D01*
X662198Y472996D01*
X662175Y473020D01*
X662104Y473114D01*
X661987Y473255D01*
X661893Y473466D01*
X661775Y473701D01*
X661658Y474007D01*
X661587Y474383D01*
X661564Y474782D01*
Y478236D01*
X663725D01*
Y474899D01*
Y474876D01*
Y474829D01*
X663749Y474735D01*
X663796Y474641D01*
X663843Y474547D01*
X663937Y474453D01*
X664054Y474406D01*
X664219Y474383D01*
X666639D01*
X666733Y474406D01*
X666826Y474453D01*
X666897Y474500D01*
X666991Y474594D01*
X667038Y474735D01*
X667061Y474899D01*
Y477836D01*
Y477860D01*
Y477883D01*
X667038Y478001D01*
X667014Y478189D01*
X666967Y478424D01*
X666850Y478706D01*
X666709Y478988D01*
X666498Y479270D01*
X666216Y479528D01*
X666192Y479552D01*
X666145Y479575D01*
X666075Y479622D01*
X665981Y479692D01*
X665863Y479786D01*
X665699Y479880D01*
X665534Y479974D01*
X665323Y480092D01*
X665299Y480115D01*
X665205Y480162D01*
X665041Y480233D01*
X664829Y480350D01*
X664313Y480609D01*
X664289D01*
X664266Y480632D01*
X664195Y480679D01*
X664101Y480726D01*
X663866Y480867D01*
X663584Y481055D01*
X663279Y481267D01*
X662973Y481525D01*
X662691Y481783D01*
X662433Y482066D01*
Y482089D01*
X662386Y482112D01*
X662292Y482253D01*
X662151Y482488D01*
X662010Y482794D01*
X661846Y483193D01*
X661705Y483663D01*
X661611Y484203D01*
X661564Y484791D01*
Y487845D01*
Y487869D01*
Y487892D01*
Y488033D01*
X661587Y488245D01*
X661634Y488503D01*
X661728Y488785D01*
X661822Y489067D01*
X661987Y489372D01*
X662198Y489631D01*
X662222Y489654D01*
X662316Y489725D01*
X662457Y489842D01*
X662668Y489960D01*
X662926Y490077D01*
X663232Y490195D01*
X663608Y490265D01*
X664007Y490289D01*
X666991D01*
X667203Y490265D01*
D02*
G37*
G36*
X717059Y472362D02*
X714991D01*
X712360Y481314D01*
X711420Y485120D01*
X711561Y481314D01*
Y472362D01*
X709470D01*
Y490289D01*
X711514D01*
X714169Y481314D01*
X715109Y477508D01*
X714968Y481314D01*
Y490289D01*
X717059D01*
Y472362D01*
D02*
G37*
G36*
X687126Y474782D02*
Y474758D01*
Y474735D01*
Y474594D01*
X687103Y474383D01*
X687056Y474124D01*
X686962Y473842D01*
X686844Y473537D01*
X686680Y473255D01*
X686468Y472996D01*
X686445Y472973D01*
X686351Y472902D01*
X686210Y472785D01*
X685999Y472691D01*
X685763Y472574D01*
X685458Y472456D01*
X685082Y472385D01*
X684683Y472362D01*
X681699D01*
X681487Y472385D01*
X681229Y472433D01*
X680947Y472527D01*
X680642Y472621D01*
X680360Y472785D01*
X680101Y472996D01*
X680078Y473020D01*
X680007Y473114D01*
X679890Y473255D01*
X679772Y473466D01*
X679655Y473701D01*
X679537Y474007D01*
X679467Y474383D01*
X679443Y474782D01*
Y490289D01*
X681605D01*
Y474899D01*
Y474876D01*
Y474829D01*
X681628Y474735D01*
X681675Y474641D01*
X681722Y474547D01*
X681816Y474453D01*
X681957Y474406D01*
X682122Y474383D01*
X684518D01*
X684612Y474406D01*
X684706Y474453D01*
X684777Y474500D01*
X684871Y474594D01*
X684918Y474735D01*
X684941Y474899D01*
Y490289D01*
X687126D01*
Y474782D01*
D02*
G37*
G36*
X725917Y488221D02*
X723167D01*
Y472362D01*
X720983D01*
Y488221D01*
X718234D01*
Y490289D01*
X725917D01*
Y488221D01*
D02*
G37*
G36*
X707567Y472362D02*
X705499D01*
X704841Y476967D01*
X701834D01*
X701176Y472362D01*
X699109D01*
X701623Y490289D01*
X705029D01*
X707567Y472362D01*
D02*
G37*
G36*
X695396Y490265D02*
X695655Y490218D01*
X695937Y490124D01*
X696242Y490007D01*
X696524Y489842D01*
X696783Y489631D01*
X696806Y489607D01*
X696877Y489513D01*
X696994Y489372D01*
X697112Y489161D01*
X697229Y488903D01*
X697346Y488597D01*
X697417Y488245D01*
X697440Y487845D01*
Y484791D01*
Y484767D01*
Y484720D01*
Y484650D01*
Y484556D01*
X697417Y484297D01*
X697393Y483969D01*
X697323Y483593D01*
X697253Y483217D01*
X697135Y482841D01*
X696971Y482512D01*
X696947Y482465D01*
X696877Y482371D01*
X696759Y482230D01*
X696595Y482042D01*
X696360Y481830D01*
X696078Y481643D01*
X695749Y481455D01*
X695350Y481314D01*
X695373D01*
X695396Y481290D01*
X695537Y481243D01*
X695725Y481173D01*
X695984Y481032D01*
X696242Y480867D01*
X696501Y480679D01*
X696759Y480421D01*
X696971Y480115D01*
X696994Y480068D01*
X697041Y479974D01*
X697112Y479786D01*
X697206Y479528D01*
X697299Y479199D01*
X697370Y478823D01*
X697417Y478353D01*
X697440Y477836D01*
Y472362D01*
X695256D01*
Y478095D01*
Y478118D01*
Y478142D01*
Y478306D01*
X695232Y478518D01*
X695209Y478776D01*
X695138Y479058D01*
X695068Y479340D01*
X694950Y479599D01*
X694809Y479810D01*
X694786Y479833D01*
X694715Y479880D01*
X694598Y479951D01*
X694433Y480045D01*
X694222Y480139D01*
X693940Y480209D01*
X693587Y480256D01*
X693188Y480280D01*
X691919D01*
Y472362D01*
X689758Y472362D01*
Y490289D01*
X695185Y490289D01*
X695396Y490265D01*
D02*
G37*
G36*
X678104Y488221D02*
X675355D01*
Y472362D01*
X673170D01*
Y488221D01*
X670421D01*
Y490289D01*
X678104D01*
Y488221D01*
D02*
G37*
G36*
X660036D02*
X655643D01*
Y482347D01*
X660036D01*
Y480280D01*
X655643D01*
Y474383D01*
X660036D01*
Y472362D01*
X653458D01*
Y490289D01*
X660036D01*
Y488221D01*
D02*
G37*
G36*
X648782Y490265D02*
X649041Y490218D01*
X649323Y490124D01*
X649628Y490007D01*
X649910Y489842D01*
X650169Y489631D01*
X650192Y489607D01*
X650263Y489513D01*
X650380Y489372D01*
X650498Y489161D01*
X650615Y488903D01*
X650732Y488597D01*
X650803Y488245D01*
X650826Y487845D01*
Y484791D01*
Y484767D01*
Y484720D01*
Y484650D01*
Y484556D01*
X650803Y484297D01*
X650779Y483969D01*
X650709Y483593D01*
X650639Y483217D01*
X650521Y482841D01*
X650357Y482512D01*
X650333Y482465D01*
X650263Y482371D01*
X650145Y482230D01*
X649981Y482042D01*
X649746Y481830D01*
X649464Y481642D01*
X649135Y481455D01*
X648735Y481314D01*
X648759D01*
X648782Y481290D01*
X648923Y481243D01*
X649111Y481173D01*
X649370Y481032D01*
X649628Y480867D01*
X649887Y480679D01*
X650145Y480421D01*
X650357Y480115D01*
X650380Y480068D01*
X650427Y479974D01*
X650498Y479786D01*
X650592Y479528D01*
X650686Y479199D01*
X650756Y478823D01*
X650803Y478353D01*
X650826Y477836D01*
Y472362D01*
X648641D01*
Y478095D01*
Y478118D01*
Y478142D01*
Y478306D01*
X648618Y478518D01*
X648594Y478776D01*
X648524Y479058D01*
X648453Y479340D01*
X648336Y479599D01*
X648195Y479810D01*
X648171Y479833D01*
X648101Y479880D01*
X647983Y479951D01*
X647819Y480045D01*
X647608Y480139D01*
X647326Y480209D01*
X646973Y480256D01*
X646574Y480280D01*
X645305D01*
Y472362D01*
X643144D01*
Y490289D01*
X648571D01*
X648782Y490265D01*
D02*
G37*
G36*
X708260Y466709D02*
X705511D01*
Y450850D01*
X703326D01*
Y466709D01*
X700577D01*
Y468777D01*
X708260D01*
Y466709D01*
D02*
G37*
G36*
X697358Y468753D02*
X697617Y468706D01*
X697899Y468612D01*
X698204Y468495D01*
X698510Y468330D01*
X698768Y468119D01*
X698792Y468095D01*
X698862Y468001D01*
X698979Y467860D01*
X699097Y467649D01*
X699191Y467391D01*
X699308Y467085D01*
X699379Y466733D01*
X699402Y466333D01*
Y453270D01*
Y453246D01*
Y453223D01*
Y453082D01*
X699379Y452871D01*
X699332Y452612D01*
X699238Y452330D01*
X699144Y452025D01*
X698979Y451743D01*
X698768Y451484D01*
X698745Y451461D01*
X698651Y451390D01*
X698510Y451273D01*
X698298Y451179D01*
X698040Y451062D01*
X697734Y450944D01*
X697358Y450873D01*
X696959Y450850D01*
X693975D01*
X693764Y450873D01*
X693505Y450920D01*
X693223Y451015D01*
X692918Y451109D01*
X692636Y451273D01*
X692377Y451484D01*
X692354Y451508D01*
X692283Y451602D01*
X692166Y451743D01*
X692048Y451954D01*
X691931Y452189D01*
X691813Y452495D01*
X691743Y452871D01*
X691720Y453270D01*
Y466333D01*
Y466357D01*
Y466380D01*
Y466521D01*
X691767Y466733D01*
X691813Y466991D01*
X691884Y467273D01*
X692001Y467555D01*
X692166Y467860D01*
X692377Y468119D01*
X692401Y468142D01*
X692495Y468213D01*
X692636Y468330D01*
X692847Y468448D01*
X693082Y468565D01*
X693388Y468683D01*
X693764Y468753D01*
X694163Y468777D01*
X697147D01*
X697358Y468753D01*
D02*
G37*
G36*
X687044Y468753D02*
X687302Y468706D01*
X687584Y468612D01*
X687890Y468495D01*
X688195Y468330D01*
X688454Y468119D01*
X688477Y468095D01*
X688548Y468001D01*
X688665Y467860D01*
X688783Y467649D01*
X688877Y467391D01*
X688994Y467085D01*
X689064Y466733D01*
X689088Y466333D01*
Y463279D01*
Y463255D01*
Y463208D01*
Y463138D01*
Y463044D01*
X689064Y462785D01*
X689041Y462457D01*
X688971Y462081D01*
X688900Y461705D01*
X688783Y461329D01*
X688618Y461000D01*
X688595Y460953D01*
X688524Y460859D01*
X688407Y460718D01*
X688242Y460530D01*
X688007Y460318D01*
X687725Y460131D01*
X687396Y459943D01*
X686997Y459802D01*
X687020D01*
X687044Y459778D01*
X687185Y459731D01*
X687373Y459661D01*
X687631Y459520D01*
X687890Y459355D01*
X688148Y459167D01*
X688407Y458909D01*
X688618Y458603D01*
X688642Y458556D01*
X688689Y458462D01*
X688759Y458274D01*
X688853Y458016D01*
X688947Y457687D01*
X689017Y457311D01*
X689064Y456841D01*
X689088Y456324D01*
Y455079D01*
Y455056D01*
Y454985D01*
Y454891D01*
X689064Y454727D01*
Y454562D01*
X689041Y454374D01*
X688971Y453904D01*
X688877Y453411D01*
X688712Y452894D01*
X688477Y452401D01*
X688336Y452189D01*
X688172Y451978D01*
Y451954D01*
X688125Y451931D01*
X688054Y451884D01*
X687984Y451813D01*
X687866Y451719D01*
X687725Y451625D01*
X687561Y451531D01*
X687373Y451414D01*
X687138Y451320D01*
X686903Y451202D01*
X686621Y451108D01*
X686339Y451038D01*
X686010Y450944D01*
X685634Y450897D01*
X685258Y450873D01*
X684835Y450850D01*
X681429D01*
Y468777D01*
X686833D01*
X687044Y468753D01*
D02*
G37*
G36*
X676753D02*
X677012Y468706D01*
X677293Y468612D01*
X677599Y468495D01*
X677904Y468330D01*
X678163Y468119D01*
X678186Y468095D01*
X678257Y468001D01*
X678374Y467860D01*
X678492Y467649D01*
X678586Y467391D01*
X678703Y467085D01*
X678774Y466733D01*
X678797Y466333D01*
Y453270D01*
Y453246D01*
Y453223D01*
Y453082D01*
X678774Y452871D01*
X678727Y452612D01*
X678633Y452330D01*
X678539Y452025D01*
X678374Y451743D01*
X678163Y451484D01*
X678139Y451461D01*
X678045Y451390D01*
X677904Y451273D01*
X677693Y451179D01*
X677434Y451062D01*
X677129Y450944D01*
X676753Y450873D01*
X676354Y450850D01*
X673370D01*
X673158Y450873D01*
X672900Y450920D01*
X672618Y451015D01*
X672313Y451108D01*
X672031Y451273D01*
X671772Y451484D01*
X671749Y451508D01*
X671678Y451602D01*
X671561Y451743D01*
X671443Y451954D01*
X671326Y452189D01*
X671208Y452495D01*
X671138Y452871D01*
X671114Y453270D01*
Y466333D01*
Y466357D01*
Y466380D01*
Y466521D01*
X671161Y466733D01*
X671208Y466991D01*
X671279Y467273D01*
X671396Y467555D01*
X671561Y467860D01*
X671772Y468119D01*
X671796Y468142D01*
X671890Y468213D01*
X672031Y468330D01*
X672242Y468448D01*
X672477Y468565D01*
X672783Y468683D01*
X673158Y468753D01*
X673558Y468777D01*
X676542D01*
X676753Y468753D01*
D02*
G37*
G36*
X666439D02*
X666697Y468706D01*
X666979Y468612D01*
X667285Y468495D01*
X667567Y468330D01*
X667825Y468119D01*
X667849Y468095D01*
X667919Y468001D01*
X668036Y467860D01*
X668154Y467649D01*
X668271Y467391D01*
X668389Y467085D01*
X668459Y466733D01*
X668483Y466333D01*
Y463279D01*
Y463255D01*
Y463208D01*
Y463138D01*
Y463044D01*
X668459Y462785D01*
X668436Y462457D01*
X668365Y462081D01*
X668295Y461705D01*
X668177Y461329D01*
X668013Y461000D01*
X667990Y460953D01*
X667919Y460859D01*
X667802Y460718D01*
X667637Y460530D01*
X667402Y460318D01*
X667120Y460131D01*
X666791Y459943D01*
X666392Y459802D01*
X666415D01*
X666439Y459778D01*
X666580Y459731D01*
X666768Y459661D01*
X667026Y459520D01*
X667285Y459355D01*
X667543Y459167D01*
X667802Y458909D01*
X668013Y458603D01*
X668036Y458556D01*
X668083Y458462D01*
X668154Y458274D01*
X668248Y458016D01*
X668342Y457687D01*
X668412Y457311D01*
X668459Y456841D01*
X668483Y456324D01*
Y450850D01*
X666298D01*
Y456583D01*
Y456606D01*
Y456630D01*
Y456794D01*
X666274Y457006D01*
X666251Y457264D01*
X666180Y457546D01*
X666110Y457828D01*
X665992Y458087D01*
X665852Y458298D01*
X665828Y458321D01*
X665758Y458368D01*
X665640Y458439D01*
X665476Y458533D01*
X665264Y458627D01*
X664982Y458697D01*
X664630Y458744D01*
X664230Y458768D01*
X662962D01*
Y450850D01*
X660800D01*
Y468777D01*
X666227D01*
X666439Y468753D01*
D02*
G37*
%LPC*%
G36*
X758713Y520621D02*
X756868D01*
Y520467D01*
Y520313D01*
X756714D01*
Y520159D01*
X758713D01*
Y520621D01*
D02*
G37*
G36*
X753946D02*
X752254D01*
Y520467D01*
X752101D01*
Y520313D01*
Y520159D01*
X753946D01*
Y520313D01*
X754100D01*
Y520467D01*
X753946D01*
Y520621D01*
D02*
G37*
G36*
X718728D02*
X716575D01*
Y519083D01*
X718728D01*
Y520621D01*
D02*
G37*
G36*
X709962Y519544D02*
X707963D01*
Y519083D01*
X709809D01*
Y519236D01*
X709962D01*
Y519544D01*
D02*
G37*
G36*
X676898Y520621D02*
X674744D01*
Y519236D01*
X674898D01*
Y519083D01*
X676898D01*
Y520621D01*
D02*
G37*
G36*
X667670D02*
X665825D01*
Y520159D01*
X667670D01*
Y520621D01*
D02*
G37*
G36*
X661365D02*
X659519D01*
Y520467D01*
X659366D01*
Y520159D01*
X661365D01*
Y520621D01*
D02*
G37*
G36*
X647831D02*
X645678D01*
Y519083D01*
X647678D01*
Y519236D01*
X647831D01*
Y520005D01*
Y520159D01*
Y520621D01*
D02*
G37*
G36*
X637989Y519544D02*
X635990D01*
Y519083D01*
X637989D01*
Y519544D01*
D02*
G37*
G36*
X619688Y520621D02*
X617689D01*
Y520467D01*
X617535D01*
Y519698D01*
Y519544D01*
Y519236D01*
X617689D01*
Y519083D01*
X619688D01*
Y520621D01*
D02*
G37*
G36*
X605078D02*
X603233D01*
Y520467D01*
X603079D01*
Y520159D01*
X605078D01*
Y520621D01*
D02*
G37*
G36*
X773323D02*
X771170D01*
Y520467D01*
Y520313D01*
Y519544D01*
X773323D01*
Y520621D01*
D02*
G37*
G36*
X742873D02*
X740720D01*
Y519544D01*
X742873D01*
Y520621D01*
D02*
G37*
G36*
X703385Y488221D02*
X703291D01*
X702445Y481314D01*
X702116Y479011D01*
X704559D01*
X704231Y481314D01*
X703385Y488221D01*
D02*
G37*
G36*
X694762D02*
X691919D01*
Y482347D01*
X693376D01*
X693587Y482371D01*
X693822Y482418D01*
X694104Y482465D01*
X694363Y482535D01*
X694621Y482653D01*
X694809Y482817D01*
X694833Y482841D01*
X694880Y482911D01*
X694950Y483029D01*
X695044Y483217D01*
X695115Y483452D01*
X695185Y483757D01*
X695232Y484109D01*
X695256Y484533D01*
Y487751D01*
Y487775D01*
Y487822D01*
X695185Y487986D01*
X695138Y488080D01*
X695044Y488151D01*
X694927Y488198D01*
X694762Y488221D01*
D02*
G37*
G36*
X648148Y488221D02*
X645305D01*
Y482347D01*
X646762D01*
X646973Y482371D01*
X647208Y482418D01*
X647490Y482465D01*
X647749Y482535D01*
X648007Y482653D01*
X648195Y482817D01*
X648219Y482841D01*
X648266Y482911D01*
X648336Y483029D01*
X648430Y483217D01*
X648500Y483452D01*
X648571Y483757D01*
X648618Y484109D01*
X648641Y484532D01*
Y487751D01*
Y487775D01*
Y487822D01*
X648571Y487986D01*
X648524Y488080D01*
X648430Y488151D01*
X648313Y488198D01*
X648148Y488221D01*
D02*
G37*
G36*
X696724Y466709D02*
X694327D01*
X694163Y466662D01*
X694069Y466592D01*
X693975Y466521D01*
X693928Y466404D01*
X693904Y466239D01*
Y453387D01*
Y453364D01*
Y453317D01*
X693928Y453223D01*
X693975Y453129D01*
X694022Y453035D01*
X694116Y452941D01*
X694233Y452894D01*
X694398Y452871D01*
X696794D01*
X696888Y452894D01*
X696982Y452941D01*
X697053Y452988D01*
X697147Y453082D01*
X697194Y453223D01*
X697217Y453387D01*
Y466239D01*
Y466263D01*
Y466310D01*
X697147Y466474D01*
X697100Y466568D01*
X697006Y466639D01*
X696888Y466686D01*
X696724Y466709D01*
D02*
G37*
G36*
X686410Y466709D02*
X683590D01*
Y460835D01*
X685023D01*
X685235Y460859D01*
X685470Y460906D01*
X685752Y460953D01*
X686010Y461023D01*
X686269Y461141D01*
X686457Y461305D01*
X686480Y461329D01*
X686527Y461399D01*
X686598Y461517D01*
X686692Y461705D01*
X686762Y461940D01*
X686833Y462245D01*
X686880Y462598D01*
X686903Y463020D01*
Y466239D01*
Y466263D01*
Y466310D01*
X686833Y466474D01*
X686786Y466568D01*
X686692Y466639D01*
X686574Y466686D01*
X686410Y466709D01*
D02*
G37*
G36*
X684835Y458768D02*
X683590D01*
Y452871D01*
X685023D01*
X685235Y452894D01*
X685470Y452941D01*
X685752Y452988D01*
X686010Y453082D01*
X686269Y453200D01*
X686457Y453364D01*
X686480Y453387D01*
X686527Y453458D01*
X686598Y453575D01*
X686692Y453763D01*
X686762Y453998D01*
X686833Y454304D01*
X686880Y454656D01*
X686903Y455079D01*
Y456583D01*
Y456606D01*
Y456630D01*
Y456794D01*
X686880Y457006D01*
X686856Y457264D01*
X686786Y457546D01*
X686715Y457828D01*
X686598Y458087D01*
X686457Y458298D01*
X686433Y458321D01*
X686363Y458368D01*
X686245Y458439D01*
X686081Y458533D01*
X685869Y458627D01*
X685587Y458697D01*
X685235Y458744D01*
X684835Y458768D01*
D02*
G37*
G36*
X676119Y466709D02*
X673722D01*
X673558Y466662D01*
X673464Y466592D01*
X673370Y466521D01*
X673323Y466404D01*
X673299Y466239D01*
Y453387D01*
Y453364D01*
Y453317D01*
X673323Y453223D01*
X673370Y453129D01*
X673417Y453035D01*
X673511Y452941D01*
X673628Y452894D01*
X673793Y452871D01*
X676189D01*
X676283Y452894D01*
X676377Y452941D01*
X676448Y452988D01*
X676542Y453082D01*
X676589Y453223D01*
X676612Y453387D01*
Y466239D01*
Y466263D01*
Y466310D01*
X676542Y466474D01*
X676495Y466568D01*
X676401Y466639D01*
X676283Y466686D01*
X676119Y466709D01*
D02*
G37*
G36*
X665805D02*
X662962D01*
Y460835D01*
X664418D01*
X664630Y460859D01*
X664865Y460906D01*
X665147Y460953D01*
X665405Y461023D01*
X665664Y461141D01*
X665852Y461305D01*
X665875Y461329D01*
X665922Y461399D01*
X665992Y461517D01*
X666086Y461705D01*
X666157Y461940D01*
X666227Y462245D01*
X666274Y462598D01*
X666298Y463020D01*
Y466239D01*
Y466263D01*
Y466310D01*
X666227Y466474D01*
X666180Y466568D01*
X666086Y466639D01*
X665969Y466686D01*
X665805Y466709D01*
D02*
G37*
%LPD*%
D10*
X237490Y30480D02*
G03*
X237490Y30480I-12700J0D01*
G01*
X93980Y802640D02*
G03*
X93980Y802640I-12700J0D01*
G01*
X195580Y30480D02*
G03*
X195580Y30480I-12700J0D01*
G01*
X633620Y19340D02*
X857620D01*
X633620D02*
Y76840D01*
X857620D01*
Y19340D02*
Y76840D01*
X383570Y14260D02*
X607570D01*
X383570D02*
Y71760D01*
X607570D01*
Y14260D02*
Y71760D01*
X382100Y821230D02*
X456100D01*
X382100Y763730D02*
Y821230D01*
Y763730D02*
X456100D01*
Y821230D01*
X123550Y766440D02*
Y823940D01*
Y766440D02*
X347550D01*
Y823940D01*
X123550D02*
X347550D01*
X471530Y763900D02*
Y821400D01*
Y763900D02*
X695530D01*
Y821400D01*
X471530D02*
X695530D01*
X728940Y763900D02*
Y821400D01*
Y763900D02*
X877940D01*
Y821400D01*
X728940D02*
X877940D01*
X810890Y724340D02*
X868390D01*
X810890Y600340D02*
Y724340D01*
Y600340D02*
X868390D01*
Y724340D01*
X812160Y561710D02*
X869660D01*
X812160Y437710D02*
Y561710D01*
Y437710D02*
X869660D01*
Y561710D01*
X870930Y275620D02*
Y399620D01*
X813430Y275620D02*
X870930D01*
X813430D02*
Y399620D01*
X870930D01*
X211669Y54609D02*
X215054D01*
X213362D01*
Y49531D01*
X216747D02*
Y54609D01*
X219286D01*
X220133Y53763D01*
Y52070D01*
X219286Y51224D01*
X216747D01*
X221826Y53763D02*
X222672Y54609D01*
X224365D01*
X225211Y53763D01*
Y52916D01*
X224365Y52070D01*
X223518D01*
X224365D01*
X225211Y51224D01*
Y50377D01*
X224365Y49531D01*
X222672D01*
X221826Y50377D01*
X242570Y20319D02*
X245956D01*
X244263Y22012D02*
Y18626D01*
X251034Y22858D02*
X247648D01*
Y20319D01*
X249341Y21166D01*
X250187D01*
X251034Y20319D01*
Y18626D01*
X250187Y17780D01*
X248495D01*
X247648Y18626D01*
X153246Y24552D02*
X152399Y25398D01*
X150706D01*
X149860Y24552D01*
Y21166D01*
X150706Y20320D01*
X152399D01*
X153246Y21166D01*
Y22859D01*
X151553D01*
X154938Y20320D02*
Y25398D01*
X158324Y20320D01*
Y25398D01*
X160017D02*
Y20320D01*
X162556D01*
X163402Y21166D01*
Y24552D01*
X162556Y25398D01*
X160017D01*
X68580Y779779D02*
X71966D01*
X70273Y781472D02*
Y778086D01*
X73658Y781472D02*
X74505Y782318D01*
X76198D01*
X77044Y781472D01*
Y780626D01*
X76198Y779779D01*
X75351D01*
X76198D01*
X77044Y778933D01*
Y778086D01*
X76198Y777240D01*
X74505D01*
X73658Y778086D01*
X78737Y782318D02*
Y778933D01*
X80429Y777240D01*
X82122Y778933D01*
Y782318D01*
X83815Y781472D02*
X84662Y782318D01*
X86354D01*
X87201Y781472D01*
Y780626D01*
X86354Y779779D01*
X85508D01*
X86354D01*
X87201Y778933D01*
Y778086D01*
X86354Y777240D01*
X84662D01*
X83815Y778086D01*
X168489Y54609D02*
X171874D01*
X170182D01*
Y49531D01*
X173567D02*
Y54609D01*
X176106D01*
X176953Y53763D01*
Y52070D01*
X176106Y51224D01*
X173567D01*
X182031Y49531D02*
X178646D01*
X182031Y52916D01*
Y53763D01*
X181185Y54609D01*
X179492D01*
X178646Y53763D01*
D11*
X70980Y688480D02*
G03*
X70980Y688480I-1250J0D01*
G01*
X60070Y604520D02*
G03*
X60070Y604520I-1250J0D01*
G01*
X131180Y530100D02*
G03*
X131180Y530100I-1250J0D01*
G01*
X635310Y675500D02*
G03*
X635310Y675500I-1250J0D01*
G01*
X342240Y719210D02*
G03*
X342240Y719210I-1250J0D01*
G01*
X504010Y638330D02*
G03*
X504010Y638330I-1250J0D01*
G01*
X801350Y124655D02*
G03*
X801350Y124655I-1250J0D01*
G01*
X681820D02*
G03*
X681820Y124655I-1250J0D01*
G01*
X50390Y246660D02*
G03*
X50390Y246660I-1250J0D01*
G01*
X143915Y193650D02*
G03*
X143915Y193650I-1250J0D01*
G01*
X558630Y120099D02*
G03*
X558630Y120099I-1250J0D01*
G01*
X431480Y127195D02*
G03*
X431480Y127195I-1250J0D01*
G01*
D12*
X626620Y53340D02*
G03*
X626620Y53340I-1000J0D01*
G01*
X376570Y48260D02*
G03*
X376570Y48260I-1000J0D01*
G01*
X464500Y787230D02*
G03*
X464500Y787230I-1000J0D01*
G01*
X356550Y789940D02*
G03*
X356550Y789940I-1000J0D01*
G01*
X704530Y787400D02*
G03*
X704530Y787400I-1000J0D01*
G01*
X886940D02*
G03*
X886940Y787400I-1000J0D01*
G01*
X835390Y592340D02*
G03*
X835390Y592340I-1000J0D01*
G01*
X836660Y429710D02*
G03*
X836660Y429710I-1000J0D01*
G01*
X582810Y316230D02*
G03*
X582810Y316230I-1000J0D01*
G01*
X623150Y242570D02*
G03*
X623150Y242570I-1000J0D01*
G01*
X718400Y238760D02*
G03*
X718400Y238760I-1000J0D01*
G01*
X837930Y267620D02*
G03*
X837930Y267620I-1000J0D01*
G01*
X-19640Y184440D02*
X125360D01*
X-19640Y94440D02*
Y184440D01*
X125360Y162440D02*
Y184440D01*
Y94440D02*
Y116440D01*
X-19640Y94440D02*
X63360D01*
X109360D02*
X125360D01*
X8981Y638030D02*
Y712930D01*
X8980Y638027D02*
X17100D01*
X43860D02*
X55980D01*
X55980D02*
Y639330D01*
X55933Y711620D02*
Y712933D01*
X43860D02*
X55933D01*
X8981Y712930D02*
X17100D01*
X42505Y563239D02*
X51475D01*
X42505Y582301D02*
X51475D01*
X139180Y463350D02*
Y498350D01*
X74180Y463350D02*
X139180D01*
X74180D02*
Y498350D01*
X139180D01*
X313100Y715560D02*
Y737560D01*
X334600Y715560D02*
Y737560D01*
X417150Y716710D02*
Y738710D01*
X395650Y716710D02*
Y738710D01*
X777510Y745390D02*
X779510D01*
X777510Y732890D02*
X779510D01*
X553331Y693069D02*
X586393D01*
X553331Y716631D02*
X586393D01*
X647560Y620700D02*
Y674700D01*
X693560Y620700D02*
Y674700D01*
X647560D02*
X693560D01*
X647560Y620700D02*
X693560D01*
X799181Y608677D02*
Y641739D01*
X775619Y608677D02*
Y641739D01*
X223169Y452099D02*
Y485161D01*
X246731Y452099D02*
Y485161D01*
X97890Y382160D02*
X110390D01*
X97890Y400160D02*
X110390D01*
X348490Y745960D02*
X380490D01*
X348490Y709460D02*
X380490D01*
X316760Y623830D02*
X499760D01*
X316760Y440830D02*
X499760D01*
Y623830D01*
X316760Y440830D02*
Y623830D01*
X906380Y432450D02*
Y760450D01*
X900380Y418450D02*
X906380D01*
X900380Y418450D02*
X900380Y418450D01*
X900380Y418450D02*
Y432450D01*
X906380D01*
X906380Y90450D02*
Y418450D01*
X900380Y90450D02*
X906380D01*
X900380Y74950D02*
Y90450D01*
Y74950D02*
X983380D01*
Y775950D01*
X900380Y760450D02*
Y775950D01*
Y760450D02*
X906380D01*
X900380Y775950D02*
X983380D01*
X97070Y694180D02*
X109070D01*
X112570Y663560D02*
Y692800D01*
Y663560D02*
X118570D01*
Y692800D01*
X112570D02*
X118570D01*
X473710Y278380D02*
X481760D01*
X491060D02*
X507160D01*
X516460D02*
X532560D01*
X541860D02*
X557960D01*
X567260D02*
X575310D01*
X567260Y328680D02*
X575310D01*
X541860D02*
X557960D01*
X516460D02*
X532560D01*
X491060D02*
X507160D01*
X473710D02*
X481760D01*
X473710Y278380D02*
Y328680D01*
X575310Y278380D02*
Y328680D01*
X794100Y140930D02*
Y169930D01*
X824850D02*
X825600D01*
X794100D02*
X794850D01*
X825600Y140930D02*
Y169930D01*
X824850Y140930D02*
X825600D01*
X794100D02*
X794850D01*
X674570D02*
Y169930D01*
X705320D02*
X706070D01*
X674570D02*
X675320D01*
X706070Y140930D02*
Y169930D01*
X705320Y140930D02*
X706070D01*
X674570D02*
X675320D01*
X672435Y280420D02*
X680685D01*
X647050D02*
X661050D01*
X627415D02*
X635665D01*
X627415Y230120D02*
X635665D01*
X647050D02*
X661050D01*
X672435D02*
X680685D01*
Y280420D01*
X627415Y230120D02*
Y280420D01*
X767685Y276610D02*
X775935D01*
X742300D02*
X756300D01*
X722665D02*
X730915D01*
X722665Y226310D02*
X730915D01*
X742300D02*
X756300D01*
X767685D02*
X775935D01*
Y276610D01*
X722665Y226310D02*
Y276610D01*
X672100Y330100D02*
X674100D01*
X672100Y317600D02*
X674100D01*
X671940Y372010D02*
X673940D01*
X671940Y359510D02*
X673940D01*
X318670Y324120D02*
Y326120D01*
X306170Y324120D02*
Y326120D01*
X300639Y251439D02*
Y284501D01*
X324201Y251439D02*
Y284501D01*
X224910Y140031D02*
X265972D01*
X224910Y113969D02*
X265972D01*
X227119Y96851D02*
X268181D01*
X227119Y70789D02*
X268181D01*
X202600Y205045D02*
Y217770D01*
Y150530D02*
Y163255D01*
Y150530D02*
X269840D01*
Y205045D02*
Y217770D01*
Y150530D02*
Y163255D01*
X202600Y217770D02*
X269840D01*
X431449Y320921D02*
Y353983D01*
X455011Y320921D02*
Y353983D01*
X448210Y279830D02*
Y281830D01*
X435710Y279830D02*
Y281830D01*
X193959Y281919D02*
Y314981D01*
X217521Y281919D02*
Y314981D01*
X48901Y497165D02*
Y506135D01*
X29839Y497165D02*
Y506135D01*
X478890Y244110D02*
Y246110D01*
X491390Y244110D02*
Y246110D01*
X506932Y244110D02*
Y246110D01*
X519432Y244110D02*
Y246110D01*
X566520Y242840D02*
Y244840D01*
X579020Y242840D02*
Y244840D01*
X536040Y244110D02*
Y246110D01*
X548540Y244110D02*
Y246110D01*
X540097Y392781D02*
X573159D01*
X540097Y369219D02*
X573159D01*
X547349Y633379D02*
X580411D01*
X547349Y656941D02*
X580411D01*
X98385Y219081D02*
X107355D01*
X98385Y200019D02*
X107355D01*
X45990Y354430D02*
X47990D01*
X45990Y366930D02*
X47990D01*
X327930Y62330D02*
X329930D01*
X327930Y74830D02*
X329930D01*
X175111Y63721D02*
Y92883D01*
X152549Y63721D02*
Y92883D01*
X492739Y369219D02*
X525801D01*
X492739Y392781D02*
X525801D01*
X569311Y506709D02*
Y539771D01*
X545749Y506709D02*
Y539771D01*
X637612Y164056D02*
Y197118D01*
X661174Y164056D02*
Y197118D01*
X142350Y292200D02*
Y304700D01*
X124350Y292200D02*
Y304700D01*
X338461Y128865D02*
Y137835D01*
X319399Y128865D02*
Y137835D01*
X39890Y278410D02*
Y313410D01*
X104890D01*
Y278410D02*
Y313410D01*
X39890Y278410D02*
X104890D01*
X173547Y117469D02*
X182517D01*
X173547Y136531D02*
X182517D01*
X162420Y199150D02*
X166910D01*
X162420Y169150D02*
X166910D01*
X183539Y231289D02*
X212701D01*
X183539Y253851D02*
X212701D01*
X778861Y108297D02*
Y141359D01*
X755299Y108297D02*
Y141359D01*
X637612Y105389D02*
Y138451D01*
X661174Y105389D02*
Y138451D01*
X538831Y100833D02*
Y133895D01*
X515269Y100833D02*
Y133895D01*
X413218Y108098D02*
Y141160D01*
X389656Y108098D02*
Y141160D01*
X217521Y383887D02*
Y416949D01*
X193959Y383887D02*
Y416949D01*
X547349Y595279D02*
X580411D01*
X547349Y618841D02*
X580411D01*
X158399Y281919D02*
Y314981D01*
X181961Y281919D02*
Y314981D01*
X413218Y166765D02*
Y199827D01*
X389656Y166765D02*
Y199827D01*
X590161Y369219D02*
X623223D01*
X590161Y392781D02*
X623223D01*
X215220Y561650D02*
Y583650D01*
X193720Y561650D02*
Y583650D01*
X801721Y456811D02*
Y489873D01*
X778159Y456811D02*
Y489873D01*
X229490Y549970D02*
Y557470D01*
X245490Y549970D02*
Y557470D01*
X30459Y728629D02*
X63521D01*
X30459Y752191D02*
X63521D01*
X206910Y466200D02*
Y468200D01*
X194410Y466200D02*
Y468200D01*
X215220Y508430D02*
Y530430D01*
X193720Y508430D02*
Y530430D01*
X551380Y136374D02*
X552130D01*
X582130D02*
X582880D01*
Y165373D01*
X551380D02*
X552130D01*
X582130D02*
X582880D01*
X551380Y136374D02*
Y165373D01*
X424230Y143470D02*
X424980D01*
X454980D02*
X455730D01*
Y172470D01*
X424230D02*
X424980D01*
X454980D02*
X455730D01*
X424230Y143470D02*
Y172470D01*
X867310Y153940D02*
Y155940D01*
X854810Y153940D02*
Y155940D01*
X537561Y150730D02*
Y183792D01*
X513999Y150730D02*
Y183792D01*
X781969Y304779D02*
Y337841D01*
X805531Y304779D02*
Y337841D01*
D13*
X660560Y664700D02*
G03*
X660560Y664700I-3000J0D01*
G01*
X492760Y613830D02*
G03*
X492760Y613830I-3000J0D01*
G01*
D14*
X637540Y443230D02*
X731520D01*
X632460Y448310D02*
X637540Y443230D01*
X632460Y448310D02*
Y494030D01*
X636270Y497840D01*
X730250D01*
X735330Y492760D01*
Y447040D02*
Y492760D01*
X731520Y443230D02*
X735330Y447040D01*
X254868Y327048D02*
X261836D01*
X280544D02*
X287868D01*
X281001Y267048D02*
X287868D01*
X254868D02*
X261379D01*
X254868D02*
Y327048D01*
X263748Y286888D02*
X278988D01*
Y307208D01*
X263748D02*
X278988D01*
X263748Y286888D02*
Y307208D01*
X287868Y267048D02*
Y327048D01*
X384408Y342288D02*
X391376D01*
X410084D02*
X417408D01*
X410541Y282288D02*
X417408D01*
X384408D02*
X390919D01*
X384408D02*
Y342288D01*
X393288Y302128D02*
X408528D01*
Y322448D01*
X393288D02*
X408528D01*
X393288Y302128D02*
Y322448D01*
X417408Y282288D02*
Y342288D01*
D15*
X29310Y403950D02*
X41810D01*
X309970Y31850D02*
Y44350D01*
D16*
X8931Y193763D02*
X13929D01*
Y196262D01*
X13096Y197095D01*
X9764D01*
X8931Y196262D01*
Y193763D01*
X9764Y202093D02*
X8931Y201260D01*
Y199594D01*
X9764Y198761D01*
X13096D01*
X13929Y199594D01*
Y201260D01*
X13096Y202093D01*
X11430Y203759D02*
Y207092D01*
X8931Y212090D02*
Y210424D01*
Y211257D01*
X13096D01*
X13929Y210424D01*
Y209591D01*
X13096Y208758D01*
X10597Y214589D02*
Y216255D01*
X11430Y217088D01*
X13929D01*
Y214589D01*
X13096Y213756D01*
X12263Y214589D01*
Y217088D01*
X10597Y222087D02*
Y219588D01*
X11430Y218755D01*
X13096D01*
X13929Y219588D01*
Y222087D01*
Y223753D02*
X8931D01*
X12263D02*
X10597Y226252D01*
X12263Y223753D02*
X13929Y226252D01*
Y228751D02*
Y230417D01*
Y229584D01*
X8931D01*
X9764Y228751D01*
X203678Y227289D02*
Y222291D01*
X207010D01*
X208676D02*
X210342D01*
X209509D01*
Y227289D01*
X208676Y226456D01*
X902178Y779821D02*
Y784819D01*
X904677D01*
X905510Y783986D01*
Y782320D01*
X904677Y781487D01*
X902178D01*
X907176Y779821D02*
X908842D01*
X908009D01*
Y784819D01*
X907176Y783986D01*
X345918Y754339D02*
Y753506D01*
X347584Y751840D01*
X349250Y753506D01*
Y754339D01*
X347584Y751840D02*
Y749341D01*
X350916D02*
X352582D01*
X351749D01*
Y754339D01*
X350916Y753506D01*
X591424Y601167D02*
X590591Y600334D01*
Y598668D01*
X591424Y597835D01*
X594756D01*
X595589Y598668D01*
Y600334D01*
X594756Y601167D01*
X595589Y602834D02*
Y604500D01*
Y603666D01*
X590591D01*
X591424Y602834D01*
X595589Y606999D02*
Y608665D01*
Y607832D01*
X590591D01*
X591424Y606999D01*
X8890Y730209D02*
X7224D01*
X8057D01*
Y726044D01*
X7224Y725211D01*
X6391D01*
X5558Y726044D01*
X10556Y725211D02*
X12222D01*
X11389D01*
Y730209D01*
X10556Y729376D01*
X624007Y26629D02*
X622341D01*
X623174D01*
Y22464D01*
X622341Y21631D01*
X621508D01*
X620675Y22464D01*
X625673Y25796D02*
X626506Y26629D01*
X628172D01*
X629005Y25796D01*
Y24963D01*
X628172Y24130D01*
X627339D01*
X628172D01*
X629005Y23297D01*
Y22464D01*
X628172Y21631D01*
X626506D01*
X625673Y22464D01*
X371277Y24089D02*
X369611D01*
X370444D01*
Y19924D01*
X369611Y19091D01*
X368778D01*
X367945Y19924D01*
X376275Y19091D02*
X372943D01*
X376275Y22423D01*
Y23256D01*
X375442Y24089D01*
X373776D01*
X372943Y23256D01*
X27189Y612291D02*
Y617290D01*
X29688D01*
X30521Y616456D01*
Y614790D01*
X29688Y613957D01*
X27189D01*
X28855D02*
X30521Y612291D01*
X32187Y617290D02*
Y613957D01*
X33853Y612291D01*
X35519Y613957D01*
Y617290D01*
X37185Y612291D02*
X38851D01*
X38018D01*
Y617290D01*
X37185Y616456D01*
X22068Y593486D02*
X21235Y594319D01*
X19569D01*
X18736Y593486D01*
Y590154D01*
X19569Y589321D01*
X21235D01*
X22068Y590154D01*
X27066Y589321D02*
X23734D01*
X27066Y592653D01*
Y593486D01*
X26233Y594319D01*
X24567D01*
X23734Y593486D01*
X31231Y589321D02*
Y594319D01*
X28732Y591820D01*
X32064D01*
X75845Y527009D02*
Y522844D01*
X76678Y522011D01*
X78344D01*
X79177Y522844D01*
Y527009D01*
X84175Y522011D02*
X80843D01*
X84175Y525343D01*
Y526176D01*
X83342Y527009D01*
X81676D01*
X80843Y526176D01*
X316667Y749696D02*
X315834Y750529D01*
X314168D01*
X313335Y749696D01*
Y746364D01*
X314168Y745531D01*
X315834D01*
X316667Y746364D01*
X321665Y750529D02*
X318333D01*
Y748030D01*
X319999Y748863D01*
X320832D01*
X321665Y748030D01*
Y746364D01*
X320832Y745531D01*
X319166D01*
X318333Y746364D01*
X399217Y750966D02*
X398384Y751799D01*
X396718D01*
X395885Y750966D01*
Y747634D01*
X396718Y746801D01*
X398384D01*
X399217Y747634D01*
X404215Y751799D02*
X402549Y750966D01*
X400883Y749300D01*
Y747634D01*
X401716Y746801D01*
X403382D01*
X404215Y747634D01*
Y748467D01*
X403382Y749300D01*
X400883D01*
X367924Y820379D02*
X366258D01*
X367091D01*
Y816214D01*
X366258Y815381D01*
X365425D01*
X364592Y816214D01*
X369590Y815381D02*
X371256D01*
X370424D01*
Y820379D01*
X369590Y819546D01*
X373756D02*
X374589Y820379D01*
X376255D01*
X377088Y819546D01*
Y816214D01*
X376255Y815381D01*
X374589D01*
X373756Y816214D01*
Y819546D01*
X112197Y822919D02*
X110531D01*
X111364D01*
Y818754D01*
X110531Y817921D01*
X109698D01*
X108865Y818754D01*
X113863D02*
X114696Y817921D01*
X116362D01*
X117195Y818754D01*
Y822086D01*
X116362Y822919D01*
X114696D01*
X113863Y822086D01*
Y821253D01*
X114696Y820420D01*
X117195D01*
X475417Y756879D02*
X473751D01*
X474584D01*
Y752714D01*
X473751Y751881D01*
X472918D01*
X472085Y752714D01*
X479582Y751881D02*
Y756879D01*
X477083Y754380D01*
X480415D01*
X719257Y819109D02*
X717591D01*
X718424D01*
Y814944D01*
X717591Y814111D01*
X716758D01*
X715925Y814944D01*
X720923Y819109D02*
X724255D01*
Y818276D01*
X720923Y814944D01*
Y814111D01*
X761208Y720131D02*
Y725129D01*
X763707D01*
X764540Y724296D01*
Y722630D01*
X763707Y721797D01*
X761208D01*
X762874D02*
X764540Y720131D01*
X766206D02*
X767872D01*
X767039D01*
Y725129D01*
X766206Y724296D01*
X814507Y734019D02*
X812841D01*
X813674D01*
Y729854D01*
X812841Y729021D01*
X812008D01*
X811175Y729854D01*
X819505Y734019D02*
X816173D01*
Y731520D01*
X817839Y732353D01*
X818672D01*
X819505Y731520D01*
Y729854D01*
X818672Y729021D01*
X817006D01*
X816173Y729854D01*
X555427Y726836D02*
X554594Y727669D01*
X552928D01*
X552095Y726836D01*
Y723504D01*
X552928Y722671D01*
X554594D01*
X555427Y723504D01*
X560425Y722671D02*
X557093D01*
X560425Y726003D01*
Y726836D01*
X559592Y727669D01*
X557926D01*
X557093Y726836D01*
X646953Y686267D02*
Y682102D01*
X647785Y681269D01*
X649452D01*
X650285Y682102D01*
Y686267D01*
X651951Y685434D02*
X652784Y686267D01*
X654450D01*
X655283Y685434D01*
Y684601D01*
X654450Y683768D01*
X653617D01*
X654450D01*
X655283Y682935D01*
Y682102D01*
X654450Y681269D01*
X652784D01*
X651951Y682102D01*
X777718Y654446D02*
X776885Y655279D01*
X775219D01*
X774386Y654446D01*
Y651114D01*
X775219Y650281D01*
X776885D01*
X777718Y651114D01*
X782716Y650281D02*
X779384D01*
X782716Y653613D01*
Y654446D01*
X781883Y655279D01*
X780217D01*
X779384Y654446D01*
X787714Y655279D02*
X786048Y654446D01*
X784382Y652780D01*
Y651114D01*
X785215Y650281D01*
X786881D01*
X787714Y651114D01*
Y651947D01*
X786881Y652780D01*
X784382D01*
X815777Y571459D02*
X814111D01*
X814944D01*
Y567294D01*
X814111Y566461D01*
X813278D01*
X812445Y567294D01*
X820775Y571459D02*
X819109Y570626D01*
X817443Y568960D01*
Y567294D01*
X818276Y566461D01*
X819942D01*
X820775Y567294D01*
Y568127D01*
X819942Y568960D01*
X817443D01*
X91064Y413146D02*
X90231Y413979D01*
X88565D01*
X87732Y413146D01*
Y409814D01*
X88565Y408981D01*
X90231D01*
X91064Y409814D01*
X92730Y408981D02*
X94396D01*
X93563D01*
Y413979D01*
X92730Y413146D01*
X100228Y413979D02*
X96896D01*
Y411480D01*
X98562Y412313D01*
X99395D01*
X100228Y411480D01*
Y409814D01*
X99395Y408981D01*
X97729D01*
X96896Y409814D01*
X258094Y359257D02*
X257261Y360090D01*
X255595D01*
X254762Y359257D01*
Y358424D01*
X255595Y357591D01*
X257261D01*
X258094Y356758D01*
Y355925D01*
X257261Y355092D01*
X255595D01*
X254762Y355925D01*
X259760Y360090D02*
Y355092D01*
X261427Y356758D01*
X263093Y355092D01*
Y360090D01*
X268091Y355092D02*
X264759D01*
X268091Y358424D01*
Y359257D01*
X267258Y360090D01*
X265592D01*
X264759Y359257D01*
X651772Y337861D02*
Y342859D01*
X654271D01*
X655104Y342026D01*
Y340360D01*
X654271Y339527D01*
X651772D01*
X653438D02*
X655104Y337861D01*
X656770D02*
X658437D01*
X657604D01*
Y342859D01*
X656770Y342026D01*
X664268Y342859D02*
X660936D01*
Y340360D01*
X662602Y341193D01*
X663435D01*
X664268Y340360D01*
Y338694D01*
X663435Y337861D01*
X661769D01*
X660936Y338694D01*
X652882Y379771D02*
Y384769D01*
X655381D01*
X656214Y383936D01*
Y382270D01*
X655381Y381437D01*
X652882D01*
X654548D02*
X656214Y379771D01*
X657880D02*
X659547D01*
X658714D01*
Y384769D01*
X657880Y383936D01*
X664545Y379771D02*
Y384769D01*
X662046Y382270D01*
X665378D01*
X724794Y288249D02*
X723128D01*
X723961D01*
Y284084D01*
X723128Y283251D01*
X722295D01*
X721462Y284084D01*
X726460Y283251D02*
X728127D01*
X727293D01*
Y288249D01*
X726460Y287416D01*
X730626D02*
X731459Y288249D01*
X733125D01*
X733958Y287416D01*
Y286583D01*
X733125Y285750D01*
X732292D01*
X733125D01*
X733958Y284917D01*
Y284084D01*
X733125Y283251D01*
X731459D01*
X730626Y284084D01*
X630377Y290789D02*
X628711D01*
X629544D01*
Y286624D01*
X628711Y285791D01*
X627878D01*
X627045Y286624D01*
X632043Y285791D02*
X633710D01*
X632877D01*
Y290789D01*
X632043Y289956D01*
X636209Y285791D02*
X637875D01*
X637042D01*
Y290789D01*
X636209Y289956D01*
X474604Y340319D02*
X472938D01*
X473771D01*
Y336154D01*
X472938Y335321D01*
X472105D01*
X471272Y336154D01*
X476270Y335321D02*
X477937D01*
X477104D01*
Y340319D01*
X476270Y339486D01*
X483768Y335321D02*
X480436D01*
X483768Y338653D01*
Y339486D01*
X482935Y340319D01*
X481269D01*
X480436Y339486D01*
X430632Y302461D02*
Y307459D01*
X433131D01*
X433964Y306626D01*
Y304960D01*
X433131Y304127D01*
X430632D01*
X432298D02*
X433964Y302461D01*
X435630D02*
X437296D01*
X436464D01*
Y307459D01*
X435630Y306626D01*
X439796D02*
X440629Y307459D01*
X442295D01*
X443128Y306626D01*
Y305793D01*
X442295Y304960D01*
X441462D01*
X442295D01*
X443128Y304127D01*
Y303294D01*
X442295Y302461D01*
X440629D01*
X439796Y303294D01*
X302362Y349451D02*
Y354449D01*
X304861D01*
X305694Y353616D01*
Y351950D01*
X304861Y351117D01*
X302362D01*
X304028D02*
X305694Y349451D01*
X307360D02*
X309027D01*
X308193D01*
Y354449D01*
X307360Y353616D01*
X314858Y349451D02*
X311526D01*
X314858Y352783D01*
Y353616D01*
X314025Y354449D01*
X312359D01*
X311526Y353616D01*
X584246Y221309D02*
Y216311D01*
X581746D01*
X580913Y217144D01*
Y218810D01*
X581746Y219643D01*
X584246D01*
X582579D02*
X580913Y221309D01*
X579247Y216311D02*
X575915D01*
Y217144D01*
X579247Y220476D01*
Y221309D01*
X553766Y222579D02*
Y217581D01*
X551266D01*
X550433Y218414D01*
Y220080D01*
X551266Y220913D01*
X553766D01*
X552099D02*
X550433Y222579D01*
X545435Y217581D02*
X547101Y218414D01*
X548767Y220080D01*
Y221746D01*
X547934Y222579D01*
X546268D01*
X545435Y221746D01*
Y220913D01*
X546268Y220080D01*
X548767D01*
X524658Y222579D02*
Y217581D01*
X522159D01*
X521326Y218414D01*
Y220080D01*
X522159Y220913D01*
X524658D01*
X522992D02*
X521326Y222579D01*
X516328Y217581D02*
X519660D01*
Y220080D01*
X517994Y219247D01*
X517161D01*
X516328Y220080D01*
Y221746D01*
X517161Y222579D01*
X518827D01*
X519660Y221746D01*
X496616Y222579D02*
Y217581D01*
X494116D01*
X493283Y218414D01*
Y220080D01*
X494116Y220913D01*
X496616D01*
X494949D02*
X493283Y222579D01*
X489118D02*
Y217581D01*
X491617Y220080D01*
X488285D01*
X95504Y707562D02*
Y702564D01*
X98003D01*
X98836Y703397D01*
Y706729D01*
X98003Y707562D01*
X95504D01*
X100502Y702564D02*
X102169D01*
X101335D01*
Y707562D01*
X100502Y706729D01*
X227584Y584372D02*
Y583539D01*
X229250Y581873D01*
X230916Y583539D01*
Y584372D01*
X229250Y581873D02*
Y579374D01*
X235915D02*
X232582D01*
X235915Y582706D01*
Y583539D01*
X235082Y584372D01*
X233415D01*
X232582Y583539D01*
X792125Y190459D02*
Y186294D01*
X792958Y185461D01*
X794624D01*
X795457Y186294D01*
Y190459D01*
X797123D02*
X800455D01*
Y189626D01*
X797123Y186294D01*
Y185461D01*
X550672Y189148D02*
Y184983D01*
X551505Y184150D01*
X553171D01*
X554004Y184983D01*
Y189148D01*
X559003D02*
X555670D01*
Y186649D01*
X557337Y187482D01*
X558170D01*
X559003Y186649D01*
Y184983D01*
X558170Y184150D01*
X556503D01*
X555670Y184983D01*
X672745Y189189D02*
Y185024D01*
X673578Y184191D01*
X675244D01*
X676077Y185024D01*
Y189189D01*
X681075D02*
X679409Y188356D01*
X677743Y186690D01*
Y185024D01*
X678576Y184191D01*
X680242D01*
X681075Y185024D01*
Y185857D01*
X680242Y186690D01*
X677743D01*
X423418Y196260D02*
Y192095D01*
X424251Y191262D01*
X425917D01*
X426750Y192095D01*
Y196260D01*
X430915Y191262D02*
Y196260D01*
X428416Y193761D01*
X431749D01*
X146965Y207629D02*
Y203464D01*
X147798Y202631D01*
X149464D01*
X150297Y203464D01*
Y207629D01*
X151963Y206796D02*
X152796Y207629D01*
X154462D01*
X155295Y206796D01*
Y205963D01*
X154462Y205130D01*
X155295Y204297D01*
Y203464D01*
X154462Y202631D01*
X152796D01*
X151963Y203464D01*
Y204297D01*
X152796Y205130D01*
X151963Y205963D01*
Y206796D01*
X152796Y205130D02*
X154462D01*
X41555Y341589D02*
Y337424D01*
X42388Y336591D01*
X44054D01*
X44887Y337424D01*
Y341589D01*
X46553Y337424D02*
X47386Y336591D01*
X49052D01*
X49885Y337424D01*
Y340756D01*
X49052Y341589D01*
X47386D01*
X46553Y340756D01*
Y339923D01*
X47386Y339090D01*
X49885D01*
X287782Y665398D02*
Y661233D01*
X288615Y660400D01*
X290281D01*
X291114Y661233D01*
Y665398D01*
X292780Y660400D02*
X294447D01*
X293613D01*
Y665398D01*
X292780Y664565D01*
X387634Y374497D02*
X386801Y375330D01*
X385135D01*
X384302Y374497D01*
Y373664D01*
X385135Y372831D01*
X386801D01*
X387634Y371998D01*
Y371165D01*
X386801Y370332D01*
X385135D01*
X384302Y371165D01*
X389300Y375330D02*
Y370332D01*
X390966Y371998D01*
X392633Y370332D01*
Y375330D01*
X394299Y370332D02*
X395965D01*
X395132D01*
Y375330D01*
X394299Y374497D01*
X333908Y92669D02*
Y87671D01*
X331409D01*
X330576Y88504D01*
Y90170D01*
X331409Y91003D01*
X333908D01*
X332242D02*
X330576Y92669D01*
X328910D02*
X327243D01*
X328077D01*
Y87671D01*
X328910Y88504D01*
X324744D02*
X323911Y87671D01*
X322245D01*
X321412Y88504D01*
Y91836D01*
X322245Y92669D01*
X323911D01*
X324744Y91836D01*
Y88504D01*
X849630Y182372D02*
Y187370D01*
X852129D01*
X852962Y186537D01*
Y184871D01*
X852129Y184038D01*
X849630D01*
X851296D02*
X852962Y182372D01*
X854628Y186537D02*
X855461Y187370D01*
X857128D01*
X857961Y186537D01*
Y185704D01*
X857128Y184871D01*
X856294D01*
X857128D01*
X857961Y184038D01*
Y183205D01*
X857128Y182372D01*
X855461D01*
X854628Y183205D01*
X19091Y367365D02*
X24089D01*
Y364866D01*
X23256Y364033D01*
X21590D01*
X20757Y364866D01*
Y367365D01*
Y365699D02*
X19091Y364033D01*
Y362366D02*
Y360700D01*
Y361533D01*
X24089D01*
X23256Y362366D01*
X19091Y358201D02*
Y356535D01*
Y357368D01*
X24089D01*
X23256Y358201D01*
X189230Y494792D02*
Y499790D01*
X191729D01*
X192562Y498957D01*
Y497291D01*
X191729Y496458D01*
X189230D01*
X190896D02*
X192562Y494792D01*
X197561D02*
X194228D01*
X197561Y498124D01*
Y498957D01*
X196728Y499790D01*
X195061D01*
X194228Y498957D01*
X815116Y413684D02*
X813450D01*
X814283D01*
Y409519D01*
X813450Y408686D01*
X812617D01*
X811784Y409519D01*
X816782Y412851D02*
X817615Y413684D01*
X819281D01*
X820115Y412851D01*
Y412018D01*
X819281Y411185D01*
X820115Y410352D01*
Y409519D01*
X819281Y408686D01*
X817615D01*
X816782Y409519D01*
Y410352D01*
X817615Y411185D01*
X816782Y412018D01*
Y412851D01*
X817615Y411185D02*
X819281D01*
X300949Y42661D02*
X295951D01*
Y40162D01*
X296784Y39329D01*
X300116D01*
X300949Y40162D01*
Y42661D01*
X300116Y34331D02*
X300949Y35164D01*
Y36830D01*
X300116Y37663D01*
X299283D01*
X298450Y36830D01*
Y35164D01*
X297617Y34331D01*
X296784D01*
X295951Y35164D01*
Y36830D01*
X296784Y37663D01*
X295951Y32665D02*
Y30998D01*
Y31832D01*
X300949D01*
X300116Y32665D01*
X28895Y397469D02*
Y392471D01*
X31395D01*
X32228Y393304D01*
Y396636D01*
X31395Y397469D01*
X28895D01*
X37226Y396636D02*
X36393Y397469D01*
X34727D01*
X33894Y396636D01*
Y395803D01*
X34727Y394970D01*
X36393D01*
X37226Y394137D01*
Y393304D01*
X36393Y392471D01*
X34727D01*
X33894Y393304D01*
X42224Y392471D02*
X38892D01*
X42224Y395803D01*
Y396636D01*
X41391Y397469D01*
X39725D01*
X38892Y396636D01*
X196372Y331317D02*
X195539Y332150D01*
X193873D01*
X193040Y331317D01*
Y327985D01*
X193873Y327152D01*
X195539D01*
X196372Y327985D01*
X198038Y331317D02*
X198871Y332150D01*
X200537D01*
X201371Y331317D01*
Y330484D01*
X200537Y329651D01*
X199704D01*
X200537D01*
X201371Y328818D01*
Y327985D01*
X200537Y327152D01*
X198871D01*
X198038Y327985D01*
X203037Y327152D02*
X204703D01*
X203870D01*
Y332150D01*
X203037Y331317D01*
X506334Y105141D02*
X505501Y104308D01*
Y102642D01*
X506334Y101809D01*
X509666D01*
X510499Y102642D01*
Y104308D01*
X509666Y105141D01*
X510499Y110140D02*
Y106807D01*
X507167Y110140D01*
X506334D01*
X505501Y109307D01*
Y107640D01*
X506334Y106807D01*
X505501Y111806D02*
Y115138D01*
X506334D01*
X509666Y111806D01*
X510499D01*
X143114Y121961D02*
X142281Y121128D01*
Y119462D01*
X143114Y118629D01*
X146446D01*
X147279Y119462D01*
Y121128D01*
X146446Y121961D01*
X147279Y126126D02*
X142281D01*
X144780Y123627D01*
Y126959D01*
X147279Y128625D02*
Y130291D01*
Y129458D01*
X142281D01*
X143114Y128625D01*
X193518Y264556D02*
X192685Y265389D01*
X191019D01*
X190186Y264556D01*
Y261224D01*
X191019Y260391D01*
X192685D01*
X193518Y261224D01*
X197683Y260391D02*
Y265389D01*
X195184Y262890D01*
X198516D01*
X200182Y264556D02*
X201015Y265389D01*
X202681D01*
X203514Y264556D01*
Y261224D01*
X202681Y260391D01*
X201015D01*
X200182Y261224D01*
Y264556D01*
X307736Y136682D02*
X308569Y137515D01*
Y139181D01*
X307736Y140014D01*
X304404D01*
X303571Y139181D01*
Y137515D01*
X304404Y136682D01*
X303571Y132517D02*
X308569D01*
X306070Y135016D01*
Y131684D01*
X303571Y126685D02*
Y130018D01*
X306903Y126685D01*
X307736D01*
X308569Y127519D01*
Y129185D01*
X307736Y130018D01*
X628254Y109698D02*
X627421Y108865D01*
Y107199D01*
X628254Y106365D01*
X631586D01*
X632419Y107199D01*
Y108865D01*
X631586Y109698D01*
X632419Y114696D02*
Y111364D01*
X629087Y114696D01*
X628254D01*
X627421Y113863D01*
Y112197D01*
X628254Y111364D01*
X631586Y116362D02*
X632419Y117195D01*
Y118861D01*
X631586Y119694D01*
X628254D01*
X627421Y118861D01*
Y117195D01*
X628254Y116362D01*
X629087D01*
X629920Y117195D01*
Y119694D01*
X379450Y113677D02*
X378618Y112844D01*
Y111178D01*
X379450Y110344D01*
X382783D01*
X383616Y111178D01*
Y112844D01*
X382783Y113677D01*
X383616Y118675D02*
Y115343D01*
X380284Y118675D01*
X379450D01*
X378618Y117842D01*
Y116176D01*
X379450Y115343D01*
Y120341D02*
X378618Y121174D01*
Y122840D01*
X379450Y123673D01*
X380284D01*
X381117Y122840D01*
X381950Y123673D01*
X382783D01*
X383616Y122840D01*
Y121174D01*
X382783Y120341D01*
X381950D01*
X381117Y121174D01*
X380284Y120341D01*
X379450D01*
X381117Y121174D02*
Y122840D01*
X742554Y112606D02*
X741721Y111772D01*
Y110106D01*
X742554Y109273D01*
X745886D01*
X746719Y110106D01*
Y111772D01*
X745886Y112606D01*
X742554Y114272D02*
X741721Y115105D01*
Y116771D01*
X742554Y117604D01*
X743387D01*
X744220Y116771D01*
Y115938D01*
Y116771D01*
X745053Y117604D01*
X745886D01*
X746719Y116771D01*
Y115105D01*
X745886Y114272D01*
X742554Y119270D02*
X741721Y120103D01*
Y121769D01*
X742554Y122602D01*
X745886D01*
X746719Y121769D01*
Y120103D01*
X745886Y119270D01*
X742554D01*
X784382Y354177D02*
X783549Y355010D01*
X781883D01*
X781050Y354177D01*
Y350845D01*
X781883Y350012D01*
X783549D01*
X784382Y350845D01*
X786048Y354177D02*
X786881Y355010D01*
X788548D01*
X789381Y354177D01*
Y353344D01*
X788548Y352511D01*
X787714D01*
X788548D01*
X789381Y351678D01*
Y350845D01*
X788548Y350012D01*
X786881D01*
X786048Y350845D01*
X791047Y354177D02*
X791880Y355010D01*
X793546D01*
X794379Y354177D01*
Y353344D01*
X793546Y352511D01*
X792713D01*
X793546D01*
X794379Y351678D01*
Y350845D01*
X793546Y350012D01*
X791880D01*
X791047Y350845D01*
X303052Y300837D02*
X302219Y301670D01*
X300553D01*
X299720Y300837D01*
Y297505D01*
X300553Y296672D01*
X302219D01*
X303052Y297505D01*
X304718Y300837D02*
X305551Y301670D01*
X307218D01*
X308051Y300837D01*
Y300004D01*
X307218Y299171D01*
X306385D01*
X307218D01*
X308051Y298338D01*
Y297505D01*
X307218Y296672D01*
X305551D01*
X304718Y297505D01*
X313049Y296672D02*
X309717D01*
X313049Y300004D01*
Y300837D01*
X312216Y301670D01*
X310550D01*
X309717Y300837D01*
X516412Y200253D02*
X515579Y201086D01*
X513913D01*
X513080Y200253D01*
Y196921D01*
X513913Y196088D01*
X515579D01*
X516412Y196921D01*
X518078Y200253D02*
X518911Y201086D01*
X520578D01*
X521411Y200253D01*
Y199420D01*
X520578Y198587D01*
X519744D01*
X520578D01*
X521411Y197754D01*
Y196921D01*
X520578Y196088D01*
X518911D01*
X518078Y196921D01*
X525576Y196088D02*
Y201086D01*
X523077Y198587D01*
X526409D01*
X281066Y131602D02*
X281899Y132435D01*
Y134101D01*
X281066Y134935D01*
X277734D01*
X276901Y134101D01*
Y132435D01*
X277734Y131602D01*
X281066Y129936D02*
X281899Y129103D01*
Y127437D01*
X281066Y126604D01*
X280233D01*
X279400Y127437D01*
Y128270D01*
Y127437D01*
X278567Y126604D01*
X277734D01*
X276901Y127437D01*
Y129103D01*
X277734Y129936D01*
X281066Y124938D02*
X281899Y124105D01*
Y122438D01*
X281066Y121606D01*
X280233D01*
X279400Y122438D01*
X278567Y121606D01*
X277734D01*
X276901Y122438D01*
Y124105D01*
X277734Y124938D01*
X278567D01*
X279400Y124105D01*
X280233Y124938D01*
X281066D01*
X279400Y124105D02*
Y122438D01*
X28986Y764641D02*
X28153Y765474D01*
X26487D01*
X25654Y764641D01*
Y761309D01*
X26487Y760476D01*
X28153D01*
X28986Y761309D01*
X33985Y760476D02*
X30652D01*
X33985Y763808D01*
Y764641D01*
X33152Y765474D01*
X31485D01*
X30652Y764641D01*
X38983Y765474D02*
X35651D01*
Y762975D01*
X37317Y763808D01*
X38150D01*
X38983Y762975D01*
Y761309D01*
X38150Y760476D01*
X36484D01*
X35651Y761309D01*
X121128Y328056D02*
X120295Y328889D01*
X118629D01*
X117795Y328056D01*
Y324724D01*
X118629Y323891D01*
X120295D01*
X121128Y324724D01*
X122794Y328056D02*
X123627Y328889D01*
X125293D01*
X126126Y328056D01*
Y327223D01*
X125293Y326390D01*
X124460D01*
X125293D01*
X126126Y325557D01*
Y324724D01*
X125293Y323891D01*
X123627D01*
X122794Y324724D01*
X127792Y328889D02*
X131124D01*
Y328056D01*
X127792Y324724D01*
Y323891D01*
X80488Y234076D02*
X79655Y234909D01*
X77989D01*
X77155Y234076D01*
Y230744D01*
X77989Y229911D01*
X79655D01*
X80488Y230744D01*
X82154Y234076D02*
X82987Y234909D01*
X84653D01*
X85486Y234076D01*
Y233243D01*
X84653Y232410D01*
X83820D01*
X84653D01*
X85486Y231577D01*
Y230744D01*
X84653Y229911D01*
X82987D01*
X82154Y230744D01*
X90485Y234909D02*
X87152D01*
Y232410D01*
X88818Y233243D01*
X89651D01*
X90485Y232410D01*
Y230744D01*
X89651Y229911D01*
X87985D01*
X87152Y230744D01*
X283606Y89692D02*
X284439Y90525D01*
Y92191D01*
X283606Y93025D01*
X280274D01*
X279441Y92191D01*
Y90525D01*
X280274Y89692D01*
X283606Y88026D02*
X284439Y87193D01*
Y85527D01*
X283606Y84694D01*
X282773D01*
X281940Y85527D01*
Y86360D01*
Y85527D01*
X281107Y84694D01*
X280274D01*
X279441Y85527D01*
Y87193D01*
X280274Y88026D01*
Y83028D02*
X279441Y82195D01*
Y80528D01*
X280274Y79696D01*
X283606D01*
X284439Y80528D01*
Y82195D01*
X283606Y83028D01*
X282773D01*
X281940Y82195D01*
Y79696D01*
X379450Y169694D02*
X378618Y168860D01*
Y167194D01*
X379450Y166361D01*
X382783D01*
X383616Y167194D01*
Y168860D01*
X382783Y169694D01*
X383616Y171360D02*
Y173026D01*
Y172193D01*
X378618D01*
X379450Y171360D01*
X141844Y67788D02*
X141011Y66955D01*
Y65289D01*
X141844Y64455D01*
X145176D01*
X146009Y65289D01*
Y66955D01*
X145176Y67788D01*
X141844Y69454D02*
X141011Y70287D01*
Y71953D01*
X141844Y72786D01*
X142677D01*
X143510Y71953D01*
Y71120D01*
Y71953D01*
X144343Y72786D01*
X145176D01*
X146009Y71953D01*
Y70287D01*
X145176Y69454D01*
X141011Y77785D02*
X141844Y76118D01*
X143510Y74452D01*
X145176D01*
X146009Y75285D01*
Y76951D01*
X145176Y77785D01*
X144343D01*
X143510Y76951D01*
Y74452D01*
X18654Y484764D02*
X17821Y483931D01*
Y482265D01*
X18654Y481432D01*
X21986D01*
X22819Y482265D01*
Y483931D01*
X21986Y484764D01*
X22819Y486430D02*
Y488097D01*
Y487263D01*
X17821D01*
X18654Y486430D01*
X17821Y493928D02*
X18654Y492262D01*
X20320Y490596D01*
X21986D01*
X22819Y491429D01*
Y493095D01*
X21986Y493928D01*
X21153D01*
X20320Y493095D01*
Y490596D01*
X628254Y168534D02*
X627421Y167701D01*
Y166035D01*
X628254Y165202D01*
X631586D01*
X632419Y166035D01*
Y167701D01*
X631586Y168534D01*
X632419Y170200D02*
Y171866D01*
Y171033D01*
X627421D01*
X628254Y170200D01*
X632419Y176865D02*
X627421D01*
X629920Y174366D01*
Y177698D01*
X767954Y463174D02*
X767121Y462341D01*
Y460675D01*
X767954Y459842D01*
X771286D01*
X772119Y460675D01*
Y462341D01*
X771286Y463174D01*
X772119Y464840D02*
Y466507D01*
Y465673D01*
X767121D01*
X767954Y464840D01*
Y469006D02*
X767121Y469839D01*
Y471505D01*
X767954Y472338D01*
X768787D01*
X769620Y471505D01*
Y470672D01*
Y471505D01*
X770453Y472338D01*
X771286D01*
X772119Y471505D01*
Y469839D01*
X771286Y469006D01*
X549534Y665876D02*
X548701Y666709D01*
X547035D01*
X546202Y665876D01*
Y662544D01*
X547035Y661711D01*
X548701D01*
X549534Y662544D01*
X551200Y661711D02*
X552867D01*
X552034D01*
Y666709D01*
X551200Y665876D01*
X555366D02*
X556199Y666709D01*
X557865D01*
X558698Y665876D01*
Y662544D01*
X557865Y661711D01*
X556199D01*
X555366Y662544D01*
Y665876D01*
X433507Y365788D02*
X432674Y366621D01*
X431008D01*
X430175Y365788D01*
Y362456D01*
X431008Y361623D01*
X432674D01*
X433507Y362456D01*
X435173D02*
X436006Y361623D01*
X437672D01*
X438505Y362456D01*
Y365788D01*
X437672Y366621D01*
X436006D01*
X435173Y365788D01*
Y364955D01*
X436006Y364122D01*
X438505D01*
X196372Y433425D02*
X195539Y434258D01*
X193873D01*
X193040Y433425D01*
Y430093D01*
X193873Y429260D01*
X195539D01*
X196372Y430093D01*
X198038Y433425D02*
X198871Y434258D01*
X200537D01*
X201371Y433425D01*
Y432592D01*
X200537Y431759D01*
X201371Y430926D01*
Y430093D01*
X200537Y429260D01*
X198871D01*
X198038Y430093D01*
Y430926D01*
X198871Y431759D01*
X198038Y432592D01*
Y433425D01*
X198871Y431759D02*
X200537D01*
X160457Y328056D02*
X159624Y328889D01*
X157958D01*
X157125Y328056D01*
Y324724D01*
X157958Y323891D01*
X159624D01*
X160457Y324724D01*
X162123Y328889D02*
X165455D01*
Y328056D01*
X162123Y324724D01*
Y323891D01*
X197134Y544931D02*
X196301Y545764D01*
X194635D01*
X193802Y544931D01*
Y541599D01*
X194635Y540766D01*
X196301D01*
X197134Y541599D01*
X201299Y540766D02*
Y545764D01*
X198800Y543265D01*
X202133D01*
X197134Y598017D02*
X196301Y598850D01*
X194635D01*
X193802Y598017D01*
Y594685D01*
X194635Y593852D01*
X196301D01*
X197134Y594685D01*
X198800Y598017D02*
X199633Y598850D01*
X201299D01*
X202133Y598017D01*
Y597184D01*
X201299Y596351D01*
X200466D01*
X201299D01*
X202133Y595518D01*
Y594685D01*
X201299Y593852D01*
X199633D01*
X198800Y594685D01*
X602090Y401716D02*
X601257Y402549D01*
X599591D01*
X598758Y401716D01*
Y398384D01*
X599591Y397551D01*
X601257D01*
X602090Y398384D01*
X607088Y397551D02*
X603756D01*
X607088Y400883D01*
Y401716D01*
X606255Y402549D01*
X604589D01*
X603756Y401716D01*
X608754D02*
X609588Y402549D01*
X611254D01*
X612087Y401716D01*
Y398384D01*
X611254Y397551D01*
X609588D01*
X608754Y398384D01*
Y401716D01*
X552442D02*
X551609Y402549D01*
X549943D01*
X549110Y401716D01*
Y398384D01*
X549943Y397551D01*
X551609D01*
X552442Y398384D01*
X554108Y397551D02*
X555774D01*
X554941D01*
Y402549D01*
X554108Y401716D01*
X558274Y398384D02*
X559107Y397551D01*
X560773D01*
X561606Y398384D01*
Y401716D01*
X560773Y402549D01*
X559107D01*
X558274Y401716D01*
Y400883D01*
X559107Y400050D01*
X561606D01*
X505084Y359806D02*
X504251Y360639D01*
X502585D01*
X501752Y359806D01*
Y356474D01*
X502585Y355641D01*
X504251D01*
X505084Y356474D01*
X506750Y355641D02*
X508416D01*
X507584D01*
Y360639D01*
X506750Y359806D01*
X510916D02*
X511749Y360639D01*
X513415D01*
X514248Y359806D01*
Y358973D01*
X513415Y358140D01*
X514248Y357307D01*
Y356474D01*
X513415Y355641D01*
X511749D01*
X510916Y356474D01*
Y357307D01*
X511749Y358140D01*
X510916Y358973D01*
Y359806D01*
X511749Y358140D02*
X513415D01*
X574914Y508526D02*
X574081Y507693D01*
Y506027D01*
X574914Y505194D01*
X578246D01*
X579079Y506027D01*
Y507693D01*
X578246Y508526D01*
X579079Y510193D02*
Y511859D01*
Y511026D01*
X574081D01*
X574914Y510193D01*
X579079Y517690D02*
Y514358D01*
X575747Y517690D01*
X574914D01*
X574081Y516857D01*
Y515191D01*
X574914Y514358D01*
D17*
X123952Y756410D02*
X126491D01*
X125222D01*
Y748792D01*
X123952D01*
X126491D01*
X130300D02*
Y756410D01*
X132839Y753870D01*
X135378Y756410D01*
Y748792D01*
X137917Y756410D02*
Y750062D01*
X139187Y748792D01*
X141726D01*
X142996Y750062D01*
Y756410D01*
X145535Y752601D02*
X150613D01*
X158231Y755140D02*
X156961Y756410D01*
X154422D01*
X153153Y755140D01*
Y750062D01*
X154422Y748792D01*
X156961D01*
X158231Y750062D01*
Y752601D01*
X155692D01*
X160770Y756410D02*
Y755140D01*
X163309Y752601D01*
X165848Y755140D01*
Y756410D01*
X163309Y752601D02*
Y748792D01*
X168388D02*
Y756410D01*
X172196D01*
X173466Y755140D01*
Y752601D01*
X172196Y751331D01*
X168388D01*
X170927D02*
X173466Y748792D01*
X179814Y756410D02*
X177275D01*
X176005Y755140D01*
Y750062D01*
X177275Y748792D01*
X179814D01*
X181084Y750062D01*
Y755140D01*
X179814Y756410D01*
X389380Y256029D02*
X384302D01*
Y248412D01*
X389380D01*
X384302Y252221D02*
X386841D01*
X391920Y248412D02*
Y256029D01*
X395728D01*
X396998Y254760D01*
Y252221D01*
X395728Y250951D01*
X391920D01*
X394459D02*
X396998Y248412D01*
X399537D02*
Y253490D01*
X402076Y256029D01*
X404615Y253490D01*
Y248412D01*
Y252221D01*
X399537D01*
X412233Y254760D02*
X410963Y256029D01*
X408424D01*
X407155Y254760D01*
Y253490D01*
X408424Y252221D01*
X410963D01*
X412233Y250951D01*
Y249682D01*
X410963Y248412D01*
X408424D01*
X407155Y249682D01*
X419851Y256029D02*
X414772D01*
Y248412D01*
X419851D01*
X414772Y252221D02*
X417311D01*
X254762Y230632D02*
Y238249D01*
X258571D01*
X259840Y236980D01*
Y234441D01*
X258571Y233171D01*
X254762D01*
X257301D02*
X259840Y230632D01*
X267458Y238249D02*
X262379D01*
Y230632D01*
X267458D01*
X262379Y234441D02*
X264919D01*
X275075Y236980D02*
X273806Y238249D01*
X271267D01*
X269997Y236980D01*
Y235710D01*
X271267Y234441D01*
X273806D01*
X275075Y233171D01*
Y231902D01*
X273806Y230632D01*
X271267D01*
X269997Y231902D01*
X282693Y238249D02*
X277615D01*
Y230632D01*
X282693D01*
X277615Y234441D02*
X280154D01*
X285232Y238249D02*
X290310D01*
X287771D01*
Y230632D01*
X383032Y80772D02*
Y88390D01*
X386841D01*
X388110Y87120D01*
Y84581D01*
X386841Y83311D01*
X383032D01*
X385571D02*
X388110Y80772D01*
X390649Y88390D02*
X393189D01*
X391919D01*
Y80772D01*
X390649D01*
X393189D01*
X402076Y87120D02*
X400806Y88390D01*
X398267D01*
X396997Y87120D01*
Y82042D01*
X398267Y80772D01*
X400806D01*
X402076Y82042D01*
Y84581D01*
X399537D01*
X404615Y88390D02*
Y80772D01*
Y84581D01*
X409693D01*
Y88390D01*
Y80772D01*
X412233Y88390D02*
X417311D01*
X414772D01*
Y80772D01*
X427468D02*
Y88390D01*
X430007Y85850D01*
X432546Y88390D01*
Y80772D01*
X438894Y88390D02*
X436355D01*
X435085Y87120D01*
Y82042D01*
X436355Y80772D01*
X438894D01*
X440163Y82042D01*
Y87120D01*
X438894Y88390D01*
X442703D02*
X447781D01*
X445242D01*
Y80772D01*
X454129Y88390D02*
X451590D01*
X450320Y87120D01*
Y82042D01*
X451590Y80772D01*
X454129D01*
X455399Y82042D01*
Y87120D01*
X454129Y88390D01*
X457938Y80772D02*
Y88390D01*
X461746D01*
X463016Y87120D01*
Y84581D01*
X461746Y83311D01*
X457938D01*
X460477D02*
X463016Y80772D01*
X637061Y93469D02*
Y85852D01*
X642139D01*
X649757Y93469D02*
X644679D01*
Y85852D01*
X649757D01*
X644679Y89661D02*
X647218D01*
X657374Y93469D02*
X652296D01*
Y89661D01*
X654835D01*
X652296D01*
Y85852D01*
X659914Y93469D02*
X664992D01*
X662453D01*
Y85852D01*
X675149D02*
Y93469D01*
X677688Y90930D01*
X680227Y93469D01*
Y85852D01*
X686575Y93469D02*
X684036D01*
X682766Y92200D01*
Y87122D01*
X684036Y85852D01*
X686575D01*
X687845Y87122D01*
Y92200D01*
X686575Y93469D01*
X690384D02*
X695462D01*
X692923D01*
Y85852D01*
X701810Y93469D02*
X699271D01*
X698001Y92200D01*
Y87122D01*
X699271Y85852D01*
X701810D01*
X703080Y87122D01*
Y92200D01*
X701810Y93469D01*
X705619Y85852D02*
Y93469D01*
X709428D01*
X710697Y92200D01*
Y89661D01*
X709428Y88391D01*
X705619D01*
X708158D02*
X710697Y85852D01*
X887220Y533910D02*
X888490Y535179D01*
Y537718D01*
X887220Y538988D01*
X885950D01*
X884681Y537718D01*
Y535179D01*
X883411Y533910D01*
X882142D01*
X880872Y535179D01*
Y537718D01*
X882142Y538988D01*
X888490Y527562D02*
Y530101D01*
X887220Y531371D01*
X882142D01*
X880872Y530101D01*
Y527562D01*
X882142Y526292D01*
X887220D01*
X888490Y527562D01*
X880872Y523753D02*
X888490D01*
X880872Y518675D01*
X888490D01*
X880872Y516135D02*
X885950D01*
X888490Y513596D01*
X885950Y511057D01*
X880872D01*
X884681D01*
Y516135D01*
X880872Y508518D02*
X888490D01*
Y504709D01*
X887220Y503439D01*
X884681D01*
X883411Y504709D01*
Y508518D01*
Y505979D02*
X880872Y503439D01*
X887220Y488204D02*
X888490Y489474D01*
Y492013D01*
X887220Y493283D01*
X885950D01*
X884681Y492013D01*
Y489474D01*
X883411Y488204D01*
X882142D01*
X880872Y489474D01*
Y492013D01*
X882142Y493283D01*
X888490Y480587D02*
Y485665D01*
X880872D01*
Y480587D01*
X884681Y485665D02*
Y483126D01*
X880872Y478048D02*
X888490D01*
X880872Y472969D01*
X888490D01*
X887220Y465352D02*
X888490Y466621D01*
Y469161D01*
X887220Y470430D01*
X885950D01*
X884681Y469161D01*
Y466621D01*
X883411Y465352D01*
X882142D01*
X880872Y466621D01*
Y469161D01*
X882142Y470430D01*
X888490Y459004D02*
Y461543D01*
X887220Y462813D01*
X882142D01*
X880872Y461543D01*
Y459004D01*
X882142Y457734D01*
X887220D01*
X888490Y459004D01*
X880872Y455195D02*
X888490D01*
Y451386D01*
X887220Y450117D01*
X884681D01*
X883411Y451386D01*
Y455195D01*
Y452656D02*
X880872Y450117D01*
X887220Y442499D02*
X888490Y443769D01*
Y446308D01*
X887220Y447578D01*
X885950D01*
X884681Y446308D01*
Y443769D01*
X883411Y442499D01*
X882142D01*
X880872Y443769D01*
Y446308D01*
X882142Y447578D01*
X833880Y755140D02*
X832611Y756410D01*
X830072D01*
X828802Y755140D01*
Y753870D01*
X830072Y752601D01*
X832611D01*
X833880Y751331D01*
Y750062D01*
X832611Y748792D01*
X830072D01*
X828802Y750062D01*
X836420Y748792D02*
Y756410D01*
X840228D01*
X841498Y755140D01*
Y752601D01*
X840228Y751331D01*
X836420D01*
X849115Y756410D02*
X844037D01*
Y748792D01*
X849115D01*
X844037Y752601D02*
X846576D01*
X851655Y748792D02*
Y753870D01*
X854194Y756410D01*
X856733Y753870D01*
Y748792D01*
Y752601D01*
X851655D01*
X859272Y756410D02*
Y748792D01*
Y751331D01*
X864351Y756410D01*
X860542Y752601D01*
X864351Y748792D01*
X871968Y756410D02*
X866890D01*
Y748792D01*
X871968D01*
X866890Y752601D02*
X869429D01*
X874507Y748792D02*
Y756410D01*
X878316D01*
X879586Y755140D01*
Y752601D01*
X878316Y751331D01*
X874507D01*
X877046D02*
X879586Y748792D01*
X597662Y746252D02*
Y753869D01*
X600201Y751330D01*
X602740Y753869D01*
Y746252D01*
X610358Y753869D02*
X605280D01*
Y746252D01*
X610358D01*
X605280Y750061D02*
X607819D01*
X612897Y753869D02*
X617975D01*
X615436D01*
Y746252D01*
X620515D02*
Y751330D01*
X623054Y753869D01*
X625593Y751330D01*
Y746252D01*
Y750061D01*
X620515D01*
X628132Y753869D02*
Y746252D01*
X633210D01*
X648446Y752600D02*
X647176Y753869D01*
X644637D01*
X643367Y752600D01*
Y751330D01*
X644637Y750061D01*
X647176D01*
X648446Y748791D01*
Y747522D01*
X647176Y746252D01*
X644637D01*
X643367Y747522D01*
X656063Y753869D02*
X650985D01*
Y746252D01*
X656063D01*
X650985Y750061D02*
X653524D01*
X658602Y746252D02*
Y753869D01*
X663681Y746252D01*
Y753869D01*
X671298Y752600D02*
X670029Y753869D01*
X667489D01*
X666220Y752600D01*
Y751330D01*
X667489Y750061D01*
X670029D01*
X671298Y748791D01*
Y747522D01*
X670029Y746252D01*
X667489D01*
X666220Y747522D01*
X677646Y753869D02*
X675107D01*
X673837Y752600D01*
Y747522D01*
X675107Y746252D01*
X677646D01*
X678916Y747522D01*
Y752600D01*
X677646Y753869D01*
X681455Y746252D02*
Y753869D01*
X685264D01*
X686533Y752600D01*
Y750061D01*
X685264Y748791D01*
X681455D01*
X683994D02*
X686533Y746252D01*
X694151Y752600D02*
X692881Y753869D01*
X690342D01*
X689072Y752600D01*
Y751330D01*
X690342Y750061D01*
X692881D01*
X694151Y748791D01*
Y747522D01*
X692881Y746252D01*
X690342D01*
X689072Y747522D01*
D18*
X70275Y824229D02*
X73661D01*
X71968D01*
Y819151D01*
X75354D02*
Y824229D01*
X77893D01*
X78739Y823383D01*
Y821690D01*
X77893Y820844D01*
X75354D01*
X80432Y819151D02*
X82125D01*
X81278D01*
Y824229D01*
X80432Y823383D01*
D19*
X225582Y501497D02*
X224749Y502330D01*
X223083D01*
X222250Y501497D01*
Y498165D01*
X223083Y497332D01*
X224749D01*
X225582Y498165D01*
X227248Y497332D02*
X228915D01*
X228081D01*
Y502330D01*
X227248Y501497D01*
X231414Y502330D02*
X234746D01*
Y501497D01*
X231414Y498165D01*
Y497332D01*
D20*
X790066Y256729D02*
X791399Y258062D01*
Y260727D01*
X790066Y262060D01*
X788733D01*
X787400Y260727D01*
Y258062D01*
X786067Y256729D01*
X784734D01*
X783401Y258062D01*
Y260727D01*
X784734Y262060D01*
X783401Y254063D02*
X791399D01*
Y250064D01*
X790066Y248731D01*
X787400D01*
X786067Y250064D01*
Y254063D01*
X791399Y246066D02*
Y243400D01*
Y244733D01*
X783401D01*
Y246066D01*
Y243400D01*
X685611Y275201D02*
X693609D01*
Y271202D01*
X692276Y269869D01*
X689610D01*
X688277Y271202D01*
Y275201D01*
Y272535D02*
X685611Y269869D01*
X693609Y267203D02*
X685611Y261872D01*
X693609D02*
X685611Y267203D01*
X693609Y251208D02*
Y245877D01*
Y248543D01*
X685611D01*
X693609Y243211D02*
X685611Y237879D01*
X693609D02*
X685611Y243211D01*
X597089Y311590D02*
Y314256D01*
Y312923D01*
X590424D01*
X589091Y314256D01*
Y315589D01*
X590424Y316922D01*
X597089Y308925D02*
Y303593D01*
Y306259D01*
X589091D01*
Y300927D02*
X594423D01*
X597089Y298261D01*
X594423Y295595D01*
X589091D01*
X593090D01*
Y300927D01*
X595756Y287598D02*
X597089Y288931D01*
Y291597D01*
X595756Y292930D01*
X590424D01*
X589091Y291597D01*
Y288931D01*
X590424Y287598D01*
X593090D01*
Y290264D01*
D21*
X979379Y425451D02*
D03*
M02*
