G04*
G04 #@! TF.GenerationSoftware,Altium Limited,Altium Designer,24.2.2 (26)*
G04*
G04 Layer_Color=8421504*
%FSLAX44Y44*%
%MOMM*%
G71*
G04*
G04 #@! TF.SameCoordinates,251A4116-46B9-4EB5-9C36-AF9AACF17162*
G04*
G04*
G04 #@! TF.FilePolarity,Positive*
G04*
G01*
G75*
%ADD22R,0.2500X1.5500*%
%ADD23C,0.5000*%
%ADD24R,1.2000X1.4500*%
%ADD25R,1.4500X1.2000*%
%ADD26R,1.4546X1.5562*%
%ADD27R,1.4562X1.3046*%
%ADD28R,1.5562X1.4546*%
%ADD29R,1.9000X1.5000*%
%ADD30R,1.3500X0.4000*%
%ADD31R,1.0200X0.7600*%
%ADD32R,1.5046X1.9062*%
G04:AMPARAMS|DCode=33|XSize=1.6042mm|YSize=0.8798mm|CornerRadius=0.4399mm|HoleSize=0mm|Usage=FLASHONLY|Rotation=270.000|XOffset=0mm|YOffset=0mm|HoleType=Round|Shape=RoundedRectangle|*
%AMROUNDEDRECTD33*
21,1,1.6042,0.0000,0,0,270.0*
21,1,0.7244,0.8798,0,0,270.0*
1,1,0.8798,0.0000,-0.3622*
1,1,0.8798,0.0000,0.3622*
1,1,0.8798,0.0000,0.3622*
1,1,0.8798,0.0000,-0.3622*
%
%ADD33ROUNDEDRECTD33*%
G04:AMPARAMS|DCode=34|XSize=1.6042mm|YSize=3.1798mm|CornerRadius=0.4411mm|HoleSize=0mm|Usage=FLASHONLY|Rotation=270.000|XOffset=0mm|YOffset=0mm|HoleType=Round|Shape=RoundedRectangle|*
%AMROUNDEDRECTD34*
21,1,1.6042,2.2975,0,0,270.0*
21,1,0.7219,3.1798,0,0,270.0*
1,1,0.8823,-1.1488,-0.3609*
1,1,0.8823,-1.1488,0.3609*
1,1,0.8823,1.1488,0.3609*
1,1,0.8823,1.1488,-0.3609*
%
%ADD34ROUNDEDRECTD34*%
%ADD35R,0.8798X1.6042*%
%ADD36R,1.3500X0.9500*%
%ADD37O,1.9000X0.6500*%
%ADD38R,1.0000X1.8000*%
%ADD39R,1.4000X1.2000*%
%ADD40R,1.5000X1.9000*%
%ADD41O,0.3000X2.1000*%
%ADD42O,2.1000X0.3000*%
%ADD43R,1.2000X0.6000*%
%ADD44R,1.7540X1.8062*%
%ADD45R,2.4130X3.4290*%
%ADD46R,1.9062X1.5046*%
%ADD47R,1.2000X1.2000*%
%ADD48R,1.2000X1.2000*%
%ADD49R,1.8000X1.0000*%
%ADD50R,1.0000X0.7000*%
%ADD51R,1.3046X1.4562*%
G36*
X34980Y711480D02*
X25980D01*
Y716480D01*
X34980Y716480D01*
Y711480D01*
D02*
G37*
G36*
X39980Y698480D02*
X20980D01*
Y711480D01*
X39980D01*
Y698480D01*
D02*
G37*
G36*
Y639480D02*
X20980D01*
Y652480D01*
X39980D01*
Y639480D01*
D02*
G37*
G36*
X34980Y634480D02*
X25980Y634480D01*
Y639480D01*
X34980D01*
Y634480D01*
D02*
G37*
G36*
X565160Y323930D02*
X568810Y320780D01*
X573410D01*
Y305380D01*
X551810D01*
Y320780D01*
X556410D01*
X560060Y323930D01*
Y331530D01*
X565160D01*
Y323930D01*
D02*
G37*
G36*
X539760D02*
X543410Y320780D01*
X548010D01*
Y305380D01*
X526410D01*
Y320780D01*
X531010D01*
X534660Y323930D01*
Y331530D01*
X539760D01*
Y323930D01*
D02*
G37*
G36*
X514360D02*
X518010Y320780D01*
X522610D01*
Y305380D01*
X501010D01*
Y320780D01*
X505610D01*
X509260Y323930D01*
Y331530D01*
X514360D01*
Y323930D01*
D02*
G37*
G36*
X488960D02*
X492610Y320780D01*
X497210D01*
Y305380D01*
X475610D01*
Y320780D01*
X480210D01*
X483860Y323930D01*
Y331530D01*
X488960D01*
Y323930D01*
D02*
G37*
G36*
X573410Y286280D02*
X568810D01*
X565160Y283130D01*
Y275530D01*
X560060D01*
Y283130D01*
X556410Y286280D01*
X551810D01*
Y301680D01*
X573410D01*
Y286280D01*
D02*
G37*
G36*
X548010D02*
X543410D01*
X539760Y283130D01*
Y275530D01*
X534660D01*
Y283130D01*
X531010Y286280D01*
X526410D01*
Y301680D01*
X548010D01*
Y286280D01*
D02*
G37*
G36*
X522610D02*
X518010D01*
X514360Y283130D01*
Y275530D01*
X509260D01*
Y283130D01*
X505610Y286280D01*
X501010D01*
Y301680D01*
X522610D01*
Y286280D01*
D02*
G37*
G36*
X497210D02*
X492610D01*
X488960Y283130D01*
Y275530D01*
X483860D01*
Y283130D01*
X480210Y286280D01*
X475610D01*
Y301680D01*
X497210D01*
Y286280D01*
D02*
G37*
G36*
X669300Y275670D02*
X672950Y272520D01*
X677550D01*
Y257120D01*
X655950D01*
Y272520D01*
X660550D01*
X664200Y275670D01*
Y283270D01*
X669300D01*
Y275670D01*
D02*
G37*
G36*
X643900D02*
X647550Y272520D01*
X652150D01*
Y257120D01*
X630550D01*
Y272520D01*
X635150D01*
X638800Y275670D01*
Y283270D01*
X643900D01*
Y275670D01*
D02*
G37*
G36*
X764550Y271860D02*
X768200Y268710D01*
X772800D01*
Y253310D01*
X751200D01*
Y268710D01*
X755800D01*
X759450Y271860D01*
Y279460D01*
X764550D01*
Y271860D01*
D02*
G37*
G36*
X739150D02*
X742800Y268710D01*
X747400D01*
Y253310D01*
X725800D01*
Y268710D01*
X730400D01*
X734050Y271860D01*
Y279460D01*
X739150D01*
Y271860D01*
D02*
G37*
G36*
X677550Y238020D02*
X672950D01*
X669300Y234870D01*
Y227270D01*
X664200D01*
Y234870D01*
X660550Y238020D01*
X655950D01*
Y253420D01*
X677550D01*
Y238020D01*
D02*
G37*
G36*
X652150D02*
X647550D01*
X643900Y234870D01*
Y227270D01*
X638800D01*
Y234870D01*
X635150Y238020D01*
X630550D01*
Y253420D01*
X652150D01*
Y238020D01*
D02*
G37*
G36*
X772800Y234210D02*
X768200D01*
X764550Y231060D01*
Y223460D01*
X759450D01*
Y231060D01*
X755800Y234210D01*
X751200D01*
Y249610D01*
X772800D01*
Y234210D01*
D02*
G37*
G36*
X747400D02*
X742800D01*
X739150Y231060D01*
Y223460D01*
X734050D01*
Y231060D01*
X730400Y234210D01*
X725800D01*
Y249610D01*
X747400D01*
Y234210D01*
D02*
G37*
D22*
X819600Y172430D02*
D03*
X813100D02*
D03*
X806600Y172430D02*
D03*
X800100D02*
D03*
X819600Y138430D02*
D03*
X813100D02*
D03*
X806600Y138430D02*
D03*
X800100D02*
D03*
X700070Y172430D02*
D03*
X693570D02*
D03*
X687070Y172430D02*
D03*
X680570D02*
D03*
X700070Y138430D02*
D03*
X693570D02*
D03*
X687070Y138430D02*
D03*
X680570D02*
D03*
X557380Y133874D02*
D03*
X563880D02*
D03*
X570380Y133874D02*
D03*
X576880D02*
D03*
X557380Y167873D02*
D03*
X563880D02*
D03*
X570380Y167873D02*
D03*
X576880D02*
D03*
X430230Y140969D02*
D03*
X436730D02*
D03*
X443229Y140970D02*
D03*
X449729D02*
D03*
X430230Y174970D02*
D03*
X436730D02*
D03*
X443229Y174970D02*
D03*
X449729D02*
D03*
D23*
X34980Y713980D02*
G03*
X32891Y712854I0J-2500D01*
G01*
X37069D02*
G03*
X34980Y713980I-2089J-1374D01*
G01*
X32891Y712854D02*
G03*
X37480Y711480I2089J-1374D01*
G01*
D02*
G03*
X37069Y712854I-2500J0D01*
G01*
X27980Y637980D02*
G03*
X28480Y639480I-2000J1500D01*
G01*
X27480Y637480D02*
G03*
X27980Y637980I-1500J2000D01*
G01*
X28480Y639480D02*
G03*
X27480Y637480I-2500J0D01*
G01*
X37480Y639480D02*
G03*
X37480Y639480I-2500J0D01*
G01*
X28480Y711480D02*
G03*
X28480Y711480I-2500J0D01*
G01*
D24*
X662940Y365760D02*
D03*
X768510Y739140D02*
D03*
X788510D02*
D03*
X663100Y323850D02*
D03*
X683100D02*
D03*
X682940Y365760D02*
D03*
X56990Y360680D02*
D03*
X36990D02*
D03*
X338930Y68580D02*
D03*
X318930D02*
D03*
D25*
X200660Y457200D02*
D03*
X312420Y335120D02*
D03*
Y315120D02*
D03*
X441960Y290830D02*
D03*
Y270830D02*
D03*
X485140Y235110D02*
D03*
Y255110D02*
D03*
X513182Y235110D02*
D03*
Y255110D02*
D03*
X572770Y233840D02*
D03*
Y253840D02*
D03*
X542290Y235110D02*
D03*
Y255110D02*
D03*
X861060Y144940D02*
D03*
X200660Y477200D02*
D03*
X861060Y164940D02*
D03*
D26*
X615950Y381000D02*
D03*
X560604Y704850D02*
D03*
X579120D02*
D03*
X565886Y381000D02*
D03*
X547370D02*
D03*
X573138Y645160D02*
D03*
X554622D02*
D03*
X500012Y381000D02*
D03*
X518528D02*
D03*
X597434D02*
D03*
X37732Y740410D02*
D03*
X554622Y607060D02*
D03*
X573138D02*
D03*
X56248Y740410D02*
D03*
D27*
X163830Y86360D02*
D03*
Y70244D02*
D03*
D28*
X767080Y115570D02*
D03*
X787400Y615950D02*
D03*
Y634466D02*
D03*
X234950Y477888D02*
D03*
Y459372D02*
D03*
X312420Y277228D02*
D03*
Y258712D02*
D03*
X443230Y346710D02*
D03*
Y328194D02*
D03*
X205740Y307708D02*
D03*
Y289192D02*
D03*
X557530Y513982D02*
D03*
Y532498D02*
D03*
X649393Y189844D02*
D03*
Y171329D02*
D03*
X401437Y115371D02*
D03*
X527050Y108106D02*
D03*
X649393Y112662D02*
D03*
X401437Y174038D02*
D03*
X789940Y482600D02*
D03*
X525780Y158004D02*
D03*
X793750Y330568D02*
D03*
X170180Y289192D02*
D03*
X205740Y409676D02*
D03*
X401437Y133887D02*
D03*
X527050Y126621D02*
D03*
X649393Y131178D02*
D03*
X767080Y134086D02*
D03*
X205740Y391160D02*
D03*
X170180Y307708D02*
D03*
X793750Y312052D02*
D03*
X525780Y176519D02*
D03*
X789940Y464084D02*
D03*
X401437Y192553D02*
D03*
D29*
X30480Y665480D02*
D03*
Y685480D02*
D03*
D30*
X57480Y668980D02*
D03*
Y688480D02*
D03*
Y662480D02*
D03*
Y681980D02*
D03*
Y675480D02*
D03*
D31*
X33020Y604520D02*
D03*
X48220D02*
D03*
D32*
X31982Y572770D02*
D03*
X61998D02*
D03*
X117878Y209550D02*
D03*
X87862D02*
D03*
X163024Y127000D02*
D03*
X193040D02*
D03*
D33*
X83680Y510850D02*
D03*
X106680D02*
D03*
X95390Y265910D02*
D03*
X72390D02*
D03*
D34*
X106680Y450850D02*
D03*
X72390Y325910D02*
D03*
D35*
X129680Y510850D02*
D03*
X49390Y265910D02*
D03*
D36*
X323850Y719060D02*
D03*
Y734060D02*
D03*
X406400Y735210D02*
D03*
Y720210D02*
D03*
X204470Y565150D02*
D03*
Y526930D02*
D03*
Y580150D02*
D03*
Y511930D02*
D03*
D37*
X634060Y666750D02*
D03*
Y654050D02*
D03*
X707060Y641350D02*
D03*
Y628650D02*
D03*
Y654050D02*
D03*
Y666750D02*
D03*
X634060Y641350D02*
D03*
Y628650D02*
D03*
D38*
X119140Y391160D02*
D03*
X89140D02*
D03*
D39*
X353490Y719210D02*
D03*
X375490Y736210D02*
D03*
Y719210D02*
D03*
X353490Y736210D02*
D03*
D40*
X271190Y338420D02*
D03*
Y258420D02*
D03*
X400730Y353660D02*
D03*
Y273660D02*
D03*
D41*
X440760Y638330D02*
D03*
X335760D02*
D03*
X325760Y426330D02*
D03*
X485760D02*
D03*
X480760D02*
D03*
X330760D02*
D03*
X320760D02*
D03*
X445760Y638330D02*
D03*
X495760D02*
D03*
X490760D02*
D03*
X485760D02*
D03*
X480760D02*
D03*
X475760D02*
D03*
X470760D02*
D03*
X465760D02*
D03*
X460760D02*
D03*
X455760D02*
D03*
X450760D02*
D03*
X435760D02*
D03*
X430760D02*
D03*
X425760D02*
D03*
X420760D02*
D03*
X415760D02*
D03*
X410760D02*
D03*
X405760D02*
D03*
X400760D02*
D03*
X395760D02*
D03*
X390760D02*
D03*
X385760D02*
D03*
X380760D02*
D03*
X375760D02*
D03*
X370760D02*
D03*
X365760D02*
D03*
X360760D02*
D03*
X355760D02*
D03*
X350760D02*
D03*
X345760D02*
D03*
X340760D02*
D03*
X330760D02*
D03*
X325760D02*
D03*
X320760D02*
D03*
X335760Y426330D02*
D03*
X340760D02*
D03*
X345760D02*
D03*
X350760D02*
D03*
X355760D02*
D03*
X360760D02*
D03*
X365760D02*
D03*
X370760D02*
D03*
X375760D02*
D03*
X380760D02*
D03*
X385760D02*
D03*
X390760D02*
D03*
X395760D02*
D03*
X400760D02*
D03*
X405760D02*
D03*
X410760D02*
D03*
X415760D02*
D03*
X420760D02*
D03*
X425760D02*
D03*
X430760D02*
D03*
X435760D02*
D03*
X440760D02*
D03*
X445760D02*
D03*
X450760D02*
D03*
X455760D02*
D03*
X460760D02*
D03*
X465760D02*
D03*
X470760D02*
D03*
X475760D02*
D03*
X490760D02*
D03*
X495760D02*
D03*
D42*
X302260Y584830D02*
D03*
Y574830D02*
D03*
Y534830D02*
D03*
Y514830D02*
D03*
X514260Y529830D02*
D03*
Y524830D02*
D03*
X302260Y494830D02*
D03*
Y519830D02*
D03*
Y544830D02*
D03*
Y599830D02*
D03*
Y539830D02*
D03*
Y549830D02*
D03*
Y554830D02*
D03*
Y619830D02*
D03*
Y614830D02*
D03*
Y609830D02*
D03*
Y604830D02*
D03*
Y594830D02*
D03*
Y589830D02*
D03*
Y579830D02*
D03*
Y569830D02*
D03*
Y564830D02*
D03*
Y559830D02*
D03*
Y529830D02*
D03*
Y524830D02*
D03*
Y509830D02*
D03*
Y504830D02*
D03*
Y499830D02*
D03*
Y489830D02*
D03*
Y484830D02*
D03*
Y479830D02*
D03*
Y474830D02*
D03*
Y469830D02*
D03*
Y464830D02*
D03*
Y459830D02*
D03*
Y454830D02*
D03*
Y449830D02*
D03*
Y444830D02*
D03*
X514260D02*
D03*
Y449830D02*
D03*
Y454830D02*
D03*
Y459830D02*
D03*
Y464830D02*
D03*
Y469830D02*
D03*
Y474830D02*
D03*
Y479830D02*
D03*
Y484830D02*
D03*
Y489830D02*
D03*
Y494830D02*
D03*
Y499830D02*
D03*
Y504830D02*
D03*
Y509830D02*
D03*
Y514830D02*
D03*
Y519830D02*
D03*
Y534830D02*
D03*
Y539830D02*
D03*
Y544830D02*
D03*
Y549830D02*
D03*
Y554830D02*
D03*
Y559830D02*
D03*
Y564830D02*
D03*
Y569830D02*
D03*
Y574830D02*
D03*
Y579830D02*
D03*
Y584830D02*
D03*
Y589830D02*
D03*
Y594830D02*
D03*
Y599830D02*
D03*
Y604830D02*
D03*
Y609830D02*
D03*
Y614830D02*
D03*
Y619830D02*
D03*
D43*
X128070Y687680D02*
D03*
Y678180D02*
D03*
Y668680D02*
D03*
X103070D02*
D03*
Y687680D02*
D03*
Y678180D02*
D03*
D44*
X257202Y127000D02*
D03*
X233680D02*
D03*
X259411Y83820D02*
D03*
X235889D02*
D03*
D45*
X265430Y184150D02*
D03*
X207010D02*
D03*
D46*
X39370Y486642D02*
D03*
Y516658D02*
D03*
X328930Y118342D02*
D03*
Y148358D02*
D03*
D47*
X35560Y435950D02*
D03*
Y414950D02*
D03*
D48*
X341970Y38100D02*
D03*
X320970D02*
D03*
D49*
X133350Y283450D02*
D03*
Y313450D02*
D03*
X237490Y541220D02*
D03*
Y566220D02*
D03*
D50*
X153670Y193650D02*
D03*
Y184150D02*
D03*
Y174650D02*
D03*
X175660Y184150D02*
D03*
Y193650D02*
D03*
Y174650D02*
D03*
D51*
X190062Y242570D02*
D03*
X206178D02*
D03*
M02*
