G04*
G04 #@! TF.GenerationSoftware,Altium Limited,Altium Designer,24.2.2 (26)*
G04*
G04 Layer_Physical_Order=3*
G04 Layer_Color=39423*
%FSLAX44Y44*%
%MOMM*%
G71*
G04*
G04 #@! TF.SameCoordinates,251A4116-46B9-4EB5-9C36-AF9AACF17162*
G04*
G04*
G04 #@! TF.FilePolarity,Positive*
G04*
G01*
G75*
%ADD14C,0.2540*%
%ADD17C,0.2032*%
%ADD81C,0.8128*%
%ADD83C,0.5080*%
%ADD84C,0.7620*%
%ADD85C,1.0160*%
%ADD88C,1.5300*%
G04:AMPARAMS|DCode=89|XSize=4mm|YSize=1.8mm|CornerRadius=0.45mm|HoleSize=0mm|Usage=FLASHONLY|Rotation=90.000|XOffset=0mm|YOffset=0mm|HoleType=Round|Shape=RoundedRectangle|*
%AMROUNDEDRECTD89*
21,1,4.0000,0.9000,0,0,90.0*
21,1,3.1000,1.8000,0,0,90.0*
1,1,0.9000,0.4500,1.5500*
1,1,0.9000,0.4500,-1.5500*
1,1,0.9000,-0.4500,-1.5500*
1,1,0.9000,-0.4500,1.5500*
%
%ADD89ROUNDEDRECTD89*%
G04:AMPARAMS|DCode=90|XSize=4mm|YSize=1.8mm|CornerRadius=0.45mm|HoleSize=0mm|Usage=FLASHONLY|Rotation=180.000|XOffset=0mm|YOffset=0mm|HoleType=Round|Shape=RoundedRectangle|*
%AMROUNDEDRECTD90*
21,1,4.0000,0.9000,0,0,180.0*
21,1,3.1000,1.8000,0,0,180.0*
1,1,0.9000,-1.5500,0.4500*
1,1,0.9000,1.5500,0.4500*
1,1,0.9000,1.5500,-0.4500*
1,1,0.9000,-1.5500,-0.4500*
%
%ADD90ROUNDEDRECTD90*%
%ADD91C,1.5080*%
%ADD93C,1.4500*%
%ADD95C,1.5750*%
%ADD97C,1.6000*%
G04:AMPARAMS|DCode=98|XSize=1.6mm|YSize=1.6mm|CornerRadius=0.4mm|HoleSize=0mm|Usage=FLASHONLY|Rotation=270.000|XOffset=0mm|YOffset=0mm|HoleType=Round|Shape=RoundedRectangle|*
%AMROUNDEDRECTD98*
21,1,1.6000,0.8000,0,0,270.0*
21,1,0.8000,1.6000,0,0,270.0*
1,1,0.8000,-0.4000,-0.4000*
1,1,0.8000,-0.4000,0.4000*
1,1,0.8000,0.4000,0.4000*
1,1,0.8000,0.4000,-0.4000*
%
%ADD98ROUNDEDRECTD98*%
%ADD99C,1.5200*%
%ADD100C,1.2700*%
%ADD101C,0.9144*%
%ADD102C,0.6096*%
G36*
X994410Y0D02*
X0D01*
Y833120D01*
X994410D01*
Y0D01*
D02*
G37*
%LPC*%
G36*
X82622Y812830D02*
X79938D01*
X77347Y812136D01*
X75023Y810794D01*
X73126Y808897D01*
X71784Y806573D01*
X71090Y803982D01*
Y801298D01*
X71784Y798707D01*
X73126Y796383D01*
X75023Y794486D01*
X77347Y793144D01*
X79938Y792450D01*
X82622D01*
X85213Y793144D01*
X87537Y794486D01*
X89434Y796383D01*
X90776Y798707D01*
X91470Y801298D01*
Y803982D01*
X90776Y806573D01*
X89434Y808897D01*
X87537Y810794D01*
X85213Y812136D01*
X82622Y812830D01*
D02*
G37*
G36*
X299377Y800020D02*
X299320D01*
Y791210D01*
X308130D01*
Y791267D01*
X307443Y793831D01*
X306116Y796129D01*
X304239Y798006D01*
X301941Y799333D01*
X299377Y800020D01*
D02*
G37*
G36*
X296780D02*
X296723D01*
X294159Y799333D01*
X291861Y798006D01*
X289984Y796129D01*
X288657Y793831D01*
X287970Y791267D01*
Y791210D01*
X296780D01*
Y800020D01*
D02*
G37*
G36*
X174377D02*
X174320D01*
Y791210D01*
X183130D01*
Y791267D01*
X182443Y793831D01*
X181116Y796129D01*
X179239Y798006D01*
X176941Y799333D01*
X174377Y800020D01*
D02*
G37*
G36*
X171780D02*
X171723D01*
X169159Y799333D01*
X166861Y798006D01*
X164984Y796129D01*
X163657Y793831D01*
X162970Y791267D01*
Y791210D01*
X171780D01*
Y800020D01*
D02*
G37*
G36*
X779767Y797480D02*
X779710D01*
Y788670D01*
X788520D01*
Y788727D01*
X787833Y791291D01*
X786506Y793589D01*
X784629Y795466D01*
X782331Y796793D01*
X779767Y797480D01*
D02*
G37*
G36*
X777170D02*
X777113D01*
X774549Y796793D01*
X772251Y795466D01*
X770374Y793589D01*
X769047Y791291D01*
X768360Y788727D01*
Y788670D01*
X777170D01*
Y797480D01*
D02*
G37*
G36*
X407971Y797645D02*
X407870D01*
Y788500D01*
X417015D01*
Y788601D01*
X416305Y791250D01*
X414934Y793625D01*
X412995Y795564D01*
X410620Y796935D01*
X407971Y797645D01*
D02*
G37*
G36*
X405330D02*
X405229D01*
X402580Y796935D01*
X400205Y795564D01*
X398266Y793625D01*
X396895Y791250D01*
X396185Y788601D01*
Y788500D01*
X405330D01*
Y797645D01*
D02*
G37*
G36*
X945436Y824990D02*
X941784D01*
X938202Y824277D01*
X934828Y822880D01*
X931791Y820851D01*
X929209Y818269D01*
X927180Y815232D01*
X925782Y811858D01*
X925070Y808276D01*
Y804624D01*
X925782Y801042D01*
X927180Y797668D01*
X929209Y794631D01*
X931791Y792049D01*
X934828Y790020D01*
X938202Y788623D01*
X941784Y787910D01*
X945436D01*
X949018Y788623D01*
X952392Y790020D01*
X955429Y792049D01*
X958011Y794631D01*
X960040Y797668D01*
X961438Y801042D01*
X962150Y804624D01*
Y808276D01*
X961438Y811858D01*
X960040Y815232D01*
X958011Y818269D01*
X955429Y820851D01*
X952392Y822880D01*
X949018Y824277D01*
X945436Y824990D01*
D02*
G37*
G36*
X37386Y822450D02*
X33734D01*
X30152Y821738D01*
X26778Y820340D01*
X23741Y818311D01*
X21159Y815729D01*
X19130Y812692D01*
X17732Y809318D01*
X17020Y805736D01*
Y802084D01*
X17732Y798502D01*
X19130Y795128D01*
X21159Y792091D01*
X23741Y789509D01*
X26778Y787480D01*
X30152Y786083D01*
X33734Y785370D01*
X37386D01*
X40968Y786083D01*
X44342Y787480D01*
X47379Y789509D01*
X49961Y792091D01*
X51990Y795128D01*
X53387Y798502D01*
X54100Y802084D01*
Y805736D01*
X53387Y809318D01*
X51990Y812692D01*
X49961Y815729D01*
X47379Y818311D01*
X44342Y820340D01*
X40968Y821738D01*
X37386Y822450D01*
D02*
G37*
G36*
X324377Y800020D02*
X321723D01*
X319159Y799333D01*
X316861Y798006D01*
X314984Y796129D01*
X313657Y793831D01*
X312970Y791267D01*
Y788613D01*
X313657Y786049D01*
X314984Y783751D01*
X316861Y781874D01*
X319159Y780547D01*
X321723Y779860D01*
X324377D01*
X326941Y780547D01*
X329239Y781874D01*
X331116Y783751D01*
X332443Y786049D01*
X333130Y788613D01*
Y791267D01*
X332443Y793831D01*
X331116Y796129D01*
X329239Y798006D01*
X326941Y799333D01*
X324377Y800020D01*
D02*
G37*
G36*
X308130Y788670D02*
X299320D01*
Y779860D01*
X299377D01*
X301941Y780547D01*
X304239Y781874D01*
X306116Y783751D01*
X307443Y786049D01*
X308130Y788613D01*
Y788670D01*
D02*
G37*
G36*
X296780D02*
X287970D01*
Y788613D01*
X288657Y786049D01*
X289984Y783751D01*
X291861Y781874D01*
X294159Y780547D01*
X296723Y779860D01*
X296780D01*
Y788670D01*
D02*
G37*
G36*
X274377Y800020D02*
X271723D01*
X269159Y799333D01*
X266861Y798006D01*
X264984Y796129D01*
X263657Y793831D01*
X262970Y791267D01*
Y788613D01*
X263657Y786049D01*
X264984Y783751D01*
X266861Y781874D01*
X269159Y780547D01*
X271723Y779860D01*
X274377D01*
X276941Y780547D01*
X279239Y781874D01*
X281116Y783751D01*
X282443Y786049D01*
X283130Y788613D01*
Y791267D01*
X282443Y793831D01*
X281116Y796129D01*
X279239Y798006D01*
X276941Y799333D01*
X274377Y800020D01*
D02*
G37*
G36*
X249377D02*
X246723D01*
X244159Y799333D01*
X241861Y798006D01*
X239984Y796129D01*
X238657Y793831D01*
X237970Y791267D01*
Y788613D01*
X238657Y786049D01*
X239984Y783751D01*
X241861Y781874D01*
X244159Y780547D01*
X246723Y779860D01*
X249377D01*
X251941Y780547D01*
X254239Y781874D01*
X256116Y783751D01*
X257443Y786049D01*
X258130Y788613D01*
Y791267D01*
X257443Y793831D01*
X256116Y796129D01*
X254239Y798006D01*
X251941Y799333D01*
X249377Y800020D01*
D02*
G37*
G36*
X224377D02*
X221723D01*
X219159Y799333D01*
X216861Y798006D01*
X214984Y796129D01*
X213657Y793831D01*
X212970Y791267D01*
Y788613D01*
X213657Y786049D01*
X214984Y783751D01*
X216861Y781874D01*
X219159Y780547D01*
X221723Y779860D01*
X224377D01*
X226941Y780547D01*
X229239Y781874D01*
X231116Y783751D01*
X232443Y786049D01*
X233130Y788613D01*
Y791267D01*
X232443Y793831D01*
X231116Y796129D01*
X229239Y798006D01*
X226941Y799333D01*
X224377Y800020D01*
D02*
G37*
G36*
X199377D02*
X196723D01*
X194159Y799333D01*
X191861Y798006D01*
X189984Y796129D01*
X188657Y793831D01*
X187970Y791267D01*
Y788613D01*
X188657Y786049D01*
X189984Y783751D01*
X191861Y781874D01*
X194159Y780547D01*
X196723Y779860D01*
X199377D01*
X201941Y780547D01*
X204239Y781874D01*
X206116Y783751D01*
X207443Y786049D01*
X208130Y788613D01*
Y791267D01*
X207443Y793831D01*
X206116Y796129D01*
X204239Y798006D01*
X201941Y799333D01*
X199377Y800020D01*
D02*
G37*
G36*
X183130Y788670D02*
X174320D01*
Y779860D01*
X174377D01*
X176941Y780547D01*
X179239Y781874D01*
X181116Y783751D01*
X182443Y786049D01*
X183130Y788613D01*
Y788670D01*
D02*
G37*
G36*
X171780D02*
X162970D01*
Y788613D01*
X163657Y786049D01*
X164984Y783751D01*
X166861Y781874D01*
X169159Y780547D01*
X171723Y779860D01*
X171780D01*
Y788670D01*
D02*
G37*
G36*
X149377Y800020D02*
X146723D01*
X144159Y799333D01*
X141861Y798006D01*
X139984Y796129D01*
X138657Y793831D01*
X137970Y791267D01*
Y788613D01*
X138657Y786049D01*
X139984Y783751D01*
X141861Y781874D01*
X144159Y780547D01*
X146723Y779860D01*
X149377D01*
X151941Y780547D01*
X154239Y781874D01*
X156116Y783751D01*
X157443Y786049D01*
X158130Y788613D01*
Y791267D01*
X157443Y793831D01*
X156116Y796129D01*
X154239Y798006D01*
X151941Y799333D01*
X149377Y800020D01*
D02*
G37*
G36*
X854767Y797480D02*
X852113D01*
X849549Y796793D01*
X847251Y795466D01*
X845374Y793589D01*
X844047Y791291D01*
X843360Y788727D01*
Y786073D01*
X844047Y783509D01*
X845374Y781211D01*
X847251Y779334D01*
X849549Y778007D01*
X852113Y777320D01*
X854767D01*
X857331Y778007D01*
X859629Y779334D01*
X861506Y781211D01*
X862833Y783509D01*
X863520Y786073D01*
Y788727D01*
X862833Y791291D01*
X861506Y793589D01*
X859629Y795466D01*
X857331Y796793D01*
X854767Y797480D01*
D02*
G37*
G36*
X829767D02*
X827113D01*
X824549Y796793D01*
X822251Y795466D01*
X820374Y793589D01*
X819047Y791291D01*
X818360Y788727D01*
Y786073D01*
X819047Y783509D01*
X820374Y781211D01*
X822251Y779334D01*
X824549Y778007D01*
X827113Y777320D01*
X829767D01*
X832331Y778007D01*
X834629Y779334D01*
X836506Y781211D01*
X837833Y783509D01*
X838520Y786073D01*
Y788727D01*
X837833Y791291D01*
X836506Y793589D01*
X834629Y795466D01*
X832331Y796793D01*
X829767Y797480D01*
D02*
G37*
G36*
X804767D02*
X802113D01*
X799549Y796793D01*
X797251Y795466D01*
X795374Y793589D01*
X794047Y791291D01*
X793360Y788727D01*
Y786073D01*
X794047Y783509D01*
X795374Y781211D01*
X797251Y779334D01*
X799549Y778007D01*
X802113Y777320D01*
X804767D01*
X807331Y778007D01*
X809629Y779334D01*
X811506Y781211D01*
X812833Y783509D01*
X813520Y786073D01*
Y788727D01*
X812833Y791291D01*
X811506Y793589D01*
X809629Y795466D01*
X807331Y796793D01*
X804767Y797480D01*
D02*
G37*
G36*
X788520Y786130D02*
X779710D01*
Y777320D01*
X779767D01*
X782331Y778007D01*
X784629Y779334D01*
X786506Y781211D01*
X787833Y783509D01*
X788520Y786073D01*
Y786130D01*
D02*
G37*
G36*
X777170D02*
X768360D01*
Y786073D01*
X769047Y783509D01*
X770374Y781211D01*
X772251Y779334D01*
X774549Y778007D01*
X777113Y777320D01*
X777170D01*
Y786130D01*
D02*
G37*
G36*
X754767Y797480D02*
X752113D01*
X749549Y796793D01*
X747251Y795466D01*
X745374Y793589D01*
X744047Y791291D01*
X743360Y788727D01*
Y786073D01*
X744047Y783509D01*
X745374Y781211D01*
X747251Y779334D01*
X749549Y778007D01*
X752113Y777320D01*
X754767D01*
X757331Y778007D01*
X759629Y779334D01*
X761506Y781211D01*
X762833Y783509D01*
X763520Y786073D01*
Y788727D01*
X762833Y791291D01*
X761506Y793589D01*
X759629Y795466D01*
X757331Y796793D01*
X754767Y797480D01*
D02*
G37*
G36*
X672357D02*
X669703D01*
X667139Y796793D01*
X664841Y795466D01*
X662964Y793589D01*
X661637Y791291D01*
X660950Y788727D01*
Y786073D01*
X661637Y783509D01*
X662964Y781211D01*
X664841Y779334D01*
X667139Y778007D01*
X669703Y777320D01*
X672357D01*
X674921Y778007D01*
X677219Y779334D01*
X679096Y781211D01*
X680423Y783509D01*
X681110Y786073D01*
Y788727D01*
X680423Y791291D01*
X679096Y793589D01*
X677219Y795466D01*
X674921Y796793D01*
X672357Y797480D01*
D02*
G37*
G36*
X647357D02*
X644703D01*
X642139Y796793D01*
X639841Y795466D01*
X637964Y793589D01*
X636637Y791291D01*
X635950Y788727D01*
Y786073D01*
X636637Y783509D01*
X637964Y781211D01*
X639841Y779334D01*
X642139Y778007D01*
X644703Y777320D01*
X647357D01*
X649921Y778007D01*
X652219Y779334D01*
X654096Y781211D01*
X655423Y783509D01*
X656110Y786073D01*
Y788727D01*
X655423Y791291D01*
X654096Y793589D01*
X652219Y795466D01*
X649921Y796793D01*
X647357Y797480D01*
D02*
G37*
G36*
X622357D02*
X619703D01*
X617139Y796793D01*
X614841Y795466D01*
X612964Y793589D01*
X611637Y791291D01*
X610950Y788727D01*
Y786073D01*
X611637Y783509D01*
X612964Y781211D01*
X614841Y779334D01*
X617139Y778007D01*
X619703Y777320D01*
X622357D01*
X624921Y778007D01*
X627219Y779334D01*
X629096Y781211D01*
X630423Y783509D01*
X631110Y786073D01*
Y788727D01*
X630423Y791291D01*
X629096Y793589D01*
X627219Y795466D01*
X624921Y796793D01*
X622357Y797480D01*
D02*
G37*
G36*
X597357D02*
X594703D01*
X592139Y796793D01*
X589841Y795466D01*
X587964Y793589D01*
X586637Y791291D01*
X585950Y788727D01*
Y786073D01*
X586637Y783509D01*
X587964Y781211D01*
X589841Y779334D01*
X592139Y778007D01*
X594703Y777320D01*
X597357D01*
X599921Y778007D01*
X602219Y779334D01*
X604096Y781211D01*
X605423Y783509D01*
X606110Y786073D01*
Y788727D01*
X605423Y791291D01*
X604096Y793589D01*
X602219Y795466D01*
X599921Y796793D01*
X597357Y797480D01*
D02*
G37*
G36*
X572357D02*
X569703D01*
X567139Y796793D01*
X564841Y795466D01*
X562964Y793589D01*
X561637Y791291D01*
X560950Y788727D01*
Y786073D01*
X561637Y783509D01*
X562964Y781211D01*
X564841Y779334D01*
X567139Y778007D01*
X569703Y777320D01*
X572357D01*
X574921Y778007D01*
X577219Y779334D01*
X579096Y781211D01*
X580423Y783509D01*
X581110Y786073D01*
Y788727D01*
X580423Y791291D01*
X579096Y793589D01*
X577219Y795466D01*
X574921Y796793D01*
X572357Y797480D01*
D02*
G37*
G36*
X547357D02*
X544703D01*
X542139Y796793D01*
X539841Y795466D01*
X537964Y793589D01*
X536637Y791291D01*
X535950Y788727D01*
Y786073D01*
X536637Y783509D01*
X537964Y781211D01*
X539841Y779334D01*
X542139Y778007D01*
X544703Y777320D01*
X547357D01*
X549921Y778007D01*
X552219Y779334D01*
X554096Y781211D01*
X555423Y783509D01*
X556110Y786073D01*
Y788727D01*
X555423Y791291D01*
X554096Y793589D01*
X552219Y795466D01*
X549921Y796793D01*
X547357Y797480D01*
D02*
G37*
G36*
X522357D02*
X519703D01*
X517139Y796793D01*
X514841Y795466D01*
X512964Y793589D01*
X511637Y791291D01*
X510950Y788727D01*
Y786073D01*
X511637Y783509D01*
X512964Y781211D01*
X514841Y779334D01*
X517139Y778007D01*
X519703Y777320D01*
X522357D01*
X524921Y778007D01*
X527219Y779334D01*
X529096Y781211D01*
X530423Y783509D01*
X531110Y786073D01*
Y788727D01*
X530423Y791291D01*
X529096Y793589D01*
X527219Y795466D01*
X524921Y796793D01*
X522357Y797480D01*
D02*
G37*
G36*
X497357D02*
X494703D01*
X492139Y796793D01*
X489841Y795466D01*
X487964Y793589D01*
X486637Y791291D01*
X485950Y788727D01*
Y786073D01*
X486637Y783509D01*
X487964Y781211D01*
X489841Y779334D01*
X492139Y778007D01*
X494703Y777320D01*
X497357D01*
X499921Y778007D01*
X502219Y779334D01*
X504096Y781211D01*
X505423Y783509D01*
X506110Y786073D01*
Y788727D01*
X505423Y791291D01*
X504096Y793589D01*
X502219Y795466D01*
X499921Y796793D01*
X497357Y797480D01*
D02*
G37*
G36*
X432971Y797645D02*
X430229D01*
X427580Y796935D01*
X425205Y795564D01*
X423266Y793625D01*
X421895Y791250D01*
X421185Y788601D01*
Y785859D01*
X421895Y783210D01*
X423266Y780835D01*
X425205Y778896D01*
X427580Y777525D01*
X430229Y776815D01*
X432971D01*
X435620Y777525D01*
X437995Y778896D01*
X439934Y780835D01*
X441305Y783210D01*
X442015Y785859D01*
Y788601D01*
X441305Y791250D01*
X439934Y793625D01*
X437995Y795564D01*
X435620Y796935D01*
X432971Y797645D01*
D02*
G37*
G36*
X417015Y785960D02*
X407870D01*
Y776815D01*
X407971D01*
X410620Y777525D01*
X412995Y778896D01*
X414934Y780835D01*
X416305Y783210D01*
X417015Y785859D01*
Y785960D01*
D02*
G37*
G36*
X405330D02*
X396185D01*
Y785859D01*
X396895Y783210D01*
X398266Y780835D01*
X400205Y778896D01*
X402580Y777525D01*
X405229Y776815D01*
X405330D01*
Y785960D01*
D02*
G37*
G36*
X20320Y736747D02*
Y731520D01*
X25547D01*
X25204Y732799D01*
X24334Y734305D01*
X23105Y735535D01*
X21599Y736404D01*
X20320Y736747D01*
D02*
G37*
G36*
X17780D02*
X16501Y736404D01*
X14995Y735535D01*
X13765Y734305D01*
X12896Y732799D01*
X12553Y731520D01*
X17780D01*
Y736747D01*
D02*
G37*
G36*
X25547Y728980D02*
X20320D01*
Y723753D01*
X21599Y724096D01*
X23105Y724966D01*
X24334Y726195D01*
X25204Y727701D01*
X25547Y728980D01*
D02*
G37*
G36*
X17780D02*
X12553D01*
X12896Y727701D01*
X13765Y726195D01*
X14995Y724966D01*
X16501Y724096D01*
X17780Y723753D01*
Y728980D01*
D02*
G37*
G36*
X33980Y716128D02*
X26980D01*
X24818Y715699D01*
X22986Y714474D01*
X21761Y712642D01*
X21332Y710480D01*
X21761Y708318D01*
X22986Y706486D01*
X24818Y705262D01*
X26980Y704831D01*
X33980D01*
X36142Y705262D01*
X37974Y706486D01*
X39199Y708318D01*
X39629Y710480D01*
X39199Y712642D01*
X37974Y714474D01*
X36142Y715699D01*
X33980Y716128D01*
D02*
G37*
G36*
X58769Y710270D02*
X58750D01*
Y701750D01*
X67270D01*
Y701769D01*
X66603Y704259D01*
X65314Y706491D01*
X63491Y708314D01*
X61259Y709603D01*
X58769Y710270D01*
D02*
G37*
G36*
X56210D02*
X56191D01*
X53701Y709603D01*
X51469Y708314D01*
X49646Y706491D01*
X48357Y704259D01*
X47690Y701769D01*
Y701750D01*
X56210D01*
Y710270D01*
D02*
G37*
G36*
X605790Y704997D02*
Y699770D01*
X611017D01*
X610674Y701049D01*
X609804Y702555D01*
X608575Y703784D01*
X607069Y704654D01*
X605790Y704997D01*
D02*
G37*
G36*
X603250D02*
X601971Y704654D01*
X600465Y703784D01*
X599235Y702555D01*
X598366Y701049D01*
X598023Y699770D01*
X603250D01*
Y704997D01*
D02*
G37*
G36*
X611017Y697230D02*
X605790D01*
Y692003D01*
X607069Y692346D01*
X608575Y693215D01*
X609804Y694445D01*
X610674Y695951D01*
X611017Y697230D01*
D02*
G37*
G36*
X603250D02*
X598023D01*
X598366Y695951D01*
X599235Y694445D01*
X600465Y693215D01*
X601971Y692346D01*
X603250Y692003D01*
Y697230D01*
D02*
G37*
G36*
X67270Y699210D02*
X58750D01*
Y690690D01*
X58769D01*
X61259Y691357D01*
X63491Y692646D01*
X65314Y694469D01*
X66603Y696701D01*
X67270Y699191D01*
Y699210D01*
D02*
G37*
G36*
X56210D02*
X47690D01*
Y699191D01*
X48357Y696701D01*
X49646Y694469D01*
X51469Y692646D01*
X53701Y691357D01*
X56191Y690690D01*
X56210D01*
Y699210D01*
D02*
G37*
G36*
X835717Y709920D02*
X833063D01*
X830499Y709233D01*
X828201Y707906D01*
X826324Y706029D01*
X824997Y703731D01*
X824310Y701167D01*
Y698513D01*
X824997Y695949D01*
X826324Y693651D01*
X828201Y691774D01*
X830499Y690447D01*
X833063Y689760D01*
X835717D01*
X838281Y690447D01*
X840579Y691774D01*
X842456Y693651D01*
X843783Y695949D01*
X844470Y698513D01*
Y701167D01*
X843783Y703731D01*
X842456Y706029D01*
X840579Y707906D01*
X838281Y709233D01*
X835717Y709920D01*
D02*
G37*
G36*
X544429Y687324D02*
X542691D01*
X541011Y686874D01*
X539505Y686004D01*
X538275Y684775D01*
X537406Y683269D01*
X536956Y681589D01*
Y679851D01*
X537084Y679372D01*
X536178Y678466D01*
X457129D01*
X457129Y678466D01*
X455741Y678190D01*
X454565Y677404D01*
X454565Y677404D01*
X445381Y668220D01*
X444595Y667043D01*
X444319Y665656D01*
X444319Y665656D01*
Y665346D01*
X443308Y664336D01*
X442829Y664464D01*
X441091D01*
X439411Y664014D01*
X437905Y663145D01*
X436675Y661915D01*
X435806Y660409D01*
X435356Y658729D01*
Y656991D01*
X435806Y655311D01*
X436675Y653805D01*
X437905Y652576D01*
X439411Y651706D01*
X441091Y651256D01*
X442829D01*
X444509Y651706D01*
X446015Y652576D01*
X447244Y653805D01*
X448114Y655311D01*
X448564Y656991D01*
Y658661D01*
X448654Y658819D01*
X449114Y659273D01*
X450424Y659307D01*
X451654Y658077D01*
X453160Y657208D01*
X454839Y656758D01*
X456578D01*
X458258Y657208D01*
X459764Y658077D01*
X460130Y658444D01*
X461717Y658235D01*
X462076Y657615D01*
X463305Y656385D01*
X464811Y655516D01*
X466491Y655066D01*
X468229D01*
X469909Y655516D01*
X471415Y656385D01*
X472645Y657615D01*
X473514Y659121D01*
X473964Y660801D01*
Y662539D01*
X473514Y664219D01*
X472645Y665725D01*
X471415Y666954D01*
X469909Y667824D01*
X468229Y668274D01*
X466491D01*
X464811Y667824D01*
X463305Y666954D01*
X462938Y666588D01*
X461351Y666797D01*
X460993Y667417D01*
X459764Y668647D01*
X458992Y669092D01*
X458684Y670510D01*
X459243Y671214D01*
X537680D01*
X537680Y671214D01*
X538664Y671410D01*
X539934Y670658D01*
Y627600D01*
X535154Y622820D01*
X534368Y621644D01*
X534092Y620256D01*
X534092Y620256D01*
Y529066D01*
X533155Y528525D01*
X531926Y527295D01*
X531056Y525789D01*
X530606Y524109D01*
Y522371D01*
X531056Y520691D01*
X531926Y519185D01*
X533155Y517956D01*
X534661Y517086D01*
X536341Y516636D01*
X538079D01*
X539759Y517086D01*
X541265Y517956D01*
X542495Y519185D01*
X543364Y520691D01*
X543814Y522371D01*
Y524109D01*
X543364Y525789D01*
X542495Y527295D01*
X541344Y528446D01*
Y563316D01*
X542614Y563987D01*
X543961Y563626D01*
X545699D01*
X547379Y564076D01*
X548885Y564945D01*
X550115Y566175D01*
X550984Y567681D01*
X551434Y569361D01*
Y571099D01*
X550984Y572779D01*
X550115Y574285D01*
X548885Y575514D01*
X547379Y576384D01*
X545699Y576834D01*
X543961D01*
X542614Y576473D01*
X541344Y577144D01*
Y618754D01*
X546124Y623535D01*
X546124Y623535D01*
X546910Y624711D01*
X547186Y626098D01*
X547186Y626098D01*
Y675188D01*
X547615Y675435D01*
X548844Y676665D01*
X549714Y678171D01*
X550164Y679851D01*
Y681589D01*
X549714Y683269D01*
X548844Y684775D01*
X547615Y686004D01*
X546109Y686874D01*
X544429Y687324D01*
D02*
G37*
G36*
X338756Y680212D02*
X336884D01*
X335075Y679727D01*
X333453Y678791D01*
X332129Y677467D01*
X331193Y675845D01*
X330708Y674036D01*
Y672164D01*
X331193Y670355D01*
X332129Y668733D01*
X333453Y667409D01*
X335075Y666473D01*
X336884Y665988D01*
X338756D01*
X340565Y666473D01*
X342187Y667409D01*
X343511Y668733D01*
X344447Y670355D01*
X344932Y672164D01*
Y674036D01*
X344447Y675845D01*
X343511Y677467D01*
X342187Y678791D01*
X340565Y679727D01*
X338756Y680212D01*
D02*
G37*
G36*
X835717Y684920D02*
X833063D01*
X830499Y684233D01*
X828201Y682906D01*
X826324Y681029D01*
X824997Y678731D01*
X824310Y676167D01*
Y673513D01*
X824997Y670949D01*
X826324Y668651D01*
X828201Y666774D01*
X830499Y665447D01*
X833063Y664760D01*
X835717D01*
X838281Y665447D01*
X840579Y666774D01*
X842456Y668651D01*
X843783Y670949D01*
X844470Y673513D01*
Y676167D01*
X843783Y678731D01*
X842456Y681029D01*
X840579Y682906D01*
X838281Y684233D01*
X835717Y684920D01*
D02*
G37*
G36*
X958968Y677290D02*
X956192D01*
X953512Y676572D01*
X951108Y675184D01*
X949146Y673222D01*
X947758Y670818D01*
X947040Y668138D01*
Y665362D01*
X947758Y662682D01*
X949146Y660278D01*
X951108Y658316D01*
X953512Y656928D01*
X956192Y656210D01*
X958968D01*
X961648Y656928D01*
X964052Y658316D01*
X966014Y660278D01*
X967402Y662682D01*
X968120Y665362D01*
Y668138D01*
X967402Y670818D01*
X966014Y673222D01*
X964052Y675184D01*
X961648Y676572D01*
X958968Y677290D01*
D02*
G37*
G36*
X933568D02*
X930792D01*
X928112Y676572D01*
X925708Y675184D01*
X923746Y673222D01*
X922358Y670818D01*
X921640Y668138D01*
Y665362D01*
X922358Y662682D01*
X923746Y660278D01*
X925708Y658316D01*
X928112Y656928D01*
X930792Y656210D01*
X933568D01*
X936248Y656928D01*
X938652Y658316D01*
X940614Y660278D01*
X942002Y662682D01*
X942720Y665362D01*
Y668138D01*
X942002Y670818D01*
X940614Y673222D01*
X938652Y675184D01*
X936248Y676572D01*
X933568Y677290D01*
D02*
G37*
G36*
X58769Y660270D02*
X58750D01*
Y651750D01*
X67270D01*
Y651769D01*
X66603Y654259D01*
X65314Y656491D01*
X63491Y658314D01*
X61259Y659603D01*
X58769Y660270D01*
D02*
G37*
G36*
X56210D02*
X56191D01*
X53701Y659603D01*
X51469Y658314D01*
X49646Y656491D01*
X48357Y654259D01*
X47690Y651769D01*
Y651750D01*
X56210D01*
Y660270D01*
D02*
G37*
G36*
X835717Y659920D02*
X835660D01*
Y651110D01*
X844470D01*
Y651167D01*
X843783Y653731D01*
X842456Y656029D01*
X840579Y657906D01*
X838281Y659233D01*
X835717Y659920D01*
D02*
G37*
G36*
X833120D02*
X833063D01*
X830499Y659233D01*
X828201Y657906D01*
X826324Y656029D01*
X824997Y653731D01*
X824310Y651167D01*
Y651110D01*
X833120D01*
Y659920D01*
D02*
G37*
G36*
X67270Y649210D02*
X58750D01*
Y640690D01*
X58769D01*
X61259Y641357D01*
X63491Y642646D01*
X65314Y644469D01*
X66603Y646701D01*
X67270Y649191D01*
Y649210D01*
D02*
G37*
G36*
X56210D02*
X47690D01*
Y649191D01*
X48357Y646701D01*
X49646Y644469D01*
X51469Y642646D01*
X53701Y641357D01*
X56191Y640690D01*
X56210D01*
Y649210D01*
D02*
G37*
G36*
X844470Y648570D02*
X835660D01*
Y639760D01*
X835717D01*
X838281Y640447D01*
X840579Y641774D01*
X842456Y643651D01*
X843783Y645949D01*
X844470Y648513D01*
Y648570D01*
D02*
G37*
G36*
X833120D02*
X824310D01*
Y648513D01*
X824997Y645949D01*
X826324Y643651D01*
X828201Y641774D01*
X830499Y640447D01*
X833063Y639760D01*
X833120D01*
Y648570D01*
D02*
G37*
G36*
X532130Y642767D02*
Y637540D01*
X537357D01*
X537014Y638819D01*
X536144Y640325D01*
X534915Y641554D01*
X533409Y642424D01*
X532130Y642767D01*
D02*
G37*
G36*
X529590D02*
X528311Y642424D01*
X526805Y641554D01*
X525575Y640325D01*
X524706Y638819D01*
X524363Y637540D01*
X529590D01*
Y642767D01*
D02*
G37*
G36*
X33980Y646128D02*
X26980D01*
X24818Y645699D01*
X22986Y644474D01*
X21761Y642642D01*
X21332Y640480D01*
X21761Y638318D01*
X22986Y636486D01*
X24818Y635261D01*
X26980Y634832D01*
X33980D01*
X36142Y635261D01*
X37974Y636486D01*
X39199Y638318D01*
X39629Y640480D01*
X39199Y642642D01*
X37974Y644474D01*
X36142Y645699D01*
X33980Y646128D01*
D02*
G37*
G36*
X958968Y651890D02*
X956192D01*
X953512Y651172D01*
X951108Y649784D01*
X949146Y647822D01*
X947758Y645418D01*
X947040Y642738D01*
Y639962D01*
X947758Y637282D01*
X949146Y634878D01*
X951108Y632916D01*
X953512Y631528D01*
X956192Y630810D01*
X958968D01*
X961648Y631528D01*
X964052Y632916D01*
X966014Y634878D01*
X967402Y637282D01*
X968120Y639962D01*
Y642738D01*
X967402Y645418D01*
X966014Y647822D01*
X964052Y649784D01*
X961648Y651172D01*
X958968Y651890D01*
D02*
G37*
G36*
X933568D02*
X930792D01*
X928112Y651172D01*
X925708Y649784D01*
X923746Y647822D01*
X922358Y645418D01*
X921640Y642738D01*
Y639962D01*
X922358Y637282D01*
X923746Y634878D01*
X925708Y632916D01*
X928112Y631528D01*
X930792Y630810D01*
X933568D01*
X936248Y631528D01*
X938652Y632916D01*
X940614Y634878D01*
X942002Y637282D01*
X942720Y639962D01*
Y642738D01*
X942002Y645418D01*
X940614Y647822D01*
X938652Y649784D01*
X936248Y651172D01*
X933568Y651890D01*
D02*
G37*
G36*
X537357Y635000D02*
X532130D01*
Y629773D01*
X533409Y630116D01*
X534915Y630985D01*
X536144Y632215D01*
X537014Y633721D01*
X537357Y635000D01*
D02*
G37*
G36*
X529590D02*
X524363D01*
X524706Y633721D01*
X525575Y632215D01*
X526805Y630985D01*
X528311Y630116D01*
X529590Y629773D01*
Y635000D01*
D02*
G37*
G36*
X605790Y631163D02*
Y623570D01*
X613383D01*
X612804Y625731D01*
X611634Y627759D01*
X609979Y629414D01*
X607951Y630584D01*
X605790Y631163D01*
D02*
G37*
G36*
X603250D02*
X601089Y630584D01*
X599061Y629414D01*
X597406Y627759D01*
X596236Y625731D01*
X595657Y623570D01*
X603250D01*
Y631163D01*
D02*
G37*
G36*
X418964Y625636D02*
Y620409D01*
X424191D01*
X423848Y621688D01*
X422979Y623194D01*
X421749Y624423D01*
X420243Y625293D01*
X418964Y625636D01*
D02*
G37*
G36*
X416424D02*
X415145Y625293D01*
X413639Y624423D01*
X412410Y623194D01*
X411540Y621688D01*
X411197Y620409D01*
X416424D01*
Y625636D01*
D02*
G37*
G36*
X16510Y624987D02*
Y619760D01*
X21737D01*
X21394Y621039D01*
X20524Y622545D01*
X19295Y623774D01*
X17789Y624644D01*
X16510Y624987D01*
D02*
G37*
G36*
X13970D02*
X12691Y624644D01*
X11185Y623774D01*
X9955Y622545D01*
X9086Y621039D01*
X8743Y619760D01*
X13970D01*
Y624987D01*
D02*
G37*
G36*
X835717Y634920D02*
X833063D01*
X830499Y634233D01*
X828201Y632906D01*
X826324Y631029D01*
X824997Y628731D01*
X824310Y626167D01*
Y623513D01*
X824997Y620949D01*
X826324Y618651D01*
X828201Y616774D01*
X830499Y615447D01*
X833063Y614760D01*
X835717D01*
X838281Y615447D01*
X840579Y616774D01*
X842456Y618651D01*
X843783Y620949D01*
X844470Y623513D01*
Y626167D01*
X843783Y628731D01*
X842456Y631029D01*
X840579Y632906D01*
X838281Y634233D01*
X835717Y634920D01*
D02*
G37*
G36*
X613383Y621030D02*
X605790D01*
Y613437D01*
X607951Y614016D01*
X609979Y615186D01*
X611634Y616841D01*
X612804Y618869D01*
X613383Y621030D01*
D02*
G37*
G36*
X603250D02*
X595657D01*
X596236Y618869D01*
X597406Y616841D01*
X599061Y615186D01*
X601089Y614016D01*
X603250Y613437D01*
Y621030D01*
D02*
G37*
G36*
X21737Y617220D02*
X16510D01*
Y611993D01*
X17789Y612336D01*
X19295Y613205D01*
X20524Y614435D01*
X21394Y615941D01*
X21737Y617220D01*
D02*
G37*
G36*
X13970D02*
X8743D01*
X9086Y615941D01*
X9955Y614435D01*
X11185Y613205D01*
X12691Y612336D01*
X13970Y611993D01*
Y617220D01*
D02*
G37*
G36*
X233680Y616623D02*
Y610870D01*
X239433D01*
X239037Y612345D01*
X238101Y613967D01*
X236777Y615291D01*
X235155Y616227D01*
X233680Y616623D01*
D02*
G37*
G36*
X231140D02*
X229665Y616227D01*
X228043Y615291D01*
X226719Y613967D01*
X225783Y612345D01*
X225387Y610870D01*
X231140D01*
Y616623D01*
D02*
G37*
G36*
X933568Y626490D02*
X930792D01*
X928112Y625772D01*
X925708Y624384D01*
X923746Y622422D01*
X922358Y620018D01*
X921640Y617338D01*
Y614562D01*
X922358Y611882D01*
X923746Y609478D01*
X925708Y607516D01*
X928112Y606128D01*
X930792Y605410D01*
X933568D01*
X936248Y606128D01*
X938652Y607516D01*
X940614Y609478D01*
X942002Y611882D01*
X942720Y614562D01*
Y617338D01*
X942002Y620018D01*
X940614Y622422D01*
X938652Y624384D01*
X936248Y625772D01*
X933568Y626490D01*
D02*
G37*
G36*
X610870Y739264D02*
X541020D01*
X538542Y738772D01*
X536442Y737368D01*
X495158Y696084D01*
X317642D01*
X300990Y712736D01*
Y713640D01*
X300384Y715901D01*
X299214Y717929D01*
X297559Y719584D01*
X295531Y720754D01*
X293270Y721360D01*
X290930D01*
X288669Y720754D01*
X286641Y719584D01*
X284986Y717929D01*
X284825Y717650D01*
X263815D01*
X263654Y717929D01*
X261999Y719584D01*
X259971Y720754D01*
X257710Y721360D01*
X255370D01*
X253109Y720754D01*
X251081Y719584D01*
X250442Y718944D01*
X214630D01*
X212152Y718452D01*
X210052Y717048D01*
X76702Y583698D01*
X75298Y581598D01*
X74806Y579120D01*
Y440690D01*
X75298Y438212D01*
X76702Y436112D01*
X161792Y351022D01*
X163892Y349618D01*
X165308Y349337D01*
X201178Y313466D01*
X202859Y312344D01*
X204841Y311950D01*
X388116D01*
X425070Y274995D01*
X446604Y253461D01*
X446604Y253461D01*
X448285Y252338D01*
X449830Y252031D01*
X450605Y251255D01*
X452111Y250386D01*
X453791Y249936D01*
X455529D01*
X457209Y250386D01*
X458715Y251255D01*
X459944Y252485D01*
X460814Y253991D01*
X461264Y255671D01*
Y257409D01*
X460814Y259089D01*
X459944Y260595D01*
X458715Y261824D01*
X457209Y262694D01*
X455529Y263144D01*
X453791D01*
X452111Y262694D01*
X452054Y262661D01*
X442410Y272305D01*
X442896Y273479D01*
X474692D01*
X558793Y189377D01*
X560474Y188255D01*
X562456Y187861D01*
X562456Y187861D01*
X585226D01*
X585752Y186590D01*
X584706Y185545D01*
X583536Y183517D01*
X582957Y181356D01*
X600683D01*
X600104Y183517D01*
X598934Y185545D01*
X597888Y186590D01*
X598414Y187861D01*
X919480D01*
X921030Y188169D01*
X921956Y187397D01*
X922081Y187181D01*
X921640Y185538D01*
Y182762D01*
X922358Y180082D01*
X923746Y177678D01*
X925708Y175716D01*
X928112Y174328D01*
X930792Y173610D01*
X933568D01*
X936248Y174328D01*
X938652Y175716D01*
X940614Y177678D01*
X942002Y180082D01*
X942720Y182762D01*
Y185538D01*
X942002Y188218D01*
X941629Y188864D01*
X942264Y189964D01*
X943174D01*
X945156Y190359D01*
X946380Y191177D01*
X947406Y190335D01*
X947208Y189857D01*
X946984Y188150D01*
Y185420D01*
X956310D01*
Y194746D01*
X953580D01*
X951873Y194522D01*
X951531Y194380D01*
X950812Y195457D01*
X954751Y199396D01*
X956192Y199010D01*
X958968D01*
X961648Y199728D01*
X964052Y201116D01*
X966014Y203078D01*
X967402Y205482D01*
X968120Y208162D01*
Y210938D01*
X967402Y213618D01*
X966014Y216022D01*
X964052Y217984D01*
X961648Y219372D01*
X958968Y220090D01*
X956192D01*
X953512Y219372D01*
X951108Y217984D01*
X949146Y216022D01*
X947758Y213618D01*
X947040Y210938D01*
Y208162D01*
X947426Y206721D01*
X941413Y200708D01*
X940213Y201304D01*
X940089Y202554D01*
X940614Y203078D01*
X942002Y205482D01*
X942720Y208162D01*
Y210938D01*
X942002Y213618D01*
X940614Y216022D01*
X938652Y217984D01*
X936248Y219372D01*
X933568Y220090D01*
X930792D01*
X928112Y219372D01*
X925708Y217984D01*
X923746Y216022D01*
X922358Y213618D01*
X921640Y210938D01*
Y208162D01*
X922358Y205482D01*
X923692Y203172D01*
X923514Y202507D01*
X923453Y202359D01*
X923132Y201896D01*
X921180Y201507D01*
X919500Y200385D01*
X917335Y198220D01*
X776557D01*
X775871Y199489D01*
X776224Y200807D01*
Y202545D01*
X775774Y204225D01*
X774904Y205731D01*
X773675Y206961D01*
X772169Y207830D01*
X770489Y208280D01*
X768751D01*
X767071Y207830D01*
X765565Y206961D01*
X764335Y205731D01*
X763466Y204225D01*
X763016Y202545D01*
Y200807D01*
X763369Y199489D01*
X762683Y198220D01*
X742766D01*
X742599Y199489D01*
X742959Y199586D01*
X744465Y200455D01*
X745695Y201685D01*
X746564Y203191D01*
X747014Y204871D01*
Y206609D01*
X746564Y208289D01*
X745695Y209795D01*
X744465Y211024D01*
X742959Y211894D01*
X741279Y212344D01*
X739541D01*
X737861Y211894D01*
X736355Y211024D01*
X735126Y209795D01*
X734256Y208289D01*
X733806Y206609D01*
Y204871D01*
X734256Y203191D01*
X735126Y201685D01*
X736355Y200455D01*
X737861Y199586D01*
X738221Y199489D01*
X738054Y198220D01*
X564601D01*
X482849Y279972D01*
X483507Y281110D01*
X485075Y280690D01*
X485140D01*
Y289560D01*
X476270D01*
Y289495D01*
X476961Y286916D01*
X478140Y284873D01*
X477736Y284063D01*
X477389Y283728D01*
X476838Y283838D01*
X430877D01*
X393923Y320792D01*
X392243Y321914D01*
X390261Y322309D01*
X206987D01*
X172633Y356662D01*
X172352Y358078D01*
X170948Y360178D01*
X87754Y443372D01*
Y564243D01*
X88854Y564878D01*
X89533Y564486D01*
X91694Y563907D01*
Y572770D01*
X92964D01*
Y574040D01*
X101827D01*
X101248Y576201D01*
X100078Y578229D01*
X98423Y579884D01*
X96395Y581054D01*
X94637Y581525D01*
X94164Y582847D01*
X217312Y705996D01*
X250442D01*
X251081Y705356D01*
X253109Y704186D01*
X255370Y703580D01*
X257710D01*
X259971Y704186D01*
X261999Y705356D01*
X263654Y707011D01*
X263815Y707290D01*
X284825D01*
X284986Y707011D01*
X286641Y705356D01*
X288474Y704298D01*
Y651528D01*
X288474Y651527D01*
X288750Y650140D01*
X289536Y648964D01*
X320994Y617506D01*
X320266Y616537D01*
X318212Y617388D01*
X315989D01*
X313936Y616537D01*
X312364Y614965D01*
X311513Y612911D01*
Y611339D01*
X307301Y607128D01*
X306515Y605952D01*
X306239Y604564D01*
X306239Y604564D01*
Y602698D01*
X295177Y591636D01*
X157480D01*
X156093Y591360D01*
X154916Y590574D01*
X154916Y590574D01*
X124538Y560196D01*
X124059Y560324D01*
X122321D01*
X120641Y559874D01*
X119135Y559005D01*
X117906Y557775D01*
X117036Y556269D01*
X116586Y554589D01*
Y552851D01*
X117036Y551171D01*
X117906Y549665D01*
X119135Y548436D01*
X120641Y547566D01*
X122321Y547116D01*
X124059D01*
X124711Y547290D01*
X125368Y546152D01*
X116501Y537285D01*
X111760D01*
X110273Y536989D01*
X109867Y536717D01*
X108290Y537140D01*
X106551D01*
X104872Y536690D01*
X103366Y535820D01*
X102136Y534591D01*
X101267Y533085D01*
X100817Y531405D01*
Y529666D01*
X101267Y527987D01*
X102136Y526481D01*
X103366Y525251D01*
X104872Y524382D01*
X106551Y523932D01*
X108290D01*
X109970Y524382D01*
X111476Y525251D01*
X112705Y526481D01*
X113575Y527987D01*
X113984Y529515D01*
X118110D01*
X119597Y529811D01*
X120857Y530653D01*
X167721Y577518D01*
X168335Y577427D01*
X168587Y576106D01*
X168531Y576074D01*
X166876Y574419D01*
X165706Y572391D01*
X165127Y570230D01*
X182853D01*
X182274Y572391D01*
X181104Y574419D01*
X179449Y576074D01*
X178701Y576505D01*
X179041Y577775D01*
X253769D01*
X254022Y576505D01*
X253375Y576237D01*
X251803Y574665D01*
X250952Y572612D01*
Y570388D01*
X251803Y568335D01*
X253375Y566763D01*
X255429Y565912D01*
X257001D01*
X294824Y528088D01*
Y422910D01*
X294824Y422910D01*
X295100Y421522D01*
X295886Y420346D01*
X304674Y411558D01*
X304546Y411079D01*
Y409341D01*
X304996Y407661D01*
X305865Y406155D01*
X307095Y404925D01*
X308601Y404056D01*
X310281Y403606D01*
X312019D01*
X313699Y404056D01*
X315205Y404925D01*
X316434Y406155D01*
X317304Y407661D01*
X317754Y409341D01*
Y411079D01*
X317304Y412759D01*
X316434Y414265D01*
X315205Y415494D01*
X313699Y416364D01*
X312019Y416814D01*
X310281D01*
X309802Y416686D01*
X302076Y424412D01*
Y529590D01*
X301800Y530978D01*
X301014Y532154D01*
X301014Y532154D01*
X262128Y571040D01*
Y572612D01*
X261277Y574665D01*
X259705Y576237D01*
X259058Y576505D01*
X259311Y577775D01*
X296435D01*
X297922Y578071D01*
X299182Y578913D01*
X313226Y592957D01*
X314400Y592471D01*
Y511285D01*
X314400Y511285D01*
X314676Y509897D01*
X315462Y508721D01*
X316992Y507191D01*
Y505619D01*
X317843Y503565D01*
X318954Y502453D01*
Y499240D01*
X316714Y497000D01*
X315928Y495823D01*
X315652Y494436D01*
X315652Y494436D01*
Y451628D01*
X315652Y451628D01*
X315928Y450240D01*
X316714Y449064D01*
X316962Y448816D01*
X316831Y448498D01*
Y446275D01*
X317682Y444221D01*
X319254Y442649D01*
X321307Y441799D01*
X323531D01*
X325584Y442649D01*
X327156Y444221D01*
X328007Y446275D01*
Y448498D01*
X327156Y450552D01*
X325584Y452124D01*
X323531Y452975D01*
X323058D01*
X322904Y453129D01*
Y484576D01*
X324174Y485247D01*
X325521Y484886D01*
X327259D01*
X328939Y485336D01*
X330445Y486205D01*
X331674Y487435D01*
X332544Y488941D01*
X332994Y490621D01*
Y492359D01*
X332544Y494039D01*
X331674Y495545D01*
X330445Y496774D01*
X328939Y497644D01*
X327259Y498094D01*
X326206D01*
Y502453D01*
X327317Y503565D01*
X328168Y505619D01*
Y507841D01*
X327317Y509895D01*
X325745Y511467D01*
X323691Y512318D01*
X322119D01*
X321651Y512786D01*
Y598973D01*
X322763Y600085D01*
X323613Y602138D01*
Y603711D01*
X330703Y610800D01*
X340050D01*
X340721Y609530D01*
X340360Y608183D01*
Y606445D01*
X340810Y604765D01*
X341679Y603259D01*
X342909Y602029D01*
X344415Y601160D01*
X346095Y600710D01*
X347833D01*
X349513Y601160D01*
X351019Y602029D01*
X351829Y602839D01*
X352967Y602182D01*
X352806Y601579D01*
Y599841D01*
X353256Y598161D01*
X354126Y596655D01*
X355355Y595425D01*
X356861Y594556D01*
X358541Y594106D01*
X360279D01*
X361959Y594556D01*
X363465Y595425D01*
X364695Y596655D01*
X365564Y598161D01*
X366014Y599841D01*
Y601579D01*
X365564Y603259D01*
X364695Y604765D01*
X363465Y605994D01*
X361959Y606864D01*
X360279Y607314D01*
X358541D01*
X356861Y606864D01*
X355355Y605994D01*
X354545Y605185D01*
X353407Y605842D01*
X353568Y606445D01*
Y608183D01*
X353207Y609530D01*
X353878Y610800D01*
X372769D01*
X374106Y609463D01*
X374106Y609463D01*
X375283Y608677D01*
X376670Y608401D01*
X437568D01*
X437685Y608284D01*
X438115Y608036D01*
Y575530D01*
X438114Y575530D01*
X438391Y574142D01*
X439176Y572966D01*
X468837Y543306D01*
X468387Y541959D01*
X467115Y541225D01*
X465886Y539995D01*
X465016Y538489D01*
X464566Y536809D01*
Y535071D01*
X465016Y533391D01*
X465886Y531885D01*
X467115Y530656D01*
X468621Y529786D01*
X470301Y529336D01*
X472039D01*
X473719Y529786D01*
X475225Y530656D01*
X476455Y531885D01*
X477189Y533157D01*
X478536Y533607D01*
X481971Y530171D01*
X481729Y528617D01*
X480719Y527607D01*
X479783Y525985D01*
X479298Y524176D01*
Y522304D01*
X479783Y520495D01*
X480719Y518873D01*
X482043Y517549D01*
X482784Y517121D01*
Y493821D01*
X482784Y493821D01*
X483060Y492434D01*
X483846Y491258D01*
X486070Y489034D01*
X486008Y488455D01*
X485791Y488209D01*
X484658Y487615D01*
X483469Y487934D01*
X481731D01*
X480051Y487484D01*
X478545Y486614D01*
X477315Y485385D01*
X476446Y483879D01*
X475996Y482199D01*
Y480461D01*
X476446Y478781D01*
X477315Y477275D01*
X478545Y476045D01*
X480051Y475176D01*
X481731Y474726D01*
X483469D01*
X485149Y475176D01*
X485494Y475376D01*
X486594Y474740D01*
Y465859D01*
X485853Y465431D01*
X484529Y464107D01*
X483593Y462485D01*
X483108Y460676D01*
Y458804D01*
X483593Y456995D01*
X484529Y455373D01*
X485853Y454049D01*
X487475Y453113D01*
X489284Y452628D01*
X491156D01*
X492965Y453113D01*
X494587Y454049D01*
X495911Y455373D01*
X496847Y456995D01*
X497332Y458804D01*
Y460676D01*
X496847Y462485D01*
X495911Y464107D01*
X494587Y465431D01*
X493846Y465859D01*
Y490011D01*
X493846Y490011D01*
X493570Y491399D01*
X492784Y492575D01*
X490036Y495323D01*
Y517121D01*
X490777Y517549D01*
X492101Y518873D01*
X493037Y520495D01*
X493522Y522304D01*
Y524176D01*
X493037Y525985D01*
X492101Y527607D01*
X490777Y528931D01*
X490036Y529359D01*
Y530860D01*
X490036Y530860D01*
X489760Y532248D01*
X488974Y533424D01*
X488974Y533424D01*
X486599Y535799D01*
X486978Y537215D01*
X487689Y537406D01*
X489195Y538275D01*
X490424Y539505D01*
X491294Y541011D01*
X491744Y542691D01*
Y544429D01*
X491294Y546109D01*
X490424Y547615D01*
X489195Y548844D01*
X487689Y549714D01*
X486009Y550164D01*
X484271D01*
X482591Y549714D01*
X481085Y548844D01*
X479855Y547615D01*
X478986Y546109D01*
X478796Y545398D01*
X477379Y545019D01*
X454522Y567876D01*
X455179Y569015D01*
X456331Y568706D01*
X458069D01*
X459749Y569156D01*
X461255Y570025D01*
X462485Y571255D01*
X463354Y572761D01*
X463804Y574441D01*
Y576179D01*
X463354Y577859D01*
X462485Y579365D01*
X461255Y580594D01*
X459749Y581464D01*
X458069Y581914D01*
X456331D01*
X454651Y581464D01*
X453145Y580594D01*
X451916Y579365D01*
X451046Y577859D01*
X450596Y576179D01*
Y574441D01*
X450905Y573289D01*
X449766Y572632D01*
X445366Y577032D01*
Y608036D01*
X445795Y608284D01*
X447025Y609514D01*
X447894Y611019D01*
X448344Y612699D01*
Y614438D01*
X447894Y616118D01*
X447025Y617623D01*
X445795Y618853D01*
X444289Y619722D01*
X442610Y620172D01*
X440871D01*
X439191Y619722D01*
X437685Y618853D01*
X436456Y617623D01*
X435586Y616118D01*
X435462Y615653D01*
X424608D01*
X423937Y616923D01*
X424191Y617869D01*
X411197D01*
X411451Y616923D01*
X410780Y615653D01*
X378172D01*
X376835Y616990D01*
X375658Y617776D01*
X374271Y618052D01*
X374271Y618052D01*
X330703D01*
X295726Y653029D01*
Y698029D01*
X296899Y698515D01*
X310382Y685032D01*
X312482Y683628D01*
X314960Y683136D01*
X497840D01*
X500318Y683628D01*
X502418Y685032D01*
X543702Y726316D01*
X608188D01*
X726492Y608012D01*
X726123Y606796D01*
X725967Y606765D01*
X724286Y605643D01*
X721994Y603349D01*
X714615D01*
X669143Y648822D01*
X667462Y649945D01*
X665480Y650340D01*
X607985D01*
X607824Y650619D01*
X606169Y652274D01*
X604141Y653444D01*
X601880Y654050D01*
X599540D01*
X597279Y653444D01*
X595251Y652274D01*
X593596Y650619D01*
X592426Y648591D01*
X591820Y646330D01*
Y643990D01*
X592426Y641729D01*
X593596Y639701D01*
X595251Y638046D01*
X597279Y636876D01*
X599540Y636270D01*
X601880D01*
X604141Y636876D01*
X606169Y638046D01*
X607824Y639701D01*
X607985Y639981D01*
X663335D01*
X708808Y594507D01*
X710488Y593385D01*
X712470Y592990D01*
X724139D01*
X726121Y593385D01*
X727802Y594507D01*
X730095Y596800D01*
X734405D01*
X734566Y596521D01*
X736221Y594866D01*
X738249Y593696D01*
X740510Y593090D01*
X742850D01*
X745111Y593696D01*
X747139Y594866D01*
X748794Y596521D01*
X749964Y598549D01*
X750570Y600810D01*
Y603150D01*
X749964Y605411D01*
X748794Y607439D01*
X747139Y609094D01*
X745111Y610264D01*
X742850Y610870D01*
X741946D01*
X615448Y737368D01*
X613348Y738772D01*
X610870Y739264D01*
D02*
G37*
G36*
X239433Y608330D02*
X233680D01*
Y602577D01*
X235155Y602973D01*
X236777Y603909D01*
X238101Y605233D01*
X239037Y606855D01*
X239433Y608330D01*
D02*
G37*
G36*
X231140D02*
X225387D01*
X225783Y606855D01*
X226719Y605233D01*
X228043Y603909D01*
X229665Y602973D01*
X231140Y602577D01*
Y608330D01*
D02*
G37*
G36*
X958968Y626490D02*
X956192D01*
X953512Y625772D01*
X951108Y624384D01*
X949146Y622422D01*
X947758Y620018D01*
X947040Y617338D01*
Y614562D01*
X947758Y611882D01*
X949146Y609478D01*
X951108Y607516D01*
X953512Y606128D01*
X956192Y605410D01*
X957251D01*
X960727Y601933D01*
X960070Y600795D01*
X958968Y601090D01*
X956192D01*
X953512Y600372D01*
X951108Y598984D01*
X949146Y597022D01*
X947758Y594618D01*
X947040Y591938D01*
Y589162D01*
X947758Y586482D01*
X949146Y584078D01*
X951108Y582116D01*
X953512Y580728D01*
X956192Y580010D01*
X958968D01*
X961648Y580728D01*
X964052Y582116D01*
X966014Y584078D01*
X967402Y586482D01*
X968120Y589162D01*
Y591938D01*
X967825Y593040D01*
X968963Y593697D01*
X970214Y592446D01*
Y170823D01*
X893436Y94046D01*
X843440D01*
X842954Y95219D01*
X853228Y105493D01*
X853540Y105410D01*
X855880D01*
X858141Y106016D01*
X860169Y107186D01*
X861824Y108841D01*
X862994Y110869D01*
X863600Y113130D01*
Y115470D01*
X862994Y117731D01*
X861824Y119759D01*
X860169Y121414D01*
X858141Y122584D01*
X855880Y123190D01*
X853540D01*
X851279Y122584D01*
X849251Y121414D01*
X847596Y119759D01*
X846426Y117731D01*
X845820Y115470D01*
Y113130D01*
X845903Y112818D01*
X829457Y96372D01*
X828335Y94692D01*
X828206Y94046D01*
X744176D01*
X743836Y95316D01*
X744599Y95756D01*
X746254Y97411D01*
X747424Y99439D01*
X748030Y101700D01*
Y104040D01*
X747424Y106301D01*
X746254Y108329D01*
X744599Y109984D01*
X742571Y111154D01*
X740310Y111760D01*
X737970D01*
X735709Y111154D01*
X733681Y109984D01*
X732026Y108329D01*
X730856Y106301D01*
X730250Y104040D01*
Y101700D01*
X730333Y101388D01*
X722991Y94046D01*
X622460D01*
X621974Y95219D01*
X623358Y96603D01*
X623670Y96520D01*
X626010D01*
X628271Y97126D01*
X630299Y98296D01*
X631954Y99951D01*
X633124Y101979D01*
X633730Y104240D01*
Y106580D01*
X633124Y108841D01*
X631954Y110869D01*
X630299Y112524D01*
X628271Y113694D01*
X626010Y114300D01*
X623670D01*
X621409Y113694D01*
X619381Y112524D01*
X617726Y110869D01*
X616556Y108841D01*
X615950Y106580D01*
Y104240D01*
X616033Y103928D01*
X606151Y94046D01*
X605790D01*
X605155Y93962D01*
X604520Y94046D01*
X499066D01*
X498726Y95316D01*
X499489Y95756D01*
X501144Y97411D01*
X502314Y99439D01*
X502920Y101700D01*
Y104040D01*
X502314Y106301D01*
X501144Y108329D01*
X499489Y109984D01*
X497461Y111154D01*
X495200Y111760D01*
X492860D01*
X490599Y111154D01*
X488571Y109984D01*
X486916Y108329D01*
X485746Y106301D01*
X485140Y104040D01*
Y101700D01*
X485223Y101388D01*
X478022Y94187D01*
X357225Y214985D01*
X355633Y216206D01*
X353779Y216974D01*
X351790Y217236D01*
X316888D01*
X315851Y217834D01*
X313590Y218440D01*
X311250D01*
X308989Y217834D01*
X306961Y216664D01*
X305306Y215009D01*
X304136Y212981D01*
X303530Y210720D01*
Y208380D01*
X304136Y206119D01*
X305306Y204091D01*
X306961Y202436D01*
X308989Y201266D01*
X311250Y200660D01*
X313590D01*
X315851Y201266D01*
X316888Y201864D01*
X348606D01*
X469545Y80925D01*
X471137Y79704D01*
X472991Y78936D01*
X474980Y78674D01*
X476250Y78841D01*
X477520Y78674D01*
X548079D01*
X548748Y77404D01*
X548386Y76053D01*
Y74315D01*
X548836Y72635D01*
X549706Y71129D01*
X550935Y69900D01*
X552441Y69030D01*
X554121Y68580D01*
X555859D01*
X557539Y69030D01*
X559045Y69900D01*
X560275Y71129D01*
X561144Y72635D01*
X561594Y74315D01*
Y76053D01*
X561232Y77404D01*
X561901Y78674D01*
X586179D01*
X586848Y77404D01*
X586486Y76053D01*
Y74315D01*
X586936Y72635D01*
X587805Y71129D01*
X589035Y69900D01*
X590541Y69030D01*
X592221Y68580D01*
X593959D01*
X595639Y69030D01*
X597145Y69900D01*
X598374Y71129D01*
X599244Y72635D01*
X599694Y74315D01*
Y76053D01*
X599332Y77404D01*
X600001Y78674D01*
X604520D01*
X605155Y78758D01*
X605790Y78674D01*
X896620D01*
X898609Y78936D01*
X900463Y79704D01*
X902055Y80925D01*
X983335Y162205D01*
X983335Y162205D01*
X984556Y163797D01*
X985324Y165651D01*
X985586Y167640D01*
Y595630D01*
X985324Y597619D01*
X984556Y599473D01*
X983335Y601065D01*
X968120Y616279D01*
Y617338D01*
X967402Y620018D01*
X966014Y622422D01*
X964052Y624384D01*
X961648Y625772D01*
X958968Y626490D01*
D02*
G37*
G36*
X473078Y610085D02*
X471339D01*
X469659Y609636D01*
X468153Y608766D01*
X466924Y607537D01*
X466054Y606031D01*
X465605Y604351D01*
Y602612D01*
X466054Y600933D01*
X466924Y599427D01*
X468153Y598197D01*
X469659Y597328D01*
X471339Y596878D01*
X473078D01*
X474757Y597328D01*
X476263Y598197D01*
X477493Y599427D01*
X478362Y600933D01*
X478812Y602612D01*
Y604351D01*
X478362Y606031D01*
X477493Y607537D01*
X476263Y608766D01*
X474757Y609636D01*
X473078Y610085D01*
D02*
G37*
G36*
X426549Y603274D02*
X424810D01*
X423131Y602824D01*
X421625Y601955D01*
X420395Y600725D01*
X419526Y599219D01*
X419076Y597540D01*
Y595801D01*
X419187Y595387D01*
X418149Y594352D01*
X417576Y594505D01*
Y589279D01*
X422803D01*
X422799Y589292D01*
X423837Y590327D01*
X424810Y590066D01*
X426549D01*
X428229Y590516D01*
X429735Y591386D01*
X430964Y592615D01*
X431834Y594121D01*
X432284Y595801D01*
Y597540D01*
X431834Y599219D01*
X430964Y600725D01*
X429735Y601955D01*
X428229Y602824D01*
X426549Y603274D01*
D02*
G37*
G36*
X491089Y595884D02*
X489351D01*
X487671Y595434D01*
X486165Y594565D01*
X484935Y593335D01*
X484066Y591829D01*
X483616Y590149D01*
Y588411D01*
X483772Y587829D01*
X482681Y586992D01*
X482057Y587352D01*
X480377Y587802D01*
X478638D01*
X476959Y587352D01*
X475453Y586483D01*
X474223Y585253D01*
X473354Y583747D01*
X472904Y582068D01*
Y580329D01*
X473354Y578649D01*
X474223Y577143D01*
X475453Y575914D01*
X476959Y575044D01*
X478638Y574594D01*
X480377D01*
X482057Y575044D01*
X483168Y575686D01*
X483948Y574670D01*
X483614Y574336D01*
X482745Y572830D01*
X482295Y571151D01*
Y569412D01*
X482745Y567732D01*
X483614Y566226D01*
X484844Y564996D01*
X486350Y564127D01*
X488030Y563677D01*
X489768D01*
X491448Y564127D01*
X492954Y564996D01*
X494183Y566226D01*
X495053Y567732D01*
X495503Y569412D01*
Y571151D01*
X495053Y572830D01*
X494183Y574336D01*
X492954Y575566D01*
X491448Y576435D01*
X489768Y576885D01*
X488030D01*
X486350Y576435D01*
X485238Y575793D01*
X484459Y576810D01*
X484793Y577143D01*
X485662Y578649D01*
X486112Y580329D01*
Y582068D01*
X485956Y582650D01*
X487047Y583487D01*
X487671Y583126D01*
X489351Y582676D01*
X491089D01*
X492769Y583126D01*
X494275Y583996D01*
X495504Y585225D01*
X496374Y586731D01*
X496824Y588411D01*
Y590149D01*
X496374Y591829D01*
X495504Y593335D01*
X494275Y594565D01*
X492769Y595434D01*
X491089Y595884D01*
D02*
G37*
G36*
X579120Y589427D02*
Y584200D01*
X584347D01*
X584004Y585479D01*
X583134Y586985D01*
X581905Y588214D01*
X580399Y589084D01*
X579120Y589427D01*
D02*
G37*
G36*
X372979Y593344D02*
X371241D01*
X369561Y592894D01*
X368055Y592024D01*
X366825Y590795D01*
X365956Y589289D01*
X365506Y587609D01*
Y585871D01*
X365956Y584191D01*
X366825Y582685D01*
X368055Y581455D01*
X369561Y580586D01*
X371241Y580136D01*
X372979D01*
X374659Y580586D01*
X376165Y581455D01*
X377394Y582685D01*
X378264Y584191D01*
X378714Y585871D01*
Y587609D01*
X378264Y589289D01*
X377394Y590795D01*
X376165Y592024D01*
X374659Y592894D01*
X372979Y593344D01*
D02*
G37*
G36*
X337419D02*
X335681D01*
X334001Y592894D01*
X332495Y592024D01*
X331265Y590795D01*
X330396Y589289D01*
X329946Y587609D01*
Y585871D01*
X330396Y584191D01*
X331265Y582685D01*
X332495Y581455D01*
X334001Y580586D01*
X335681Y580136D01*
X337419D01*
X339099Y580586D01*
X340605Y581455D01*
X341834Y582685D01*
X342704Y584191D01*
X343154Y585871D01*
Y587609D01*
X342704Y589289D01*
X341834Y590795D01*
X340605Y592024D01*
X339099Y592894D01*
X337419Y593344D01*
D02*
G37*
G36*
X933568Y601090D02*
X930792D01*
X928112Y600372D01*
X925708Y598984D01*
X923746Y597022D01*
X922358Y594618D01*
X921640Y591938D01*
Y589162D01*
X922358Y586482D01*
X923746Y584078D01*
X925708Y582116D01*
X928112Y580728D01*
X930792Y580010D01*
X933568D01*
X936248Y580728D01*
X938652Y582116D01*
X940614Y584078D01*
X942002Y586482D01*
X942720Y589162D01*
Y591938D01*
X942002Y594618D01*
X940614Y597022D01*
X938652Y598984D01*
X936248Y600372D01*
X933568Y601090D01*
D02*
G37*
G36*
X576580Y589427D02*
X575301Y589084D01*
X573795Y588214D01*
X572565Y586985D01*
X571696Y585479D01*
X571672Y585389D01*
X571604D01*
X570216Y585113D01*
X569040Y584327D01*
X569040Y584327D01*
X563958Y579246D01*
X563880Y579267D01*
Y574040D01*
X569107D01*
X569086Y574118D01*
X572347Y577379D01*
X573795Y577645D01*
X575301Y576776D01*
X576580Y576433D01*
Y582930D01*
Y589427D01*
D02*
G37*
G36*
X553319Y592074D02*
X551581D01*
X549901Y591624D01*
X548395Y590755D01*
X547165Y589525D01*
X546296Y588019D01*
X545846Y586339D01*
Y584601D01*
X546296Y582921D01*
X547165Y581415D01*
X548395Y580186D01*
X549901Y579316D01*
X551581Y578866D01*
X553319D01*
X554999Y579316D01*
X556505Y580186D01*
X557734Y581415D01*
X558604Y582921D01*
X559054Y584601D01*
Y586339D01*
X558604Y588019D01*
X557734Y589525D01*
X556505Y590755D01*
X554999Y591624D01*
X553319Y592074D01*
D02*
G37*
G36*
X390759Y590804D02*
X389021D01*
X387341Y590354D01*
X385835Y589484D01*
X384605Y588255D01*
X383736Y586749D01*
X383286Y585069D01*
Y583331D01*
X383736Y581651D01*
X384605Y580145D01*
X385835Y578915D01*
X387341Y578046D01*
X389021Y577596D01*
X390759D01*
X392439Y578046D01*
X393945Y578915D01*
X395174Y580145D01*
X396044Y581651D01*
X396494Y583331D01*
Y585069D01*
X396044Y586749D01*
X395174Y588255D01*
X393945Y589484D01*
X392439Y590354D01*
X390759Y590804D01*
D02*
G37*
G36*
X584347Y581660D02*
X579120D01*
Y576433D01*
X580399Y576776D01*
X581905Y577645D01*
X583134Y578875D01*
X584004Y580381D01*
X584347Y581660D01*
D02*
G37*
G36*
X561340Y579267D02*
X560061Y578924D01*
X558555Y578055D01*
X557326Y576825D01*
X556456Y575319D01*
X556113Y574040D01*
X561340D01*
Y579267D01*
D02*
G37*
G36*
X415036Y594505D02*
X413757Y594163D01*
X412251Y593293D01*
X411021Y592064D01*
X410152Y590558D01*
X409702Y588878D01*
Y587139D01*
X409414Y586764D01*
X408300D01*
X406621Y586314D01*
X405115Y585445D01*
X403885Y584215D01*
X403016Y582709D01*
X402566Y581030D01*
Y579291D01*
X403016Y577611D01*
X403885Y576105D01*
X405115Y574876D01*
X406621Y574006D01*
X408300Y573556D01*
X410039D01*
X411719Y574006D01*
X413225Y574876D01*
X414454Y576105D01*
X415324Y577611D01*
X415774Y579291D01*
Y581030D01*
X416062Y581405D01*
X417175D01*
X418855Y581855D01*
X420361Y582724D01*
X421590Y583954D01*
X422460Y585460D01*
X422803Y586739D01*
X416306D01*
Y588009D01*
X415036D01*
Y594505D01*
D02*
G37*
G36*
X569107Y571500D02*
X563880D01*
Y566273D01*
X565159Y566616D01*
X566665Y567486D01*
X567895Y568715D01*
X568764Y570221D01*
X569107Y571500D01*
D02*
G37*
G36*
X561340D02*
X556113D01*
X556456Y570221D01*
X557326Y568715D01*
X558555Y567486D01*
X560061Y566616D01*
X561340Y566273D01*
Y571500D01*
D02*
G37*
G36*
X101827D02*
X94234D01*
Y563907D01*
X96395Y564486D01*
X98423Y565656D01*
X100078Y567311D01*
X101248Y569339D01*
X101827Y571500D01*
D02*
G37*
G36*
X727309Y574294D02*
X725571D01*
X723891Y573844D01*
X722385Y572975D01*
X721155Y571745D01*
X720286Y570239D01*
X719836Y568559D01*
Y566821D01*
X720286Y565141D01*
X721155Y563635D01*
X722385Y562406D01*
X723891Y561536D01*
X725571Y561086D01*
X727309D01*
X728989Y561536D01*
X730495Y562406D01*
X731724Y563635D01*
X732594Y565141D01*
X733044Y566821D01*
Y568559D01*
X732594Y570239D01*
X731724Y571745D01*
X730495Y572975D01*
X728989Y573844D01*
X727309Y574294D01*
D02*
G37*
G36*
X182853Y567690D02*
X175260D01*
Y560097D01*
X177421Y560676D01*
X179449Y561846D01*
X181104Y563501D01*
X182274Y565529D01*
X182853Y567690D01*
D02*
G37*
G36*
X172720D02*
X165127D01*
X165706Y565529D01*
X166876Y563501D01*
X168531Y561846D01*
X170559Y560676D01*
X172720Y560097D01*
Y567690D01*
D02*
G37*
G36*
X958968Y575690D02*
X956192D01*
X953512Y574972D01*
X951108Y573584D01*
X949146Y571622D01*
X947758Y569218D01*
X947040Y566538D01*
Y563762D01*
X947758Y561082D01*
X949146Y558678D01*
X951108Y556716D01*
X953512Y555328D01*
X956192Y554610D01*
X958968D01*
X961648Y555328D01*
X964052Y556716D01*
X966014Y558678D01*
X967402Y561082D01*
X968120Y563762D01*
Y566538D01*
X967402Y569218D01*
X966014Y571622D01*
X964052Y573584D01*
X961648Y574972D01*
X958968Y575690D01*
D02*
G37*
G36*
X933568D02*
X930792D01*
X928112Y574972D01*
X925708Y573584D01*
X923746Y571622D01*
X922358Y569218D01*
X921640Y566538D01*
Y563762D01*
X922358Y561082D01*
X923746Y558678D01*
X925708Y556716D01*
X928112Y555328D01*
X930792Y554610D01*
X933568D01*
X936248Y555328D01*
X938652Y556716D01*
X940614Y558678D01*
X942002Y561082D01*
X942720Y563762D01*
Y566538D01*
X942002Y569218D01*
X940614Y571622D01*
X938652Y573584D01*
X936248Y574972D01*
X933568Y575690D01*
D02*
G37*
G36*
X420477Y555244D02*
X418739D01*
X417059Y554794D01*
X415553Y553924D01*
X414324Y552695D01*
X413454Y551189D01*
X413004Y549509D01*
Y547771D01*
X413454Y546091D01*
X414324Y544585D01*
X415553Y543355D01*
X417059Y542486D01*
X418739Y542036D01*
X420477D01*
X422157Y542486D01*
X423663Y543355D01*
X424893Y544585D01*
X425762Y546091D01*
X426212Y547771D01*
Y549509D01*
X425762Y551189D01*
X424893Y552695D01*
X423663Y553924D01*
X422157Y554794D01*
X420477Y555244D01*
D02*
G37*
G36*
X456037Y551434D02*
X454299D01*
X452619Y550984D01*
X451113Y550115D01*
X449883Y548885D01*
X449014Y547379D01*
X448564Y545699D01*
Y543961D01*
X449014Y542281D01*
X449883Y540775D01*
X451113Y539546D01*
X452619Y538676D01*
X454299Y538226D01*
X456037D01*
X457717Y538676D01*
X459223Y539546D01*
X460452Y540775D01*
X461322Y542281D01*
X461772Y543961D01*
Y545699D01*
X461322Y547379D01*
X460452Y548885D01*
X459223Y550115D01*
X457717Y550984D01*
X456037Y551434D01*
D02*
G37*
G36*
X958968Y550290D02*
X956192D01*
X953512Y549572D01*
X951108Y548184D01*
X949146Y546222D01*
X947758Y543818D01*
X947040Y541138D01*
Y538362D01*
X947758Y535682D01*
X949146Y533278D01*
X951108Y531316D01*
X953512Y529928D01*
X956192Y529210D01*
X958968D01*
X961648Y529928D01*
X964052Y531316D01*
X966014Y533278D01*
X967402Y535682D01*
X968120Y538362D01*
Y541138D01*
X967402Y543818D01*
X966014Y546222D01*
X964052Y548184D01*
X961648Y549572D01*
X958968Y550290D01*
D02*
G37*
G36*
X933568D02*
X930792D01*
X928112Y549572D01*
X925708Y548184D01*
X923746Y546222D01*
X922358Y543818D01*
X921640Y541138D01*
Y538362D01*
X922358Y535682D01*
X923746Y533278D01*
X925708Y531316D01*
X928112Y529928D01*
X930792Y529210D01*
X933568D01*
X936248Y529928D01*
X938652Y531316D01*
X940614Y533278D01*
X942002Y535682D01*
X942720Y538362D01*
Y541138D01*
X942002Y543818D01*
X940614Y546222D01*
X938652Y548184D01*
X936248Y549572D01*
X933568Y550290D01*
D02*
G37*
G36*
X836987Y547290D02*
X834333D01*
X831769Y546603D01*
X829471Y545276D01*
X827594Y543399D01*
X826267Y541101D01*
X825580Y538537D01*
Y535883D01*
X826267Y533319D01*
X827594Y531021D01*
X829471Y529144D01*
X831769Y527817D01*
X834333Y527130D01*
X836987D01*
X839551Y527817D01*
X841849Y529144D01*
X843726Y531021D01*
X845053Y533319D01*
X845740Y535883D01*
Y538537D01*
X845053Y541101D01*
X843726Y543399D01*
X841849Y545276D01*
X839551Y546603D01*
X836987Y547290D01*
D02*
G37*
G36*
X399649Y538734D02*
X397911D01*
X396231Y538284D01*
X394725Y537415D01*
X393495Y536185D01*
X392626Y534679D01*
X392176Y532999D01*
Y531261D01*
X392626Y529581D01*
X393495Y528075D01*
X394725Y526846D01*
X396231Y525976D01*
X397911Y525526D01*
X399649D01*
X401329Y525976D01*
X402835Y526846D01*
X404064Y528075D01*
X404934Y529581D01*
X405384Y531261D01*
Y532999D01*
X404934Y534679D01*
X404064Y536185D01*
X402835Y537415D01*
X401329Y538284D01*
X399649Y538734D01*
D02*
G37*
G36*
X455854Y534924D02*
X454115D01*
X452435Y534474D01*
X450929Y533605D01*
X449700Y532375D01*
X448830Y530869D01*
X448381Y529189D01*
Y527451D01*
X448830Y525771D01*
X449700Y524265D01*
X450929Y523036D01*
X452435Y522166D01*
X454115Y521716D01*
X455854D01*
X457533Y522166D01*
X459039Y523036D01*
X460269Y524265D01*
X461138Y525771D01*
X461589Y527451D01*
Y529189D01*
X461138Y530869D01*
X460269Y532375D01*
X459039Y533605D01*
X457533Y534474D01*
X455854Y534924D01*
D02*
G37*
G36*
X269081Y550418D02*
X266859D01*
X264805Y549567D01*
X263233Y547995D01*
X262382Y545942D01*
Y543718D01*
X263233Y541665D01*
X264344Y540553D01*
Y519882D01*
X263915Y519635D01*
X262686Y518405D01*
X261816Y516899D01*
X261366Y515219D01*
Y513481D01*
X261816Y511801D01*
X262686Y510295D01*
X263915Y509066D01*
X264344Y508818D01*
Y501650D01*
X264344Y501650D01*
X264620Y500262D01*
X265406Y499086D01*
X265664Y498829D01*
X265177Y497656D01*
X264160D01*
X264160Y497656D01*
X262773Y497380D01*
X261596Y496594D01*
X261596Y496594D01*
X257888Y492886D01*
X257409Y493014D01*
X255671D01*
X253991Y492564D01*
X252485Y491694D01*
X251255Y490465D01*
X250386Y488959D01*
X249936Y487279D01*
Y485541D01*
X250386Y483861D01*
X251255Y482355D01*
X252485Y481125D01*
X253991Y480256D01*
X255671Y479806D01*
X257409D01*
X259089Y480256D01*
X260595Y481125D01*
X261824Y482355D01*
X262694Y483861D01*
X263144Y485541D01*
Y487279D01*
X263016Y487758D01*
X265662Y490404D01*
X270058D01*
X270306Y489975D01*
X271535Y488745D01*
X273041Y487876D01*
X274721Y487426D01*
X276459D01*
X278139Y487876D01*
X279645Y488745D01*
X280875Y489975D01*
X281744Y491481D01*
X282194Y493161D01*
Y494899D01*
X281744Y496579D01*
X280875Y498085D01*
X279645Y499314D01*
X278139Y500184D01*
X276459Y500634D01*
X274721D01*
X274242Y500506D01*
X271596Y503152D01*
Y508818D01*
X272025Y509066D01*
X273255Y510295D01*
X274124Y511801D01*
X274574Y513481D01*
Y515219D01*
X274124Y516899D01*
X273255Y518405D01*
X272025Y519635D01*
X271596Y519882D01*
Y522148D01*
X272866Y522674D01*
X273216Y522323D01*
X274722Y521454D01*
X276402Y521004D01*
X278141D01*
X279820Y521454D01*
X281326Y522323D01*
X282556Y523553D01*
X283425Y525059D01*
X283875Y526738D01*
Y528477D01*
X283425Y530157D01*
X282556Y531663D01*
X281326Y532892D01*
X279820Y533762D01*
X278141Y534212D01*
X276402D01*
X274722Y533762D01*
X273216Y532892D01*
X272866Y532541D01*
X271596Y533068D01*
Y540553D01*
X272707Y541665D01*
X273558Y543718D01*
Y545942D01*
X272707Y547995D01*
X271135Y549567D01*
X269081Y550418D01*
D02*
G37*
G36*
X173990Y516863D02*
Y509270D01*
X181583D01*
X181004Y511431D01*
X179834Y513459D01*
X178179Y515114D01*
X176151Y516284D01*
X173990Y516863D01*
D02*
G37*
G36*
X171450D02*
X169289Y516284D01*
X167261Y515114D01*
X165606Y513459D01*
X164436Y511431D01*
X163857Y509270D01*
X171450D01*
Y516863D01*
D02*
G37*
G36*
X464419Y520954D02*
X462681D01*
X461001Y520504D01*
X459495Y519635D01*
X458265Y518405D01*
X457396Y516899D01*
X456946Y515219D01*
Y513481D01*
X457396Y511801D01*
X458265Y510295D01*
X459495Y509066D01*
X461001Y508196D01*
X462681Y507746D01*
X464419D01*
X466099Y508196D01*
X467605Y509066D01*
X468834Y510295D01*
X469704Y511801D01*
X470154Y513481D01*
Y515219D01*
X469704Y516899D01*
X468834Y518405D01*
X467605Y519635D01*
X466099Y520504D01*
X464419Y520954D01*
D02*
G37*
G36*
X402189Y519684D02*
X400451D01*
X398771Y519234D01*
X397265Y518364D01*
X396035Y517135D01*
X395166Y515629D01*
X394716Y513949D01*
Y512211D01*
X395166Y510531D01*
X396035Y509025D01*
X397265Y507795D01*
X398771Y506926D01*
X400451Y506476D01*
X402189D01*
X403869Y506926D01*
X405375Y507795D01*
X406604Y509025D01*
X407474Y510531D01*
X407924Y512211D01*
Y513949D01*
X407474Y515629D01*
X406604Y517135D01*
X405375Y518364D01*
X403869Y519234D01*
X402189Y519684D01*
D02*
G37*
G36*
X252730Y513053D02*
Y505460D01*
X260323D01*
X259744Y507621D01*
X258574Y509649D01*
X256919Y511304D01*
X254891Y512474D01*
X252730Y513053D01*
D02*
G37*
G36*
X250190D02*
X248029Y512474D01*
X246001Y511304D01*
X244346Y509649D01*
X243176Y507621D01*
X242597Y505460D01*
X250190D01*
Y513053D01*
D02*
G37*
G36*
X958968Y524890D02*
X956192D01*
X953512Y524172D01*
X951108Y522784D01*
X949146Y520822D01*
X947758Y518418D01*
X947040Y515738D01*
Y512962D01*
X947758Y510282D01*
X949146Y507878D01*
X951108Y505916D01*
X953512Y504528D01*
X956192Y503810D01*
X958968D01*
X961648Y504528D01*
X964052Y505916D01*
X966014Y507878D01*
X967402Y510282D01*
X968120Y512962D01*
Y515738D01*
X967402Y518418D01*
X966014Y520822D01*
X964052Y522784D01*
X961648Y524172D01*
X958968Y524890D01*
D02*
G37*
G36*
X933568D02*
X930792D01*
X928112Y524172D01*
X925708Y522784D01*
X923746Y520822D01*
X922358Y518418D01*
X921640Y515738D01*
Y512962D01*
X922358Y510282D01*
X923746Y507878D01*
X925708Y505916D01*
X928112Y504528D01*
X930792Y503810D01*
X933568D01*
X936248Y504528D01*
X938652Y505916D01*
X940614Y507878D01*
X942002Y510282D01*
X942720Y512962D01*
Y515738D01*
X942002Y518418D01*
X940614Y520822D01*
X938652Y522784D01*
X936248Y524172D01*
X933568Y524890D01*
D02*
G37*
G36*
X836987Y522290D02*
X834333D01*
X831769Y521603D01*
X829471Y520276D01*
X827594Y518399D01*
X826267Y516101D01*
X825580Y513537D01*
Y510883D01*
X826267Y508319D01*
X827594Y506021D01*
X829471Y504144D01*
X831769Y502817D01*
X834333Y502130D01*
X836987D01*
X839551Y502817D01*
X841849Y504144D01*
X843726Y506021D01*
X845053Y508319D01*
X845740Y510883D01*
Y513537D01*
X845053Y516101D01*
X843726Y518399D01*
X841849Y520276D01*
X839551Y521603D01*
X836987Y522290D01*
D02*
G37*
G36*
X181583Y506730D02*
X173990D01*
Y499137D01*
X176151Y499716D01*
X178179Y500886D01*
X179834Y502541D01*
X181004Y504569D01*
X181583Y506730D01*
D02*
G37*
G36*
X171450D02*
X163857D01*
X164436Y504569D01*
X165606Y502541D01*
X167261Y500886D01*
X169289Y499716D01*
X171450Y499137D01*
Y506730D01*
D02*
G37*
G36*
X617505Y510108D02*
X615767D01*
X614087Y509658D01*
X612581Y508788D01*
X611352Y507559D01*
X610482Y506053D01*
X610032Y504373D01*
Y502635D01*
X610482Y500955D01*
X611352Y499449D01*
X612581Y498219D01*
X614087Y497350D01*
X615767Y496900D01*
X617505D01*
X619185Y497350D01*
X620691Y498219D01*
X621921Y499449D01*
X622790Y500955D01*
X623240Y502635D01*
Y504373D01*
X622790Y506053D01*
X621921Y507559D01*
X620691Y508788D01*
X619185Y509658D01*
X617505Y510108D01*
D02*
G37*
G36*
X260323Y502920D02*
X252730D01*
Y495327D01*
X254891Y495906D01*
X256919Y497076D01*
X258574Y498731D01*
X259744Y500759D01*
X260323Y502920D01*
D02*
G37*
G36*
X250190D02*
X242597D01*
X243176Y500759D01*
X244346Y498731D01*
X246001Y497076D01*
X248029Y495906D01*
X250190Y495327D01*
Y502920D01*
D02*
G37*
G36*
X473309Y504444D02*
X471571D01*
X469891Y503994D01*
X468385Y503125D01*
X467155Y501895D01*
X466286Y500389D01*
X465836Y498709D01*
Y496971D01*
X466286Y495291D01*
X467155Y493785D01*
X468385Y492556D01*
X469891Y491686D01*
X471571Y491236D01*
X473309D01*
X474989Y491686D01*
X476495Y492556D01*
X477724Y493785D01*
X478594Y495291D01*
X479044Y496971D01*
Y498709D01*
X478594Y500389D01*
X477724Y501895D01*
X476495Y503125D01*
X474989Y503994D01*
X473309Y504444D01*
D02*
G37*
G36*
X446639Y495554D02*
X444901D01*
X443221Y495104D01*
X441715Y494235D01*
X440485Y493005D01*
X439616Y491499D01*
X439166Y489819D01*
Y489686D01*
X438010Y489031D01*
X437896Y489059D01*
X437085Y490465D01*
X435855Y491694D01*
X434349Y492564D01*
X432669Y493014D01*
X430931D01*
X429251Y492564D01*
X427745Y491694D01*
X426516Y490465D01*
X425646Y488959D01*
X425196Y487279D01*
Y485541D01*
X425646Y483861D01*
X426516Y482355D01*
X427745Y481125D01*
X429251Y480256D01*
X430931Y479806D01*
X432669D01*
X434349Y480256D01*
X435855Y481125D01*
X437085Y482355D01*
X437954Y483861D01*
X438404Y485541D01*
Y485674D01*
X439560Y486329D01*
X439674Y486301D01*
X440485Y484895D01*
X441715Y483666D01*
X443221Y482796D01*
X444901Y482346D01*
X446639D01*
X448319Y482796D01*
X449825Y483666D01*
X451054Y484895D01*
X451924Y486401D01*
X452374Y488081D01*
Y489819D01*
X451924Y491499D01*
X451054Y493005D01*
X449825Y494235D01*
X448319Y495104D01*
X446639Y495554D01*
D02*
G37*
G36*
X836987Y497290D02*
X836930D01*
Y488480D01*
X845740D01*
Y488537D01*
X845053Y491101D01*
X843726Y493399D01*
X841849Y495276D01*
X839551Y496603D01*
X836987Y497290D01*
D02*
G37*
G36*
X834390D02*
X834333D01*
X831769Y496603D01*
X829471Y495276D01*
X827594Y493399D01*
X826267Y491101D01*
X825580Y488537D01*
Y488480D01*
X834390D01*
Y497290D01*
D02*
G37*
G36*
X345039Y499364D02*
X343301D01*
X341621Y498914D01*
X340115Y498045D01*
X338885Y496815D01*
X338016Y495309D01*
X337566Y493629D01*
Y491891D01*
X338016Y490211D01*
X338885Y488705D01*
X340115Y487476D01*
X341621Y486606D01*
X343301Y486156D01*
X345039D01*
X346719Y486606D01*
X348225Y487476D01*
X349454Y488705D01*
X350324Y490211D01*
X350774Y491891D01*
Y493629D01*
X350324Y495309D01*
X349454Y496815D01*
X348225Y498045D01*
X346719Y498914D01*
X345039Y499364D01*
D02*
G37*
G36*
X566019Y494284D02*
X564281D01*
X562601Y493834D01*
X561095Y492965D01*
X559865Y491735D01*
X558996Y490229D01*
X558546Y488549D01*
Y486811D01*
X558996Y485131D01*
X559865Y483625D01*
X561095Y482396D01*
X562601Y481526D01*
X564281Y481076D01*
X566019D01*
X567699Y481526D01*
X569205Y482396D01*
X570434Y483625D01*
X571304Y485131D01*
X571754Y486811D01*
Y488549D01*
X571304Y490229D01*
X570434Y491735D01*
X569205Y492965D01*
X567699Y493834D01*
X566019Y494284D01*
D02*
G37*
G36*
X367943Y499623D02*
X366204D01*
X364524Y499173D01*
X363018Y498303D01*
X361789Y497074D01*
X360919Y495568D01*
X360469Y493888D01*
Y493209D01*
X360457Y492148D01*
X359269Y492024D01*
X358716D01*
X357037Y491574D01*
X355531Y490704D01*
X354301Y489475D01*
X353432Y487969D01*
X352982Y486289D01*
Y484550D01*
X353432Y482871D01*
X354301Y481365D01*
X355531Y480135D01*
X357037Y479266D01*
X358716Y478816D01*
X360455D01*
X362135Y479266D01*
X363641Y480135D01*
X364870Y481365D01*
X365740Y482871D01*
X366190Y484550D01*
Y485229D01*
X366202Y486290D01*
X367390Y486415D01*
X367943D01*
X369622Y486865D01*
X371128Y487734D01*
X372358Y488964D01*
X373227Y490470D01*
X373677Y492149D01*
Y493888D01*
X373227Y495568D01*
X372358Y497074D01*
X371128Y498303D01*
X369622Y499173D01*
X367943Y499623D01*
D02*
G37*
G36*
X958968Y499490D02*
X956192D01*
X953512Y498772D01*
X951108Y497384D01*
X949146Y495422D01*
X947758Y493018D01*
X947040Y490338D01*
Y487562D01*
X947758Y484882D01*
X949146Y482478D01*
X951108Y480516D01*
X953512Y479128D01*
X956192Y478410D01*
X958968D01*
X961648Y479128D01*
X964052Y480516D01*
X966014Y482478D01*
X967402Y484882D01*
X968120Y487562D01*
Y490338D01*
X967402Y493018D01*
X966014Y495422D01*
X964052Y497384D01*
X961648Y498772D01*
X958968Y499490D01*
D02*
G37*
G36*
X933568D02*
X930792D01*
X928112Y498772D01*
X925708Y497384D01*
X923746Y495422D01*
X922358Y493018D01*
X921640Y490338D01*
Y487562D01*
X922358Y484882D01*
X923746Y482478D01*
X925708Y480516D01*
X928112Y479128D01*
X930792Y478410D01*
X933568D01*
X936248Y479128D01*
X938652Y480516D01*
X940614Y482478D01*
X942002Y484882D01*
X942720Y487562D01*
Y490338D01*
X942002Y493018D01*
X940614Y495422D01*
X938652Y497384D01*
X936248Y498772D01*
X933568Y499490D01*
D02*
G37*
G36*
X845740Y485940D02*
X836930D01*
Y477130D01*
X836987D01*
X839551Y477817D01*
X841849Y479144D01*
X843726Y481021D01*
X845053Y483319D01*
X845740Y485883D01*
Y485940D01*
D02*
G37*
G36*
X834390D02*
X825580D01*
Y485883D01*
X826267Y483319D01*
X827594Y481021D01*
X829471Y479144D01*
X831769Y477817D01*
X834333Y477130D01*
X834390D01*
Y485940D01*
D02*
G37*
G36*
X543159Y486664D02*
X541421D01*
X539741Y486214D01*
X538235Y485345D01*
X537006Y484115D01*
X536136Y482609D01*
X535686Y480929D01*
Y479191D01*
X536136Y477511D01*
X537006Y476005D01*
X538235Y474776D01*
X539741Y473906D01*
X541421Y473456D01*
X543159D01*
X544839Y473906D01*
X546345Y474776D01*
X547575Y476005D01*
X548444Y477511D01*
X548894Y479191D01*
Y480929D01*
X548444Y482609D01*
X547575Y484115D01*
X546345Y485345D01*
X544839Y486214D01*
X543159Y486664D01*
D02*
G37*
G36*
X421239Y480314D02*
X419501D01*
X417821Y479864D01*
X416315Y478994D01*
X415085Y477765D01*
X414216Y476259D01*
X413766Y474579D01*
Y472841D01*
X414216Y471161D01*
X415085Y469655D01*
X416315Y468425D01*
X417821Y467556D01*
X419501Y467106D01*
X421239D01*
X422919Y467556D01*
X424425Y468425D01*
X425654Y469655D01*
X426524Y471161D01*
X426974Y472841D01*
Y474579D01*
X426524Y476259D01*
X425654Y477765D01*
X424425Y478994D01*
X422919Y479864D01*
X421239Y480314D01*
D02*
G37*
G36*
X568559Y476504D02*
X566821D01*
X565141Y476054D01*
X563635Y475185D01*
X562406Y473955D01*
X561536Y472449D01*
X561086Y470769D01*
Y469031D01*
X561536Y467351D01*
X562406Y465845D01*
X563635Y464616D01*
X565141Y463746D01*
X566821Y463296D01*
X568559D01*
X570239Y463746D01*
X571745Y464616D01*
X572975Y465845D01*
X573844Y467351D01*
X574294Y469031D01*
Y470769D01*
X573844Y472449D01*
X572975Y473955D01*
X571745Y475185D01*
X570239Y476054D01*
X568559Y476504D01*
D02*
G37*
G36*
X38100Y469873D02*
Y462280D01*
X45693D01*
X45114Y464441D01*
X43944Y466469D01*
X42289Y468124D01*
X40261Y469294D01*
X38100Y469873D01*
D02*
G37*
G36*
X35560D02*
X33399Y469294D01*
X31371Y468124D01*
X29716Y466469D01*
X28546Y464441D01*
X27967Y462280D01*
X35560D01*
Y469873D01*
D02*
G37*
G36*
X382663Y470408D02*
X380924D01*
X379244Y469958D01*
X377738Y469088D01*
X376509Y467859D01*
X375639Y466353D01*
X375190Y464673D01*
Y462934D01*
X375639Y461255D01*
X376509Y459749D01*
X376661Y459597D01*
X376004Y458458D01*
X375011Y458724D01*
X373273D01*
X371593Y458274D01*
X370087Y457405D01*
X368857Y456175D01*
X367988Y454669D01*
X367538Y452989D01*
Y451251D01*
X367988Y449571D01*
X368857Y448065D01*
X370087Y446836D01*
X371593Y445966D01*
X373273Y445516D01*
X375011D01*
X376691Y445966D01*
X378197Y446836D01*
X379426Y448065D01*
X380296Y449571D01*
X380746Y451251D01*
Y452989D01*
X380296Y454669D01*
X379426Y456175D01*
X379274Y456327D01*
X379932Y457466D01*
X380924Y457200D01*
X382663D01*
X384342Y457650D01*
X385849Y458519D01*
X387078Y459749D01*
X387948Y461255D01*
X388397Y462934D01*
Y464673D01*
X387948Y466353D01*
X387078Y467859D01*
X385849Y469088D01*
X384342Y469958D01*
X382663Y470408D01*
D02*
G37*
G36*
X958968Y474090D02*
X956192D01*
X953512Y473372D01*
X951108Y471984D01*
X949146Y470022D01*
X947758Y467618D01*
X947040Y464938D01*
Y462162D01*
X947758Y459482D01*
X949146Y457078D01*
X951108Y455116D01*
X953512Y453728D01*
X956192Y453010D01*
X958968D01*
X961648Y453728D01*
X964052Y455116D01*
X966014Y457078D01*
X967402Y459482D01*
X968120Y462162D01*
Y464938D01*
X967402Y467618D01*
X966014Y470022D01*
X964052Y471984D01*
X961648Y473372D01*
X958968Y474090D01*
D02*
G37*
G36*
X933568D02*
X930792D01*
X928112Y473372D01*
X925708Y471984D01*
X923746Y470022D01*
X922358Y467618D01*
X921640Y464938D01*
Y462162D01*
X922358Y459482D01*
X923746Y457078D01*
X925708Y455116D01*
X928112Y453728D01*
X930792Y453010D01*
X933568D01*
X936248Y453728D01*
X938652Y455116D01*
X940614Y457078D01*
X942002Y459482D01*
X942720Y462162D01*
Y464938D01*
X942002Y467618D01*
X940614Y470022D01*
X938652Y471984D01*
X936248Y473372D01*
X933568Y474090D01*
D02*
G37*
G36*
X45693Y459740D02*
X38100D01*
Y452147D01*
X40261Y452726D01*
X42289Y453896D01*
X43944Y455551D01*
X45114Y457579D01*
X45693Y459740D01*
D02*
G37*
G36*
X35560D02*
X27967D01*
X28546Y457579D01*
X29716Y455551D01*
X31371Y453896D01*
X33399Y452726D01*
X35560Y452147D01*
Y459740D01*
D02*
G37*
G36*
X836987Y472290D02*
X834333D01*
X831769Y471603D01*
X829471Y470276D01*
X827594Y468399D01*
X826267Y466101D01*
X825580Y463537D01*
Y460883D01*
X826267Y458319D01*
X827594Y456021D01*
X829471Y454144D01*
X831769Y452817D01*
X834333Y452130D01*
X836987D01*
X839551Y452817D01*
X841849Y454144D01*
X843726Y456021D01*
X845053Y458319D01*
X845740Y460883D01*
Y463537D01*
X845053Y466101D01*
X843726Y468399D01*
X841849Y470276D01*
X839551Y471603D01*
X836987Y472290D01*
D02*
G37*
G36*
X439781Y466287D02*
X438043D01*
X436363Y465837D01*
X434857Y464967D01*
X433628Y463738D01*
X432758Y462232D01*
X432308Y460552D01*
Y459607D01*
X432199Y459524D01*
X430460D01*
X428781Y459074D01*
X427275Y458204D01*
X426045Y456975D01*
X425176Y455469D01*
X424726Y453789D01*
Y452050D01*
X425176Y450371D01*
X426045Y448865D01*
X427275Y447635D01*
X428781Y446766D01*
X430460Y446316D01*
X432199D01*
X433879Y446766D01*
X435385Y447635D01*
X436614Y448865D01*
X437484Y450371D01*
X437934Y452050D01*
Y452995D01*
X438043Y453079D01*
X439781D01*
X441461Y453529D01*
X442967Y454398D01*
X444197Y455628D01*
X445066Y457134D01*
X445516Y458813D01*
Y460552D01*
X445066Y462232D01*
X444197Y463738D01*
X442967Y464967D01*
X441461Y465837D01*
X439781Y466287D01*
D02*
G37*
G36*
X958968Y448690D02*
X956192D01*
X953512Y447972D01*
X951108Y446584D01*
X949146Y444622D01*
X947758Y442218D01*
X947040Y439538D01*
Y436762D01*
X947758Y434082D01*
X949146Y431678D01*
X951108Y429716D01*
X953512Y428328D01*
X956192Y427610D01*
X958968D01*
X961648Y428328D01*
X964052Y429716D01*
X966014Y431678D01*
X967402Y434082D01*
X968120Y436762D01*
Y439538D01*
X967402Y442218D01*
X966014Y444622D01*
X964052Y446584D01*
X961648Y447972D01*
X958968Y448690D01*
D02*
G37*
G36*
X933568D02*
X930792D01*
X928112Y447972D01*
X925708Y446584D01*
X923746Y444622D01*
X922358Y442218D01*
X921640Y439538D01*
Y436762D01*
X922358Y434082D01*
X923746Y431678D01*
X925708Y429716D01*
X928112Y428328D01*
X930792Y427610D01*
X933568D01*
X936248Y428328D01*
X938652Y429716D01*
X940614Y431678D01*
X942002Y434082D01*
X942720Y436762D01*
Y439538D01*
X942002Y442218D01*
X940614Y444622D01*
X938652Y446584D01*
X936248Y447972D01*
X933568Y448690D01*
D02*
G37*
G36*
X546100Y428663D02*
Y422910D01*
X551853D01*
X551457Y424385D01*
X550521Y426007D01*
X549197Y427331D01*
X547575Y428267D01*
X546100Y428663D01*
D02*
G37*
G36*
X543560D02*
X542085Y428267D01*
X540463Y427331D01*
X539139Y426007D01*
X538203Y424385D01*
X537807Y422910D01*
X543560D01*
Y428663D01*
D02*
G37*
G36*
X179070Y424153D02*
Y416560D01*
X186663D01*
X186084Y418721D01*
X184914Y420749D01*
X183259Y422404D01*
X181231Y423574D01*
X179070Y424153D01*
D02*
G37*
G36*
X176530D02*
X174369Y423574D01*
X172341Y422404D01*
X170686Y420749D01*
X169516Y418721D01*
X168937Y416560D01*
X176530D01*
Y424153D01*
D02*
G37*
G36*
X551853Y420370D02*
X546100D01*
Y414617D01*
X547575Y415013D01*
X549197Y415949D01*
X550521Y417273D01*
X551457Y418895D01*
X551853Y420370D01*
D02*
G37*
G36*
X543560D02*
X537807D01*
X538203Y418895D01*
X539139Y417273D01*
X540463Y415949D01*
X542085Y415013D01*
X543560Y414617D01*
Y420370D01*
D02*
G37*
G36*
X186663Y414020D02*
X179070D01*
Y406427D01*
X181231Y407006D01*
X183259Y408176D01*
X184914Y409831D01*
X186084Y411859D01*
X186663Y414020D01*
D02*
G37*
G36*
X176530D02*
X168937D01*
X169516Y411859D01*
X170686Y409831D01*
X172341Y408176D01*
X174369Y407006D01*
X176530Y406427D01*
Y414020D01*
D02*
G37*
G36*
X334010Y410357D02*
Y405130D01*
X339237D01*
X338894Y406409D01*
X338024Y407915D01*
X336795Y409145D01*
X335289Y410014D01*
X334010Y410357D01*
D02*
G37*
G36*
X331470D02*
X330191Y410014D01*
X328685Y409145D01*
X327455Y407915D01*
X326586Y406409D01*
X326243Y405130D01*
X331470D01*
Y410357D01*
D02*
G37*
G36*
X958968Y423290D02*
X956192D01*
X953512Y422572D01*
X951108Y421184D01*
X949146Y419222D01*
X947758Y416818D01*
X947040Y414138D01*
Y411362D01*
X947758Y408682D01*
X949146Y406278D01*
X951108Y404316D01*
X953512Y402928D01*
X956192Y402210D01*
X958968D01*
X961648Y402928D01*
X964052Y404316D01*
X966014Y406278D01*
X967402Y408682D01*
X968120Y411362D01*
Y414138D01*
X967402Y416818D01*
X966014Y419222D01*
X964052Y421184D01*
X961648Y422572D01*
X958968Y423290D01*
D02*
G37*
G36*
X933568D02*
X930792D01*
X928112Y422572D01*
X925708Y421184D01*
X923746Y419222D01*
X922358Y416818D01*
X921640Y414138D01*
Y411362D01*
X922358Y408682D01*
X923746Y406278D01*
X925708Y404316D01*
X928112Y402928D01*
X930792Y402210D01*
X933568D01*
X936248Y402928D01*
X938652Y404316D01*
X940614Y406278D01*
X942002Y408682D01*
X942720Y411362D01*
Y414138D01*
X942002Y416818D01*
X940614Y419222D01*
X938652Y421184D01*
X936248Y422572D01*
X933568Y423290D01*
D02*
G37*
G36*
X339237Y402590D02*
X334010D01*
Y397363D01*
X335289Y397706D01*
X336795Y398576D01*
X338024Y399805D01*
X338894Y401311D01*
X339237Y402590D01*
D02*
G37*
G36*
X331470D02*
X326243D01*
X326586Y401311D01*
X327455Y399805D01*
X328685Y398576D01*
X330191Y397706D01*
X331470Y397363D01*
Y402590D01*
D02*
G37*
G36*
X421239Y409194D02*
X419501D01*
X417821Y408744D01*
X416315Y407874D01*
X415085Y406645D01*
X414216Y405139D01*
X413766Y403459D01*
Y401721D01*
X414216Y400041D01*
X415085Y398535D01*
X416315Y397305D01*
X417821Y396436D01*
X419501Y395986D01*
X421239D01*
X422919Y396436D01*
X424425Y397305D01*
X425654Y398535D01*
X426524Y400041D01*
X426974Y401721D01*
Y403459D01*
X426524Y405139D01*
X425654Y406645D01*
X424425Y407874D01*
X422919Y408744D01*
X421239Y409194D01*
D02*
G37*
G36*
X50800Y391133D02*
Y383540D01*
X58393D01*
X57814Y385701D01*
X56644Y387729D01*
X54989Y389384D01*
X52961Y390554D01*
X50800Y391133D01*
D02*
G37*
G36*
X48260D02*
X46099Y390554D01*
X44071Y389384D01*
X42416Y387729D01*
X41246Y385701D01*
X40667Y383540D01*
X48260D01*
Y391133D01*
D02*
G37*
G36*
X958968Y397890D02*
X956192D01*
X953512Y397172D01*
X951108Y395784D01*
X949146Y393822D01*
X947758Y391418D01*
X947040Y388738D01*
Y385962D01*
X947758Y383282D01*
X949146Y380878D01*
X951108Y378916D01*
X953512Y377528D01*
X956192Y376810D01*
X958968D01*
X961648Y377528D01*
X964052Y378916D01*
X966014Y380878D01*
X967402Y383282D01*
X968120Y385962D01*
Y388738D01*
X967402Y391418D01*
X966014Y393822D01*
X964052Y395784D01*
X961648Y397172D01*
X958968Y397890D01*
D02*
G37*
G36*
X933568D02*
X930792D01*
X928112Y397172D01*
X925708Y395784D01*
X923746Y393822D01*
X922358Y391418D01*
X921640Y388738D01*
Y385962D01*
X922358Y383282D01*
X923746Y380878D01*
X925708Y378916D01*
X928112Y377528D01*
X930792Y376810D01*
X933568D01*
X936248Y377528D01*
X938652Y378916D01*
X940614Y380878D01*
X942002Y383282D01*
X942720Y385962D01*
Y388738D01*
X942002Y391418D01*
X940614Y393822D01*
X938652Y395784D01*
X936248Y397172D01*
X933568Y397890D01*
D02*
G37*
G36*
X58393Y381000D02*
X50800D01*
Y373407D01*
X52961Y373986D01*
X54989Y375156D01*
X56644Y376811D01*
X57814Y378839D01*
X58393Y381000D01*
D02*
G37*
G36*
X48260D02*
X40667D01*
X41246Y378839D01*
X42416Y376811D01*
X44071Y375156D01*
X46099Y373986D01*
X48260Y373407D01*
Y381000D01*
D02*
G37*
G36*
X454259Y385064D02*
X452521D01*
X450841Y384614D01*
X449335Y383745D01*
X448106Y382515D01*
X447236Y381009D01*
X446786Y379329D01*
Y377591D01*
X447236Y375911D01*
X448106Y374405D01*
X449335Y373176D01*
X450841Y372306D01*
X452521Y371856D01*
X454259D01*
X455939Y372306D01*
X457445Y373176D01*
X458675Y374405D01*
X459544Y375911D01*
X459994Y377591D01*
Y379329D01*
X459544Y381009D01*
X458675Y382515D01*
X457445Y383745D01*
X455939Y384614D01*
X454259Y385064D01*
D02*
G37*
G36*
X838257Y385200D02*
X835603D01*
X833039Y384513D01*
X830741Y383186D01*
X828864Y381309D01*
X827537Y379011D01*
X826850Y376447D01*
Y373793D01*
X827537Y371229D01*
X828864Y368931D01*
X830741Y367054D01*
X833039Y365727D01*
X835603Y365040D01*
X838257D01*
X840821Y365727D01*
X843119Y367054D01*
X844996Y368931D01*
X846323Y371229D01*
X847010Y373793D01*
Y376447D01*
X846323Y379011D01*
X844996Y381309D01*
X843119Y383186D01*
X840821Y384513D01*
X838257Y385200D01*
D02*
G37*
G36*
X775870Y440690D02*
X773530D01*
X771269Y440084D01*
X769241Y438914D01*
X767586Y437259D01*
X766416Y435231D01*
X765810Y432970D01*
Y430630D01*
X766416Y428369D01*
X767586Y426341D01*
X769241Y424686D01*
X769520Y424525D01*
Y376308D01*
X767971Y375414D01*
X766316Y373759D01*
X765146Y371731D01*
X764540Y369470D01*
Y367130D01*
X765146Y364869D01*
X766316Y362841D01*
X767971Y361186D01*
X769999Y360016D01*
X772260Y359410D01*
X774600D01*
X776861Y360016D01*
X778889Y361186D01*
X780544Y362841D01*
X781714Y364869D01*
X782320Y367130D01*
Y369470D01*
X781714Y371731D01*
X780544Y373759D01*
X779880Y374423D01*
Y424525D01*
X780159Y424686D01*
X781814Y426341D01*
X782984Y428369D01*
X783590Y430630D01*
Y432970D01*
X782984Y435231D01*
X781814Y437259D01*
X780159Y438914D01*
X778131Y440084D01*
X775870Y440690D01*
D02*
G37*
G36*
X742549Y372364D02*
X740811D01*
X739131Y371914D01*
X737625Y371045D01*
X736395Y369815D01*
X735526Y368309D01*
X735076Y366629D01*
Y364891D01*
X735526Y363211D01*
X736395Y361705D01*
X737625Y360476D01*
X739131Y359606D01*
X740811Y359156D01*
X742549D01*
X744229Y359606D01*
X745735Y360476D01*
X746964Y361705D01*
X747834Y363211D01*
X748284Y364891D01*
Y366629D01*
X747834Y368309D01*
X746964Y369815D01*
X745735Y371045D01*
X744229Y371914D01*
X742549Y372364D01*
D02*
G37*
G36*
X463149Y364744D02*
X461411D01*
X459731Y364294D01*
X458225Y363424D01*
X456996Y362195D01*
X456126Y360689D01*
X455676Y359009D01*
Y357271D01*
X456126Y355591D01*
X456996Y354085D01*
X458225Y352855D01*
X459731Y351986D01*
X461411Y351536D01*
X463149D01*
X464829Y351986D01*
X466335Y352855D01*
X467565Y354085D01*
X468434Y355591D01*
X468884Y357271D01*
Y359009D01*
X468434Y360689D01*
X467565Y362195D01*
X466335Y363424D01*
X464829Y364294D01*
X463149Y364744D01*
D02*
G37*
G36*
X958968Y372490D02*
X956192D01*
X953512Y371772D01*
X951108Y370384D01*
X949146Y368422D01*
X947758Y366018D01*
X947040Y363338D01*
Y360562D01*
X947758Y357882D01*
X949146Y355478D01*
X951108Y353516D01*
X953512Y352128D01*
X956192Y351410D01*
X958968D01*
X961648Y352128D01*
X964052Y353516D01*
X966014Y355478D01*
X967402Y357882D01*
X968120Y360562D01*
Y363338D01*
X967402Y366018D01*
X966014Y368422D01*
X964052Y370384D01*
X961648Y371772D01*
X958968Y372490D01*
D02*
G37*
G36*
X933568D02*
X930792D01*
X928112Y371772D01*
X925708Y370384D01*
X923746Y368422D01*
X922358Y366018D01*
X921640Y363338D01*
Y360562D01*
X922358Y357882D01*
X923746Y355478D01*
X925708Y353516D01*
X928112Y352128D01*
X930792Y351410D01*
X933568D01*
X936248Y352128D01*
X938652Y353516D01*
X940614Y355478D01*
X942002Y357882D01*
X942720Y360562D01*
Y363338D01*
X942002Y366018D01*
X940614Y368422D01*
X938652Y370384D01*
X936248Y371772D01*
X933568Y372490D01*
D02*
G37*
G36*
X310749Y359664D02*
X309011D01*
X307331Y359214D01*
X305825Y358344D01*
X304596Y357115D01*
X303726Y355609D01*
X303276Y353929D01*
Y352191D01*
X303726Y350511D01*
X304596Y349005D01*
X305825Y347775D01*
X307331Y346906D01*
X309011Y346456D01*
X310749D01*
X312429Y346906D01*
X313935Y347775D01*
X315165Y349005D01*
X316034Y350511D01*
X316484Y352191D01*
Y353929D01*
X316034Y355609D01*
X315165Y357115D01*
X313935Y358344D01*
X312429Y359214D01*
X310749Y359664D01*
D02*
G37*
G36*
X838257Y360200D02*
X835603D01*
X833039Y359513D01*
X830741Y358186D01*
X828864Y356309D01*
X827537Y354011D01*
X826850Y351447D01*
Y348793D01*
X827537Y346229D01*
X828864Y343931D01*
X830741Y342054D01*
X833039Y340727D01*
X835603Y340040D01*
X838257D01*
X840821Y340727D01*
X843119Y342054D01*
X844996Y343931D01*
X846323Y346229D01*
X847010Y348793D01*
Y351447D01*
X846323Y354011D01*
X844996Y356309D01*
X843119Y358186D01*
X840821Y359513D01*
X838257Y360200D01*
D02*
G37*
G36*
X629519Y348234D02*
X627781D01*
X626101Y347784D01*
X624595Y346914D01*
X623366Y345685D01*
X622496Y344179D01*
X622046Y342499D01*
Y340761D01*
X622496Y339081D01*
X623366Y337575D01*
X624595Y336345D01*
X626101Y335476D01*
X627781Y335026D01*
X629519D01*
X631199Y335476D01*
X632705Y336345D01*
X633935Y337575D01*
X634804Y339081D01*
X635254Y340761D01*
Y342499D01*
X634804Y344179D01*
X633935Y345685D01*
X632705Y346914D01*
X631199Y347784D01*
X629519Y348234D01*
D02*
G37*
G36*
X838257Y335200D02*
X838200D01*
Y326390D01*
X847010D01*
Y326447D01*
X846323Y329011D01*
X844996Y331309D01*
X843119Y333186D01*
X840821Y334513D01*
X838257Y335200D01*
D02*
G37*
G36*
X835660D02*
X835603D01*
X833039Y334513D01*
X830741Y333186D01*
X828864Y331309D01*
X827537Y329011D01*
X826850Y326447D01*
Y326390D01*
X835660D01*
Y335200D01*
D02*
G37*
G36*
X958968Y347090D02*
X956192D01*
X953512Y346372D01*
X951108Y344984D01*
X949146Y343022D01*
X947758Y340618D01*
X947040Y337938D01*
Y335162D01*
X947758Y332482D01*
X949146Y330078D01*
X951108Y328116D01*
X953512Y326728D01*
X956192Y326010D01*
X958968D01*
X961648Y326728D01*
X964052Y328116D01*
X966014Y330078D01*
X967402Y332482D01*
X968120Y335162D01*
Y337938D01*
X967402Y340618D01*
X966014Y343022D01*
X964052Y344984D01*
X961648Y346372D01*
X958968Y347090D01*
D02*
G37*
G36*
X933568D02*
X930792D01*
X928112Y346372D01*
X925708Y344984D01*
X923746Y343022D01*
X922358Y340618D01*
X921640Y337938D01*
Y335162D01*
X922358Y332482D01*
X923746Y330078D01*
X925708Y328116D01*
X928112Y326728D01*
X930792Y326010D01*
X933568D01*
X936248Y326728D01*
X938652Y328116D01*
X940614Y330078D01*
X942002Y332482D01*
X942720Y335162D01*
Y337938D01*
X942002Y340618D01*
X940614Y343022D01*
X938652Y344984D01*
X936248Y346372D01*
X933568Y347090D01*
D02*
G37*
G36*
X847010Y323850D02*
X838200D01*
Y315040D01*
X838257D01*
X840821Y315727D01*
X843119Y317054D01*
X844996Y318931D01*
X846323Y321229D01*
X847010Y323793D01*
Y323850D01*
D02*
G37*
G36*
X835660D02*
X826850D01*
Y323793D01*
X827537Y321229D01*
X828864Y318931D01*
X830741Y317054D01*
X833039Y315727D01*
X835603Y315040D01*
X835660D01*
Y323850D01*
D02*
G37*
G36*
X426720Y314363D02*
Y308610D01*
X432473D01*
X432077Y310085D01*
X431141Y311707D01*
X429817Y313031D01*
X428195Y313967D01*
X426720Y314363D01*
D02*
G37*
G36*
X424180D02*
X422705Y313967D01*
X421083Y313031D01*
X419759Y311707D01*
X418823Y310085D01*
X418427Y308610D01*
X424180D01*
Y314363D01*
D02*
G37*
G36*
X563945Y326370D02*
X561275D01*
X558696Y325679D01*
X556384Y324344D01*
X554496Y322456D01*
X553161Y320144D01*
X552470Y317565D01*
Y314895D01*
X553161Y312316D01*
X554496Y310004D01*
X556384Y308116D01*
X558696Y306781D01*
X561275Y306090D01*
X563945D01*
X566524Y306781D01*
X568836Y308116D01*
X570724Y310004D01*
X572059Y312316D01*
X572750Y314895D01*
Y317565D01*
X572059Y320144D01*
X570724Y322456D01*
X568836Y324344D01*
X566524Y325679D01*
X563945Y326370D01*
D02*
G37*
G36*
X538545D02*
X535875D01*
X533296Y325679D01*
X530984Y324344D01*
X529096Y322456D01*
X527761Y320144D01*
X527070Y317565D01*
Y314895D01*
X527761Y312316D01*
X529096Y310004D01*
X530984Y308116D01*
X533296Y306781D01*
X535875Y306090D01*
X538545D01*
X541124Y306781D01*
X543436Y308116D01*
X545324Y310004D01*
X546659Y312316D01*
X547350Y314895D01*
Y317565D01*
X546659Y320144D01*
X545324Y322456D01*
X543436Y324344D01*
X541124Y325679D01*
X538545Y326370D01*
D02*
G37*
G36*
X513145D02*
X510475D01*
X507896Y325679D01*
X505584Y324344D01*
X503696Y322456D01*
X502361Y320144D01*
X501670Y317565D01*
Y314895D01*
X502361Y312316D01*
X503696Y310004D01*
X505584Y308116D01*
X507896Y306781D01*
X510475Y306090D01*
X513145D01*
X515724Y306781D01*
X518036Y308116D01*
X519924Y310004D01*
X521259Y312316D01*
X521950Y314895D01*
Y317565D01*
X521259Y320144D01*
X519924Y322456D01*
X518036Y324344D01*
X515724Y325679D01*
X513145Y326370D01*
D02*
G37*
G36*
X487745D02*
X485075D01*
X482496Y325679D01*
X480184Y324344D01*
X478296Y322456D01*
X476961Y320144D01*
X476270Y317565D01*
Y314895D01*
X476961Y312316D01*
X478296Y310004D01*
X480184Y308116D01*
X482496Y306781D01*
X485075Y306090D01*
X487745D01*
X490324Y306781D01*
X492636Y308116D01*
X494524Y310004D01*
X495859Y312316D01*
X496550Y314895D01*
Y317565D01*
X495859Y320144D01*
X494524Y322456D01*
X492636Y324344D01*
X490324Y325679D01*
X487745Y326370D01*
D02*
G37*
G36*
X958968Y321690D02*
X956192D01*
X953512Y320972D01*
X951108Y319584D01*
X949146Y317622D01*
X947758Y315218D01*
X947040Y312538D01*
Y309762D01*
X947758Y307082D01*
X949146Y304678D01*
X951108Y302716D01*
X953512Y301328D01*
X956192Y300610D01*
X958968D01*
X961648Y301328D01*
X964052Y302716D01*
X966014Y304678D01*
X967402Y307082D01*
X968120Y309762D01*
Y312538D01*
X967402Y315218D01*
X966014Y317622D01*
X964052Y319584D01*
X961648Y320972D01*
X958968Y321690D01*
D02*
G37*
G36*
X933568D02*
X930792D01*
X928112Y320972D01*
X925708Y319584D01*
X923746Y317622D01*
X922358Y315218D01*
X921640Y312538D01*
Y309762D01*
X922358Y307082D01*
X923746Y304678D01*
X925708Y302716D01*
X928112Y301328D01*
X930792Y300610D01*
X933568D01*
X936248Y301328D01*
X938652Y302716D01*
X940614Y304678D01*
X942002Y307082D01*
X942720Y309762D01*
Y312538D01*
X942002Y315218D01*
X940614Y317622D01*
X938652Y319584D01*
X936248Y320972D01*
X933568Y321690D01*
D02*
G37*
G36*
X432473Y306070D02*
X426720D01*
Y300317D01*
X428195Y300713D01*
X429817Y301649D01*
X431141Y302973D01*
X432077Y304595D01*
X432473Y306070D01*
D02*
G37*
G36*
X424180D02*
X418427D01*
X418823Y304595D01*
X419759Y302973D01*
X421083Y301649D01*
X422705Y300713D01*
X424180Y300317D01*
Y306070D01*
D02*
G37*
G36*
X487745Y300970D02*
X487680D01*
Y292100D01*
X496550D01*
Y292165D01*
X495859Y294744D01*
X494524Y297056D01*
X492636Y298944D01*
X490324Y300279D01*
X487745Y300970D01*
D02*
G37*
G36*
X513145D02*
X513080D01*
Y292100D01*
X521950D01*
Y292165D01*
X521259Y294744D01*
X519924Y297056D01*
X518036Y298944D01*
X515724Y300279D01*
X513145Y300970D01*
D02*
G37*
G36*
X485140D02*
X485075D01*
X482496Y300279D01*
X480184Y298944D01*
X478296Y297056D01*
X476961Y294744D01*
X476270Y292165D01*
Y292100D01*
X485140D01*
Y300970D01*
D02*
G37*
G36*
X510540D02*
X510475D01*
X507896Y300279D01*
X505584Y298944D01*
X503696Y297056D01*
X502361Y294744D01*
X501670Y292165D01*
Y292100D01*
X510540D01*
Y300970D01*
D02*
G37*
G36*
X838257Y310200D02*
X835603D01*
X833039Y309513D01*
X830741Y308186D01*
X828864Y306309D01*
X828281Y305299D01*
X673500D01*
X671518Y304905D01*
X669837Y303783D01*
X643852Y277797D01*
X642685Y278110D01*
X640015D01*
X637436Y277419D01*
X635124Y276084D01*
X633236Y274196D01*
X631901Y271884D01*
X631210Y269305D01*
Y266635D01*
X631901Y264056D01*
X633236Y261744D01*
X635124Y259856D01*
X637436Y258521D01*
X640015Y257830D01*
X642685D01*
X645264Y258521D01*
X647576Y259856D01*
X649464Y261744D01*
X650799Y264056D01*
X651490Y266635D01*
Y269305D01*
X651177Y270472D01*
X675645Y294940D01*
X828281D01*
X828864Y293931D01*
X830741Y292054D01*
X833039Y290727D01*
X835603Y290040D01*
X838257D01*
X840821Y290727D01*
X843119Y292054D01*
X844996Y293931D01*
X846323Y296229D01*
X847010Y298793D01*
Y301447D01*
X846323Y304011D01*
X844996Y306309D01*
X843119Y308186D01*
X840821Y309513D01*
X838257Y310200D01*
D02*
G37*
G36*
X238760Y292073D02*
Y284480D01*
X246353D01*
X245774Y286641D01*
X244604Y288669D01*
X242949Y290324D01*
X240921Y291494D01*
X238760Y292073D01*
D02*
G37*
G36*
X236220D02*
X234059Y291494D01*
X232031Y290324D01*
X230376Y288669D01*
X229206Y286641D01*
X228627Y284480D01*
X236220D01*
Y292073D01*
D02*
G37*
G36*
X563945Y300970D02*
X561275D01*
X558696Y300279D01*
X556384Y298944D01*
X554496Y297056D01*
X553161Y294744D01*
X552470Y292165D01*
Y289495D01*
X553161Y286916D01*
X554496Y284604D01*
X556384Y282716D01*
X558696Y281381D01*
X561275Y280690D01*
X563945D01*
X566524Y281381D01*
X568836Y282716D01*
X570724Y284604D01*
X572059Y286916D01*
X572750Y289495D01*
Y292165D01*
X572059Y294744D01*
X570724Y297056D01*
X568836Y298944D01*
X566524Y300279D01*
X563945Y300970D01*
D02*
G37*
G36*
X538545D02*
X535875D01*
X533296Y300279D01*
X530984Y298944D01*
X529096Y297056D01*
X527761Y294744D01*
X527070Y292165D01*
Y289495D01*
X527761Y286916D01*
X529096Y284604D01*
X530984Y282716D01*
X533296Y281381D01*
X535875Y280690D01*
X538545D01*
X541124Y281381D01*
X543436Y282716D01*
X545324Y284604D01*
X546659Y286916D01*
X547350Y289495D01*
Y292165D01*
X546659Y294744D01*
X545324Y297056D01*
X543436Y298944D01*
X541124Y300279D01*
X538545Y300970D01*
D02*
G37*
G36*
X521950Y289560D02*
X513080D01*
Y280690D01*
X513145D01*
X515724Y281381D01*
X518036Y282716D01*
X519924Y284604D01*
X521259Y286916D01*
X521950Y289495D01*
Y289560D01*
D02*
G37*
G36*
X510540D02*
X501670D01*
Y289495D01*
X502361Y286916D01*
X503696Y284604D01*
X505584Y282716D01*
X507896Y281381D01*
X510475Y280690D01*
X510540D01*
Y289560D01*
D02*
G37*
G36*
X496550D02*
X487680D01*
Y280690D01*
X487745D01*
X490324Y281381D01*
X492636Y282716D01*
X494524Y284604D01*
X495859Y286916D01*
X496550Y289495D01*
Y289560D01*
D02*
G37*
G36*
X958968Y296290D02*
X956192D01*
X953512Y295572D01*
X951108Y294184D01*
X949146Y292222D01*
X947758Y289818D01*
X947040Y287138D01*
Y284362D01*
X947758Y281682D01*
X949146Y279278D01*
X951108Y277316D01*
X953512Y275928D01*
X956192Y275210D01*
X958968D01*
X961648Y275928D01*
X964052Y277316D01*
X966014Y279278D01*
X967402Y281682D01*
X968120Y284362D01*
Y287138D01*
X967402Y289818D01*
X966014Y292222D01*
X964052Y294184D01*
X961648Y295572D01*
X958968Y296290D01*
D02*
G37*
G36*
X933568D02*
X930792D01*
X928112Y295572D01*
X925708Y294184D01*
X923746Y292222D01*
X922358Y289818D01*
X921640Y287138D01*
Y284362D01*
X922358Y281682D01*
X923746Y279278D01*
X925708Y277316D01*
X928112Y275928D01*
X930792Y275210D01*
X933568D01*
X936248Y275928D01*
X938652Y277316D01*
X940614Y279278D01*
X942002Y281682D01*
X942720Y284362D01*
Y287138D01*
X942002Y289818D01*
X940614Y292222D01*
X938652Y294184D01*
X936248Y295572D01*
X933568Y296290D01*
D02*
G37*
G36*
X246353Y281940D02*
X238760D01*
Y274347D01*
X240921Y274926D01*
X242949Y276096D01*
X244604Y277751D01*
X245774Y279779D01*
X246353Y281940D01*
D02*
G37*
G36*
X236220D02*
X228627D01*
X229206Y279779D01*
X230376Y277751D01*
X232031Y276096D01*
X234059Y274926D01*
X236220Y274347D01*
Y281940D01*
D02*
G37*
G36*
X668085Y278110D02*
X668020D01*
Y269240D01*
X676890D01*
Y269305D01*
X676199Y271884D01*
X674864Y274196D01*
X672976Y276084D01*
X670664Y277419D01*
X668085Y278110D01*
D02*
G37*
G36*
X665480D02*
X665415D01*
X662836Y277419D01*
X660524Y276084D01*
X658636Y274196D01*
X657301Y271884D01*
X656610Y269305D01*
Y269240D01*
X665480D01*
Y278110D01*
D02*
G37*
G36*
X163830Y271753D02*
Y264160D01*
X171423D01*
X170844Y266321D01*
X169674Y268349D01*
X168019Y270004D01*
X165991Y271174D01*
X163830Y271753D01*
D02*
G37*
G36*
X161290D02*
X159129Y271174D01*
X157101Y270004D01*
X155446Y268349D01*
X154276Y266321D01*
X153697Y264160D01*
X161290D01*
Y271753D01*
D02*
G37*
G36*
X132080D02*
Y264160D01*
X139673D01*
X139094Y266321D01*
X137924Y268349D01*
X136269Y270004D01*
X134241Y271174D01*
X132080Y271753D01*
D02*
G37*
G36*
X129540D02*
X127379Y271174D01*
X125351Y270004D01*
X123696Y268349D01*
X122526Y266321D01*
X121947Y264160D01*
X129540D01*
Y271753D01*
D02*
G37*
G36*
X676890Y266700D02*
X668020D01*
Y257830D01*
X668085D01*
X670664Y258521D01*
X672976Y259856D01*
X674864Y261744D01*
X676199Y264056D01*
X676890Y266635D01*
Y266700D01*
D02*
G37*
G36*
X665480D02*
X656610D01*
Y266635D01*
X657301Y264056D01*
X658636Y261744D01*
X660524Y259856D01*
X662836Y258521D01*
X665415Y257830D01*
X665480D01*
Y266700D01*
D02*
G37*
G36*
X171423Y261620D02*
X163830D01*
Y254027D01*
X165991Y254606D01*
X168019Y255776D01*
X169674Y257431D01*
X170844Y259459D01*
X171423Y261620D01*
D02*
G37*
G36*
X161290D02*
X153697D01*
X154276Y259459D01*
X155446Y257431D01*
X157101Y255776D01*
X159129Y254606D01*
X161290Y254027D01*
Y261620D01*
D02*
G37*
G36*
X139673D02*
X132080D01*
Y254027D01*
X134241Y254606D01*
X136269Y255776D01*
X137924Y257431D01*
X139094Y259459D01*
X139673Y261620D01*
D02*
G37*
G36*
X129540D02*
X121947D01*
X122526Y259459D01*
X123696Y257431D01*
X125351Y255776D01*
X127379Y254606D01*
X129540Y254027D01*
Y261620D01*
D02*
G37*
G36*
X763335Y274300D02*
X760665D01*
X758086Y273609D01*
X755774Y272274D01*
X753886Y270386D01*
X752551Y268074D01*
X751860Y265495D01*
Y262825D01*
X752551Y260246D01*
X753886Y257934D01*
X755774Y256046D01*
X758086Y254711D01*
X760665Y254020D01*
X763335D01*
X765914Y254711D01*
X768226Y256046D01*
X770114Y257934D01*
X771449Y260246D01*
X772140Y262825D01*
Y265495D01*
X771449Y268074D01*
X770114Y270386D01*
X768226Y272274D01*
X765914Y273609D01*
X763335Y274300D01*
D02*
G37*
G36*
X737935D02*
X735265D01*
X732686Y273609D01*
X730374Y272274D01*
X728486Y270386D01*
X727151Y268074D01*
X726460Y265495D01*
Y262825D01*
X727151Y260246D01*
X728486Y257934D01*
X730374Y256046D01*
X732686Y254711D01*
X735265Y254020D01*
X737935D01*
X740514Y254711D01*
X742826Y256046D01*
X744714Y257934D01*
X746049Y260246D01*
X746740Y262825D01*
Y265495D01*
X746049Y268074D01*
X744714Y270386D01*
X742826Y272274D01*
X740514Y273609D01*
X737935Y274300D01*
D02*
G37*
G36*
X958968Y270890D02*
X956192D01*
X953512Y270172D01*
X951108Y268784D01*
X949146Y266822D01*
X947758Y264418D01*
X947040Y261738D01*
Y258962D01*
X947758Y256282D01*
X949146Y253878D01*
X951108Y251916D01*
X953512Y250528D01*
X956192Y249810D01*
X958968D01*
X961648Y250528D01*
X964052Y251916D01*
X966014Y253878D01*
X967402Y256282D01*
X968120Y258962D01*
Y261738D01*
X967402Y264418D01*
X966014Y266822D01*
X964052Y268784D01*
X961648Y270172D01*
X958968Y270890D01*
D02*
G37*
G36*
X933568D02*
X930792D01*
X928112Y270172D01*
X925708Y268784D01*
X923746Y266822D01*
X922358Y264418D01*
X921640Y261738D01*
Y258962D01*
X922358Y256282D01*
X923746Y253878D01*
X925708Y251916D01*
X928112Y250528D01*
X930792Y249810D01*
X933568D01*
X936248Y250528D01*
X938652Y251916D01*
X940614Y253878D01*
X942002Y256282D01*
X942720Y258962D01*
Y261738D01*
X942002Y264418D01*
X940614Y266822D01*
X938652Y268784D01*
X936248Y270172D01*
X933568Y270890D01*
D02*
G37*
G36*
X34290Y242543D02*
Y234950D01*
X41883D01*
X41304Y237111D01*
X40134Y239139D01*
X38479Y240794D01*
X36451Y241964D01*
X34290Y242543D01*
D02*
G37*
G36*
X31750D02*
X29589Y241964D01*
X27561Y240794D01*
X25906Y239139D01*
X24736Y237111D01*
X24157Y234950D01*
X31750D01*
Y242543D01*
D02*
G37*
G36*
X58420Y241273D02*
Y233680D01*
X66013D01*
X65434Y235841D01*
X64264Y237869D01*
X62609Y239524D01*
X60581Y240694D01*
X58420Y241273D01*
D02*
G37*
G36*
X55880D02*
X53719Y240694D01*
X51691Y239524D01*
X50036Y237869D01*
X48866Y235841D01*
X48287Y233680D01*
X55880D01*
Y241273D01*
D02*
G37*
G36*
X668085Y252710D02*
X665415D01*
X662836Y252019D01*
X660524Y250684D01*
X658636Y248796D01*
X657301Y246484D01*
X656610Y243905D01*
Y241235D01*
X657301Y238656D01*
X658636Y236344D01*
X660524Y234456D01*
X662836Y233121D01*
X665415Y232430D01*
X668085D01*
X670664Y233121D01*
X672976Y234456D01*
X674864Y236344D01*
X676199Y238656D01*
X676890Y241235D01*
Y243905D01*
X676199Y246484D01*
X674864Y248796D01*
X672976Y250684D01*
X670664Y252019D01*
X668085Y252710D01*
D02*
G37*
G36*
X642685D02*
X640015D01*
X637436Y252019D01*
X635124Y250684D01*
X633236Y248796D01*
X631901Y246484D01*
X631210Y243905D01*
Y241235D01*
X631901Y238656D01*
X633236Y236344D01*
X635124Y234456D01*
X637436Y233121D01*
X640015Y232430D01*
X642685D01*
X645264Y233121D01*
X647576Y234456D01*
X649464Y236344D01*
X650799Y238656D01*
X651490Y241235D01*
Y243905D01*
X650799Y246484D01*
X649464Y248796D01*
X647576Y250684D01*
X645264Y252019D01*
X642685Y252710D01*
D02*
G37*
G36*
X763335Y248900D02*
X760665D01*
X758086Y248209D01*
X755774Y246874D01*
X753886Y244986D01*
X752551Y242674D01*
X751860Y240095D01*
Y237425D01*
X752551Y234846D01*
X753886Y232534D01*
X755774Y230646D01*
X758086Y229311D01*
X760665Y228620D01*
X763335D01*
X765914Y229311D01*
X768226Y230646D01*
X770114Y232534D01*
X771449Y234846D01*
X772140Y237425D01*
Y240095D01*
X771449Y242674D01*
X770114Y244986D01*
X768226Y246874D01*
X765914Y248209D01*
X763335Y248900D01*
D02*
G37*
G36*
X737935D02*
X735265D01*
X732686Y248209D01*
X730374Y246874D01*
X728486Y244986D01*
X727151Y242674D01*
X726460Y240095D01*
Y237425D01*
X727151Y234846D01*
X728486Y232534D01*
X730374Y230646D01*
X732686Y229311D01*
X735265Y228620D01*
X737935D01*
X740514Y229311D01*
X742826Y230646D01*
X744714Y232534D01*
X746049Y234846D01*
X746740Y237425D01*
Y240095D01*
X746049Y242674D01*
X744714Y244986D01*
X742826Y246874D01*
X740514Y248209D01*
X737935Y248900D01*
D02*
G37*
G36*
X41883Y232410D02*
X34290D01*
Y224817D01*
X36451Y225396D01*
X38479Y226566D01*
X40134Y228221D01*
X41304Y230249D01*
X41883Y232410D01*
D02*
G37*
G36*
X31750D02*
X24157D01*
X24736Y230249D01*
X25906Y228221D01*
X27561Y226566D01*
X29589Y225396D01*
X31750Y224817D01*
Y232410D01*
D02*
G37*
G36*
X958968Y245490D02*
X956192D01*
X953512Y244772D01*
X951108Y243384D01*
X949146Y241422D01*
X947758Y239018D01*
X947040Y236338D01*
Y233562D01*
X947758Y230882D01*
X949146Y228478D01*
X951108Y226516D01*
X953512Y225128D01*
X956192Y224410D01*
X958968D01*
X961648Y225128D01*
X964052Y226516D01*
X966014Y228478D01*
X967402Y230882D01*
X968120Y233562D01*
Y236338D01*
X967402Y239018D01*
X966014Y241422D01*
X964052Y243384D01*
X961648Y244772D01*
X958968Y245490D01*
D02*
G37*
G36*
X933568D02*
X930792D01*
X928112Y244772D01*
X925708Y243384D01*
X923746Y241422D01*
X922358Y239018D01*
X921640Y236338D01*
Y233562D01*
X922358Y230882D01*
X923746Y228478D01*
X925708Y226516D01*
X928112Y225128D01*
X930792Y224410D01*
X933568D01*
X936248Y225128D01*
X938652Y226516D01*
X940614Y228478D01*
X942002Y230882D01*
X942720Y233562D01*
Y236338D01*
X942002Y239018D01*
X940614Y241422D01*
X938652Y243384D01*
X936248Y244772D01*
X933568Y245490D01*
D02*
G37*
G36*
X66013Y231140D02*
X58420D01*
Y223547D01*
X60581Y224126D01*
X62609Y225296D01*
X64264Y226951D01*
X65434Y228979D01*
X66013Y231140D01*
D02*
G37*
G36*
X55880D02*
X48287D01*
X48866Y228979D01*
X50036Y226951D01*
X51691Y225296D01*
X53719Y224126D01*
X55880Y223547D01*
Y231140D01*
D02*
G37*
G36*
X167640Y229843D02*
Y222250D01*
X175233D01*
X174654Y224411D01*
X173484Y226439D01*
X171829Y228094D01*
X169801Y229264D01*
X167640Y229843D01*
D02*
G37*
G36*
X165100D02*
X162939Y229264D01*
X160911Y228094D01*
X159256Y226439D01*
X158086Y224411D01*
X157507Y222250D01*
X165100D01*
Y229843D01*
D02*
G37*
G36*
X705719Y235204D02*
X703981D01*
X702301Y234754D01*
X700795Y233885D01*
X699566Y232655D01*
X698696Y231149D01*
X698246Y229469D01*
Y227731D01*
X698696Y226051D01*
X699566Y224545D01*
X700795Y223316D01*
X702301Y222446D01*
X703981Y221996D01*
X705719D01*
X707399Y222446D01*
X708905Y223316D01*
X710135Y224545D01*
X711004Y226051D01*
X711454Y227731D01*
Y229469D01*
X711004Y231149D01*
X710135Y232655D01*
X708905Y233885D01*
X707399Y234754D01*
X705719Y235204D01*
D02*
G37*
G36*
X803509Y228854D02*
X801771D01*
X800091Y228404D01*
X798585Y227535D01*
X797355Y226305D01*
X796486Y224799D01*
X796036Y223119D01*
Y221381D01*
X796486Y219701D01*
X797355Y218195D01*
X798585Y216966D01*
X800091Y216096D01*
X801771Y215646D01*
X803509D01*
X805189Y216096D01*
X806695Y216966D01*
X807924Y218195D01*
X808794Y219701D01*
X809244Y221381D01*
Y223119D01*
X808794Y224799D01*
X807924Y226305D01*
X806695Y227535D01*
X805189Y228404D01*
X803509Y228854D01*
D02*
G37*
G36*
X175233Y219710D02*
X167640D01*
Y212117D01*
X169801Y212696D01*
X171829Y213866D01*
X173484Y215521D01*
X174654Y217549D01*
X175233Y219710D01*
D02*
G37*
G36*
X165100D02*
X157507D01*
X158086Y217549D01*
X159256Y215521D01*
X160911Y213866D01*
X162939Y212696D01*
X165100Y212117D01*
Y219710D01*
D02*
G37*
G36*
X36830Y219683D02*
Y212090D01*
X44423D01*
X43844Y214251D01*
X42674Y216279D01*
X41019Y217934D01*
X38991Y219104D01*
X36830Y219683D01*
D02*
G37*
G36*
X34290D02*
X32129Y219104D01*
X30101Y217934D01*
X28446Y216279D01*
X27276Y214251D01*
X26697Y212090D01*
X34290D01*
Y219683D01*
D02*
G37*
G36*
X62230Y218413D02*
Y210820D01*
X69823D01*
X69244Y212981D01*
X68074Y215009D01*
X66419Y216664D01*
X64391Y217834D01*
X62230Y218413D01*
D02*
G37*
G36*
X59690D02*
X57529Y217834D01*
X55501Y216664D01*
X53846Y215009D01*
X52676Y212981D01*
X52097Y210820D01*
X59690D01*
Y218413D01*
D02*
G37*
G36*
X44423Y209550D02*
X36830D01*
Y201957D01*
X38991Y202536D01*
X41019Y203706D01*
X42674Y205361D01*
X43844Y207389D01*
X44423Y209550D01*
D02*
G37*
G36*
X34290D02*
X26697D01*
X27276Y207389D01*
X28446Y205361D01*
X30101Y203706D01*
X32129Y202536D01*
X34290Y201957D01*
Y209550D01*
D02*
G37*
G36*
X69823Y208280D02*
X62230D01*
Y200687D01*
X64391Y201266D01*
X66419Y202436D01*
X68074Y204091D01*
X69244Y206119D01*
X69823Y208280D01*
D02*
G37*
G36*
X59690D02*
X52097D01*
X52676Y206119D01*
X53846Y204091D01*
X55501Y202436D01*
X57529Y201266D01*
X59690Y200687D01*
Y208280D01*
D02*
G37*
G36*
X961580Y194746D02*
X958850D01*
Y185420D01*
X968176D01*
Y188150D01*
X967952Y189857D01*
X967293Y191448D01*
X966244Y192814D01*
X964878Y193863D01*
X963287Y194522D01*
X961580Y194746D01*
D02*
G37*
G36*
X466090Y186837D02*
Y181610D01*
X471317D01*
X470974Y182889D01*
X470104Y184395D01*
X468875Y185625D01*
X467369Y186494D01*
X466090Y186837D01*
D02*
G37*
G36*
X463550D02*
X462271Y186494D01*
X460765Y185625D01*
X459535Y184395D01*
X458666Y182889D01*
X458323Y181610D01*
X463550D01*
Y186837D01*
D02*
G37*
G36*
X722672Y183338D02*
Y175744D01*
X730265D01*
X729686Y177906D01*
X728515Y179933D01*
X726860Y181588D01*
X724833Y182759D01*
X722672Y183338D01*
D02*
G37*
G36*
X720132D02*
X717970Y182759D01*
X715943Y181588D01*
X714288Y179933D01*
X713118Y177906D01*
X712538Y175744D01*
X720132D01*
Y183338D01*
D02*
G37*
G36*
X331470Y181583D02*
Y173990D01*
X339063D01*
X338484Y176151D01*
X337314Y178179D01*
X335659Y179834D01*
X333631Y181004D01*
X331470Y181583D01*
D02*
G37*
G36*
X328930D02*
X326769Y181004D01*
X324741Y179834D01*
X323086Y178179D01*
X321916Y176151D01*
X321337Y173990D01*
X328930D01*
Y181583D01*
D02*
G37*
G36*
X471317Y179070D02*
X466090D01*
Y173843D01*
X467369Y174186D01*
X468875Y175056D01*
X470104Y176285D01*
X470974Y177791D01*
X471317Y179070D01*
D02*
G37*
G36*
X463550D02*
X458323D01*
X458666Y177791D01*
X459535Y176285D01*
X460765Y175056D01*
X462271Y174186D01*
X463550Y173843D01*
Y179070D01*
D02*
G37*
G36*
X968176Y182880D02*
X958850D01*
Y173554D01*
X961580D01*
X963287Y173778D01*
X964878Y174437D01*
X966244Y175486D01*
X967293Y176852D01*
X967952Y178443D01*
X968176Y180150D01*
Y182880D01*
D02*
G37*
G36*
X956310D02*
X946984D01*
Y180150D01*
X947208Y178443D01*
X947867Y176852D01*
X948916Y175486D01*
X950282Y174437D01*
X951873Y173778D01*
X953580Y173554D01*
X956310D01*
Y182880D01*
D02*
G37*
G36*
X600683Y178816D02*
X593090D01*
Y171223D01*
X595251Y171802D01*
X597279Y172972D01*
X598934Y174627D01*
X600104Y176655D01*
X600683Y178816D01*
D02*
G37*
G36*
X590550D02*
X582957D01*
X583536Y176655D01*
X584706Y174627D01*
X586361Y172972D01*
X588389Y171802D01*
X590550Y171223D01*
Y178816D01*
D02*
G37*
G36*
X730265Y173204D02*
X722672D01*
Y165611D01*
X724833Y166190D01*
X726860Y167361D01*
X728515Y169016D01*
X729686Y171043D01*
X730265Y173204D01*
D02*
G37*
G36*
X720132D02*
X712538D01*
X713118Y171043D01*
X714288Y169016D01*
X715943Y167361D01*
X717970Y166190D01*
X720132Y165611D01*
Y173204D01*
D02*
G37*
G36*
X339063Y171450D02*
X331470D01*
Y163857D01*
X333631Y164436D01*
X335659Y165606D01*
X337314Y167261D01*
X338484Y169289D01*
X339063Y171450D01*
D02*
G37*
G36*
X328930D02*
X321337D01*
X321916Y169289D01*
X323086Y167261D01*
X324741Y165606D01*
X326769Y164436D01*
X328930Y163857D01*
Y171450D01*
D02*
G37*
G36*
X617220Y156183D02*
Y148590D01*
X624813D01*
X624234Y150751D01*
X623064Y152779D01*
X621409Y154434D01*
X619381Y155604D01*
X617220Y156183D01*
D02*
G37*
G36*
X614680D02*
X612519Y155604D01*
X610491Y154434D01*
X608836Y152779D01*
X607666Y150751D01*
X607087Y148590D01*
X614680D01*
Y156183D01*
D02*
G37*
G36*
X492760Y149833D02*
Y142240D01*
X500353D01*
X499774Y144401D01*
X498604Y146429D01*
X496949Y148084D01*
X494921Y149254D01*
X492760Y149833D01*
D02*
G37*
G36*
X490220D02*
X488059Y149254D01*
X486031Y148084D01*
X484376Y146429D01*
X483206Y144401D01*
X482627Y142240D01*
X490220D01*
Y149833D01*
D02*
G37*
G36*
X62860Y162041D02*
X59630D01*
Y140710D01*
X69961D01*
Y154940D01*
X69719Y156778D01*
X69009Y158490D01*
X67881Y159961D01*
X66410Y161089D01*
X64698Y161799D01*
X62860Y162041D01*
D02*
G37*
G36*
X57090D02*
X53860D01*
X52022Y161799D01*
X50310Y161089D01*
X48839Y159961D01*
X47711Y158490D01*
X47001Y156778D01*
X46759Y154940D01*
Y140710D01*
X57090D01*
Y162041D01*
D02*
G37*
G36*
X624813Y146050D02*
X617220D01*
Y138457D01*
X619381Y139036D01*
X621409Y140206D01*
X623064Y141861D01*
X624234Y143889D01*
X624813Y146050D01*
D02*
G37*
G36*
X614680D02*
X607087D01*
X607666Y143889D01*
X608836Y141861D01*
X610491Y140206D01*
X612519Y139036D01*
X614680Y138457D01*
Y146050D01*
D02*
G37*
G36*
X500353Y139700D02*
X492760D01*
Y132107D01*
X494921Y132686D01*
X496949Y133856D01*
X498604Y135511D01*
X499774Y137539D01*
X500353Y139700D01*
D02*
G37*
G36*
X490220D02*
X482627D01*
X483206Y137539D01*
X484376Y135511D01*
X486031Y133856D01*
X488059Y132686D01*
X490220Y132107D01*
Y139700D01*
D02*
G37*
G36*
X717550Y128243D02*
Y120650D01*
X725143D01*
X724564Y122811D01*
X723394Y124839D01*
X721739Y126494D01*
X719711Y127664D01*
X717550Y128243D01*
D02*
G37*
G36*
X715010D02*
X712849Y127664D01*
X710821Y126494D01*
X709166Y124839D01*
X707996Y122811D01*
X707417Y120650D01*
X715010D01*
Y128243D01*
D02*
G37*
G36*
X120860Y162041D02*
X111860D01*
X110022Y161799D01*
X108310Y161089D01*
X106839Y159961D01*
X105711Y158490D01*
X105001Y156778D01*
X104759Y154940D01*
Y123940D01*
X105001Y122102D01*
X105711Y120390D01*
X106839Y118919D01*
X108310Y117791D01*
X110022Y117081D01*
X111860Y116839D01*
X120860D01*
X122698Y117081D01*
X124410Y117791D01*
X125881Y118919D01*
X127009Y120390D01*
X127719Y122102D01*
X127961Y123940D01*
Y154940D01*
X127719Y156778D01*
X127009Y158490D01*
X125881Y159961D01*
X124410Y161089D01*
X122698Y161799D01*
X120860Y162041D01*
D02*
G37*
G36*
X69961Y138170D02*
X59630D01*
Y116839D01*
X62860D01*
X64698Y117081D01*
X66410Y117791D01*
X67881Y118919D01*
X69009Y120390D01*
X69719Y122102D01*
X69961Y123940D01*
Y138170D01*
D02*
G37*
G36*
X57090D02*
X46759D01*
Y123940D01*
X47001Y122102D01*
X47711Y120390D01*
X48839Y118919D01*
X50310Y117791D01*
X52022Y117081D01*
X53860Y116839D01*
X57090D01*
Y138170D01*
D02*
G37*
G36*
X725143Y118110D02*
X717550D01*
Y110517D01*
X719711Y111096D01*
X721739Y112266D01*
X723394Y113921D01*
X724564Y115949D01*
X725143Y118110D01*
D02*
G37*
G36*
X715010D02*
X707417D01*
X707996Y115949D01*
X709166Y113921D01*
X710821Y112266D01*
X712849Y111096D01*
X715010Y110517D01*
Y118110D01*
D02*
G37*
G36*
X595630Y115543D02*
Y107950D01*
X603223D01*
X602644Y110111D01*
X601474Y112139D01*
X599819Y113794D01*
X597791Y114964D01*
X595630Y115543D01*
D02*
G37*
G36*
X593090D02*
X590929Y114964D01*
X588901Y113794D01*
X587246Y112139D01*
X586076Y110111D01*
X585497Y107950D01*
X593090D01*
Y115543D01*
D02*
G37*
G36*
X603223Y105410D02*
X595630D01*
Y97817D01*
X597791Y98396D01*
X599819Y99566D01*
X601474Y101221D01*
X602644Y103249D01*
X603223Y105410D01*
D02*
G37*
G36*
X593090D02*
X585497D01*
X586076Y103249D01*
X587246Y101221D01*
X588901Y99566D01*
X590929Y98396D01*
X593090Y97817D01*
Y105410D01*
D02*
G37*
G36*
X203200Y101573D02*
Y93980D01*
X210793D01*
X210214Y96141D01*
X209044Y98169D01*
X207389Y99824D01*
X205361Y100994D01*
X203200Y101573D01*
D02*
G37*
G36*
X200660D02*
X198499Y100994D01*
X196471Y99824D01*
X194816Y98169D01*
X193646Y96141D01*
X193067Y93980D01*
X200660D01*
Y101573D01*
D02*
G37*
G36*
X101860Y103041D02*
X87630D01*
Y92710D01*
X108961D01*
Y95940D01*
X108719Y97778D01*
X108009Y99490D01*
X106881Y100961D01*
X105410Y102089D01*
X103698Y102799D01*
X101860Y103041D01*
D02*
G37*
G36*
X85090D02*
X70860D01*
X69022Y102799D01*
X67310Y102089D01*
X65839Y100961D01*
X64711Y99490D01*
X64001Y97778D01*
X63759Y95940D01*
Y92710D01*
X85090D01*
Y103041D01*
D02*
G37*
G36*
X210793Y91440D02*
X203200D01*
Y83847D01*
X205361Y84426D01*
X207389Y85596D01*
X209044Y87251D01*
X210214Y89279D01*
X210793Y91440D01*
D02*
G37*
G36*
X200660D02*
X193067D01*
X193646Y89279D01*
X194816Y87251D01*
X196471Y85596D01*
X198499Y84426D01*
X200660Y83847D01*
Y91440D01*
D02*
G37*
G36*
X128630Y90143D02*
Y82550D01*
X136223D01*
X135644Y84711D01*
X134474Y86739D01*
X132819Y88394D01*
X130791Y89564D01*
X128630Y90143D01*
D02*
G37*
G36*
X126090D02*
X123929Y89564D01*
X121901Y88394D01*
X120246Y86739D01*
X119076Y84711D01*
X118497Y82550D01*
X126090D01*
Y90143D01*
D02*
G37*
G36*
X38100D02*
Y82550D01*
X45693D01*
X45114Y84711D01*
X43944Y86739D01*
X42289Y88394D01*
X40261Y89564D01*
X38100Y90143D01*
D02*
G37*
G36*
X35560D02*
X33399Y89564D01*
X31371Y88394D01*
X29716Y86739D01*
X28546Y84711D01*
X27967Y82550D01*
X35560D01*
Y90143D01*
D02*
G37*
G36*
X108961Y90170D02*
X87630D01*
Y79839D01*
X101860D01*
X103698Y80081D01*
X105410Y80791D01*
X106881Y81919D01*
X108009Y83390D01*
X108719Y85102D01*
X108961Y86940D01*
Y90170D01*
D02*
G37*
G36*
X85090D02*
X63759D01*
Y86940D01*
X64001Y85102D01*
X64711Y83390D01*
X65839Y81919D01*
X67310Y80791D01*
X69022Y80081D01*
X70860Y79839D01*
X85090D01*
Y90170D01*
D02*
G37*
G36*
X136223Y80010D02*
X128630D01*
Y72417D01*
X130791Y72996D01*
X132819Y74166D01*
X134474Y75821D01*
X135644Y77849D01*
X136223Y80010D01*
D02*
G37*
G36*
X126090D02*
X118497D01*
X119076Y77849D01*
X120246Y75821D01*
X121901Y74166D01*
X123929Y72996D01*
X126090Y72417D01*
Y80010D01*
D02*
G37*
G36*
X45693D02*
X38100D01*
Y72417D01*
X40261Y72996D01*
X42289Y74166D01*
X43944Y75821D01*
X45114Y77849D01*
X45693Y80010D01*
D02*
G37*
G36*
X35560D02*
X27967D01*
X28546Y77849D01*
X29716Y75821D01*
X31371Y74166D01*
X33399Y72996D01*
X35560Y72417D01*
Y80010D01*
D02*
G37*
G36*
X360680Y77443D02*
Y69850D01*
X368273D01*
X367694Y72011D01*
X366524Y74039D01*
X364869Y75694D01*
X362841Y76864D01*
X360680Y77443D01*
D02*
G37*
G36*
X358140D02*
X355979Y76864D01*
X353951Y75694D01*
X352296Y74039D01*
X351126Y72011D01*
X350547Y69850D01*
X358140D01*
Y77443D01*
D02*
G37*
G36*
X203200D02*
Y69850D01*
X210793D01*
X210214Y72011D01*
X209044Y74039D01*
X207389Y75694D01*
X205361Y76864D01*
X203200Y77443D01*
D02*
G37*
G36*
X200660D02*
X198499Y76864D01*
X196471Y75694D01*
X194816Y74039D01*
X193646Y72011D01*
X193067Y69850D01*
X200660D01*
Y77443D01*
D02*
G37*
G36*
X127000Y69823D02*
Y62230D01*
X134593D01*
X134014Y64391D01*
X132844Y66419D01*
X131189Y68074D01*
X129161Y69244D01*
X127000Y69823D01*
D02*
G37*
G36*
X124460D02*
X122299Y69244D01*
X120271Y68074D01*
X118616Y66419D01*
X117446Y64391D01*
X116867Y62230D01*
X124460D01*
Y69823D01*
D02*
G37*
G36*
X105410D02*
Y62230D01*
X113003D01*
X112424Y64391D01*
X111254Y66419D01*
X109599Y68074D01*
X107571Y69244D01*
X105410Y69823D01*
D02*
G37*
G36*
X102870D02*
X100709Y69244D01*
X98681Y68074D01*
X97026Y66419D01*
X95856Y64391D01*
X95277Y62230D01*
X102870D01*
Y69823D01*
D02*
G37*
G36*
X80010D02*
Y62230D01*
X87603D01*
X87024Y64391D01*
X85854Y66419D01*
X84199Y68074D01*
X82171Y69244D01*
X80010Y69823D01*
D02*
G37*
G36*
X77470D02*
X75309Y69244D01*
X73281Y68074D01*
X71626Y66419D01*
X70456Y64391D01*
X69877Y62230D01*
X77470D01*
Y69823D01*
D02*
G37*
G36*
X59690D02*
Y62230D01*
X67283D01*
X66704Y64391D01*
X65534Y66419D01*
X63879Y68074D01*
X61851Y69244D01*
X59690Y69823D01*
D02*
G37*
G36*
X57150D02*
X54989Y69244D01*
X52961Y68074D01*
X51306Y66419D01*
X50136Y64391D01*
X49557Y62230D01*
X57150D01*
Y69823D01*
D02*
G37*
G36*
X36830D02*
Y62230D01*
X44423D01*
X43844Y64391D01*
X42674Y66419D01*
X41019Y68074D01*
X38991Y69244D01*
X36830Y69823D01*
D02*
G37*
G36*
X34290D02*
X32129Y69244D01*
X30101Y68074D01*
X28446Y66419D01*
X27276Y64391D01*
X26697Y62230D01*
X34290D01*
Y69823D01*
D02*
G37*
G36*
X368273Y67310D02*
X360680D01*
Y59717D01*
X362841Y60296D01*
X364869Y61466D01*
X366524Y63121D01*
X367694Y65149D01*
X368273Y67310D01*
D02*
G37*
G36*
X358140D02*
X350547D01*
X351126Y65149D01*
X352296Y63121D01*
X353951Y61466D01*
X355979Y60296D01*
X358140Y59717D01*
Y67310D01*
D02*
G37*
G36*
X210793D02*
X203200D01*
Y59717D01*
X205361Y60296D01*
X207389Y61466D01*
X209044Y63121D01*
X210214Y65149D01*
X210793Y67310D01*
D02*
G37*
G36*
X200660D02*
X193067D01*
X193646Y65149D01*
X194816Y63121D01*
X196471Y61466D01*
X198499Y60296D01*
X200660Y59717D01*
Y67310D01*
D02*
G37*
G36*
X684447Y63420D02*
X684390D01*
Y54610D01*
X693200D01*
Y54667D01*
X692513Y57231D01*
X691186Y59529D01*
X689309Y61406D01*
X687011Y62733D01*
X684447Y63420D01*
D02*
G37*
G36*
X834447D02*
X834390D01*
Y54610D01*
X843200D01*
Y54667D01*
X842513Y57231D01*
X841186Y59529D01*
X839309Y61406D01*
X837011Y62733D01*
X834447Y63420D01*
D02*
G37*
G36*
X734447D02*
X734390D01*
Y54610D01*
X743200D01*
Y54667D01*
X742513Y57231D01*
X741186Y59529D01*
X739309Y61406D01*
X737011Y62733D01*
X734447Y63420D01*
D02*
G37*
G36*
X784447D02*
X784390D01*
Y54610D01*
X793200D01*
Y54667D01*
X792513Y57231D01*
X791186Y59529D01*
X789309Y61406D01*
X787011Y62733D01*
X784447Y63420D01*
D02*
G37*
G36*
X831850D02*
X831793D01*
X829229Y62733D01*
X826931Y61406D01*
X825054Y59529D01*
X823727Y57231D01*
X823040Y54667D01*
Y54610D01*
X831850D01*
Y63420D01*
D02*
G37*
G36*
X681850D02*
X681793D01*
X679229Y62733D01*
X676931Y61406D01*
X675054Y59529D01*
X673727Y57231D01*
X673040Y54667D01*
Y54610D01*
X681850D01*
Y63420D01*
D02*
G37*
G36*
X781850D02*
X781793D01*
X779229Y62733D01*
X776931Y61406D01*
X775054Y59529D01*
X773727Y57231D01*
X773040Y54667D01*
Y54610D01*
X781850D01*
Y63420D01*
D02*
G37*
G36*
X731850D02*
X731793D01*
X729229Y62733D01*
X726931Y61406D01*
X725054Y59529D01*
X723727Y57231D01*
X723040Y54667D01*
Y54610D01*
X731850D01*
Y63420D01*
D02*
G37*
G36*
X134593Y59690D02*
X127000D01*
Y52097D01*
X129161Y52676D01*
X131189Y53846D01*
X132844Y55501D01*
X134014Y57529D01*
X134593Y59690D01*
D02*
G37*
G36*
X124460D02*
X116867D01*
X117446Y57529D01*
X118616Y55501D01*
X120271Y53846D01*
X122299Y52676D01*
X124460Y52097D01*
Y59690D01*
D02*
G37*
G36*
X113003D02*
X105410D01*
Y52097D01*
X107571Y52676D01*
X109599Y53846D01*
X111254Y55501D01*
X112424Y57529D01*
X113003Y59690D01*
D02*
G37*
G36*
X102870D02*
X95277D01*
X95856Y57529D01*
X97026Y55501D01*
X98681Y53846D01*
X100709Y52676D01*
X102870Y52097D01*
Y59690D01*
D02*
G37*
G36*
X87603D02*
X80010D01*
Y52097D01*
X82171Y52676D01*
X84199Y53846D01*
X85854Y55501D01*
X87024Y57529D01*
X87603Y59690D01*
D02*
G37*
G36*
X77470D02*
X69877D01*
X70456Y57529D01*
X71626Y55501D01*
X73281Y53846D01*
X75309Y52676D01*
X77470Y52097D01*
Y59690D01*
D02*
G37*
G36*
X67283D02*
X59690D01*
Y52097D01*
X61851Y52676D01*
X63879Y53846D01*
X65534Y55501D01*
X66704Y57529D01*
X67283Y59690D01*
D02*
G37*
G36*
X57150D02*
X49557D01*
X50136Y57529D01*
X51306Y55501D01*
X52961Y53846D01*
X54989Y52676D01*
X57150Y52097D01*
Y59690D01*
D02*
G37*
G36*
X44423D02*
X36830D01*
Y52097D01*
X38991Y52676D01*
X41019Y53846D01*
X42674Y55501D01*
X43844Y57529D01*
X44423Y59690D01*
D02*
G37*
G36*
X34290D02*
X26697D01*
X27276Y57529D01*
X28446Y55501D01*
X30101Y53846D01*
X32129Y52676D01*
X34290Y52097D01*
Y59690D01*
D02*
G37*
G36*
X534397Y58340D02*
X534340D01*
Y49530D01*
X543150D01*
Y49587D01*
X542463Y52151D01*
X541136Y54449D01*
X539259Y56326D01*
X536961Y57653D01*
X534397Y58340D01*
D02*
G37*
G36*
X584397D02*
X584340D01*
Y49530D01*
X593150D01*
Y49587D01*
X592463Y52151D01*
X591136Y54449D01*
X589259Y56326D01*
X586961Y57653D01*
X584397Y58340D01*
D02*
G37*
G36*
X484397D02*
X484340D01*
Y49530D01*
X493150D01*
Y49587D01*
X492463Y52151D01*
X491136Y54449D01*
X489259Y56326D01*
X486961Y57653D01*
X484397Y58340D01*
D02*
G37*
G36*
X434397D02*
X434340D01*
Y49530D01*
X443150D01*
Y49587D01*
X442463Y52151D01*
X441136Y54449D01*
X439259Y56326D01*
X436961Y57653D01*
X434397Y58340D01*
D02*
G37*
G36*
X531800D02*
X531743D01*
X529179Y57653D01*
X526881Y56326D01*
X525004Y54449D01*
X523677Y52151D01*
X522990Y49587D01*
Y49530D01*
X531800D01*
Y58340D01*
D02*
G37*
G36*
X431800D02*
X431743D01*
X429179Y57653D01*
X426881Y56326D01*
X425004Y54449D01*
X423677Y52151D01*
X422990Y49587D01*
Y49530D01*
X431800D01*
Y58340D01*
D02*
G37*
G36*
X581800D02*
X581743D01*
X579179Y57653D01*
X576881Y56326D01*
X575004Y54449D01*
X573677Y52151D01*
X572990Y49587D01*
Y49530D01*
X581800D01*
Y58340D01*
D02*
G37*
G36*
X481800D02*
X481743D01*
X479179Y57653D01*
X476881Y56326D01*
X475004Y54449D01*
X473677Y52151D01*
X472990Y49587D01*
Y49530D01*
X481800D01*
Y58340D01*
D02*
G37*
G36*
X843200Y52070D02*
X834390D01*
Y43260D01*
X834447D01*
X837011Y43947D01*
X839309Y45274D01*
X841186Y47151D01*
X842513Y49449D01*
X843200Y52013D01*
Y52070D01*
D02*
G37*
G36*
X831850D02*
X823040D01*
Y52013D01*
X823727Y49449D01*
X825054Y47151D01*
X826931Y45274D01*
X829229Y43947D01*
X831793Y43260D01*
X831850D01*
Y52070D01*
D02*
G37*
G36*
X809447Y63420D02*
X806793D01*
X804229Y62733D01*
X801931Y61406D01*
X800054Y59529D01*
X798727Y57231D01*
X798040Y54667D01*
Y52013D01*
X798727Y49449D01*
X800054Y47151D01*
X801931Y45274D01*
X804229Y43947D01*
X806793Y43260D01*
X809447D01*
X812011Y43947D01*
X814309Y45274D01*
X816186Y47151D01*
X817513Y49449D01*
X818200Y52013D01*
Y54667D01*
X817513Y57231D01*
X816186Y59529D01*
X814309Y61406D01*
X812011Y62733D01*
X809447Y63420D01*
D02*
G37*
G36*
X793200Y52070D02*
X784390D01*
Y43260D01*
X784447D01*
X787011Y43947D01*
X789309Y45274D01*
X791186Y47151D01*
X792513Y49449D01*
X793200Y52013D01*
Y52070D01*
D02*
G37*
G36*
X781850D02*
X773040D01*
Y52013D01*
X773727Y49449D01*
X775054Y47151D01*
X776931Y45274D01*
X779229Y43947D01*
X781793Y43260D01*
X781850D01*
Y52070D01*
D02*
G37*
G36*
X759447Y63420D02*
X756793D01*
X754229Y62733D01*
X751931Y61406D01*
X750054Y59529D01*
X748727Y57231D01*
X748040Y54667D01*
Y52013D01*
X748727Y49449D01*
X750054Y47151D01*
X751931Y45274D01*
X754229Y43947D01*
X756793Y43260D01*
X759447D01*
X762011Y43947D01*
X764309Y45274D01*
X766186Y47151D01*
X767513Y49449D01*
X768200Y52013D01*
Y54667D01*
X767513Y57231D01*
X766186Y59529D01*
X764309Y61406D01*
X762011Y62733D01*
X759447Y63420D01*
D02*
G37*
G36*
X743200Y52070D02*
X734390D01*
Y43260D01*
X734447D01*
X737011Y43947D01*
X739309Y45274D01*
X741186Y47151D01*
X742513Y49449D01*
X743200Y52013D01*
Y52070D01*
D02*
G37*
G36*
X731850D02*
X723040D01*
Y52013D01*
X723727Y49449D01*
X725054Y47151D01*
X726931Y45274D01*
X729229Y43947D01*
X731793Y43260D01*
X731850D01*
Y52070D01*
D02*
G37*
G36*
X709447Y63420D02*
X706793D01*
X704229Y62733D01*
X701931Y61406D01*
X700054Y59529D01*
X698727Y57231D01*
X698040Y54667D01*
Y52013D01*
X698727Y49449D01*
X700054Y47151D01*
X701931Y45274D01*
X704229Y43947D01*
X706793Y43260D01*
X709447D01*
X712011Y43947D01*
X714309Y45274D01*
X716186Y47151D01*
X717513Y49449D01*
X718200Y52013D01*
Y54667D01*
X717513Y57231D01*
X716186Y59529D01*
X714309Y61406D01*
X712011Y62733D01*
X709447Y63420D01*
D02*
G37*
G36*
X693200Y52070D02*
X684390D01*
Y43260D01*
X684447D01*
X687011Y43947D01*
X689309Y45274D01*
X691186Y47151D01*
X692513Y49449D01*
X693200Y52013D01*
Y52070D01*
D02*
G37*
G36*
X681850D02*
X673040D01*
Y52013D01*
X673727Y49449D01*
X675054Y47151D01*
X676931Y45274D01*
X679229Y43947D01*
X681793Y43260D01*
X681850D01*
Y52070D01*
D02*
G37*
G36*
X659447Y63420D02*
X656793D01*
X654229Y62733D01*
X651931Y61406D01*
X650054Y59529D01*
X648727Y57231D01*
X648040Y54667D01*
Y52013D01*
X648727Y49449D01*
X650054Y47151D01*
X651931Y45274D01*
X654229Y43947D01*
X656793Y43260D01*
X659447D01*
X662011Y43947D01*
X664309Y45274D01*
X666186Y47151D01*
X667513Y49449D01*
X668200Y52013D01*
Y54667D01*
X667513Y57231D01*
X666186Y59529D01*
X664309Y61406D01*
X662011Y62733D01*
X659447Y63420D01*
D02*
G37*
G36*
X593150Y46990D02*
X584340D01*
Y38180D01*
X584397D01*
X586961Y38867D01*
X589259Y40194D01*
X591136Y42071D01*
X592463Y44369D01*
X593150Y46933D01*
Y46990D01*
D02*
G37*
G36*
X581800D02*
X572990D01*
Y46933D01*
X573677Y44369D01*
X575004Y42071D01*
X576881Y40194D01*
X579179Y38867D01*
X581743Y38180D01*
X581800D01*
Y46990D01*
D02*
G37*
G36*
X559397Y58340D02*
X556743D01*
X554179Y57653D01*
X551881Y56326D01*
X550004Y54449D01*
X548677Y52151D01*
X547990Y49587D01*
Y46933D01*
X548677Y44369D01*
X550004Y42071D01*
X551881Y40194D01*
X554179Y38867D01*
X556743Y38180D01*
X559397D01*
X561961Y38867D01*
X564259Y40194D01*
X566136Y42071D01*
X567463Y44369D01*
X568150Y46933D01*
Y49587D01*
X567463Y52151D01*
X566136Y54449D01*
X564259Y56326D01*
X561961Y57653D01*
X559397Y58340D01*
D02*
G37*
G36*
X543150Y46990D02*
X534340D01*
Y38180D01*
X534397D01*
X536961Y38867D01*
X539259Y40194D01*
X541136Y42071D01*
X542463Y44369D01*
X543150Y46933D01*
Y46990D01*
D02*
G37*
G36*
X531800D02*
X522990D01*
Y46933D01*
X523677Y44369D01*
X525004Y42071D01*
X526881Y40194D01*
X529179Y38867D01*
X531743Y38180D01*
X531800D01*
Y46990D01*
D02*
G37*
G36*
X509397Y58340D02*
X506743D01*
X504179Y57653D01*
X501881Y56326D01*
X500004Y54449D01*
X498677Y52151D01*
X497990Y49587D01*
Y46933D01*
X498677Y44369D01*
X500004Y42071D01*
X501881Y40194D01*
X504179Y38867D01*
X506743Y38180D01*
X509397D01*
X511961Y38867D01*
X514259Y40194D01*
X516136Y42071D01*
X517463Y44369D01*
X518150Y46933D01*
Y49587D01*
X517463Y52151D01*
X516136Y54449D01*
X514259Y56326D01*
X511961Y57653D01*
X509397Y58340D01*
D02*
G37*
G36*
X493150Y46990D02*
X484340D01*
Y38180D01*
X484397D01*
X486961Y38867D01*
X489259Y40194D01*
X491136Y42071D01*
X492463Y44369D01*
X493150Y46933D01*
Y46990D01*
D02*
G37*
G36*
X481800D02*
X472990D01*
Y46933D01*
X473677Y44369D01*
X475004Y42071D01*
X476881Y40194D01*
X479179Y38867D01*
X481743Y38180D01*
X481800D01*
Y46990D01*
D02*
G37*
G36*
X459397Y58340D02*
X456743D01*
X454179Y57653D01*
X451881Y56326D01*
X450004Y54449D01*
X448677Y52151D01*
X447990Y49587D01*
Y46933D01*
X448677Y44369D01*
X450004Y42071D01*
X451881Y40194D01*
X454179Y38867D01*
X456743Y38180D01*
X459397D01*
X461961Y38867D01*
X464259Y40194D01*
X466136Y42071D01*
X467463Y44369D01*
X468150Y46933D01*
Y49587D01*
X467463Y52151D01*
X466136Y54449D01*
X464259Y56326D01*
X461961Y57653D01*
X459397Y58340D01*
D02*
G37*
G36*
X443150Y46990D02*
X434340D01*
Y38180D01*
X434397D01*
X436961Y38867D01*
X439259Y40194D01*
X441136Y42071D01*
X442463Y44369D01*
X443150Y46933D01*
Y46990D01*
D02*
G37*
G36*
X431800D02*
X422990D01*
Y46933D01*
X423677Y44369D01*
X425004Y42071D01*
X426881Y40194D01*
X429179Y38867D01*
X431743Y38180D01*
X431800D01*
Y46990D01*
D02*
G37*
G36*
X409397Y58340D02*
X406743D01*
X404179Y57653D01*
X401881Y56326D01*
X400004Y54449D01*
X398677Y52151D01*
X397990Y49587D01*
Y46933D01*
X398677Y44369D01*
X400004Y42071D01*
X401881Y40194D01*
X404179Y38867D01*
X406743Y38180D01*
X409397D01*
X411961Y38867D01*
X414259Y40194D01*
X416136Y42071D01*
X417463Y44369D01*
X418150Y46933D01*
Y49587D01*
X417463Y52151D01*
X416136Y54449D01*
X414259Y56326D01*
X411961Y57653D01*
X409397Y58340D01*
D02*
G37*
G36*
X184222Y40670D02*
X184150D01*
Y31750D01*
X193070D01*
Y31822D01*
X192376Y34413D01*
X191034Y36737D01*
X189137Y38634D01*
X186813Y39976D01*
X184222Y40670D01*
D02*
G37*
G36*
X181610D02*
X181538D01*
X178947Y39976D01*
X176623Y38634D01*
X174726Y36737D01*
X173384Y34413D01*
X172690Y31822D01*
Y31750D01*
X181610D01*
Y40670D01*
D02*
G37*
G36*
X950516Y65530D02*
X946864D01*
X943282Y64818D01*
X939908Y63420D01*
X936871Y61391D01*
X934289Y58809D01*
X932260Y55772D01*
X930863Y52398D01*
X930150Y48816D01*
Y45164D01*
X930863Y41582D01*
X932260Y38208D01*
X934289Y35171D01*
X936871Y32589D01*
X939908Y30560D01*
X943282Y29162D01*
X946864Y28450D01*
X950516D01*
X954098Y29162D01*
X957472Y30560D01*
X960509Y32589D01*
X963091Y35171D01*
X965120Y38208D01*
X966517Y41582D01*
X967230Y45164D01*
Y48816D01*
X966517Y52398D01*
X965120Y55772D01*
X963091Y58809D01*
X960509Y61391D01*
X957472Y63420D01*
X954098Y64818D01*
X950516Y65530D01*
D02*
G37*
G36*
X226132Y40670D02*
X223448D01*
X220857Y39976D01*
X218533Y38634D01*
X216636Y36737D01*
X215294Y34413D01*
X214600Y31822D01*
Y29138D01*
X215294Y26547D01*
X216636Y24223D01*
X218533Y22326D01*
X220857Y20984D01*
X223448Y20290D01*
X226132D01*
X228723Y20984D01*
X231047Y22326D01*
X232944Y24223D01*
X234286Y26547D01*
X234980Y29138D01*
Y31822D01*
X234286Y34413D01*
X232944Y36737D01*
X231047Y38634D01*
X228723Y39976D01*
X226132Y40670D01*
D02*
G37*
G36*
X193070Y29210D02*
X184150D01*
Y20290D01*
X184222D01*
X186813Y20984D01*
X189137Y22326D01*
X191034Y24223D01*
X192376Y26547D01*
X193070Y29138D01*
Y29210D01*
D02*
G37*
G36*
X181610D02*
X172690D01*
Y29138D01*
X173384Y26547D01*
X174726Y24223D01*
X176623Y22326D01*
X178947Y20984D01*
X181538Y20290D01*
X181610D01*
Y29210D01*
D02*
G37*
G36*
X578719Y32004D02*
X576981D01*
X575301Y31554D01*
X573795Y30684D01*
X572565Y29455D01*
X571696Y27949D01*
X571246Y26269D01*
Y24531D01*
X571696Y22851D01*
X572565Y21345D01*
X573795Y20115D01*
X575301Y19246D01*
X576981Y18796D01*
X578719D01*
X580399Y19246D01*
X581905Y20115D01*
X583134Y21345D01*
X584004Y22851D01*
X584454Y24531D01*
Y26269D01*
X584004Y27949D01*
X583134Y29455D01*
X581905Y30684D01*
X580399Y31554D01*
X578719Y32004D01*
D02*
G37*
G36*
X29766Y46480D02*
X26114D01*
X22532Y45767D01*
X19158Y44370D01*
X16121Y42341D01*
X13539Y39759D01*
X11510Y36722D01*
X10113Y33348D01*
X9400Y29766D01*
Y26114D01*
X10113Y22532D01*
X11510Y19158D01*
X13539Y16121D01*
X16121Y13539D01*
X19158Y11510D01*
X22532Y10113D01*
X26114Y9400D01*
X29766D01*
X33348Y10113D01*
X36722Y11510D01*
X39759Y13539D01*
X42341Y16121D01*
X44370Y19158D01*
X45767Y22532D01*
X46480Y26114D01*
Y29766D01*
X45767Y33348D01*
X44370Y36722D01*
X42341Y39759D01*
X39759Y42341D01*
X36722Y44370D01*
X33348Y45767D01*
X29766Y46480D01*
D02*
G37*
%LPD*%
G36*
X944880Y807720D02*
X962150D01*
Y806450D01*
Y805180D01*
X944880D01*
Y787910D01*
X942340D01*
Y805180D01*
X925070D01*
Y806450D01*
Y807720D01*
X942340D01*
Y824990D01*
X944880D01*
Y807720D01*
D02*
G37*
G36*
X36830Y805180D02*
X54100D01*
Y803910D01*
Y802640D01*
X36830D01*
Y785370D01*
X34290D01*
Y802640D01*
X17020D01*
Y803910D01*
Y805180D01*
X34290D01*
Y822450D01*
X36830D01*
Y805180D01*
D02*
G37*
G36*
X31750Y711750D02*
X39376D01*
X39628Y710480D01*
X39376Y709210D01*
X31750D01*
Y704832D01*
X29210D01*
Y709210D01*
X21584D01*
X21332Y710480D01*
X21584Y711750D01*
X29210D01*
Y716128D01*
X31750D01*
Y711750D01*
D02*
G37*
G36*
Y641750D02*
X39376D01*
X39628Y640480D01*
X39376Y639210D01*
X31750D01*
Y634832D01*
X29210D01*
Y639210D01*
X21584D01*
X21332Y640480D01*
X21584Y641750D01*
X29210D01*
Y646128D01*
X31750D01*
Y641750D01*
D02*
G37*
G36*
X949960Y48260D02*
X967230D01*
Y46990D01*
Y45720D01*
X949960D01*
Y28450D01*
X947420D01*
Y45720D01*
X930150D01*
Y46990D01*
Y48260D01*
X947420D01*
Y65530D01*
X949960D01*
Y48260D01*
D02*
G37*
G36*
X29210Y29210D02*
X46480D01*
Y27940D01*
Y26670D01*
X29210D01*
Y9400D01*
X26670D01*
Y26670D01*
X9400D01*
Y27940D01*
Y29210D01*
X26670D01*
Y46480D01*
X29210D01*
Y29210D01*
D02*
G37*
D14*
X118110Y533400D02*
X166370Y581660D01*
X111760Y533400D02*
X118110D01*
X107421Y530536D02*
X108896D01*
X111760Y533400D01*
X296435Y581660D02*
X318025Y603250D01*
X166370Y581660D02*
X296435D01*
D17*
X292100Y651527D02*
X329201Y614426D01*
X292100Y651527D02*
Y712470D01*
X319278Y451628D02*
Y494436D01*
Y451628D02*
X322419Y448487D01*
Y447387D02*
Y448487D01*
X319278Y494436D02*
X322580Y497738D01*
Y506730D01*
X267970Y514350D02*
Y544830D01*
Y501650D02*
Y514350D01*
Y501650D02*
X275590Y494030D01*
X256540Y571500D02*
X298450Y529590D01*
X264160Y494030D02*
X275590D01*
X298450Y422910D02*
Y529590D01*
X256540Y486410D02*
X264160Y494030D01*
X298450Y422910D02*
X311150Y410210D01*
X318025Y511285D02*
X322580Y506730D01*
X318025Y511285D02*
Y603250D01*
X486410Y493821D02*
X490220Y490011D01*
Y459740D02*
Y490011D01*
X486410Y493821D02*
Y523240D01*
X441740Y575530D02*
X486410Y530860D01*
Y523240D02*
Y530860D01*
X441740Y575530D02*
Y613568D01*
X537718Y523748D02*
Y620256D01*
X537210Y523240D02*
X537718Y523748D01*
Y620256D02*
X543560Y626098D01*
Y680720D01*
X576684Y581764D02*
X577850Y582930D01*
X562610Y572770D02*
X571604Y581764D01*
X576684D01*
X440091Y613568D02*
X441740D01*
X438549Y612027D02*
X440091Y613568D01*
X376670Y612027D02*
X438549D01*
X374271Y614426D02*
X376670Y612027D01*
X329201Y614426D02*
X374271D01*
X318025Y603250D02*
X329201Y614426D01*
X537680Y674840D02*
X543560Y680720D01*
X457129Y674840D02*
X537680D01*
X447945Y665656D02*
X457129Y674840D01*
X447945Y663845D02*
Y665656D01*
X441960Y657860D02*
X447945Y663845D01*
X123190Y553720D02*
X157480Y588010D01*
X296679D01*
X309865Y604564D02*
X317101Y611800D01*
X309865Y601196D02*
Y604564D01*
X296679Y588010D02*
X309865Y601196D01*
D81*
X15240Y618490D02*
D03*
X604520Y698500D02*
D03*
X19050Y730250D02*
D03*
X464820Y180340D02*
D03*
X554990Y75184D02*
D03*
X326390Y491490D02*
D03*
X277271Y527608D02*
D03*
X267970Y514350D02*
D03*
X275590Y494030D02*
D03*
X537210Y523240D02*
D03*
X577850Y582930D02*
D03*
X562610Y572770D02*
D03*
X552450Y585470D02*
D03*
X567690Y469900D02*
D03*
X454660Y256540D02*
D03*
X543560Y680720D02*
D03*
X441960Y657860D02*
D03*
X455709Y663362D02*
D03*
X417694Y619139D02*
D03*
X389890Y584200D02*
D03*
X372110Y586740D02*
D03*
X425680Y596670D02*
D03*
X441740Y613568D02*
D03*
X256540Y486410D02*
D03*
X332740Y403860D02*
D03*
X769620Y201676D02*
D03*
X740410Y205740D02*
D03*
X802640Y222250D02*
D03*
X530860Y636270D02*
D03*
X544830Y570230D02*
D03*
X123190Y553720D02*
D03*
X309880Y353060D02*
D03*
X593090Y75184D02*
D03*
X107421Y530536D02*
D03*
X336550Y586740D02*
D03*
X467360Y661670D02*
D03*
X490220Y589280D02*
D03*
X479508Y581198D02*
D03*
X472209Y603481D02*
D03*
X488899Y570281D02*
D03*
X457200Y575310D02*
D03*
X471170Y535940D02*
D03*
X455168Y544830D02*
D03*
X454985Y528320D02*
D03*
X409170Y580160D02*
D03*
X416306Y588009D02*
D03*
X419608Y548640D02*
D03*
X398780Y532130D02*
D03*
X401320Y513080D02*
D03*
X359586Y485420D02*
D03*
X367073Y493019D02*
D03*
X344170Y492760D02*
D03*
X565150Y487680D02*
D03*
X616636Y503504D02*
D03*
X542290Y480060D02*
D03*
X704850Y228600D02*
D03*
X628650Y341630D02*
D03*
X359410Y600710D02*
D03*
X346964Y607314D02*
D03*
X420370Y473710D02*
D03*
X431330Y452920D02*
D03*
X438912Y459683D02*
D03*
X445770Y488950D02*
D03*
X431800Y486410D02*
D03*
X420370Y402590D02*
D03*
X453390Y378460D02*
D03*
X472440Y497840D02*
D03*
X482600Y481330D02*
D03*
X463550Y514350D02*
D03*
X741680Y365760D02*
D03*
X726440Y567690D02*
D03*
X462280Y358140D02*
D03*
X374142Y452120D02*
D03*
X381794Y463804D02*
D03*
X485140Y543560D02*
D03*
X311150Y410210D02*
D03*
X577850Y25400D02*
D03*
D83*
X204841Y317129D02*
X390261D01*
X166370Y355600D02*
X204841Y317129D01*
X390261D02*
X428732Y278658D01*
X673500Y300120D02*
X836930D01*
X641350Y267970D02*
X673500Y300120D01*
X562456Y193040D02*
X919480D01*
X476838Y278658D02*
X562456Y193040D01*
X428732Y278658D02*
X476838D01*
X773430Y368300D02*
Y369125D01*
X774700Y370395D02*
Y431800D01*
X773430Y369125D02*
X774700Y370395D01*
X712470Y598170D02*
X724139D01*
X727949Y601980D02*
X741680D01*
X724139Y598170D02*
X727949Y601980D01*
X665480Y645160D02*
X712470Y598170D01*
X600710Y645160D02*
X665480D01*
X450267Y257123D02*
X454077D01*
X428732Y278658D02*
X450267Y257123D01*
X454077D02*
X454660Y256540D01*
X923162Y196722D02*
X937387D01*
X919480Y193040D02*
X923162Y196722D01*
X937387D02*
X938966Y195144D01*
X943174D01*
X957580Y209550D01*
X256540Y712470D02*
X292100D01*
X477520Y86360D02*
X494030Y102870D01*
X474980Y86360D02*
X477520D01*
X605790D02*
X624840Y105410D01*
X604520Y86360D02*
X605790D01*
X725100Y88830D02*
X739140Y102870D01*
X725100Y86360D02*
Y88830D01*
X833120Y86360D02*
Y92710D01*
X854710Y114300D01*
D84*
X81280Y440690D02*
X166370Y355600D01*
X81280Y579120D02*
X214630Y712470D01*
X81280Y440690D02*
Y579120D01*
X541020Y732790D02*
X610870D01*
X741680Y601980D01*
X497840Y689610D02*
X541020Y732790D01*
X314960Y689610D02*
X497840D01*
X292100Y712470D02*
X314960Y689610D01*
X214630Y712470D02*
X256540D01*
D85*
X477520Y86360D02*
X604520D01*
X605790D02*
X725100D01*
X833120D01*
X896620D01*
X977900Y167640D01*
Y595630D01*
X957580Y615950D02*
X977900Y595630D01*
X312420Y209550D02*
X351790D01*
X474980Y86360D01*
D88*
X224790Y30480D02*
D03*
X81280Y802640D02*
D03*
X182880Y30480D02*
D03*
D89*
X116360Y139440D02*
D03*
X58360D02*
D03*
D90*
X86360Y91440D02*
D03*
D91*
X273050Y789940D02*
D03*
X835660Y537210D02*
D03*
X621030Y787400D02*
D03*
X853440D02*
D03*
X708120Y53340D02*
D03*
X658120D02*
D03*
X758120D02*
D03*
X808120D02*
D03*
X833120D02*
D03*
X783120D02*
D03*
X683120D02*
D03*
X733120D02*
D03*
X458070Y48260D02*
D03*
X408070D02*
D03*
X508070D02*
D03*
X558070D02*
D03*
X583070D02*
D03*
X533070D02*
D03*
X433070D02*
D03*
X483070D02*
D03*
X148050Y789940D02*
D03*
X173050D02*
D03*
X198050D02*
D03*
X223050D02*
D03*
X323050D02*
D03*
X298050D02*
D03*
X248050D02*
D03*
X496030Y787400D02*
D03*
X521030D02*
D03*
X546030D02*
D03*
X571030D02*
D03*
X671030D02*
D03*
X646030D02*
D03*
X596030D02*
D03*
X828440D02*
D03*
X803440D02*
D03*
X778440D02*
D03*
X753440D02*
D03*
X834390Y699840D02*
D03*
Y674840D02*
D03*
Y624840D02*
D03*
Y649840D02*
D03*
X835660Y512210D02*
D03*
Y462210D02*
D03*
Y487210D02*
D03*
X836930Y325120D02*
D03*
Y300120D02*
D03*
Y350120D02*
D03*
Y375120D02*
D03*
D93*
X57480Y700480D02*
D03*
Y650480D02*
D03*
D95*
X431600Y787230D02*
D03*
X406600D02*
D03*
D97*
X932180Y463550D02*
D03*
X957580D02*
D03*
X932180Y438150D02*
D03*
Y412750D02*
D03*
X957580Y438150D02*
D03*
Y412750D02*
D03*
X932180Y311150D02*
D03*
Y285750D02*
D03*
X957580Y311150D02*
D03*
Y285750D02*
D03*
X932180Y184150D02*
D03*
X957580Y209550D02*
D03*
X932180D02*
D03*
X957580Y234950D02*
D03*
X932180D02*
D03*
X957580Y260350D02*
D03*
X932180D02*
D03*
X957580Y336550D02*
D03*
X932180D02*
D03*
X957580Y361950D02*
D03*
Y387350D02*
D03*
X932180Y361950D02*
D03*
Y387350D02*
D03*
X957580Y488950D02*
D03*
Y514350D02*
D03*
Y539750D02*
D03*
Y565150D02*
D03*
X932180Y488950D02*
D03*
Y514350D02*
D03*
Y539750D02*
D03*
Y565150D02*
D03*
X957580Y590550D02*
D03*
Y641350D02*
D03*
Y666750D02*
D03*
X932180Y590550D02*
D03*
Y615950D02*
D03*
Y641350D02*
D03*
Y666750D02*
D03*
X957580Y615950D02*
D03*
D98*
Y184150D02*
D03*
D99*
X486410Y290830D02*
D03*
Y316230D02*
D03*
X511810Y290830D02*
D03*
Y316230D02*
D03*
X537210Y290830D02*
D03*
Y316230D02*
D03*
X562610Y290830D02*
D03*
Y316230D02*
D03*
X666750Y267970D02*
D03*
Y242570D02*
D03*
X641350Y267970D02*
D03*
Y242570D02*
D03*
X762000Y264160D02*
D03*
Y238760D02*
D03*
X736600Y264160D02*
D03*
Y238760D02*
D03*
D100*
X49530Y382270D02*
D03*
X36830Y461010D02*
D03*
X130810Y262890D02*
D03*
X57150Y232410D02*
D03*
X237490Y283210D02*
D03*
X359410Y68580D02*
D03*
X330200Y172720D02*
D03*
X162560Y262890D02*
D03*
X33020Y233680D02*
D03*
X92964Y572770D02*
D03*
X173990Y568960D02*
D03*
X251460Y504190D02*
D03*
X104140Y60960D02*
D03*
X172720Y508000D02*
D03*
X177800Y415290D02*
D03*
X127360Y81280D02*
D03*
X125730Y60960D02*
D03*
X773430Y368300D02*
D03*
X774700Y431800D02*
D03*
X615950Y147320D02*
D03*
X600710Y645160D02*
D03*
X591820Y180086D02*
D03*
X721402Y174474D02*
D03*
X604520Y622300D02*
D03*
X256540Y712470D02*
D03*
X292100D02*
D03*
X494030Y102870D02*
D03*
X624840Y105410D02*
D03*
X739140Y102870D02*
D03*
X854710Y114300D02*
D03*
X716280Y119380D02*
D03*
X594360Y106680D02*
D03*
X491490Y140970D02*
D03*
X312420Y209550D02*
D03*
X166370Y220980D02*
D03*
X741680Y601980D02*
D03*
X36830Y81280D02*
D03*
X201930Y92710D02*
D03*
Y68580D02*
D03*
X60960Y209550D02*
D03*
X35560Y210820D02*
D03*
X78740Y60960D02*
D03*
X58420D02*
D03*
X35560D02*
D03*
D101*
X425450Y307340D02*
D03*
X232410Y609600D02*
D03*
X544830Y421640D02*
D03*
X490220Y459740D02*
D03*
X486410Y523240D02*
D03*
X337820Y673100D02*
D03*
D102*
X322419Y447387D02*
D03*
X267970Y544830D02*
D03*
X256540Y571500D02*
D03*
X322580Y506730D02*
D03*
X317101Y611800D02*
D03*
X318025Y603250D02*
D03*
M02*
