G04*
G04 #@! TF.GenerationSoftware,Altium Limited,Altium Designer,24.2.2 (26)*
G04*
G04 Layer_Color=0*
%FSLAX44Y44*%
%MOMM*%
G71*
G04*
G04 #@! TF.SameCoordinates,251A4116-46B9-4EB5-9C36-AF9AACF17162*
G04*
G04*
G04 #@! TF.FilePolarity,Positive*
G04*
G01*
G75*
%ADD104C,0.1000*%
D104*
X41990Y572770D02*
X51990D01*
X46990Y567770D02*
Y577770D01*
X106680Y475850D02*
Y485850D01*
X101680Y480850D02*
X111680D01*
X323850Y721560D02*
Y731560D01*
X318850Y726560D02*
X328850D01*
X406400Y722710D02*
Y732710D01*
X401400Y727710D02*
X411400D01*
X564862Y704850D02*
X574862D01*
X569862Y699850D02*
Y709850D01*
X787400Y620208D02*
Y630208D01*
X782400Y625208D02*
X792400D01*
X229950Y468630D02*
X239950D01*
X234950Y463630D02*
Y473630D01*
X99140Y391160D02*
X109140D01*
X104140Y386160D02*
Y396160D01*
X359840Y727710D02*
X369140D01*
X364490Y723060D02*
Y732360D01*
X809850Y150430D02*
Y160430D01*
X804850Y155430D02*
X814850D01*
X690320Y150430D02*
Y160430D01*
X685320Y155430D02*
X695320D01*
X312420Y262970D02*
Y272970D01*
X307420Y267970D02*
X317420D01*
X240441Y127000D02*
X250441D01*
X245441Y122000D02*
Y132000D01*
X242650Y83820D02*
X252650D01*
X247650Y78820D02*
Y88820D01*
X236220Y179150D02*
Y189150D01*
X231220Y184150D02*
X241220D01*
X443230Y332452D02*
Y342452D01*
X438230Y337452D02*
X448230D01*
X205740Y293450D02*
Y303450D01*
X200740Y298450D02*
X210740D01*
X34370Y501650D02*
X44370D01*
X39370Y496650D02*
Y506650D01*
X551628Y381000D02*
X561628D01*
X556628Y376000D02*
Y386000D01*
X563880Y640160D02*
Y650160D01*
X558880Y645160D02*
X568880D01*
X97870Y209550D02*
X107870D01*
X102870Y204550D02*
Y214550D01*
X158830Y78302D02*
X168830D01*
X163830Y73302D02*
Y83302D01*
X504270Y381000D02*
X514270D01*
X509270Y376000D02*
Y386000D01*
X557530Y518240D02*
Y528240D01*
X552530Y523240D02*
X562530D01*
X649393Y175587D02*
Y185587D01*
X644393Y180587D02*
X654393D01*
X133350Y293450D02*
Y303450D01*
X128350Y298450D02*
X138350D01*
X328930Y128350D02*
Y138350D01*
X323930Y133350D02*
X333930D01*
X72390Y290910D02*
Y300910D01*
X67390Y295910D02*
X77390D01*
X173032Y127000D02*
X183032D01*
X178032Y122000D02*
Y132000D01*
X159665Y184150D02*
X169665D01*
X164665Y179150D02*
Y189150D01*
X198120Y237570D02*
Y247570D01*
X193120Y242570D02*
X203120D01*
X767080Y119828D02*
Y129828D01*
X762080Y124828D02*
X772080D01*
X644393Y121920D02*
X654393D01*
X649393Y116920D02*
Y126920D01*
X527050Y112364D02*
Y122364D01*
X522050Y117364D02*
X532050D01*
X401437Y119629D02*
Y129629D01*
X396437Y124629D02*
X406437D01*
X205740Y395418D02*
Y405418D01*
X200740Y400418D02*
X210740D01*
X563880Y602060D02*
Y612060D01*
X558880Y607060D02*
X568880D01*
X170180Y293450D02*
Y303450D01*
X165180Y298450D02*
X175180D01*
X396437Y183296D02*
X406437D01*
X401437Y178296D02*
Y188296D01*
X606692Y376000D02*
Y386000D01*
X601692Y381000D02*
X611692D01*
X204470Y567650D02*
Y577650D01*
X199470Y572650D02*
X209470D01*
X789940Y468342D02*
Y478342D01*
X784940Y473342D02*
X794940D01*
X232490Y553720D02*
X242490D01*
X237490Y548720D02*
Y558720D01*
X46990Y735410D02*
Y745410D01*
X41990Y740410D02*
X51990D01*
X199470Y519430D02*
X209470D01*
X204470Y514430D02*
Y524430D01*
X562130Y150873D02*
X572130D01*
X567130Y145873D02*
Y155873D01*
X434980Y157970D02*
X444980D01*
X439980Y152970D02*
Y162970D01*
X520780Y167261D02*
X530780D01*
X525780Y162261D02*
Y172261D01*
X788750Y321310D02*
X798750D01*
X793750Y316310D02*
Y326310D01*
M02*
