G04*
G04 #@! TF.GenerationSoftware,Altium Limited,Altium Designer,24.2.2 (26)*
G04*
G04 Layer_Color=255*
%FSLAX44Y44*%
%MOMM*%
G71*
G04*
G04 #@! TF.SameCoordinates,251A4116-46B9-4EB5-9C36-AF9AACF17162*
G04*
G04*
G04 #@! TF.FilePolarity,Positive*
G04*
G01*
G75*
%ADD24R,1.2000X1.4500*%
%ADD25R,1.4500X1.2000*%
%ADD26R,1.4546X1.5562*%
%ADD27R,1.4562X1.3046*%
%ADD28R,1.5562X1.4546*%
%ADD29R,1.9000X1.5000*%
%ADD30R,1.3500X0.4000*%
%ADD31R,1.0200X0.7600*%
%ADD32R,1.5046X1.9062*%
G04:AMPARAMS|DCode=33|XSize=1.6042mm|YSize=0.8798mm|CornerRadius=0.4399mm|HoleSize=0mm|Usage=FLASHONLY|Rotation=270.000|XOffset=0mm|YOffset=0mm|HoleType=Round|Shape=RoundedRectangle|*
%AMROUNDEDRECTD33*
21,1,1.6042,0.0000,0,0,270.0*
21,1,0.7244,0.8798,0,0,270.0*
1,1,0.8798,0.0000,-0.3622*
1,1,0.8798,0.0000,0.3622*
1,1,0.8798,0.0000,0.3622*
1,1,0.8798,0.0000,-0.3622*
%
%ADD33ROUNDEDRECTD33*%
G04:AMPARAMS|DCode=34|XSize=1.6042mm|YSize=3.1798mm|CornerRadius=0.4411mm|HoleSize=0mm|Usage=FLASHONLY|Rotation=270.000|XOffset=0mm|YOffset=0mm|HoleType=Round|Shape=RoundedRectangle|*
%AMROUNDEDRECTD34*
21,1,1.6042,2.2975,0,0,270.0*
21,1,0.7219,3.1798,0,0,270.0*
1,1,0.8823,-1.1488,-0.3609*
1,1,0.8823,-1.1488,0.3609*
1,1,0.8823,1.1488,0.3609*
1,1,0.8823,1.1488,-0.3609*
%
%ADD34ROUNDEDRECTD34*%
%ADD35R,0.8798X1.6042*%
%ADD36R,1.3500X0.9500*%
%ADD37O,1.9000X0.6500*%
%ADD38R,1.0000X1.8000*%
%ADD39R,1.4000X1.2000*%
%ADD40R,1.5000X1.9000*%
%ADD41O,0.3000X2.1000*%
%ADD42O,2.1000X0.3000*%
%ADD43R,1.2000X0.6000*%
%ADD44R,1.7540X1.8062*%
%ADD45R,2.4130X3.4290*%
%ADD46R,1.9062X1.5046*%
%ADD47R,1.2000X1.2000*%
%ADD48R,1.2000X1.2000*%
%ADD49R,1.8000X1.0000*%
%ADD50R,1.0000X0.7000*%
%ADD51R,1.3046X1.4562*%
%ADD63R,0.3000X1.6000*%
%ADD88C,1.5300*%
G04:AMPARAMS|DCode=89|XSize=4mm|YSize=1.8mm|CornerRadius=0.45mm|HoleSize=0mm|Usage=FLASHONLY|Rotation=90.000|XOffset=0mm|YOffset=0mm|HoleType=Round|Shape=RoundedRectangle|*
%AMROUNDEDRECTD89*
21,1,4.0000,0.9000,0,0,90.0*
21,1,3.1000,1.8000,0,0,90.0*
1,1,0.9000,0.4500,1.5500*
1,1,0.9000,0.4500,-1.5500*
1,1,0.9000,-0.4500,-1.5500*
1,1,0.9000,-0.4500,1.5500*
%
%ADD89ROUNDEDRECTD89*%
G04:AMPARAMS|DCode=90|XSize=4mm|YSize=1.8mm|CornerRadius=0.45mm|HoleSize=0mm|Usage=FLASHONLY|Rotation=180.000|XOffset=0mm|YOffset=0mm|HoleType=Round|Shape=RoundedRectangle|*
%AMROUNDEDRECTD90*
21,1,4.0000,0.9000,0,0,180.0*
21,1,3.1000,1.8000,0,0,180.0*
1,1,0.9000,-1.5500,0.4500*
1,1,0.9000,1.5500,0.4500*
1,1,0.9000,1.5500,-0.4500*
1,1,0.9000,-1.5500,-0.4500*
%
%ADD90ROUNDEDRECTD90*%
%ADD91C,1.5080*%
%ADD92R,1.5080X1.5080*%
%ADD93C,1.4500*%
%ADD94R,1.5750X1.5750*%
%ADD95C,1.5750*%
%ADD96R,1.5080X1.5080*%
%ADD97C,1.6000*%
G04:AMPARAMS|DCode=98|XSize=1.6mm|YSize=1.6mm|CornerRadius=0.4mm|HoleSize=0mm|Usage=FLASHONLY|Rotation=270.000|XOffset=0mm|YOffset=0mm|HoleType=Round|Shape=RoundedRectangle|*
%AMROUNDEDRECTD98*
21,1,1.6000,0.8000,0,0,270.0*
21,1,0.8000,1.6000,0,0,270.0*
1,1,0.8000,-0.4000,-0.4000*
1,1,0.8000,-0.4000,0.4000*
1,1,0.8000,0.4000,0.4000*
1,1,0.8000,0.4000,-0.4000*
%
%ADD98ROUNDEDRECTD98*%
%ADD99C,1.5200*%
D24*
X662940Y365760D02*
D03*
X768510Y739140D02*
D03*
X788510D02*
D03*
X663100Y323850D02*
D03*
X683100D02*
D03*
X682940Y365760D02*
D03*
X56990Y360680D02*
D03*
X36990D02*
D03*
X338930Y68580D02*
D03*
X318930D02*
D03*
D25*
X200660Y457200D02*
D03*
X312420Y335120D02*
D03*
Y315120D02*
D03*
X441960Y290830D02*
D03*
Y270830D02*
D03*
X485140Y235110D02*
D03*
Y255110D02*
D03*
X513182Y235110D02*
D03*
Y255110D02*
D03*
X572770Y233840D02*
D03*
Y253840D02*
D03*
X542290Y235110D02*
D03*
Y255110D02*
D03*
X861060Y144940D02*
D03*
X200660Y477200D02*
D03*
X861060Y164940D02*
D03*
D26*
X615950Y381000D02*
D03*
X560604Y704850D02*
D03*
X579120D02*
D03*
X565886Y381000D02*
D03*
X547370D02*
D03*
X573138Y645160D02*
D03*
X554622D02*
D03*
X500012Y381000D02*
D03*
X518528D02*
D03*
X597434D02*
D03*
X37732Y740410D02*
D03*
X554622Y607060D02*
D03*
X573138D02*
D03*
X56248Y740410D02*
D03*
D27*
X163830Y86360D02*
D03*
Y70244D02*
D03*
D28*
X767080Y115570D02*
D03*
X787400Y615950D02*
D03*
Y634466D02*
D03*
X234950Y477888D02*
D03*
Y459372D02*
D03*
X312420Y277228D02*
D03*
Y258712D02*
D03*
X443230Y346710D02*
D03*
Y328194D02*
D03*
X205740Y307708D02*
D03*
Y289192D02*
D03*
X557530Y513982D02*
D03*
Y532498D02*
D03*
X649393Y189844D02*
D03*
Y171329D02*
D03*
X401437Y115371D02*
D03*
X527050Y108106D02*
D03*
X649393Y112662D02*
D03*
X401437Y174038D02*
D03*
X789940Y482600D02*
D03*
X525780Y158004D02*
D03*
X793750Y330568D02*
D03*
X170180Y289192D02*
D03*
X205740Y409676D02*
D03*
X401437Y133887D02*
D03*
X527050Y126621D02*
D03*
X649393Y131178D02*
D03*
X767080Y134086D02*
D03*
X205740Y391160D02*
D03*
X170180Y307708D02*
D03*
X793750Y312052D02*
D03*
X525780Y176519D02*
D03*
X789940Y464084D02*
D03*
X401437Y192553D02*
D03*
D29*
X30480Y665480D02*
D03*
Y685480D02*
D03*
D30*
X57480Y668980D02*
D03*
Y688480D02*
D03*
Y662480D02*
D03*
Y681980D02*
D03*
Y675480D02*
D03*
D31*
X33020Y604520D02*
D03*
X48220D02*
D03*
D32*
X31982Y572770D02*
D03*
X61998D02*
D03*
X117878Y209550D02*
D03*
X87862D02*
D03*
X163024Y127000D02*
D03*
X193040D02*
D03*
D33*
X83680Y510850D02*
D03*
X106680D02*
D03*
X95390Y265910D02*
D03*
X72390D02*
D03*
D34*
X106680Y450850D02*
D03*
X72390Y325910D02*
D03*
D35*
X129680Y510850D02*
D03*
X49390Y265910D02*
D03*
D36*
X323850Y719060D02*
D03*
Y734060D02*
D03*
X406400Y735210D02*
D03*
Y720210D02*
D03*
X204470Y565150D02*
D03*
Y526930D02*
D03*
Y580150D02*
D03*
Y511930D02*
D03*
D37*
X634060Y666750D02*
D03*
Y654050D02*
D03*
X707060Y641350D02*
D03*
Y628650D02*
D03*
Y654050D02*
D03*
Y666750D02*
D03*
X634060Y641350D02*
D03*
Y628650D02*
D03*
D38*
X119140Y391160D02*
D03*
X89140D02*
D03*
D39*
X353490Y719210D02*
D03*
X375490Y736210D02*
D03*
Y719210D02*
D03*
X353490Y736210D02*
D03*
D40*
X271190Y338420D02*
D03*
Y258420D02*
D03*
X400730Y353660D02*
D03*
Y273660D02*
D03*
D41*
X440760Y638330D02*
D03*
X335760D02*
D03*
X325760Y426330D02*
D03*
X485760D02*
D03*
X480760D02*
D03*
X330760D02*
D03*
X320760D02*
D03*
X445760Y638330D02*
D03*
X495760D02*
D03*
X490760D02*
D03*
X485760D02*
D03*
X480760D02*
D03*
X475760D02*
D03*
X470760D02*
D03*
X465760D02*
D03*
X460760D02*
D03*
X455760D02*
D03*
X450760D02*
D03*
X435760D02*
D03*
X430760D02*
D03*
X425760D02*
D03*
X420760D02*
D03*
X415760D02*
D03*
X410760D02*
D03*
X405760D02*
D03*
X400760D02*
D03*
X395760D02*
D03*
X390760D02*
D03*
X385760D02*
D03*
X380760D02*
D03*
X375760D02*
D03*
X370760D02*
D03*
X365760D02*
D03*
X360760D02*
D03*
X355760D02*
D03*
X350760D02*
D03*
X345760D02*
D03*
X340760D02*
D03*
X330760D02*
D03*
X325760D02*
D03*
X320760D02*
D03*
X335760Y426330D02*
D03*
X340760D02*
D03*
X345760D02*
D03*
X350760D02*
D03*
X355760D02*
D03*
X360760D02*
D03*
X365760D02*
D03*
X370760D02*
D03*
X375760D02*
D03*
X380760D02*
D03*
X385760D02*
D03*
X390760D02*
D03*
X395760D02*
D03*
X400760D02*
D03*
X405760D02*
D03*
X410760D02*
D03*
X415760D02*
D03*
X420760D02*
D03*
X425760D02*
D03*
X430760D02*
D03*
X435760D02*
D03*
X440760D02*
D03*
X445760D02*
D03*
X450760D02*
D03*
X455760D02*
D03*
X460760D02*
D03*
X465760D02*
D03*
X470760D02*
D03*
X475760D02*
D03*
X490760D02*
D03*
X495760D02*
D03*
D42*
X302260Y584830D02*
D03*
Y574830D02*
D03*
Y534830D02*
D03*
Y514830D02*
D03*
X514260Y529830D02*
D03*
Y524830D02*
D03*
X302260Y494830D02*
D03*
Y519830D02*
D03*
Y544830D02*
D03*
Y599830D02*
D03*
Y539830D02*
D03*
Y549830D02*
D03*
Y554830D02*
D03*
Y619830D02*
D03*
Y614830D02*
D03*
Y609830D02*
D03*
Y604830D02*
D03*
Y594830D02*
D03*
Y589830D02*
D03*
Y579830D02*
D03*
Y569830D02*
D03*
Y564830D02*
D03*
Y559830D02*
D03*
Y529830D02*
D03*
Y524830D02*
D03*
Y509830D02*
D03*
Y504830D02*
D03*
Y499830D02*
D03*
Y489830D02*
D03*
Y484830D02*
D03*
Y479830D02*
D03*
Y474830D02*
D03*
Y469830D02*
D03*
Y464830D02*
D03*
Y459830D02*
D03*
Y454830D02*
D03*
Y449830D02*
D03*
Y444830D02*
D03*
X514260D02*
D03*
Y449830D02*
D03*
Y454830D02*
D03*
Y459830D02*
D03*
Y464830D02*
D03*
Y469830D02*
D03*
Y474830D02*
D03*
Y479830D02*
D03*
Y484830D02*
D03*
Y489830D02*
D03*
Y494830D02*
D03*
Y499830D02*
D03*
Y504830D02*
D03*
Y509830D02*
D03*
Y514830D02*
D03*
Y519830D02*
D03*
Y534830D02*
D03*
Y539830D02*
D03*
Y544830D02*
D03*
Y549830D02*
D03*
Y554830D02*
D03*
Y559830D02*
D03*
Y564830D02*
D03*
Y569830D02*
D03*
Y574830D02*
D03*
Y579830D02*
D03*
Y584830D02*
D03*
Y589830D02*
D03*
Y594830D02*
D03*
Y599830D02*
D03*
Y604830D02*
D03*
Y609830D02*
D03*
Y614830D02*
D03*
Y619830D02*
D03*
D43*
X128070Y687680D02*
D03*
Y678180D02*
D03*
Y668680D02*
D03*
X103070D02*
D03*
Y687680D02*
D03*
Y678180D02*
D03*
D44*
X257202Y127000D02*
D03*
X233680D02*
D03*
X259411Y83820D02*
D03*
X235889D02*
D03*
D45*
X265430Y184150D02*
D03*
X207010D02*
D03*
D46*
X39370Y486642D02*
D03*
Y516658D02*
D03*
X328930Y118342D02*
D03*
Y148358D02*
D03*
D47*
X35560Y435950D02*
D03*
Y414950D02*
D03*
D48*
X341970Y38100D02*
D03*
X320970D02*
D03*
D49*
X133350Y283450D02*
D03*
Y313450D02*
D03*
X237490Y541220D02*
D03*
Y566220D02*
D03*
D50*
X153670Y193650D02*
D03*
Y184150D02*
D03*
Y174650D02*
D03*
X175660Y184150D02*
D03*
Y193650D02*
D03*
Y174650D02*
D03*
D51*
X190062Y242570D02*
D03*
X206178D02*
D03*
D63*
X806600Y138430D02*
D03*
X813100D02*
D03*
X819600Y172430D02*
D03*
X813100D02*
D03*
X806600D02*
D03*
X800100D02*
D03*
X819600Y138430D02*
D03*
X800100D02*
D03*
X687070D02*
D03*
X693570D02*
D03*
Y172430D02*
D03*
X687070D02*
D03*
X680570D02*
D03*
X700070Y138430D02*
D03*
Y172430D02*
D03*
X680570Y138430D02*
D03*
X430230Y140970D02*
D03*
X557380Y133874D02*
D03*
X576880Y167873D02*
D03*
Y133874D02*
D03*
X449730Y174970D02*
D03*
Y140970D02*
D03*
X430230Y174970D02*
D03*
X557380Y167873D02*
D03*
X563880Y133874D02*
D03*
Y167873D02*
D03*
X570380D02*
D03*
Y133874D02*
D03*
X436730Y174970D02*
D03*
X443230D02*
D03*
Y140970D02*
D03*
X436730D02*
D03*
D88*
X224790Y30480D02*
D03*
X81280Y802640D02*
D03*
X182880Y30480D02*
D03*
D89*
X116360Y139440D02*
D03*
X58360D02*
D03*
D90*
X86360Y91440D02*
D03*
D91*
X273050Y789940D02*
D03*
X835660Y537210D02*
D03*
X621030Y787400D02*
D03*
X708120Y53340D02*
D03*
X758120D02*
D03*
X808120D02*
D03*
X833120D02*
D03*
X783120D02*
D03*
X683120D02*
D03*
X733120D02*
D03*
X458070Y48260D02*
D03*
X508070D02*
D03*
X558070D02*
D03*
X583070D02*
D03*
X533070D02*
D03*
X433070D02*
D03*
X483070D02*
D03*
X148050Y789940D02*
D03*
X173050D02*
D03*
X198050D02*
D03*
X223050D02*
D03*
X298050D02*
D03*
X248050D02*
D03*
X496030Y787400D02*
D03*
X521030D02*
D03*
X546030D02*
D03*
X571030D02*
D03*
X646030D02*
D03*
X596030D02*
D03*
X828440D02*
D03*
X803440D02*
D03*
X778440D02*
D03*
X753440D02*
D03*
X834390Y699840D02*
D03*
Y674840D02*
D03*
Y649840D02*
D03*
X835660Y512210D02*
D03*
Y487210D02*
D03*
X836930Y325120D02*
D03*
Y350120D02*
D03*
Y375120D02*
D03*
D92*
X853440Y787400D02*
D03*
X658120Y53340D02*
D03*
X408070Y48260D02*
D03*
X323050Y789940D02*
D03*
X671030Y787400D02*
D03*
D93*
X57480Y700480D02*
D03*
Y650480D02*
D03*
D94*
X431600Y787230D02*
D03*
D95*
X406600D02*
D03*
D96*
X834390Y624840D02*
D03*
X835660Y462210D02*
D03*
X836930Y300120D02*
D03*
D97*
X932180Y463550D02*
D03*
X957580D02*
D03*
X932180Y438150D02*
D03*
Y412750D02*
D03*
X957580Y438150D02*
D03*
Y412750D02*
D03*
X932180Y311150D02*
D03*
Y285750D02*
D03*
X957580Y311150D02*
D03*
Y285750D02*
D03*
X932180Y184150D02*
D03*
X957580Y209550D02*
D03*
X932180D02*
D03*
X957580Y234950D02*
D03*
X932180D02*
D03*
X957580Y260350D02*
D03*
X932180D02*
D03*
X957580Y336550D02*
D03*
X932180D02*
D03*
X957580Y361950D02*
D03*
Y387350D02*
D03*
X932180Y361950D02*
D03*
Y387350D02*
D03*
X957580Y488950D02*
D03*
Y514350D02*
D03*
Y539750D02*
D03*
Y565150D02*
D03*
X932180Y488950D02*
D03*
Y514350D02*
D03*
Y539750D02*
D03*
Y565150D02*
D03*
X957580Y590550D02*
D03*
Y641350D02*
D03*
Y666750D02*
D03*
X932180Y590550D02*
D03*
Y615950D02*
D03*
Y641350D02*
D03*
Y666750D02*
D03*
X957580Y615950D02*
D03*
D98*
Y184150D02*
D03*
D99*
X486410Y290830D02*
D03*
Y316230D02*
D03*
X511810Y290830D02*
D03*
Y316230D02*
D03*
X537210Y290830D02*
D03*
Y316230D02*
D03*
X562610Y290830D02*
D03*
Y316230D02*
D03*
X666750Y267970D02*
D03*
Y242570D02*
D03*
X641350Y267970D02*
D03*
Y242570D02*
D03*
X762000Y264160D02*
D03*
Y238760D02*
D03*
X736600Y264160D02*
D03*
Y238760D02*
D03*
M02*
