G04*
G04 #@! TF.GenerationSoftware,Altium Limited,Altium Designer,24.2.2 (26)*
G04*
G04 Layer_Physical_Order=1*
G04 Layer_Color=255*
%FSLAX44Y44*%
%MOMM*%
G71*
G04*
G04 #@! TF.SameCoordinates,251A4116-46B9-4EB5-9C36-AF9AACF17162*
G04*
G04*
G04 #@! TF.FilePolarity,Positive*
G04*
G01*
G75*
%ADD14C,0.2540*%
%ADD17C,0.2032*%
%ADD23C,0.5000*%
%ADD24R,1.2000X1.4500*%
%ADD25R,1.4500X1.2000*%
%ADD26R,1.4546X1.5562*%
%ADD27R,1.4562X1.3046*%
%ADD28R,1.5562X1.4546*%
%ADD29R,1.9000X1.5000*%
%ADD30R,1.3500X0.4000*%
%ADD31R,1.0200X0.7600*%
%ADD32R,1.5046X1.9062*%
G04:AMPARAMS|DCode=33|XSize=1.6042mm|YSize=0.8798mm|CornerRadius=0.4399mm|HoleSize=0mm|Usage=FLASHONLY|Rotation=270.000|XOffset=0mm|YOffset=0mm|HoleType=Round|Shape=RoundedRectangle|*
%AMROUNDEDRECTD33*
21,1,1.6042,0.0000,0,0,270.0*
21,1,0.7244,0.8798,0,0,270.0*
1,1,0.8798,0.0000,-0.3622*
1,1,0.8798,0.0000,0.3622*
1,1,0.8798,0.0000,0.3622*
1,1,0.8798,0.0000,-0.3622*
%
%ADD33ROUNDEDRECTD33*%
G04:AMPARAMS|DCode=34|XSize=1.6042mm|YSize=3.1798mm|CornerRadius=0.4411mm|HoleSize=0mm|Usage=FLASHONLY|Rotation=270.000|XOffset=0mm|YOffset=0mm|HoleType=Round|Shape=RoundedRectangle|*
%AMROUNDEDRECTD34*
21,1,1.6042,2.2975,0,0,270.0*
21,1,0.7219,3.1798,0,0,270.0*
1,1,0.8823,-1.1488,-0.3609*
1,1,0.8823,-1.1488,0.3609*
1,1,0.8823,1.1488,0.3609*
1,1,0.8823,1.1488,-0.3609*
%
%ADD34ROUNDEDRECTD34*%
%ADD35R,0.8798X1.6042*%
%ADD36R,1.3500X0.9500*%
%ADD37O,1.9000X0.6500*%
%ADD38R,1.0000X1.8000*%
%ADD39R,1.4000X1.2000*%
%ADD40R,1.5000X1.9000*%
%ADD41O,0.3000X2.1000*%
%ADD42O,2.1000X0.3000*%
%ADD43R,1.2000X0.6000*%
%ADD44R,1.7540X1.8062*%
%ADD45R,2.4130X3.4290*%
%ADD46R,1.9062X1.5046*%
%ADD47R,1.2000X1.2000*%
%ADD48R,1.2000X1.2000*%
%ADD49R,1.8000X1.0000*%
%ADD50R,1.0000X0.7000*%
%ADD51R,1.3046X1.4562*%
%ADD63R,0.3000X1.6000*%
%ADD81C,0.8128*%
%ADD82C,0.1582*%
%ADD83C,0.5080*%
%ADD84C,0.7620*%
%ADD85C,1.0160*%
%ADD86C,0.1524*%
%ADD87C,0.3048*%
%ADD88C,1.5300*%
G04:AMPARAMS|DCode=89|XSize=4mm|YSize=1.8mm|CornerRadius=0.45mm|HoleSize=0mm|Usage=FLASHONLY|Rotation=90.000|XOffset=0mm|YOffset=0mm|HoleType=Round|Shape=RoundedRectangle|*
%AMROUNDEDRECTD89*
21,1,4.0000,0.9000,0,0,90.0*
21,1,3.1000,1.8000,0,0,90.0*
1,1,0.9000,0.4500,1.5500*
1,1,0.9000,0.4500,-1.5500*
1,1,0.9000,-0.4500,-1.5500*
1,1,0.9000,-0.4500,1.5500*
%
%ADD89ROUNDEDRECTD89*%
G04:AMPARAMS|DCode=90|XSize=4mm|YSize=1.8mm|CornerRadius=0.45mm|HoleSize=0mm|Usage=FLASHONLY|Rotation=180.000|XOffset=0mm|YOffset=0mm|HoleType=Round|Shape=RoundedRectangle|*
%AMROUNDEDRECTD90*
21,1,4.0000,0.9000,0,0,180.0*
21,1,3.1000,1.8000,0,0,180.0*
1,1,0.9000,-1.5500,0.4500*
1,1,0.9000,1.5500,0.4500*
1,1,0.9000,1.5500,-0.4500*
1,1,0.9000,-1.5500,-0.4500*
%
%ADD90ROUNDEDRECTD90*%
%ADD91C,1.5080*%
%ADD92R,1.5080X1.5080*%
%ADD93C,1.4500*%
%ADD94R,1.5750X1.5750*%
%ADD95C,1.5750*%
%ADD96R,1.5080X1.5080*%
%ADD97C,1.6000*%
G04:AMPARAMS|DCode=98|XSize=1.6mm|YSize=1.6mm|CornerRadius=0.4mm|HoleSize=0mm|Usage=FLASHONLY|Rotation=270.000|XOffset=0mm|YOffset=0mm|HoleType=Round|Shape=RoundedRectangle|*
%AMROUNDEDRECTD98*
21,1,1.6000,0.8000,0,0,270.0*
21,1,0.8000,1.6000,0,0,270.0*
1,1,0.8000,-0.4000,-0.4000*
1,1,0.8000,-0.4000,0.4000*
1,1,0.8000,0.4000,0.4000*
1,1,0.8000,0.4000,-0.4000*
%
%ADD98ROUNDEDRECTD98*%
%ADD99C,1.5200*%
%ADD100C,1.2700*%
%ADD101C,0.9144*%
%ADD102C,0.6096*%
G36*
X34980Y711480D02*
X25980D01*
Y716480D01*
X34980Y716480D01*
Y711480D01*
D02*
G37*
G36*
X39980Y698480D02*
X20980D01*
Y711480D01*
X39980D01*
Y698480D01*
D02*
G37*
G36*
Y639480D02*
X20980D01*
Y652480D01*
X39980D01*
Y639480D01*
D02*
G37*
G36*
X34980Y634480D02*
X25980Y634480D01*
Y639480D01*
X34980D01*
Y634480D01*
D02*
G37*
G36*
X213360Y472440D02*
X212090Y471170D01*
X211560Y471700D01*
X210450D01*
Y475930D01*
X200660D01*
Y477200D01*
D01*
Y475930D01*
X190870D01*
Y474520D01*
X171344Y454994D01*
X125109D01*
X124940Y456274D01*
X124240Y457965D01*
X123125Y459417D01*
X121673Y460531D01*
X119982Y461232D01*
X118168Y461471D01*
X113341D01*
Y476250D01*
X168910D01*
X189230Y496570D01*
X213360D01*
Y472440D01*
D02*
G37*
G36*
X100019Y461471D02*
X95192D01*
X93378Y461232D01*
X91687Y460531D01*
X90235Y459417D01*
X89120Y457965D01*
X88420Y456274D01*
X88181Y454459D01*
Y452120D01*
X106680D01*
Y450850D01*
X107950D01*
Y440229D01*
X118168D01*
X118648Y440293D01*
X119140Y440195D01*
X120726Y440510D01*
X122070Y441408D01*
X122158Y441541D01*
X123125Y442283D01*
X124240Y443735D01*
X124940Y445426D01*
X125109Y446706D01*
X173060D01*
X173990Y445943D01*
Y434340D01*
X163830Y424180D01*
Y403860D01*
X168910Y398780D01*
X195419D01*
Y395304D01*
X126680D01*
Y402700D01*
X120410D01*
Y391160D01*
Y379620D01*
X126680D01*
Y387016D01*
X195419D01*
Y381347D01*
X204470D01*
Y391160D01*
X205740D01*
Y392430D01*
X216061D01*
Y398780D01*
X219710D01*
Y327538D01*
X209693Y317521D01*
X207010D01*
Y307708D01*
X204470D01*
Y317521D01*
X195419D01*
Y311851D01*
X180501D01*
Y317521D01*
X171450D01*
Y307708D01*
X170180D01*
Y306438D01*
X159859D01*
Y298450D01*
X76534D01*
Y315289D01*
X83878D01*
X85692Y315528D01*
X87383Y316229D01*
X88835Y317343D01*
X89950Y318795D01*
X90650Y320486D01*
X90819Y321766D01*
X115174D01*
X121810Y315130D01*
Y314720D01*
X132080D01*
Y320990D01*
X127670D01*
X119820Y328840D01*
X118476Y329738D01*
X116890Y330054D01*
X90819D01*
X90650Y331334D01*
X89950Y333025D01*
X88835Y334477D01*
X87383Y335591D01*
X85692Y336292D01*
X83878Y336531D01*
X73660D01*
Y325910D01*
X72390D01*
Y324640D01*
X53891D01*
Y322301D01*
X54130Y320486D01*
X54830Y318795D01*
X55945Y317343D01*
X57397Y316229D01*
X59088Y315528D01*
X60902Y315289D01*
X68246D01*
Y304253D01*
X67073Y303767D01*
X48260Y322580D01*
Y344170D01*
X77470D01*
X110490Y377190D01*
Y379234D01*
X111600Y379620D01*
Y379620D01*
X117870D01*
Y391160D01*
Y402700D01*
X111600D01*
Y402700D01*
X110490Y403086D01*
Y424180D01*
X91440D01*
X84908Y430712D01*
X85326Y432090D01*
X85487Y432122D01*
X86832Y433020D01*
X94175Y440363D01*
X95192Y440229D01*
X105410D01*
Y449580D01*
X88181D01*
Y447241D01*
X88315Y446223D01*
X82185Y440094D01*
X75526D01*
X74930Y440690D01*
Y476250D01*
X100019D01*
Y461471D01*
D02*
G37*
G36*
X563260Y323830D02*
X563627Y323789D01*
X563999Y323728D01*
X564367Y323649D01*
X564731Y323552D01*
X565090Y323437D01*
X565443Y323305D01*
X565789Y323155D01*
X566127Y322988D01*
X566456Y322805D01*
X566776Y322606D01*
X567086Y322391D01*
X567385Y322161D01*
X567672Y321917D01*
X567946Y321659D01*
X568208Y321387D01*
X568455Y321103D01*
X568689Y320807D01*
X568907Y320500D01*
X569110Y320182D01*
X569297Y319855D01*
X569468Y319519D01*
X569621Y319175D01*
X569758Y318824D01*
X569877Y318466D01*
X569978Y318103D01*
X570061Y317736D01*
X570126Y317364D01*
X570173Y316990D01*
X570201Y316614D01*
X570210Y316230D01*
X570168Y315436D01*
X570044Y314650D01*
X569838Y313881D01*
X569553Y313139D01*
X569192Y312430D01*
X568759Y311763D01*
X568258Y311145D01*
X567695Y310582D01*
X567077Y310082D01*
X566410Y309648D01*
X565701Y309287D01*
X564958Y309002D01*
X564190Y308796D01*
X563404Y308672D01*
X562610Y308630D01*
X561816Y308672D01*
X561030Y308796D01*
X560261Y309002D01*
X559519Y309287D01*
X558810Y309648D01*
X558143Y310082D01*
X557525Y310582D01*
X556962Y311145D01*
X556461Y311763D01*
X556028Y312430D01*
X555667Y313139D01*
X555382Y313881D01*
X555176Y314650D01*
X555052Y315436D01*
X555010Y316230D01*
X555019Y316614D01*
X555047Y316990D01*
X555094Y317364D01*
X555159Y317736D01*
X555242Y318103D01*
X555343Y318466D01*
X555462Y318824D01*
X555599Y319175D01*
X555752Y319519D01*
X555923Y319855D01*
X556110Y320182D01*
X556313Y320500D01*
X556531Y320807D01*
X556765Y321103D01*
X557012Y321387D01*
X557274Y321659D01*
X557548Y321917D01*
X557835Y322161D01*
X558134Y322391D01*
X558444Y322606D01*
X558764Y322805D01*
X559093Y322988D01*
X559431Y323155D01*
X559777Y323305D01*
X560130Y323437D01*
X560489Y323552D01*
X560853Y323649D01*
X561221Y323728D01*
X561593Y323789D01*
X561960Y323830D01*
Y331530D01*
X563260D01*
Y323830D01*
D02*
G37*
G36*
X537860D02*
X538227Y323789D01*
X538599Y323728D01*
X538967Y323649D01*
X539332Y323552D01*
X539691Y323437D01*
X540043Y323305D01*
X540389Y323155D01*
X540727Y322988D01*
X541057Y322805D01*
X541376Y322606D01*
X541686Y322391D01*
X541985Y322161D01*
X542272Y321917D01*
X542546Y321659D01*
X542808Y321387D01*
X543055Y321103D01*
X543288Y320807D01*
X543507Y320500D01*
X543710Y320182D01*
X543897Y319855D01*
X544067Y319519D01*
X544221Y319175D01*
X544358Y318824D01*
X544477Y318466D01*
X544578Y318103D01*
X544661Y317736D01*
X544726Y317364D01*
X544773Y316990D01*
X544801Y316614D01*
X544810Y316230D01*
X544768Y315436D01*
X544644Y314650D01*
X544438Y313881D01*
X544153Y313139D01*
X543792Y312430D01*
X543358Y311763D01*
X542858Y311145D01*
X542295Y310582D01*
X541677Y310082D01*
X541010Y309648D01*
X540301Y309287D01*
X539558Y309002D01*
X538790Y308796D01*
X538004Y308672D01*
X537210Y308630D01*
X536416Y308672D01*
X535630Y308796D01*
X534861Y309002D01*
X534119Y309287D01*
X533410Y309648D01*
X532743Y310082D01*
X532125Y310582D01*
X531562Y311145D01*
X531062Y311763D01*
X530628Y312430D01*
X530267Y313139D01*
X529982Y313881D01*
X529776Y314650D01*
X529652Y315436D01*
X529610Y316230D01*
X529619Y316614D01*
X529647Y316990D01*
X529694Y317364D01*
X529759Y317736D01*
X529842Y318103D01*
X529943Y318466D01*
X530062Y318824D01*
X530199Y319175D01*
X530353Y319519D01*
X530523Y319855D01*
X530710Y320182D01*
X530913Y320500D01*
X531132Y320807D01*
X531365Y321103D01*
X531612Y321387D01*
X531874Y321659D01*
X532148Y321917D01*
X532435Y322161D01*
X532734Y322391D01*
X533044Y322606D01*
X533363Y322805D01*
X533693Y322988D01*
X534031Y323155D01*
X534377Y323305D01*
X534729Y323437D01*
X535089Y323552D01*
X535453Y323649D01*
X535821Y323728D01*
X536193Y323789D01*
X536560Y323830D01*
Y331530D01*
X537860D01*
Y323830D01*
D02*
G37*
G36*
X512460D02*
X512827Y323789D01*
X513199Y323728D01*
X513567Y323649D01*
X513932Y323552D01*
X514291Y323437D01*
X514643Y323305D01*
X514989Y323155D01*
X515327Y322988D01*
X515657Y322805D01*
X515976Y322606D01*
X516286Y322391D01*
X516585Y322161D01*
X516872Y321917D01*
X517146Y321659D01*
X517408Y321387D01*
X517655Y321103D01*
X517888Y320807D01*
X518107Y320500D01*
X518310Y320182D01*
X518497Y319855D01*
X518667Y319519D01*
X518821Y319175D01*
X518958Y318824D01*
X519077Y318466D01*
X519178Y318103D01*
X519261Y317736D01*
X519326Y317364D01*
X519373Y316990D01*
X519401Y316614D01*
X519410Y316230D01*
X519368Y315436D01*
X519244Y314650D01*
X519038Y313881D01*
X518753Y313139D01*
X518392Y312430D01*
X517958Y311763D01*
X517458Y311145D01*
X516895Y310582D01*
X516277Y310082D01*
X515610Y309648D01*
X514901Y309287D01*
X514159Y309002D01*
X513390Y308796D01*
X512604Y308672D01*
X511810Y308630D01*
X511016Y308672D01*
X510230Y308796D01*
X509462Y309002D01*
X508719Y309287D01*
X508010Y309648D01*
X507343Y310082D01*
X506725Y310582D01*
X506162Y311145D01*
X505662Y311763D01*
X505228Y312430D01*
X504867Y313139D01*
X504582Y313881D01*
X504376Y314650D01*
X504252Y315436D01*
X504210Y316230D01*
X504219Y316614D01*
X504247Y316990D01*
X504294Y317364D01*
X504359Y317736D01*
X504442Y318103D01*
X504543Y318466D01*
X504662Y318824D01*
X504799Y319175D01*
X504953Y319519D01*
X505123Y319855D01*
X505310Y320182D01*
X505513Y320500D01*
X505732Y320807D01*
X505965Y321103D01*
X506212Y321387D01*
X506474Y321659D01*
X506748Y321917D01*
X507035Y322161D01*
X507334Y322391D01*
X507644Y322606D01*
X507963Y322805D01*
X508293Y322988D01*
X508631Y323155D01*
X508977Y323305D01*
X509329Y323437D01*
X509688Y323552D01*
X510053Y323649D01*
X510421Y323728D01*
X510793Y323789D01*
X511160Y323830D01*
Y331530D01*
X512460D01*
Y323830D01*
D02*
G37*
G36*
X487060D02*
X487427Y323789D01*
X487799Y323728D01*
X488167Y323649D01*
X488531Y323552D01*
X488890Y323437D01*
X489243Y323305D01*
X489589Y323155D01*
X489927Y322988D01*
X490257Y322805D01*
X490576Y322606D01*
X490886Y322391D01*
X491185Y322161D01*
X491472Y321917D01*
X491746Y321659D01*
X492008Y321387D01*
X492255Y321103D01*
X492489Y320807D01*
X492707Y320500D01*
X492910Y320182D01*
X493097Y319855D01*
X493268Y319519D01*
X493421Y319175D01*
X493558Y318824D01*
X493677Y318466D01*
X493778Y318103D01*
X493861Y317736D01*
X493926Y317364D01*
X493973Y316990D01*
X494001Y316614D01*
X494010Y316230D01*
X493968Y315436D01*
X493844Y314650D01*
X493638Y313881D01*
X493353Y313139D01*
X492992Y312430D01*
X492559Y311763D01*
X492058Y311145D01*
X491495Y310582D01*
X490877Y310082D01*
X490210Y309648D01*
X489501Y309287D01*
X488759Y309002D01*
X487990Y308796D01*
X487204Y308672D01*
X486410Y308630D01*
X485616Y308672D01*
X484830Y308796D01*
X484062Y309002D01*
X483319Y309287D01*
X482610Y309648D01*
X481943Y310082D01*
X481325Y310582D01*
X480762Y311145D01*
X480261Y311763D01*
X479828Y312430D01*
X479467Y313139D01*
X479182Y313881D01*
X478976Y314650D01*
X478852Y315436D01*
X478810Y316230D01*
X478819Y316614D01*
X478847Y316990D01*
X478894Y317364D01*
X478959Y317736D01*
X479042Y318103D01*
X479143Y318466D01*
X479262Y318824D01*
X479399Y319175D01*
X479552Y319519D01*
X479723Y319855D01*
X479910Y320182D01*
X480113Y320500D01*
X480331Y320807D01*
X480565Y321103D01*
X480812Y321387D01*
X481074Y321659D01*
X481348Y321917D01*
X481635Y322161D01*
X481934Y322391D01*
X482244Y322606D01*
X482564Y322805D01*
X482893Y322988D01*
X483231Y323155D01*
X483577Y323305D01*
X483929Y323437D01*
X484288Y323552D01*
X484653Y323649D01*
X485021Y323728D01*
X485393Y323789D01*
X485760Y323830D01*
Y331530D01*
X487060D01*
Y323830D01*
D02*
G37*
G36*
X563008Y298420D02*
X563404Y298388D01*
X563799Y298336D01*
X564190Y298264D01*
X564577Y298171D01*
X564958Y298058D01*
X565334Y297925D01*
X565701Y297773D01*
X566060Y297602D01*
X566410Y297412D01*
X566749Y297204D01*
X567077Y296978D01*
X567393Y296736D01*
X567695Y296478D01*
X567984Y296204D01*
X568258Y295915D01*
X568516Y295613D01*
X568759Y295297D01*
X568984Y294969D01*
X569192Y294630D01*
X569382Y294280D01*
X569553Y293921D01*
X569705Y293554D01*
X569838Y293179D01*
X569951Y292797D01*
X570044Y292410D01*
X570116Y292019D01*
X570168Y291624D01*
X570200Y291228D01*
X570210Y290830D01*
Y289830D01*
X570167Y289541D01*
X570100Y289198D01*
X570018Y288858D01*
X569921Y288522D01*
X569808Y288191D01*
X569679Y287866D01*
X569537Y287547D01*
X569379Y287235D01*
X569208Y286930D01*
X569022Y286634D01*
X568824Y286346D01*
X568612Y286068D01*
X568388Y285800D01*
X568151Y285542D01*
X567903Y285296D01*
X567644Y285061D01*
X567375Y284839D01*
X567095Y284629D01*
X566806Y284432D01*
X566509Y284248D01*
X566203Y284079D01*
X565890Y283923D01*
X565570Y283783D01*
X565244Y283657D01*
X564912Y283546D01*
X564576Y283450D01*
X564236Y283370D01*
X563892Y283306D01*
X563546Y283258D01*
X563260Y283230D01*
Y275530D01*
X561960D01*
Y283230D01*
X561674Y283258D01*
X561328Y283306D01*
X560984Y283370D01*
X560644Y283450D01*
X560308Y283546D01*
X559976Y283657D01*
X559650Y283783D01*
X559330Y283923D01*
X559017Y284079D01*
X558711Y284248D01*
X558414Y284432D01*
X558125Y284629D01*
X557845Y284839D01*
X557576Y285061D01*
X557317Y285296D01*
X557069Y285542D01*
X556832Y285800D01*
X556608Y286068D01*
X556396Y286346D01*
X556198Y286634D01*
X556012Y286930D01*
X555841Y287235D01*
X555683Y287547D01*
X555541Y287866D01*
X555412Y288191D01*
X555299Y288522D01*
X555202Y288858D01*
X555120Y289198D01*
X555053Y289541D01*
X555010Y289830D01*
Y290830D01*
X555020Y291228D01*
X555052Y291624D01*
X555104Y292019D01*
X555176Y292410D01*
X555269Y292797D01*
X555382Y293179D01*
X555515Y293554D01*
X555667Y293921D01*
X555838Y294280D01*
X556028Y294630D01*
X556236Y294969D01*
X556461Y295297D01*
X556704Y295613D01*
X556962Y295915D01*
X557236Y296204D01*
X557525Y296478D01*
X557827Y296736D01*
X558143Y296978D01*
X558471Y297204D01*
X558810Y297412D01*
X559160Y297602D01*
X559519Y297773D01*
X559886Y297925D01*
X560261Y298058D01*
X560643Y298171D01*
X561030Y298264D01*
X561421Y298336D01*
X561816Y298388D01*
X562212Y298420D01*
X562610Y298430D01*
X563008Y298420D01*
D02*
G37*
G36*
X537608D02*
X538004Y298388D01*
X538399Y298336D01*
X538790Y298264D01*
X539177Y298171D01*
X539558Y298058D01*
X539934Y297925D01*
X540301Y297773D01*
X540660Y297602D01*
X541010Y297412D01*
X541349Y297204D01*
X541677Y296978D01*
X541993Y296736D01*
X542295Y296478D01*
X542584Y296204D01*
X542858Y295915D01*
X543116Y295613D01*
X543358Y295297D01*
X543584Y294969D01*
X543792Y294630D01*
X543982Y294280D01*
X544153Y293921D01*
X544305Y293554D01*
X544438Y293179D01*
X544551Y292797D01*
X544644Y292410D01*
X544716Y292019D01*
X544768Y291624D01*
X544800Y291228D01*
X544810Y290830D01*
Y289830D01*
X544767Y289541D01*
X544700Y289198D01*
X544618Y288858D01*
X544520Y288522D01*
X544408Y288191D01*
X544280Y287866D01*
X544137Y287547D01*
X543979Y287235D01*
X543808Y286930D01*
X543623Y286634D01*
X543424Y286346D01*
X543212Y286068D01*
X542988Y285800D01*
X542751Y285542D01*
X542503Y285296D01*
X542244Y285061D01*
X541975Y284839D01*
X541695Y284629D01*
X541406Y284432D01*
X541109Y284248D01*
X540803Y284079D01*
X540490Y283923D01*
X540170Y283783D01*
X539844Y283657D01*
X539512Y283546D01*
X539176Y283450D01*
X538836Y283370D01*
X538492Y283306D01*
X538146Y283258D01*
X537860Y283230D01*
Y275530D01*
X536560D01*
Y283230D01*
X536274Y283258D01*
X535928Y283306D01*
X535584Y283370D01*
X535244Y283450D01*
X534908Y283546D01*
X534576Y283657D01*
X534250Y283783D01*
X533930Y283923D01*
X533617Y284079D01*
X533311Y284248D01*
X533014Y284432D01*
X532725Y284629D01*
X532445Y284839D01*
X532176Y285061D01*
X531917Y285296D01*
X531669Y285542D01*
X531432Y285800D01*
X531208Y286068D01*
X530996Y286346D01*
X530798Y286634D01*
X530612Y286930D01*
X530441Y287235D01*
X530283Y287547D01*
X530140Y287866D01*
X530013Y288191D01*
X529899Y288522D01*
X529802Y288858D01*
X529720Y289198D01*
X529653Y289541D01*
X529610Y289830D01*
Y290830D01*
X529620Y291228D01*
X529652Y291624D01*
X529704Y292019D01*
X529776Y292410D01*
X529869Y292797D01*
X529982Y293179D01*
X530115Y293554D01*
X530267Y293921D01*
X530438Y294280D01*
X530628Y294630D01*
X530836Y294969D01*
X531062Y295297D01*
X531304Y295613D01*
X531562Y295915D01*
X531836Y296204D01*
X532125Y296478D01*
X532427Y296736D01*
X532743Y296978D01*
X533071Y297204D01*
X533410Y297412D01*
X533760Y297602D01*
X534119Y297773D01*
X534486Y297925D01*
X534861Y298058D01*
X535243Y298171D01*
X535630Y298264D01*
X536021Y298336D01*
X536416Y298388D01*
X536812Y298420D01*
X537210Y298430D01*
X537608Y298420D01*
D02*
G37*
G36*
X512208D02*
X512604Y298388D01*
X512999Y298336D01*
X513390Y298264D01*
X513777Y298171D01*
X514159Y298058D01*
X514534Y297925D01*
X514901Y297773D01*
X515260Y297602D01*
X515610Y297412D01*
X515949Y297204D01*
X516277Y296978D01*
X516593Y296736D01*
X516895Y296478D01*
X517184Y296204D01*
X517458Y295915D01*
X517716Y295613D01*
X517958Y295297D01*
X518184Y294969D01*
X518392Y294630D01*
X518582Y294280D01*
X518753Y293921D01*
X518905Y293554D01*
X519038Y293179D01*
X519151Y292797D01*
X519244Y292410D01*
X519316Y292019D01*
X519368Y291624D01*
X519400Y291228D01*
X519410Y290830D01*
Y289830D01*
X519367Y289541D01*
X519300Y289198D01*
X519218Y288858D01*
X519120Y288522D01*
X519007Y288191D01*
X518880Y287866D01*
X518737Y287547D01*
X518579Y287235D01*
X518408Y286930D01*
X518223Y286634D01*
X518024Y286346D01*
X517812Y286068D01*
X517588Y285800D01*
X517351Y285542D01*
X517103Y285296D01*
X516844Y285061D01*
X516575Y284839D01*
X516295Y284629D01*
X516006Y284432D01*
X515709Y284248D01*
X515403Y284079D01*
X515090Y283923D01*
X514770Y283783D01*
X514444Y283657D01*
X514112Y283546D01*
X513776Y283450D01*
X513436Y283370D01*
X513092Y283306D01*
X512746Y283258D01*
X512460Y283230D01*
Y275530D01*
X511160D01*
Y283230D01*
X510874Y283258D01*
X510528Y283306D01*
X510184Y283370D01*
X509844Y283450D01*
X509508Y283546D01*
X509176Y283657D01*
X508850Y283783D01*
X508530Y283923D01*
X508217Y284079D01*
X507911Y284248D01*
X507614Y284432D01*
X507325Y284629D01*
X507045Y284839D01*
X506776Y285061D01*
X506517Y285296D01*
X506269Y285542D01*
X506032Y285800D01*
X505808Y286068D01*
X505596Y286346D01*
X505397Y286634D01*
X505212Y286930D01*
X505041Y287235D01*
X504883Y287547D01*
X504740Y287866D01*
X504613Y288191D01*
X504500Y288522D01*
X504402Y288858D01*
X504320Y289198D01*
X504253Y289541D01*
X504210Y289830D01*
Y290830D01*
X504220Y291228D01*
X504252Y291624D01*
X504304Y292019D01*
X504376Y292410D01*
X504469Y292797D01*
X504582Y293179D01*
X504715Y293554D01*
X504867Y293921D01*
X505038Y294280D01*
X505228Y294630D01*
X505436Y294969D01*
X505662Y295297D01*
X505904Y295613D01*
X506162Y295915D01*
X506436Y296204D01*
X506725Y296478D01*
X507027Y296736D01*
X507343Y296978D01*
X507671Y297204D01*
X508010Y297412D01*
X508360Y297602D01*
X508719Y297773D01*
X509086Y297925D01*
X509462Y298058D01*
X509843Y298171D01*
X510230Y298264D01*
X510621Y298336D01*
X511016Y298388D01*
X511412Y298420D01*
X511810Y298430D01*
X512208Y298420D01*
D02*
G37*
G36*
X486808D02*
X487204Y298388D01*
X487599Y298336D01*
X487990Y298264D01*
X488377Y298171D01*
X488759Y298058D01*
X489134Y297925D01*
X489501Y297773D01*
X489860Y297602D01*
X490210Y297412D01*
X490549Y297204D01*
X490877Y296978D01*
X491193Y296736D01*
X491495Y296478D01*
X491784Y296204D01*
X492058Y295915D01*
X492316Y295613D01*
X492559Y295297D01*
X492784Y294969D01*
X492992Y294630D01*
X493182Y294280D01*
X493353Y293921D01*
X493505Y293554D01*
X493638Y293179D01*
X493751Y292797D01*
X493844Y292410D01*
X493916Y292019D01*
X493968Y291624D01*
X494000Y291228D01*
X494010Y290830D01*
Y289830D01*
X493967Y289541D01*
X493900Y289198D01*
X493818Y288858D01*
X493721Y288522D01*
X493607Y288191D01*
X493479Y287866D01*
X493337Y287547D01*
X493179Y287235D01*
X493008Y286930D01*
X492822Y286634D01*
X492624Y286346D01*
X492412Y286068D01*
X492188Y285800D01*
X491951Y285542D01*
X491703Y285296D01*
X491444Y285061D01*
X491175Y284839D01*
X490895Y284629D01*
X490606Y284432D01*
X490309Y284248D01*
X490003Y284079D01*
X489690Y283923D01*
X489370Y283783D01*
X489044Y283657D01*
X488712Y283546D01*
X488376Y283450D01*
X488036Y283370D01*
X487692Y283306D01*
X487346Y283258D01*
X487060Y283230D01*
Y275530D01*
X485760D01*
Y283230D01*
X485474Y283258D01*
X485128Y283306D01*
X484784Y283370D01*
X484444Y283450D01*
X484108Y283546D01*
X483776Y283657D01*
X483450Y283783D01*
X483130Y283923D01*
X482817Y284079D01*
X482511Y284248D01*
X482214Y284432D01*
X481925Y284629D01*
X481645Y284839D01*
X481376Y285061D01*
X481117Y285296D01*
X480869Y285542D01*
X480632Y285800D01*
X480408Y286068D01*
X480196Y286346D01*
X479997Y286634D01*
X479812Y286930D01*
X479641Y287235D01*
X479483Y287547D01*
X479341Y287866D01*
X479212Y288191D01*
X479100Y288522D01*
X479002Y288858D01*
X478920Y289198D01*
X478853Y289541D01*
X478810Y289830D01*
Y290830D01*
X478820Y291228D01*
X478852Y291624D01*
X478904Y292019D01*
X478976Y292410D01*
X479069Y292797D01*
X479182Y293179D01*
X479315Y293554D01*
X479467Y293921D01*
X479638Y294280D01*
X479828Y294630D01*
X480036Y294969D01*
X480261Y295297D01*
X480504Y295613D01*
X480762Y295915D01*
X481036Y296204D01*
X481325Y296478D01*
X481627Y296736D01*
X481943Y296978D01*
X482271Y297204D01*
X482610Y297412D01*
X482960Y297602D01*
X483319Y297773D01*
X483686Y297925D01*
X484062Y298058D01*
X484443Y298171D01*
X484830Y298264D01*
X485221Y298336D01*
X485616Y298388D01*
X486012Y298420D01*
X486410Y298430D01*
X486808Y298420D01*
D02*
G37*
G36*
X667400Y275570D02*
X667690Y275540D01*
X668030Y275490D01*
X668380Y275430D01*
X668720Y275350D01*
X669050Y275250D01*
X669380Y275140D01*
X669710Y275020D01*
X670030Y274880D01*
X670340Y274720D01*
X670650Y274550D01*
X670950Y274370D01*
X671240Y274170D01*
X671510Y273960D01*
X671780Y273740D01*
X672040Y273500D01*
X672290Y273260D01*
X672530Y273000D01*
X672750Y272730D01*
X672960Y272450D01*
X673160Y272170D01*
X673350Y271870D01*
X673520Y271570D01*
X673680Y271250D01*
X673820Y270930D01*
X673950Y270610D01*
X674060Y270280D01*
X674160Y269940D01*
X674240Y269600D01*
X674310Y269260D01*
X674350Y268970D01*
Y267970D01*
X674340Y267570D01*
X674310Y267180D01*
X674260Y266780D01*
X674180Y266390D01*
X674090Y266000D01*
X673980Y265620D01*
X673850Y265250D01*
X673690Y264880D01*
X673520Y264520D01*
X673330Y264170D01*
X673120Y263830D01*
X672900Y263500D01*
X672660Y263190D01*
X672400Y262880D01*
X672120Y262600D01*
X671840Y262320D01*
X671530Y262060D01*
X671220Y261820D01*
X670890Y261600D01*
X670550Y261390D01*
X670200Y261200D01*
X669840Y261030D01*
X669470Y260870D01*
X669100Y260740D01*
X668720Y260630D01*
X668330Y260540D01*
X667940Y260460D01*
X667540Y260410D01*
X667150Y260380D01*
X666750Y260370D01*
X666350Y260380D01*
X665960Y260410D01*
X665560Y260460D01*
X665170Y260540D01*
X664780Y260630D01*
X664400Y260740D01*
X664030Y260870D01*
X663660Y261030D01*
X663300Y261200D01*
X662950Y261390D01*
X662610Y261600D01*
X662280Y261820D01*
X661970Y262060D01*
X661660Y262320D01*
X661380Y262600D01*
X661100Y262880D01*
X660840Y263190D01*
X660600Y263500D01*
X660380Y263830D01*
X660170Y264170D01*
X659980Y264520D01*
X659810Y264880D01*
X659650Y265250D01*
X659520Y265620D01*
X659410Y266000D01*
X659320Y266390D01*
X659240Y266780D01*
X659190Y267180D01*
X659160Y267570D01*
X659150Y267970D01*
Y268970D01*
X659190Y269260D01*
X659260Y269600D01*
X659340Y269940D01*
X659440Y270280D01*
X659550Y270610D01*
X659680Y270930D01*
X659820Y271250D01*
X659980Y271570D01*
X660150Y271870D01*
X660340Y272170D01*
X660540Y272450D01*
X660750Y272730D01*
X660970Y273000D01*
X661210Y273260D01*
X661460Y273500D01*
X661720Y273740D01*
X661990Y273960D01*
X662260Y274170D01*
X662550Y274370D01*
X662850Y274550D01*
X663160Y274720D01*
X663470Y274880D01*
X663790Y275020D01*
X664120Y275140D01*
X664450Y275250D01*
X664780Y275350D01*
X665120Y275430D01*
X665470Y275490D01*
X665810Y275540D01*
X666100Y275570D01*
Y283270D01*
X667400D01*
Y275570D01*
D02*
G37*
G36*
X642000D02*
X642290Y275540D01*
X642630Y275490D01*
X642980Y275430D01*
X643320Y275350D01*
X643650Y275250D01*
X643980Y275140D01*
X644310Y275020D01*
X644630Y274880D01*
X644940Y274720D01*
X645250Y274550D01*
X645550Y274370D01*
X645840Y274170D01*
X646110Y273960D01*
X646380Y273740D01*
X646640Y273500D01*
X646890Y273260D01*
X647130Y273000D01*
X647350Y272730D01*
X647560Y272450D01*
X647760Y272170D01*
X647950Y271870D01*
X648120Y271570D01*
X648280Y271250D01*
X648420Y270930D01*
X648550Y270610D01*
X648660Y270280D01*
X648760Y269940D01*
X648840Y269600D01*
X648910Y269260D01*
X648950Y268970D01*
Y267970D01*
X648940Y267570D01*
X648910Y267180D01*
X648860Y266780D01*
X648780Y266390D01*
X648690Y266000D01*
X648580Y265620D01*
X648450Y265250D01*
X648290Y264880D01*
X648120Y264520D01*
X647930Y264170D01*
X647720Y263830D01*
X647500Y263500D01*
X647260Y263190D01*
X647000Y262880D01*
X646720Y262600D01*
X646440Y262320D01*
X646130Y262060D01*
X645820Y261820D01*
X645490Y261600D01*
X645150Y261390D01*
X644800Y261200D01*
X644440Y261030D01*
X644070Y260870D01*
X643700Y260740D01*
X643320Y260630D01*
X642930Y260540D01*
X642540Y260460D01*
X642140Y260410D01*
X641750Y260380D01*
X641350Y260370D01*
X640950Y260380D01*
X640560Y260410D01*
X640160Y260460D01*
X639770Y260540D01*
X639380Y260630D01*
X639000Y260740D01*
X638630Y260870D01*
X638260Y261030D01*
X637900Y261200D01*
X637550Y261390D01*
X637210Y261600D01*
X636880Y261820D01*
X636570Y262060D01*
X636260Y262320D01*
X635980Y262600D01*
X635700Y262880D01*
X635440Y263190D01*
X635200Y263500D01*
X634980Y263830D01*
X634770Y264170D01*
X634580Y264520D01*
X634410Y264880D01*
X634250Y265250D01*
X634120Y265620D01*
X634010Y266000D01*
X633920Y266390D01*
X633840Y266780D01*
X633790Y267180D01*
X633760Y267570D01*
X633750Y267970D01*
Y268970D01*
X633790Y269260D01*
X633860Y269600D01*
X633940Y269940D01*
X634040Y270280D01*
X634150Y270610D01*
X634280Y270930D01*
X634420Y271250D01*
X634580Y271570D01*
X634750Y271870D01*
X634940Y272170D01*
X635140Y272450D01*
X635350Y272730D01*
X635570Y273000D01*
X635810Y273260D01*
X636060Y273500D01*
X636320Y273740D01*
X636590Y273960D01*
X636860Y274170D01*
X637150Y274370D01*
X637450Y274550D01*
X637760Y274720D01*
X638070Y274880D01*
X638390Y275020D01*
X638720Y275140D01*
X639050Y275250D01*
X639380Y275350D01*
X639720Y275430D01*
X640070Y275490D01*
X640410Y275540D01*
X640700Y275570D01*
Y283270D01*
X642000D01*
Y275570D01*
D02*
G37*
G36*
X762650Y271760D02*
X762940Y271730D01*
X763280Y271680D01*
X763630Y271620D01*
X763970Y271540D01*
X764300Y271440D01*
X764630Y271330D01*
X764960Y271210D01*
X765280Y271070D01*
X765590Y270910D01*
X765900Y270740D01*
X766200Y270560D01*
X766490Y270360D01*
X766760Y270150D01*
X767030Y269930D01*
X767290Y269690D01*
X767540Y269450D01*
X767780Y269190D01*
X768000Y268920D01*
X768210Y268640D01*
X768410Y268360D01*
X768600Y268060D01*
X768770Y267760D01*
X768930Y267440D01*
X769070Y267120D01*
X769200Y266800D01*
X769310Y266470D01*
X769410Y266130D01*
X769490Y265790D01*
X769560Y265450D01*
X769600Y265160D01*
Y264160D01*
X769590Y263760D01*
X769560Y263370D01*
X769510Y262970D01*
X769430Y262580D01*
X769340Y262190D01*
X769230Y261810D01*
X769100Y261440D01*
X768940Y261070D01*
X768770Y260710D01*
X768580Y260360D01*
X768370Y260020D01*
X768150Y259690D01*
X767910Y259380D01*
X767650Y259070D01*
X767370Y258790D01*
X767090Y258510D01*
X766780Y258250D01*
X766470Y258010D01*
X766140Y257790D01*
X765800Y257580D01*
X765450Y257390D01*
X765090Y257220D01*
X764720Y257060D01*
X764350Y256930D01*
X763970Y256820D01*
X763580Y256730D01*
X763190Y256650D01*
X762790Y256600D01*
X762400Y256570D01*
X762000Y256560D01*
X761600Y256570D01*
X761210Y256600D01*
X760810Y256650D01*
X760420Y256730D01*
X760030Y256820D01*
X759650Y256930D01*
X759280Y257060D01*
X758910Y257220D01*
X758550Y257390D01*
X758200Y257580D01*
X757860Y257790D01*
X757530Y258010D01*
X757220Y258250D01*
X756910Y258510D01*
X756630Y258790D01*
X756350Y259070D01*
X756090Y259380D01*
X755850Y259690D01*
X755630Y260020D01*
X755420Y260360D01*
X755230Y260710D01*
X755060Y261070D01*
X754900Y261440D01*
X754770Y261810D01*
X754660Y262190D01*
X754570Y262580D01*
X754490Y262970D01*
X754440Y263370D01*
X754410Y263760D01*
X754400Y264160D01*
Y265160D01*
X754440Y265450D01*
X754510Y265790D01*
X754590Y266130D01*
X754690Y266470D01*
X754800Y266800D01*
X754930Y267120D01*
X755070Y267440D01*
X755230Y267760D01*
X755400Y268060D01*
X755590Y268360D01*
X755790Y268640D01*
X756000Y268920D01*
X756220Y269190D01*
X756460Y269450D01*
X756710Y269690D01*
X756970Y269930D01*
X757240Y270150D01*
X757510Y270360D01*
X757800Y270560D01*
X758100Y270740D01*
X758410Y270910D01*
X758720Y271070D01*
X759040Y271210D01*
X759370Y271330D01*
X759700Y271440D01*
X760030Y271540D01*
X760370Y271620D01*
X760720Y271680D01*
X761060Y271730D01*
X761350Y271760D01*
Y279460D01*
X762650D01*
Y271760D01*
D02*
G37*
G36*
X737250D02*
X737540Y271730D01*
X737880Y271680D01*
X738230Y271620D01*
X738570Y271540D01*
X738900Y271440D01*
X739230Y271330D01*
X739560Y271210D01*
X739880Y271070D01*
X740190Y270910D01*
X740500Y270740D01*
X740800Y270560D01*
X741090Y270360D01*
X741360Y270150D01*
X741630Y269930D01*
X741890Y269690D01*
X742140Y269450D01*
X742380Y269190D01*
X742600Y268920D01*
X742810Y268640D01*
X743010Y268360D01*
X743200Y268060D01*
X743370Y267760D01*
X743530Y267440D01*
X743670Y267120D01*
X743800Y266800D01*
X743910Y266470D01*
X744010Y266130D01*
X744090Y265790D01*
X744160Y265450D01*
X744200Y265160D01*
Y264160D01*
X744190Y263760D01*
X744160Y263370D01*
X744110Y262970D01*
X744030Y262580D01*
X743940Y262190D01*
X743830Y261810D01*
X743700Y261440D01*
X743540Y261070D01*
X743370Y260710D01*
X743180Y260360D01*
X742970Y260020D01*
X742750Y259690D01*
X742510Y259380D01*
X742250Y259070D01*
X741970Y258790D01*
X741690Y258510D01*
X741380Y258250D01*
X741070Y258010D01*
X740740Y257790D01*
X740400Y257580D01*
X740050Y257390D01*
X739690Y257220D01*
X739320Y257060D01*
X738950Y256930D01*
X738570Y256820D01*
X738180Y256730D01*
X737790Y256650D01*
X737390Y256600D01*
X737000Y256570D01*
X736600Y256560D01*
X736200Y256570D01*
X735810Y256600D01*
X735410Y256650D01*
X735020Y256730D01*
X734630Y256820D01*
X734250Y256930D01*
X733880Y257060D01*
X733510Y257220D01*
X733150Y257390D01*
X732800Y257580D01*
X732460Y257790D01*
X732130Y258010D01*
X731820Y258250D01*
X731510Y258510D01*
X731230Y258790D01*
X730950Y259070D01*
X730690Y259380D01*
X730450Y259690D01*
X730230Y260020D01*
X730020Y260360D01*
X729830Y260710D01*
X729660Y261070D01*
X729500Y261440D01*
X729370Y261810D01*
X729260Y262190D01*
X729170Y262580D01*
X729090Y262970D01*
X729040Y263370D01*
X729010Y263760D01*
X729000Y264160D01*
Y265160D01*
X729040Y265450D01*
X729110Y265790D01*
X729190Y266130D01*
X729290Y266470D01*
X729400Y266800D01*
X729530Y267120D01*
X729670Y267440D01*
X729830Y267760D01*
X730000Y268060D01*
X730190Y268360D01*
X730390Y268640D01*
X730600Y268920D01*
X730820Y269190D01*
X731060Y269450D01*
X731310Y269690D01*
X731570Y269930D01*
X731840Y270150D01*
X732110Y270360D01*
X732400Y270560D01*
X732700Y270740D01*
X733010Y270910D01*
X733320Y271070D01*
X733640Y271210D01*
X733970Y271330D01*
X734300Y271440D01*
X734630Y271540D01*
X734970Y271620D01*
X735320Y271680D01*
X735660Y271730D01*
X735950Y271760D01*
Y279460D01*
X737250D01*
Y271760D01*
D02*
G37*
G36*
X667540Y250130D02*
X668330Y250000D01*
X669100Y249800D01*
X669840Y249510D01*
X670550Y249150D01*
X671220Y248720D01*
X671840Y248220D01*
X672400Y247660D01*
X672900Y247040D01*
X673330Y246370D01*
X673690Y245660D01*
X673980Y244920D01*
X674180Y244150D01*
X674310Y243360D01*
X674350Y242570D01*
X674340Y242190D01*
X674310Y241810D01*
X674270Y241440D01*
X674200Y241060D01*
X674120Y240700D01*
X674020Y240330D01*
X673900Y239980D01*
X673760Y239630D01*
X673610Y239280D01*
X673440Y238940D01*
X673250Y238620D01*
X673050Y238300D01*
X672830Y237990D01*
X672600Y237700D01*
X672350Y237410D01*
X672090Y237140D01*
X671810Y236880D01*
X671520Y236640D01*
X671230Y236410D01*
X670920Y236190D01*
X670600Y235990D01*
X670270Y235810D01*
X669930Y235650D01*
X669580Y235500D01*
X669230Y235360D01*
X668870Y235250D01*
X668510Y235150D01*
X668140Y235070D01*
X667770Y235010D01*
X667400Y234970D01*
Y227270D01*
X666100D01*
Y234970D01*
X665730Y235010D01*
X665360Y235070D01*
X664990Y235150D01*
X664630Y235250D01*
X664270Y235360D01*
X663920Y235500D01*
X663570Y235650D01*
X663230Y235810D01*
X662900Y235990D01*
X662580Y236190D01*
X662270Y236410D01*
X661980Y236640D01*
X661690Y236880D01*
X661410Y237140D01*
X661150Y237410D01*
X660900Y237700D01*
X660670Y237990D01*
X660450Y238300D01*
X660250Y238620D01*
X660060Y238940D01*
X659890Y239280D01*
X659740Y239630D01*
X659600Y239980D01*
X659480Y240330D01*
X659380Y240700D01*
X659300Y241060D01*
X659230Y241440D01*
X659190Y241810D01*
X659160Y242190D01*
X659150Y242570D01*
X659190Y243360D01*
X659320Y244150D01*
X659520Y244920D01*
X659810Y245660D01*
X660170Y246370D01*
X660600Y247040D01*
X661100Y247660D01*
X661660Y248220D01*
X662280Y248720D01*
X662950Y249150D01*
X663660Y249510D01*
X664400Y249800D01*
X665170Y250000D01*
X665960Y250130D01*
X666750Y250170D01*
X667540Y250130D01*
D02*
G37*
G36*
X642140D02*
X642930Y250000D01*
X643700Y249800D01*
X644440Y249510D01*
X645150Y249150D01*
X645820Y248720D01*
X646440Y248220D01*
X647000Y247660D01*
X647500Y247040D01*
X647930Y246370D01*
X648290Y245660D01*
X648580Y244920D01*
X648780Y244150D01*
X648910Y243360D01*
X648950Y242570D01*
X648940Y242190D01*
X648910Y241810D01*
X648870Y241440D01*
X648800Y241060D01*
X648720Y240700D01*
X648620Y240330D01*
X648500Y239980D01*
X648360Y239630D01*
X648210Y239280D01*
X648040Y238940D01*
X647850Y238620D01*
X647650Y238300D01*
X647430Y237990D01*
X647200Y237700D01*
X646950Y237410D01*
X646690Y237140D01*
X646410Y236880D01*
X646120Y236640D01*
X645830Y236410D01*
X645520Y236190D01*
X645200Y235990D01*
X644870Y235810D01*
X644530Y235650D01*
X644180Y235500D01*
X643830Y235360D01*
X643470Y235250D01*
X643110Y235150D01*
X642740Y235070D01*
X642370Y235010D01*
X642000Y234970D01*
Y227270D01*
X640700D01*
Y234970D01*
X640330Y235010D01*
X639960Y235070D01*
X639590Y235150D01*
X639230Y235250D01*
X638870Y235360D01*
X638520Y235500D01*
X638170Y235650D01*
X637830Y235810D01*
X637500Y235990D01*
X637180Y236190D01*
X636870Y236410D01*
X636580Y236640D01*
X636290Y236880D01*
X636010Y237140D01*
X635750Y237410D01*
X635500Y237700D01*
X635270Y237990D01*
X635050Y238300D01*
X634850Y238620D01*
X634660Y238940D01*
X634490Y239280D01*
X634340Y239630D01*
X634200Y239980D01*
X634080Y240330D01*
X633980Y240700D01*
X633900Y241060D01*
X633830Y241440D01*
X633790Y241810D01*
X633760Y242190D01*
X633750Y242570D01*
X633790Y243360D01*
X633920Y244150D01*
X634120Y244920D01*
X634410Y245660D01*
X634770Y246370D01*
X635200Y247040D01*
X635700Y247660D01*
X636260Y248220D01*
X636880Y248720D01*
X637550Y249150D01*
X638260Y249510D01*
X639000Y249800D01*
X639770Y250000D01*
X640560Y250130D01*
X641350Y250170D01*
X642140Y250130D01*
D02*
G37*
G36*
X762790Y246320D02*
X763580Y246190D01*
X764350Y245990D01*
X765090Y245700D01*
X765800Y245340D01*
X766470Y244910D01*
X767090Y244410D01*
X767650Y243850D01*
X768150Y243230D01*
X768580Y242560D01*
X768940Y241850D01*
X769230Y241110D01*
X769430Y240340D01*
X769560Y239550D01*
X769600Y238760D01*
X769590Y238380D01*
X769560Y238000D01*
X769520Y237630D01*
X769450Y237250D01*
X769370Y236890D01*
X769270Y236520D01*
X769150Y236170D01*
X769010Y235820D01*
X768860Y235470D01*
X768690Y235130D01*
X768500Y234810D01*
X768300Y234490D01*
X768080Y234180D01*
X767850Y233890D01*
X767600Y233600D01*
X767340Y233330D01*
X767060Y233070D01*
X766770Y232830D01*
X766480Y232600D01*
X766170Y232380D01*
X765850Y232180D01*
X765520Y232000D01*
X765180Y231840D01*
X764830Y231690D01*
X764480Y231550D01*
X764120Y231440D01*
X763760Y231340D01*
X763390Y231260D01*
X763020Y231200D01*
X762650Y231160D01*
Y223460D01*
X761350D01*
Y231160D01*
X760980Y231200D01*
X760610Y231260D01*
X760240Y231340D01*
X759880Y231440D01*
X759520Y231550D01*
X759170Y231690D01*
X758820Y231840D01*
X758480Y232000D01*
X758150Y232180D01*
X757830Y232380D01*
X757520Y232600D01*
X757230Y232830D01*
X756940Y233070D01*
X756660Y233330D01*
X756400Y233600D01*
X756150Y233890D01*
X755920Y234180D01*
X755700Y234490D01*
X755500Y234810D01*
X755310Y235130D01*
X755140Y235470D01*
X754990Y235820D01*
X754850Y236170D01*
X754730Y236520D01*
X754630Y236890D01*
X754550Y237250D01*
X754480Y237630D01*
X754440Y238000D01*
X754410Y238380D01*
X754400Y238760D01*
X754440Y239550D01*
X754570Y240340D01*
X754770Y241110D01*
X755060Y241850D01*
X755420Y242560D01*
X755850Y243230D01*
X756350Y243850D01*
X756910Y244410D01*
X757530Y244910D01*
X758200Y245340D01*
X758910Y245700D01*
X759650Y245990D01*
X760420Y246190D01*
X761210Y246320D01*
X762000Y246360D01*
X762790Y246320D01*
D02*
G37*
G36*
X737390D02*
X738180Y246190D01*
X738950Y245990D01*
X739690Y245700D01*
X740400Y245340D01*
X741070Y244910D01*
X741690Y244410D01*
X742250Y243850D01*
X742750Y243230D01*
X743180Y242560D01*
X743540Y241850D01*
X743830Y241110D01*
X744030Y240340D01*
X744160Y239550D01*
X744200Y238760D01*
X744190Y238380D01*
X744160Y238000D01*
X744120Y237630D01*
X744050Y237250D01*
X743970Y236890D01*
X743870Y236520D01*
X743750Y236170D01*
X743610Y235820D01*
X743460Y235470D01*
X743290Y235130D01*
X743100Y234810D01*
X742900Y234490D01*
X742680Y234180D01*
X742450Y233890D01*
X742200Y233600D01*
X741940Y233330D01*
X741660Y233070D01*
X741370Y232830D01*
X741080Y232600D01*
X740770Y232380D01*
X740450Y232180D01*
X740120Y232000D01*
X739780Y231840D01*
X739430Y231690D01*
X739080Y231550D01*
X738720Y231440D01*
X738360Y231340D01*
X737990Y231260D01*
X737620Y231200D01*
X737250Y231160D01*
Y223460D01*
X735950D01*
Y231160D01*
X735580Y231200D01*
X735210Y231260D01*
X734840Y231340D01*
X734480Y231440D01*
X734120Y231550D01*
X733770Y231690D01*
X733420Y231840D01*
X733080Y232000D01*
X732750Y232180D01*
X732430Y232380D01*
X732120Y232600D01*
X731830Y232830D01*
X731540Y233070D01*
X731260Y233330D01*
X731000Y233600D01*
X730750Y233890D01*
X730520Y234180D01*
X730300Y234490D01*
X730100Y234810D01*
X729910Y235130D01*
X729740Y235470D01*
X729590Y235820D01*
X729450Y236170D01*
X729330Y236520D01*
X729230Y236890D01*
X729150Y237250D01*
X729080Y237630D01*
X729040Y238000D01*
X729010Y238380D01*
X729000Y238760D01*
X729040Y239550D01*
X729170Y240340D01*
X729370Y241110D01*
X729660Y241850D01*
X730020Y242560D01*
X730450Y243230D01*
X730950Y243850D01*
X731510Y244410D01*
X732130Y244910D01*
X732800Y245340D01*
X733510Y245700D01*
X734250Y245990D01*
X735020Y246190D01*
X735810Y246320D01*
X736600Y246360D01*
X737390Y246320D01*
D02*
G37*
G36*
X227330Y152400D02*
X189230D01*
Y180006D01*
X192405D01*
Y164465D01*
X205740D01*
Y184150D01*
Y203835D01*
X192405D01*
Y188294D01*
X189230D01*
Y200660D01*
X198120Y209550D01*
Y232749D01*
X204908D01*
Y242570D01*
X206178D01*
Y243840D01*
X215241D01*
Y252351D01*
X227330D01*
Y152400D01*
D02*
G37*
G36*
X133350Y199390D02*
X144780Y187960D01*
X146130D01*
Y185420D01*
X153670D01*
Y182880D01*
X146130D01*
Y178110D01*
Y175920D01*
X153670D01*
Y174650D01*
X154940D01*
Y168610D01*
X161210D01*
X162560Y166629D01*
Y166370D01*
X180340Y148590D01*
Y78740D01*
X173651D01*
Y85090D01*
X163830D01*
X154009D01*
Y78740D01*
X149860D01*
X114301Y114299D01*
X115090Y116205D01*
Y139440D01*
Y162041D01*
X111860D01*
X110022Y161799D01*
X108310Y161089D01*
X107950Y160814D01*
X105410Y162066D01*
Y197152D01*
X107815Y197479D01*
X107950Y197479D01*
X116608D01*
Y209550D01*
Y221621D01*
X107950D01*
X107815Y221621D01*
X105410Y221948D01*
Y234950D01*
X133350D01*
Y199390D01*
D02*
G37*
G36*
X44450Y284480D02*
X51051Y277879D01*
X50660Y276934D01*
Y267180D01*
X56329D01*
Y270610D01*
X57737Y271193D01*
X62230Y266700D01*
Y245110D01*
X91440D01*
X97790Y238760D01*
X103760Y232526D01*
Y221948D01*
X103963Y221460D01*
X104097Y220949D01*
X104199Y220890D01*
X104244Y220781D01*
X104732Y220579D01*
X105188Y220313D01*
X107592Y219986D01*
X108389Y219418D01*
X108831Y218861D01*
Y200239D01*
X108389Y199682D01*
X107592Y199114D01*
X105188Y198787D01*
X104732Y198521D01*
X104244Y198319D01*
X104199Y198210D01*
X104097Y198151D01*
X103963Y197640D01*
X103760Y197152D01*
Y162066D01*
X103866Y161811D01*
X103848Y161536D01*
X104098Y161250D01*
X104244Y160900D01*
X104499Y160794D01*
X104680Y160587D01*
X106090Y159891D01*
X106634Y157961D01*
X106186Y157290D01*
X105718Y154940D01*
Y123940D01*
X106186Y121590D01*
X107517Y119597D01*
X109510Y118265D01*
X111860Y117798D01*
X112714D01*
X113333Y116274D01*
X112777Y114930D01*
Y114602D01*
X112651Y114299D01*
X112777Y113996D01*
Y113668D01*
X113009Y113436D01*
X113134Y113133D01*
X148694Y77574D01*
X149860Y77090D01*
X154009D01*
Y71514D01*
X163830D01*
X173651D01*
Y77090D01*
X180340D01*
X181506Y77574D01*
X181990Y78740D01*
Y113814D01*
X182977Y114929D01*
X183514Y114929D01*
X191770D01*
Y127000D01*
Y139071D01*
X183514D01*
X182977Y139071D01*
X181990Y140186D01*
Y148590D01*
X181951Y148682D01*
X183250Y149530D01*
X184150Y148590D01*
X245110D01*
Y140045D01*
X244990Y138571D01*
X243586Y138571D01*
X234950D01*
Y127000D01*
Y115429D01*
X243586D01*
X244990Y115429D01*
X245110Y113955D01*
Y95391D01*
X237159D01*
Y83820D01*
Y72249D01*
X245110D01*
Y49530D01*
X243840Y48260D01*
X30530D01*
Y51839D01*
X32054Y52719D01*
X32129Y52676D01*
X34290Y52097D01*
Y59690D01*
X26697D01*
X27259Y57592D01*
X26109Y56441D01*
X25547Y55601D01*
X25350Y54610D01*
Y48260D01*
X20320D01*
Y336550D01*
X20846Y337820D01*
X44450D01*
Y284480D01*
D02*
G37*
%LPC*%
G36*
X210450Y485740D02*
X201930D01*
Y478470D01*
X210450D01*
Y485740D01*
D02*
G37*
G36*
X199390D02*
X190870D01*
Y478470D01*
X199390D01*
Y485740D01*
D02*
G37*
G36*
X216061Y389890D02*
X207010D01*
Y381347D01*
X216061D01*
Y389890D01*
D02*
G37*
G36*
X71120Y336531D02*
X60902D01*
X59088Y336292D01*
X57397Y335591D01*
X55945Y334477D01*
X54830Y333025D01*
X54130Y331334D01*
X53891Y329519D01*
Y327180D01*
X71120D01*
Y336531D01*
D02*
G37*
G36*
X144890Y320990D02*
X134620D01*
Y313450D01*
Y305910D01*
X144890D01*
Y309306D01*
X159859D01*
Y308978D01*
X168910D01*
Y317521D01*
X164803D01*
X164438Y317594D01*
X144890D01*
Y320990D01*
D02*
G37*
G36*
X132080Y312180D02*
X121810D01*
Y305910D01*
X132080D01*
Y312180D01*
D02*
G37*
G36*
X215241Y241300D02*
X207448D01*
Y232749D01*
X215241D01*
Y241300D01*
D02*
G37*
G36*
X221615Y203835D02*
X208280D01*
Y185420D01*
X221615D01*
Y203835D01*
D02*
G37*
G36*
Y182880D02*
X208280D01*
Y164465D01*
X221615D01*
Y182880D01*
D02*
G37*
G36*
X119148Y221621D02*
Y210820D01*
X127941D01*
Y221621D01*
X119148D01*
D02*
G37*
G36*
X127941Y208280D02*
X119148D01*
Y197479D01*
X127941D01*
Y208280D01*
D02*
G37*
G36*
X152400Y173380D02*
X146130D01*
Y168610D01*
X152400D01*
Y173380D01*
D02*
G37*
G36*
X120860Y162041D02*
X117630D01*
Y140710D01*
X127961D01*
Y154940D01*
X127719Y156778D01*
X127009Y158490D01*
X125881Y159961D01*
X124410Y161089D01*
X122698Y161799D01*
X120860Y162041D01*
D02*
G37*
G36*
X173088Y139071D02*
X164294D01*
Y128270D01*
X173088D01*
Y139071D01*
D02*
G37*
G36*
X161754D02*
X152961D01*
Y128270D01*
X161754D01*
Y139071D01*
D02*
G37*
G36*
X127961Y138170D02*
X117630D01*
Y116839D01*
X120860D01*
X122698Y117081D01*
X124410Y117791D01*
X125881Y118919D01*
X127009Y120390D01*
X127719Y122102D01*
X127961Y123940D01*
Y138170D01*
D02*
G37*
G36*
X173088Y125730D02*
X164294D01*
Y114929D01*
X173088D01*
Y125730D01*
D02*
G37*
G36*
X161754D02*
X152961D01*
Y114929D01*
X161754D01*
Y125730D01*
D02*
G37*
G36*
X173651Y95423D02*
X165100D01*
Y87630D01*
X173651D01*
Y95423D01*
D02*
G37*
G36*
X162560D02*
X154009D01*
Y87630D01*
X162560D01*
Y95423D01*
D02*
G37*
G36*
X48120Y276471D02*
X42451D01*
Y267180D01*
X48120D01*
Y276471D01*
D02*
G37*
G36*
X56329Y264640D02*
X50660D01*
Y255349D01*
X56329D01*
Y264640D01*
D02*
G37*
G36*
X48120D02*
X42451D01*
Y255349D01*
X48120D01*
Y264640D01*
D02*
G37*
G36*
X34290Y242543D02*
Y234950D01*
X41883D01*
X41304Y237111D01*
X40134Y239139D01*
X38479Y240794D01*
X36451Y241964D01*
X34290Y242543D01*
D02*
G37*
G36*
X31750D02*
X29589Y241964D01*
X27561Y240794D01*
X25906Y239139D01*
X24736Y237111D01*
X24157Y234950D01*
X31750D01*
Y242543D01*
D02*
G37*
G36*
X58420Y241273D02*
Y233680D01*
X66013D01*
X65434Y235841D01*
X64264Y237869D01*
X62609Y239524D01*
X60581Y240694D01*
X58420Y241273D01*
D02*
G37*
G36*
X55880D02*
X53719Y240694D01*
X51691Y239524D01*
X50036Y237869D01*
X48866Y235841D01*
X48287Y233680D01*
X55880D01*
Y241273D01*
D02*
G37*
G36*
X41883Y232410D02*
X34290D01*
Y224817D01*
X36451Y225396D01*
X38479Y226566D01*
X40134Y228221D01*
X41304Y230249D01*
X41883Y232410D01*
D02*
G37*
G36*
X31750D02*
X24157D01*
X24736Y230249D01*
X25906Y228221D01*
X27561Y226566D01*
X29589Y225396D01*
X31750Y224817D01*
Y232410D01*
D02*
G37*
G36*
X66013Y231140D02*
X58420D01*
Y223547D01*
X60581Y224126D01*
X62609Y225296D01*
X64264Y226951D01*
X65434Y228979D01*
X66013Y231140D01*
D02*
G37*
G36*
X55880D02*
X48287D01*
X48866Y228979D01*
X50036Y226951D01*
X51691Y225296D01*
X53719Y224126D01*
X55880Y223547D01*
Y231140D01*
D02*
G37*
G36*
X36830Y219683D02*
Y212090D01*
X44423D01*
X43844Y214251D01*
X42674Y216279D01*
X41019Y217934D01*
X38991Y219104D01*
X36830Y219683D01*
D02*
G37*
G36*
X34290D02*
X32129Y219104D01*
X30101Y217934D01*
X28446Y216279D01*
X27276Y214251D01*
X26697Y212090D01*
X34290D01*
Y219683D01*
D02*
G37*
G36*
X97925Y221621D02*
X89132D01*
Y210820D01*
X97925D01*
Y221621D01*
D02*
G37*
G36*
X62230Y218413D02*
Y210820D01*
X69823D01*
X69244Y212981D01*
X68074Y215009D01*
X66419Y216664D01*
X64391Y217834D01*
X62230Y218413D01*
D02*
G37*
G36*
X59690D02*
X57529Y217834D01*
X55501Y216664D01*
X53846Y215009D01*
X52676Y212981D01*
X52097Y210820D01*
X59690D01*
Y218413D01*
D02*
G37*
G36*
X86592Y221621D02*
X77799D01*
Y210820D01*
X86592D01*
Y221621D01*
D02*
G37*
G36*
X44423Y209550D02*
X36830D01*
Y201957D01*
X38991Y202536D01*
X41019Y203706D01*
X42674Y205361D01*
X43844Y207389D01*
X44423Y209550D01*
D02*
G37*
G36*
X34290D02*
X26697D01*
X27276Y207389D01*
X28446Y205361D01*
X30101Y203706D01*
X32129Y202536D01*
X34290Y201957D01*
Y209550D01*
D02*
G37*
G36*
X69823Y208280D02*
X62230D01*
Y200687D01*
X64391Y201266D01*
X66419Y202436D01*
X68074Y204091D01*
X69244Y206119D01*
X69823Y208280D01*
D02*
G37*
G36*
X59690D02*
X52097D01*
X52676Y206119D01*
X53846Y204091D01*
X55501Y202436D01*
X57529Y201266D01*
X59690Y200687D01*
Y208280D01*
D02*
G37*
G36*
X97925D02*
X89132D01*
Y197479D01*
X97925D01*
Y208280D01*
D02*
G37*
G36*
X86592D02*
X77799D01*
Y197479D01*
X86592D01*
Y208280D01*
D02*
G37*
G36*
X62860Y162041D02*
X59630D01*
Y140710D01*
X69961D01*
Y154940D01*
X69719Y156778D01*
X69009Y158490D01*
X67881Y159961D01*
X66410Y161089D01*
X64698Y161799D01*
X62860Y162041D01*
D02*
G37*
G36*
X57090D02*
X53860D01*
X52022Y161799D01*
X50310Y161089D01*
X48839Y159961D01*
X47711Y158490D01*
X47001Y156778D01*
X46759Y154940D01*
Y140710D01*
X57090D01*
Y162041D01*
D02*
G37*
G36*
X194310Y139071D02*
Y128270D01*
X203103D01*
Y139071D01*
X194310D01*
D02*
G37*
G36*
X232410Y138571D02*
X222370D01*
Y128270D01*
X232410D01*
Y138571D01*
D02*
G37*
G36*
X69961Y138170D02*
X59630D01*
Y116839D01*
X62860D01*
X64698Y117081D01*
X66410Y117791D01*
X67881Y118919D01*
X69009Y120390D01*
X69719Y122102D01*
X69961Y123940D01*
Y138170D01*
D02*
G37*
G36*
X57090D02*
X46759D01*
Y123940D01*
X47001Y122102D01*
X47711Y120390D01*
X48839Y118919D01*
X50310Y117791D01*
X52022Y117081D01*
X53860Y116839D01*
X57090D01*
Y138170D01*
D02*
G37*
G36*
X232410Y125730D02*
X222370D01*
Y115429D01*
X232410D01*
Y125730D01*
D02*
G37*
G36*
X203103D02*
X194310D01*
Y114929D01*
X203103D01*
Y125730D01*
D02*
G37*
G36*
X203200Y101573D02*
Y93980D01*
X210793D01*
X210214Y96141D01*
X209044Y98169D01*
X207389Y99824D01*
X205361Y100994D01*
X203200Y101573D01*
D02*
G37*
G36*
X200660D02*
X198499Y100994D01*
X196471Y99824D01*
X194816Y98169D01*
X193646Y96141D01*
X193067Y93980D01*
X200660D01*
Y101573D01*
D02*
G37*
G36*
X101860Y103041D02*
X87630D01*
Y92710D01*
X108961D01*
Y95940D01*
X108719Y97778D01*
X108009Y99490D01*
X106881Y100961D01*
X105410Y102089D01*
X103698Y102799D01*
X101860Y103041D01*
D02*
G37*
G36*
X85090D02*
X70860D01*
X69022Y102799D01*
X67310Y102089D01*
X65839Y100961D01*
X64711Y99490D01*
X64001Y97778D01*
X63759Y95940D01*
Y92710D01*
X85090D01*
Y103041D01*
D02*
G37*
G36*
X234619Y95391D02*
X224579D01*
Y85090D01*
X234619D01*
Y95391D01*
D02*
G37*
G36*
X210793Y91440D02*
X203200D01*
Y83847D01*
X205361Y84426D01*
X207389Y85596D01*
X209044Y87251D01*
X210214Y89279D01*
X210793Y91440D01*
D02*
G37*
G36*
X200660D02*
X193067D01*
X193646Y89279D01*
X194816Y87251D01*
X196471Y85596D01*
X198499Y84426D01*
X200660Y83847D01*
Y91440D01*
D02*
G37*
G36*
X128630Y90143D02*
Y82550D01*
X136223D01*
X135644Y84711D01*
X134474Y86739D01*
X132819Y88394D01*
X130791Y89564D01*
X128630Y90143D01*
D02*
G37*
G36*
X126090D02*
X123929Y89564D01*
X121901Y88394D01*
X120246Y86739D01*
X119076Y84711D01*
X118497Y82550D01*
X126090D01*
Y90143D01*
D02*
G37*
G36*
X38100D02*
Y82550D01*
X45693D01*
X45114Y84711D01*
X43944Y86739D01*
X42289Y88394D01*
X40261Y89564D01*
X38100Y90143D01*
D02*
G37*
G36*
X35560D02*
X33399Y89564D01*
X31371Y88394D01*
X29716Y86739D01*
X28546Y84711D01*
X27967Y82550D01*
X35560D01*
Y90143D01*
D02*
G37*
G36*
X108961Y90170D02*
X87630D01*
Y79839D01*
X101860D01*
X103698Y80081D01*
X105410Y80791D01*
X106881Y81919D01*
X108009Y83390D01*
X108719Y85102D01*
X108961Y86940D01*
Y90170D01*
D02*
G37*
G36*
X85090D02*
X63759D01*
Y86940D01*
X64001Y85102D01*
X64711Y83390D01*
X65839Y81919D01*
X67310Y80791D01*
X69022Y80081D01*
X70860Y79839D01*
X85090D01*
Y90170D01*
D02*
G37*
G36*
X136223Y80010D02*
X128630D01*
Y72417D01*
X130791Y72996D01*
X132819Y74166D01*
X134474Y75821D01*
X135644Y77849D01*
X136223Y80010D01*
D02*
G37*
G36*
X126090D02*
X118497D01*
X119076Y77849D01*
X120246Y75821D01*
X121901Y74166D01*
X123929Y72996D01*
X126090Y72417D01*
Y80010D01*
D02*
G37*
G36*
X45693D02*
X38100D01*
Y72417D01*
X40261Y72996D01*
X42289Y74166D01*
X43944Y75821D01*
X45114Y77849D01*
X45693Y80010D01*
D02*
G37*
G36*
X35560D02*
X27967D01*
X28546Y77849D01*
X29716Y75821D01*
X31371Y74166D01*
X33399Y72996D01*
X35560Y72417D01*
Y80010D01*
D02*
G37*
G36*
X234619Y82550D02*
X224579D01*
Y72249D01*
X234619D01*
Y82550D01*
D02*
G37*
G36*
X203200Y77443D02*
Y69850D01*
X210793D01*
X210214Y72011D01*
X209044Y74039D01*
X207389Y75694D01*
X205361Y76864D01*
X203200Y77443D01*
D02*
G37*
G36*
X200660D02*
X198499Y76864D01*
X196471Y75694D01*
X194816Y74039D01*
X193646Y72011D01*
X193067Y69850D01*
X200660D01*
Y77443D01*
D02*
G37*
G36*
X127000Y69823D02*
Y62230D01*
X134593D01*
X134014Y64391D01*
X132844Y66419D01*
X131189Y68074D01*
X129161Y69244D01*
X127000Y69823D01*
D02*
G37*
G36*
X124460D02*
X122299Y69244D01*
X120271Y68074D01*
X118616Y66419D01*
X117446Y64391D01*
X116867Y62230D01*
X124460D01*
Y69823D01*
D02*
G37*
G36*
X105410D02*
Y62230D01*
X113003D01*
X112424Y64391D01*
X111254Y66419D01*
X109599Y68074D01*
X107571Y69244D01*
X105410Y69823D01*
D02*
G37*
G36*
X102870D02*
X100709Y69244D01*
X98681Y68074D01*
X97026Y66419D01*
X95856Y64391D01*
X95277Y62230D01*
X102870D01*
Y69823D01*
D02*
G37*
G36*
X80010D02*
Y62230D01*
X87603D01*
X87024Y64391D01*
X85854Y66419D01*
X84199Y68074D01*
X82171Y69244D01*
X80010Y69823D01*
D02*
G37*
G36*
X77470D02*
X75309Y69244D01*
X73281Y68074D01*
X71626Y66419D01*
X70456Y64391D01*
X69877Y62230D01*
X77470D01*
Y69823D01*
D02*
G37*
G36*
X59690D02*
Y62230D01*
X67283D01*
X66704Y64391D01*
X65534Y66419D01*
X63879Y68074D01*
X61851Y69244D01*
X59690Y69823D01*
D02*
G37*
G36*
X57150D02*
X54989Y69244D01*
X52961Y68074D01*
X51306Y66419D01*
X50136Y64391D01*
X49557Y62230D01*
X57150D01*
Y69823D01*
D02*
G37*
G36*
X36830D02*
Y62230D01*
X44423D01*
X43844Y64391D01*
X42674Y66419D01*
X41019Y68074D01*
X38991Y69244D01*
X36830Y69823D01*
D02*
G37*
G36*
X34290D02*
X32129Y69244D01*
X30101Y68074D01*
X28446Y66419D01*
X27276Y64391D01*
X26697Y62230D01*
X34290D01*
Y69823D01*
D02*
G37*
G36*
X173651Y68974D02*
X165100D01*
Y61181D01*
X173651D01*
Y68974D01*
D02*
G37*
G36*
X162560D02*
X154009D01*
Y61181D01*
X162560D01*
Y68974D01*
D02*
G37*
G36*
X210793Y67310D02*
X203200D01*
Y59717D01*
X205361Y60296D01*
X207389Y61466D01*
X209044Y63121D01*
X210214Y65149D01*
X210793Y67310D01*
D02*
G37*
G36*
X200660D02*
X193067D01*
X193646Y65149D01*
X194816Y63121D01*
X196471Y61466D01*
X198499Y60296D01*
X200660Y59717D01*
Y67310D01*
D02*
G37*
G36*
X134593Y59690D02*
X127000D01*
Y52097D01*
X129161Y52676D01*
X131189Y53846D01*
X132844Y55501D01*
X134014Y57529D01*
X134593Y59690D01*
D02*
G37*
G36*
X124460D02*
X116867D01*
X117446Y57529D01*
X118616Y55501D01*
X120271Y53846D01*
X122299Y52676D01*
X124460Y52097D01*
Y59690D01*
D02*
G37*
G36*
X113003D02*
X105410D01*
Y52097D01*
X107571Y52676D01*
X109599Y53846D01*
X111254Y55501D01*
X112424Y57529D01*
X113003Y59690D01*
D02*
G37*
G36*
X102870D02*
X95277D01*
X95856Y57529D01*
X97026Y55501D01*
X98681Y53846D01*
X100709Y52676D01*
X102870Y52097D01*
Y59690D01*
D02*
G37*
G36*
X87603D02*
X80010D01*
Y52097D01*
X82171Y52676D01*
X84199Y53846D01*
X85854Y55501D01*
X87024Y57529D01*
X87603Y59690D01*
D02*
G37*
G36*
X77470D02*
X69877D01*
X70456Y57529D01*
X71626Y55501D01*
X73281Y53846D01*
X75309Y52676D01*
X77470Y52097D01*
Y59690D01*
D02*
G37*
G36*
X67283D02*
X59690D01*
Y52097D01*
X61851Y52676D01*
X63879Y53846D01*
X65534Y55501D01*
X66704Y57529D01*
X67283Y59690D01*
D02*
G37*
G36*
X57150D02*
X49557D01*
X50136Y57529D01*
X51306Y55501D01*
X52961Y53846D01*
X54989Y52676D01*
X57150Y52097D01*
Y59690D01*
D02*
G37*
G36*
X44423D02*
X36830D01*
Y52097D01*
X38991Y52676D01*
X41019Y53846D01*
X42674Y55501D01*
X43844Y57529D01*
X44423Y59690D01*
D02*
G37*
%LPD*%
D14*
X81280Y802640D02*
X310350D01*
X323050Y789940D01*
X468790Y253840D02*
X572770D01*
X56248Y740410D02*
X62251Y746413D01*
X205740Y289192D02*
X230541D01*
X338930Y68580D02*
X359410D01*
X130810Y262890D02*
Y280910D01*
X133350Y283450D01*
X49530Y381026D02*
X56990Y373565D01*
X36830Y484102D02*
X39370Y486642D01*
X230541Y289192D02*
X236523Y283210D01*
X21590Y732790D02*
X23526D01*
X236523Y283210D02*
X237490D01*
X162560Y264369D02*
X170180Y271989D01*
X23526Y732790D02*
X27106Y736369D01*
X33691D01*
X49530Y381026D02*
Y382270D01*
X58420Y391160D02*
X89140D01*
X237490Y266700D02*
Y283210D01*
X49530Y382270D02*
X58420Y391160D01*
X56990Y360680D02*
Y373565D01*
X162560Y262890D02*
Y264369D01*
X36830Y461010D02*
Y484102D01*
X237490Y266700D02*
X249138Y255052D01*
X19050Y730250D02*
X21590Y732790D01*
X170180Y271989D02*
Y289192D01*
X260350Y500727D02*
X262890D01*
X177800Y415290D02*
X200126D01*
X173990Y568960D02*
X176739D01*
X253404Y502246D02*
X258832D01*
X262890Y500727D02*
X267877Y505714D01*
X129680Y510850D02*
X132530Y508000D01*
X200126Y415290D02*
X205740Y409676D01*
X251460Y504190D02*
X253404Y502246D01*
X258832D02*
X260350Y500727D01*
X172720Y508000D02*
X191650Y526930D01*
X61998Y572770D02*
X92964D01*
X176739Y568960D02*
X180549Y565150D01*
X191650Y526930D02*
X204470D01*
X132530Y508000D02*
X172720D01*
X180549Y565150D02*
X204470D01*
X473653Y170005D02*
X480060Y176413D01*
X473653Y164483D02*
Y170005D01*
X34980Y713980D02*
X37480Y711480D01*
X29210Y719750D02*
X34980Y713980D01*
X32854Y712854D02*
X32891D01*
X435610Y160020D02*
X469190D01*
X473653Y164483D01*
X29210Y719750D02*
Y731380D01*
X33691Y735862D01*
Y736369D01*
X37732Y740410D01*
X33020Y625061D02*
X43790Y635831D01*
Y682428D02*
X49152Y687790D01*
X43790Y635831D02*
Y682428D01*
X218440Y490985D02*
X264919Y537464D01*
X271021D01*
X218440Y469900D02*
Y490985D01*
X271021Y537464D02*
X273387Y539830D01*
X302260D01*
X272291Y505714D02*
X281407Y514830D01*
X302260D01*
X267877Y505714D02*
X272291D01*
X627810Y628650D02*
X634060D01*
X621460Y622300D02*
X627810Y628650D01*
X604520Y622300D02*
X621460D01*
X493772Y478024D02*
Y510133D01*
X503381Y519742D01*
X514172D01*
X514260Y519830D01*
X475760Y460012D02*
X493772Y478024D01*
X475760Y426330D02*
Y460012D01*
X454660Y256540D02*
X466090D01*
X372110Y586740D02*
Y601008D01*
X360760Y612358D02*
X372110Y601008D01*
X360760Y612358D02*
Y638330D01*
X204899Y461439D02*
X209979D01*
X218440Y469900D01*
X200660Y457200D02*
X204899Y461439D01*
X585681Y186016D02*
X591611Y180086D01*
X591820D01*
X584796Y186016D02*
X585681D01*
X576880Y178100D02*
X584796Y186016D01*
X709930Y184150D02*
X719606Y174474D01*
X721402D01*
X682058Y159952D02*
X734725D01*
X701558Y184150D02*
X709930D01*
X554622Y607568D02*
X562563Y615508D01*
Y616209D01*
X554622Y607060D02*
Y607568D01*
X562563Y616209D02*
X568654Y622300D01*
X604520D01*
X530860Y636270D02*
X541020D01*
X543560Y638810D01*
X554622Y644813D02*
Y645160D01*
X548619Y638810D02*
X554622Y644813D01*
X543560Y638810D02*
X548619D01*
X819370Y138660D02*
X819600Y138430D01*
X819370Y138660D02*
Y146330D01*
X815968Y149732D02*
X819370Y146330D01*
X783234Y149732D02*
X815968D01*
X767588Y134086D02*
X783234Y149732D01*
X767080Y134086D02*
X767588D01*
X405400Y719210D02*
X406400Y720210D01*
X375490Y719210D02*
X405400D01*
X374490D02*
X375490D01*
X350520Y671830D02*
X375490Y696800D01*
Y719210D01*
X309880Y337660D02*
Y353060D01*
X706716Y121324D02*
X714336D01*
X716280Y119380D01*
X576880Y124160D02*
X594360Y106680D01*
X83680Y510850D02*
Y511459D01*
X39370Y516658D02*
X41678Y514350D01*
X80789D02*
X83680Y511459D01*
X106680Y510850D02*
X107050Y511220D01*
Y530165D02*
X107421Y530536D01*
X164665Y196543D02*
X167894Y199772D01*
Y219456D01*
X166370Y220980D02*
X167894Y219456D01*
X730986Y134086D02*
X767080D01*
X716280Y119380D02*
X730986Y134086D01*
X794790Y131700D02*
X799870D01*
X778660Y115570D02*
X794790Y131700D01*
X767080Y115570D02*
X778660D01*
X800100Y131930D02*
Y138430D01*
X799870Y131700D02*
X800100Y131930D01*
X649393Y112662D02*
X676542D01*
X680570Y116690D02*
Y138430D01*
X676542Y112662D02*
X680570Y116690D01*
X700070Y127970D02*
Y138430D01*
Y127970D02*
X706716Y121324D01*
X700070Y172430D02*
Y182662D01*
X701558Y184150D01*
X576880Y167873D02*
Y178100D01*
Y124160D02*
Y133874D01*
X557150Y127143D02*
X557380Y127374D01*
X551873Y127143D02*
X557150D01*
X538838Y114109D02*
X551873Y127143D01*
X557380Y127374D02*
Y133874D01*
X533053Y114109D02*
X538838D01*
X527050Y108106D02*
X533053Y114109D01*
X788510Y739140D02*
X902970D01*
X970152Y671957D01*
X957580Y641350D02*
X970152Y653922D01*
Y671957D01*
X335586Y587704D02*
X336550Y586740D01*
X335586Y587704D02*
Y612140D01*
X312128Y258420D02*
X312420Y258712D01*
X271190Y258420D02*
X312128D01*
X249138Y255052D02*
X255365D01*
X258733Y258420D01*
X398466Y118342D02*
X401437Y115371D01*
X258733Y258420D02*
X271190D01*
X318930Y40140D02*
Y68580D01*
X173470Y176840D02*
X175660Y174650D01*
X166975Y176840D02*
X173470D01*
X164665Y179150D02*
Y196543D01*
Y179150D02*
X166975Y176840D01*
X35560Y362110D02*
Y414950D01*
Y362110D02*
X36990Y360680D01*
X401389Y173990D02*
X401437Y174038D01*
Y133887D02*
Y174038D01*
X328930Y148358D02*
X332740Y152168D01*
X485140Y543560D02*
X491410Y549830D01*
X514260D01*
X599070Y227134D02*
Y315476D01*
X593990Y229238D02*
Y313372D01*
X576233Y329692D02*
X592651Y314711D01*
X597731Y316816D02*
X599070Y315476D01*
X592651Y314711D02*
X593990Y313372D01*
X578127Y334264D02*
X597731Y316816D01*
X574340Y325120D02*
X587571Y312607D01*
X588910Y311268D01*
Y231342D02*
Y311268D01*
X358341Y601779D02*
X359410Y600710D01*
X358341Y601779D02*
Y607593D01*
X355760Y610174D02*
X358341Y607593D01*
X355760Y610174D02*
Y638330D01*
X346964Y607314D02*
Y614934D01*
X475760Y405760D02*
X500012Y381508D01*
X455760Y407779D02*
Y426330D01*
Y407779D02*
X472948Y390591D01*
X475760Y405760D02*
Y426330D01*
X472948Y382593D02*
Y390591D01*
X500012Y380492D02*
Y381000D01*
Y381508D01*
X655320Y381000D02*
X806050D01*
X836930Y350120D01*
X560592Y334832D02*
X564628D01*
X556020Y330260D02*
X560592Y334832D01*
X566521Y339404D02*
X576233Y329692D01*
X524505Y332994D02*
X530251Y336356D01*
X533298Y339404D01*
X552233D01*
X543694Y318652D02*
X546555Y321513D01*
X543032Y318652D02*
X543694D01*
X552233Y339404D02*
X556805Y343976D01*
X532144Y331784D02*
X535192Y334832D01*
X558699Y339404D02*
X566521D01*
X556805Y343976D02*
X568415D01*
X537210Y316230D02*
X543032Y318652D01*
X568415Y343976D02*
X578127Y334264D01*
X554127Y334832D02*
X558699Y339404D01*
X516384Y332994D02*
X524505D01*
X525145Y326450D02*
X532144Y331784D01*
X522030Y326450D02*
X525145D01*
X535192Y334832D02*
X554127D01*
X546555Y321513D02*
X556020Y330260D01*
X564628Y334832D02*
X574340Y325120D01*
X606286Y369409D02*
X609947Y373070D01*
X507445Y371641D02*
X509677Y369409D01*
X556221D02*
X559882Y373070D01*
X472948Y382593D02*
X494768Y360773D01*
X646499D02*
X648970Y363244D01*
X588583Y369409D02*
X606286D01*
X509677D02*
X556221D01*
X494768Y360773D02*
X646499D01*
X583503Y374489D02*
X588583Y369409D01*
X662940Y363220D02*
Y364510D01*
X648970Y363244D02*
Y374650D01*
X465541Y366014D02*
X470154Y361401D01*
X459019Y366014D02*
X465541D01*
X470154Y343871D02*
Y361401D01*
X449741Y356736D02*
X459019Y366014D01*
X456233Y352093D02*
X462280Y358140D01*
X648970Y374650D02*
X655320Y381000D01*
X335586Y612140D02*
X345760Y622314D01*
X350760Y618730D02*
Y638330D01*
X346964Y614934D02*
X350760Y618730D01*
X345760Y622314D02*
Y638330D01*
X52050Y600690D02*
Y601990D01*
X48220Y604520D02*
X49520D01*
X57480Y650480D02*
Y662480D01*
X111542Y651510D02*
X116096Y656064D01*
Y672686D01*
X110602Y678180D02*
X116096Y672686D01*
X103070Y678180D02*
X110602D01*
X93480Y651510D02*
X111542D01*
X115570Y681404D02*
X118794Y678180D01*
X128070D01*
X115570Y681404D02*
Y698500D01*
X57480Y662480D02*
X82510D01*
X93480Y651510D01*
X175660Y193650D02*
X176530Y194520D01*
X609947Y374997D02*
X615950Y381000D01*
X609947Y373070D02*
Y374997D01*
X571889Y374489D02*
X583503D01*
X565886Y380492D02*
X571889Y374489D01*
X565886Y380492D02*
Y381000D01*
X559882Y374997D02*
X565886Y381000D01*
X559882Y373070D02*
Y374997D01*
X507445Y371641D02*
Y373060D01*
X500012Y380492D02*
X507445Y373060D01*
X662440Y324510D02*
X663100Y323850D01*
X662440Y324510D02*
Y363720D01*
X662940Y363220D01*
X851024Y155130D02*
X947605D01*
X969390Y176915D02*
Y197740D01*
X957580Y209550D02*
X969390Y197740D01*
X947605Y155130D02*
X969390Y176915D01*
X850834Y155320D02*
X851024Y155130D01*
X808822Y155320D02*
X850834D01*
X800330Y163812D02*
X808822Y155320D01*
X800330Y163812D02*
Y172200D01*
X800100Y172430D02*
X800330Y172200D01*
X572770Y253840D02*
Y280670D01*
X562610Y290830D02*
X572770Y280670D01*
X443230Y346710D02*
X443738D01*
X442722D02*
X443230D01*
X747203Y172430D02*
X800100D01*
X734725Y159952D02*
X747203Y172430D01*
X680570Y161440D02*
X682058Y159952D01*
X680570Y161440D02*
Y172430D01*
X643390Y183841D02*
X649393Y189844D01*
X615731Y183841D02*
X643390D01*
X587953Y156063D02*
X615731Y183841D01*
X560802Y156063D02*
X587953D01*
X557610Y159255D02*
X560802Y156063D01*
X557610Y159255D02*
Y167644D01*
X557380Y167873D02*
X557610Y167644D01*
X680570Y172430D02*
Y178930D01*
X675659Y183841D02*
X680570Y178930D01*
X655396Y183841D02*
X675659D01*
X649393Y189844D02*
X655396Y183841D01*
X557380Y167873D02*
Y174373D01*
X555234Y176519D02*
X557380Y174373D01*
X525780Y176519D02*
X555234D01*
X430230Y174970D02*
X430460Y174740D01*
Y165170D02*
Y174740D01*
Y165170D02*
X435610Y160020D01*
X859810Y164940D02*
X861060D01*
X852320Y172430D02*
X859810Y164940D01*
X819600Y172430D02*
X852320D01*
X466090Y339807D02*
X470154Y343871D01*
X449741Y352713D02*
Y356736D01*
X443738Y346710D02*
X449741Y352713D01*
X456233Y298196D02*
Y352093D01*
X562610Y316230D02*
X583830Y295010D01*
X456233Y298196D02*
X458470Y295959D01*
X572770Y233840D02*
X574020D01*
X443210Y270830D02*
X458470Y286090D01*
X581598Y224030D02*
X588910Y231342D01*
X585807Y213870D02*
X599070Y227134D01*
X583702Y218950D02*
X593990Y229238D01*
X458470Y286090D02*
Y295959D01*
X583830Y243650D02*
Y295010D01*
X574020Y233840D02*
X583830Y243650D01*
X466090Y256540D02*
Y339807D01*
Y256540D02*
X468790Y253840D01*
X441960Y270830D02*
X443210D01*
X486410Y316230D02*
X488832Y318652D01*
X492894D01*
X509582Y335340D01*
X514038D01*
X516384Y332994D01*
X559733Y213870D02*
X585807D01*
X557957Y215646D02*
X559733Y213870D01*
X514008Y215646D02*
X557957D01*
X502122Y227532D02*
X514008Y215646D01*
X502122Y227532D02*
Y229188D01*
X496200Y235110D02*
X502122Y229188D01*
X485140Y235110D02*
X496200D01*
X514432D02*
X528816Y220726D01*
X560062D01*
X561838Y218950D02*
X583702D01*
X511810Y316230D02*
X522030Y326450D01*
X562166Y225806D02*
X563942Y224030D01*
X560062Y220726D02*
X561838Y218950D01*
X563942Y224030D02*
X581598D01*
X543540Y235110D02*
X552844Y225806D01*
X562166D01*
X513182Y235110D02*
X514432D01*
X542290D02*
X543540D01*
X439130Y273660D02*
X441960Y270830D01*
X400730Y273660D02*
X439130D01*
X443230Y292100D02*
Y328194D01*
X435772Y353660D02*
X442722Y346710D01*
X400730Y353660D02*
X435772D01*
X31982Y572770D02*
X33020Y573808D01*
X46420Y690522D02*
X49152Y687790D01*
X46420Y707297D02*
X56248Y717124D01*
Y740410D01*
X30480Y710480D02*
X32854Y712854D01*
X49152Y687790D02*
X54610D01*
X46420Y690522D02*
Y707297D01*
X106680Y707390D02*
X115570Y698500D01*
X101600Y707390D02*
X106680D01*
X101382Y707608D02*
X101600Y707390D01*
X99278Y707608D02*
X101382D01*
X80150Y688480D02*
X99278Y707608D01*
X57480Y688480D02*
X80150D01*
X683120Y53340D02*
X685519Y50941D01*
X449500Y141200D02*
X449730Y140970D01*
X449500Y141200D02*
Y149588D01*
X446308Y152780D02*
X449500Y149588D01*
X420838Y152780D02*
X446308D01*
X401945Y133887D02*
X420838Y152780D01*
X430230Y134470D02*
Y140970D01*
X417134Y121374D02*
X430230Y134470D01*
X407440Y121374D02*
X417134D01*
X401437Y115371D02*
X407440Y121374D01*
X430230Y174970D02*
Y181470D01*
X430000Y181700D02*
X430230Y181470D01*
X424401Y181700D02*
X430000D01*
X413547Y192553D02*
X424401Y181700D01*
X401437Y192553D02*
X413547D01*
X274490Y335120D02*
X312420D01*
X57480Y681980D02*
X57790Y682290D01*
D17*
X923903Y277686D02*
G03*
X940356Y277583I8278J8064D01*
G01*
X425450Y306090D02*
X439440Y292100D01*
X452230Y183970D02*
X459542D01*
X425450Y306090D02*
Y307340D01*
X459542Y183970D02*
X463172Y180340D01*
X599375Y704850D02*
X604520Y699705D01*
X463172Y180340D02*
X464820D01*
X604520Y698500D02*
Y699705D01*
X579120Y704850D02*
X599375D01*
X21590Y732790D02*
Y741870D01*
X251460Y493890D02*
Y504190D01*
X232867Y602793D02*
Y609143D01*
X235458Y477888D02*
X251460Y493890D01*
X232867Y602793D02*
X250830Y584830D01*
X251460Y504190D02*
X252182Y504912D01*
Y512775D02*
X272553Y533146D01*
X232410Y609600D02*
X232867Y609143D01*
X252182Y504912D02*
Y512775D01*
X250830Y584830D02*
X276230D01*
X27940Y27940D02*
Y54610D01*
X36830Y63500D01*
X833120Y53340D02*
X942340D01*
X948690Y46990D01*
X797490Y806450D02*
X943610D01*
X778440Y787400D02*
X797490Y806450D01*
X17780Y745680D02*
Y754380D01*
Y745680D02*
X21590Y741870D01*
X17780Y754380D02*
X35560Y772160D01*
Y803910D01*
X554990Y83820D02*
X563880Y92710D01*
X554990Y75184D02*
Y83820D01*
X563880Y92710D02*
Y133874D01*
X542290Y69850D02*
X547370Y64770D01*
X506321Y69850D02*
X542290D01*
X547370Y64770D02*
X646690D01*
X658120Y53340D01*
X449730Y174970D02*
X450214Y175454D01*
Y181954D01*
X452230Y183970D01*
X444013Y191193D02*
X548590D01*
X438102Y197104D02*
X444013Y191193D01*
X548590D02*
X563396Y176387D01*
X439440Y292100D02*
X443230D01*
X316502Y454830D02*
X318872Y457200D01*
X326390D01*
X335280Y466090D01*
X302260Y454830D02*
X316502D01*
X324692Y443658D02*
X330706Y437644D01*
Y426384D02*
Y437644D01*
Y426384D02*
X330760Y426330D01*
X322419Y446287D02*
Y447387D01*
X323499Y444851D02*
Y445207D01*
X322419Y446287D02*
X323499Y445207D01*
Y444851D02*
X324692Y443658D01*
X320760Y440140D02*
X324278Y443658D01*
X324692D01*
X335280Y466090D02*
Y508412D01*
X302260Y499830D02*
X318050D01*
X323850Y494030D01*
X326390Y491490D01*
X323850Y494030D02*
X330200Y500380D01*
X281698Y524830D02*
X302260D01*
X267970Y544830D02*
X302260D01*
X278921Y527608D02*
X281698Y524830D01*
X277271Y527608D02*
X278921D01*
X267462Y551942D02*
X275350Y559830D01*
X256740Y541220D02*
X260858Y545338D01*
X265024Y551942D02*
X267462D01*
X272810Y533146D02*
X274494Y534830D01*
X302260D01*
X260858Y547776D02*
X265024Y551942D01*
X272553Y533146D02*
X272810D01*
X260858Y545338D02*
Y547776D01*
X273450Y519830D02*
X302260D01*
X312877Y525015D02*
X329325Y541464D01*
X312877Y524830D02*
X324800D01*
X329325Y541464D02*
Y585866D01*
X324800Y524830D02*
X330200Y519430D01*
X267970Y514350D02*
X273450Y519830D01*
X302260D02*
X302445Y519645D01*
X265932Y497663D02*
X269665Y501396D01*
X274080D02*
X277514Y504830D01*
X302260D01*
X269665Y501396D02*
X274080D01*
X271697Y484632D02*
X279483D01*
X282850Y476504D02*
X286175Y479830D01*
X279632Y472440D02*
X284533D01*
X260013Y472948D02*
X262116D01*
X274066Y479151D02*
Y479806D01*
X270002Y480834D02*
Y482937D01*
X274828Y480568D02*
X281166D01*
X263799Y468884D02*
X274066Y479151D01*
X253907Y466842D02*
X260013Y472948D01*
X287614Y469774D02*
X302204D01*
X262116Y472948D02*
X270002Y480834D01*
X265430Y458238D02*
X279632Y472440D01*
X260858Y460132D02*
X277230Y476504D01*
X251714Y428659D02*
Y463792D01*
X276205Y494645D02*
X302075D01*
X279483Y484632D02*
X284681Y489830D01*
X284226Y468376D02*
X286216D01*
X270002Y482937D02*
X271697Y484632D01*
X284533Y472440D02*
X286923Y474830D01*
X270568Y454718D02*
X284226Y468376D01*
X286923Y474830D02*
X302260D01*
X251714Y463792D02*
X253907Y465985D01*
X274066Y479806D02*
X274828Y480568D01*
X286175Y479830D02*
X302260D01*
X275590Y494030D02*
X276205Y494645D01*
X253907Y465985D02*
Y466842D01*
X281166Y480568D02*
X285428Y484830D01*
X302204Y469774D02*
X302260Y469830D01*
X285428Y484830D02*
X302260D01*
X286216Y468376D02*
X287614Y469774D01*
X277230Y476504D02*
X282850D01*
X621512Y646912D02*
Y656659D01*
X562516Y634319D02*
X608919D01*
X621512Y646912D01*
X544301Y616104D02*
X562516Y634319D01*
X625201Y660348D02*
X642815D01*
X621512Y656659D02*
X625201Y660348D01*
X522580Y666242D02*
X525027Y668689D01*
X523756Y661670D02*
X526711Y664625D01*
X611073Y656497D02*
X621326Y666750D01*
X525027Y668689D02*
X605305D01*
X530077Y656497D02*
X611073D01*
X526711Y664625D02*
X607707D01*
X622277Y679196D01*
X528394Y660561D02*
X609390D01*
X605305Y668689D02*
X620384Y683768D01*
X497854Y624274D02*
X530077Y656497D01*
X620384Y683768D02*
X651118D01*
X603758Y673608D02*
X618490Y688340D01*
X455270Y673608D02*
X603758D01*
X618490Y688340D02*
X653820D01*
X446612Y664949D02*
X455270Y673608D01*
X257640Y571500D02*
X259310Y569830D01*
X302260D01*
X256540Y571500D02*
X257640D01*
X276230Y584830D02*
X286230Y574830D01*
X302260D01*
X276230Y584830D02*
X302260D01*
X312877Y519645D02*
X319157Y513365D01*
Y510779D02*
X322580Y507355D01*
Y506730D02*
Y507355D01*
X319157Y510779D02*
Y513365D01*
X302445Y519645D02*
X312877D01*
X330200Y500380D02*
Y519430D01*
X335280Y508412D02*
X399288Y572420D01*
X302260Y524830D02*
X312877D01*
X518950Y421640D02*
X544830D01*
X498197Y442393D02*
X518950Y421640D01*
X485945Y436947D02*
X491391Y442393D01*
X498197D01*
X485760Y426330D02*
X485945Y426515D01*
Y436947D01*
X518528Y381000D02*
X547370D01*
X597434D02*
Y381508D01*
X591177Y387765D02*
X597434Y381508D01*
X547370D02*
X555564Y389702D01*
X547370Y381000D02*
Y381508D01*
X588289Y395893D02*
X591845Y392337D01*
X552111D02*
X555667Y395893D01*
X555564Y389702D02*
Y390043D01*
X516205Y392337D02*
X552111D01*
X591845D02*
X835405D01*
X555564Y390043D02*
X557350Y391829D01*
X574421D01*
X578485Y387765D01*
X591177D01*
X555667Y395893D02*
X588289D01*
X835405Y392337D02*
X877348Y350394D01*
X484710Y454230D02*
X490220Y459740D01*
X484710Y449767D02*
Y454230D01*
X480760Y426330D02*
Y445816D01*
X484710Y449767D01*
X496552Y523240D02*
X498142Y524830D01*
X514260D01*
X486410Y523240D02*
X496552D01*
X485760Y413595D02*
X497536Y401819D01*
X498558D01*
X485760Y413595D02*
Y426330D01*
X498558Y401819D02*
X512271Y388106D01*
Y387257D02*
Y388106D01*
Y387257D02*
X518528Y381000D01*
X330760Y638330D02*
Y667947D01*
X335913Y673100D02*
X337820D01*
X330760Y667947D02*
X335913Y673100D01*
X537210Y523240D02*
X538273Y522177D01*
X548828D01*
X535038Y513982D02*
X557022D01*
X557530D01*
X548828Y522177D02*
X557022Y513982D01*
X514260Y529830D02*
X532472D01*
X536804Y534162D01*
X555866D01*
X557530Y532498D01*
X510054Y680234D02*
X576580Y746760D01*
X504696Y690596D02*
X574435Y760335D01*
X505371Y684806D02*
X572405Y751840D01*
X502983Y695817D02*
X572541Y764907D01*
X500316Y699706D02*
X570657Y770047D01*
X453782Y680234D02*
X510054D01*
X554622Y606552D02*
X562817Y598358D01*
Y597963D02*
Y598358D01*
Y597963D02*
X577850Y582930D01*
X554622Y606552D02*
Y607060D01*
X557530Y532498D02*
Y567690D01*
X562610Y572770D01*
X551747Y596231D02*
X579374Y568604D01*
X546087Y596231D02*
X551747D01*
X544301Y598017D02*
X546087Y596231D01*
X544301Y598017D02*
Y616104D01*
X542290Y480060D02*
X603250D01*
X546913Y585927D02*
X551993D01*
X552450Y585470D01*
X568359Y518215D02*
X579374Y529230D01*
X568359Y492539D02*
Y518215D01*
X567690Y469900D02*
X572690Y474900D01*
X608330D01*
X538010Y594830D02*
X546913Y585927D01*
X579374Y529230D02*
Y568604D01*
X514260Y594830D02*
X538010D01*
X529375Y519645D02*
X535038Y513982D01*
X514445Y519645D02*
X529375D01*
X514260Y519830D02*
X514445Y519645D01*
X543560Y680720D02*
X554347Y691507D01*
Y698593D01*
X560604Y704850D01*
X430760Y638330D02*
Y663678D01*
X434848Y652875D02*
X435816Y651907D01*
X455709Y661712D02*
Y663362D01*
X446612Y663266D02*
X449072Y660806D01*
X450575Y638515D02*
Y649245D01*
Y638515D02*
X450760Y638330D01*
X458794Y655580D02*
Y658627D01*
X434848Y652875D02*
Y660806D01*
X455709Y661712D02*
X458794Y658627D01*
X449072Y658529D02*
X455760Y651841D01*
X446612Y663266D02*
Y664949D01*
X435816Y638386D02*
Y651907D01*
X434848Y660806D02*
X435816Y661774D01*
X441960Y657860D02*
X450575Y649245D01*
X449072Y658529D02*
Y660806D01*
X435816Y661774D02*
Y662268D01*
X453782Y680234D01*
X430760Y663678D02*
X451888Y684806D01*
X425760Y665211D02*
X449496Y688947D01*
X425760Y638330D02*
Y665211D01*
X418860Y620305D02*
X422013D01*
X417694Y619139D02*
X418860Y620305D01*
X422013D02*
X422738Y621030D01*
X436880D01*
X440760Y624910D01*
Y638330D01*
X365945Y627713D02*
Y638145D01*
X389890Y584200D02*
Y603768D01*
X365945Y627713D02*
X389890Y603768D01*
X425680Y596670D02*
X447040Y575310D01*
X445760Y618457D02*
Y638330D01*
X441740Y614437D02*
X445760Y618457D01*
X441740Y613568D02*
Y614437D01*
X265938Y482517D02*
Y490716D01*
X265932Y490722D02*
X265938Y490716D01*
X265932Y490722D02*
Y497663D01*
X256286Y462026D02*
X263144Y468884D01*
X260433Y477012D02*
X265938Y482517D01*
X254762Y477012D02*
X260433D01*
X249843Y472093D02*
X254762Y477012D01*
X263144Y468884D02*
X263799D01*
X245779Y475649D02*
X256540Y486410D01*
X247142Y464968D02*
X249843Y467669D01*
Y472093D01*
X260858Y432446D02*
Y460132D01*
X265430Y434340D02*
Y458238D01*
X247142Y425958D02*
X301962Y371138D01*
X260858Y432446D02*
X307801Y385503D01*
X247142Y425958D02*
Y464968D01*
X235458Y459372D02*
X243652Y467567D01*
X243993D02*
X245779Y469352D01*
Y475649D01*
X234950Y459372D02*
X235458D01*
X243652Y467567D02*
X243993D01*
X234950Y477888D02*
X235458D01*
X302075Y494645D02*
X302260Y494830D01*
X284681Y489830D02*
X302260D01*
X320760Y426330D02*
Y440140D01*
X350760Y405608D02*
Y426330D01*
Y405608D02*
X370542Y385826D01*
X355760Y406356D02*
Y426330D01*
X356704Y405412D02*
Y405412D01*
X355760Y406356D02*
X356704Y405412D01*
Y405412D02*
X372226Y389890D01*
X325760Y410840D02*
Y426330D01*
Y410840D02*
X332740Y403860D01*
X345760Y404861D02*
Y426330D01*
Y404861D02*
X376987Y373634D01*
X448310D01*
X370542Y385826D02*
X409194D01*
X372226Y389890D02*
X415302D01*
X309938Y396298D02*
X330821D01*
X337737Y389382D01*
X329595Y380282D02*
X332687Y377190D01*
X337335Y381254D02*
X357886Y360703D01*
X334933Y377190D02*
X353314Y358809D01*
X301962Y371138D02*
X327245D01*
X307801Y385503D02*
X330122D01*
X332687Y377190D02*
X334933D01*
X308610Y391160D02*
X330212D01*
X330122Y385503D02*
X334370Y381254D01*
X330129Y369062D02*
X344170Y355021D01*
X342138Y389382D02*
X367030Y364490D01*
X332531Y373126D02*
X348742Y356915D01*
X328420Y375710D02*
X331004Y373126D01*
X337737Y389382D02*
X342138D01*
X339736Y385318D02*
X362458Y362596D01*
X330212Y391160D02*
X336054Y385318D01*
X329320Y369062D02*
X330129D01*
X327245Y371138D02*
X329320Y369062D01*
X336054Y385318D02*
X339736D01*
X334370Y381254D02*
X337335D01*
X331004Y373126D02*
X332531D01*
X306557Y380282D02*
X329595D01*
X304663Y375710D02*
X328420D01*
X770128Y201168D02*
X785891D01*
X769620Y201676D02*
X770128Y201168D01*
X788670Y209550D02*
X813100Y185120D01*
X761042Y205740D02*
X764853Y209550D01*
X788670D01*
X740410Y205740D02*
X761042D01*
X785891Y201168D02*
X806116Y180943D01*
X443667Y204470D02*
X663059D01*
X441889Y206248D02*
X443667Y204470D01*
X663059D02*
X683543Y183986D01*
X765912Y222250D02*
X802640D01*
X544830Y570230D02*
Y571500D01*
X531500Y584830D02*
X544830Y571500D01*
X609390Y660561D02*
X621877Y673048D01*
X670564Y655316D02*
X696494Y629386D01*
X706323D01*
X653820Y688340D02*
X700810Y641350D01*
X706323Y629386D02*
X707060Y628650D01*
X445907Y195765D02*
X553029D01*
X420450Y743284D02*
X421640Y744474D01*
X335760Y657070D02*
X350520Y671830D01*
X335760Y638330D02*
Y657070D01*
X353490Y736210D02*
X354490D01*
X351340Y734060D02*
X353490Y736210D01*
X374490D02*
X405400D01*
X361753Y710162D02*
X364490Y712899D01*
Y725520D02*
X367228Y728258D01*
X368316D01*
X369506Y729448D01*
X325760Y676512D02*
X359410Y710162D01*
X369506Y729448D02*
Y731226D01*
X359410Y710162D02*
X361753D01*
X325760Y638330D02*
Y676512D01*
X369506Y731226D02*
X374490Y736210D01*
X364490Y712899D02*
Y725520D01*
X593090Y75184D02*
Y83820D01*
X570380Y106530D02*
X593090Y83820D01*
X123190Y547370D02*
Y553720D01*
X118963Y543143D02*
X123190Y547370D01*
X39370Y543143D02*
X118963D01*
X323234Y579774D02*
X329325Y585866D01*
Y597907D01*
X330760Y599342D01*
Y638330D01*
X458794Y655580D02*
X460760Y653614D01*
X465760Y638330D02*
Y658420D01*
X467360Y660020D01*
Y661670D01*
X460760Y638330D02*
Y653614D01*
X485760Y638330D02*
Y651667D01*
X495763Y661670D02*
X523756D01*
X485760Y651667D02*
X495763Y661670D01*
X455760Y638330D02*
Y651841D01*
X494588Y666242D02*
X522580D01*
X480760Y652414D02*
X494588Y666242D01*
X480760Y638330D02*
Y652414D01*
X464251Y585466D02*
Y587633D01*
X461900Y583115D02*
X464251Y585466D01*
Y587633D02*
X472988Y596370D01*
X461900Y580668D02*
Y583115D01*
X498044Y583996D02*
Y585609D01*
X491386Y588114D02*
X495540D01*
X490220Y589280D02*
X491386Y588114D01*
X495540D02*
X498044Y585609D01*
X487918Y581320D02*
X494408Y574830D01*
X479630Y581320D02*
X487918D01*
X490610Y599830D02*
X514260D01*
X489362Y604830D02*
X514260D01*
X476838Y592305D02*
X489362Y604830D01*
X485140Y594360D02*
X490610Y599830D01*
X484640Y594360D02*
X485140D01*
X476355Y588242D02*
X478521D01*
X468315Y585949D02*
X474671Y592305D01*
X475154Y596370D02*
X487679Y608894D01*
X478521Y588242D02*
X484640Y594360D01*
X468315Y578707D02*
Y585949D01*
X472379Y584266D02*
X476355Y588242D01*
X479508Y581198D02*
X479630Y581320D01*
X474671Y592305D02*
X476838D01*
X472988Y596370D02*
X475154D01*
X498044Y583996D02*
X502210Y579830D01*
X472209Y603481D02*
X481685Y612958D01*
X472208Y603481D02*
X472209D01*
X487679Y608894D02*
X488911D01*
X494847Y614830D01*
X472379Y580390D02*
X472440Y580329D01*
X464251Y577023D02*
X464312Y576962D01*
Y572364D02*
Y576962D01*
X468315Y578707D02*
X468376Y578646D01*
X461900Y580668D02*
X464251Y578317D01*
Y577023D02*
Y578317D01*
X472440Y573670D02*
Y580329D01*
X468376Y570681D02*
Y578646D01*
X472379Y580390D02*
Y584266D01*
X453923Y561975D02*
X464312Y572364D01*
X472440Y573670D02*
X475829Y570281D01*
X488899D01*
X447873Y550177D02*
X468376Y570681D01*
X494408Y574830D02*
X514260D01*
X498506Y569830D02*
X514260D01*
X500000Y559830D02*
X514260D01*
X483305Y555041D02*
X495211D01*
X470459Y563169D02*
X491845D01*
X499253Y564830D02*
X514260D01*
X467252Y544735D02*
X481621Y559105D01*
X493528D02*
X499253Y564830D01*
X471316Y543052D02*
X483305Y555041D01*
X459659Y534494D02*
X467252Y542087D01*
X456334Y549044D02*
X470459Y563169D01*
X459659Y532994D02*
Y534494D01*
X495211Y555041D02*
X500000Y559830D01*
X491845Y563169D02*
X498506Y569830D01*
X481621Y559105D02*
X493528D01*
X467252Y542087D02*
Y544735D01*
X471316Y536086D02*
Y543052D01*
X454985Y528320D02*
X459659Y532994D01*
X471170Y535940D02*
X471316Y536086D01*
X447040Y575310D02*
X457200D01*
X412496Y513334D02*
Y551586D01*
X422885Y561975D02*
X453923D01*
X447873Y525374D02*
Y550177D01*
X412496Y551586D02*
X422885Y561975D01*
X494847Y614830D02*
X514260D01*
X462384Y515516D02*
X463550Y514350D01*
X457730Y515516D02*
X462384D01*
X447873Y525374D02*
X457730Y515516D01*
X456334Y545996D02*
Y549044D01*
X455168Y544830D02*
X456334Y545996D01*
X406400Y572770D02*
X408003Y574373D01*
X428626Y603782D02*
X430508Y601900D01*
X408003Y574373D02*
Y578994D01*
X402058Y582296D02*
Y583818D01*
X399288Y579526D02*
X402058Y582296D01*
X408003Y578994D02*
X409170Y580160D01*
X422022Y603782D02*
X428626D01*
X402058Y583818D02*
X422022Y603782D01*
X430508Y601900D02*
X448884D01*
X419608Y540512D02*
Y548640D01*
X419608Y548640D02*
X419608Y548640D01*
Y540512D02*
X454152Y505968D01*
X406400Y531305D02*
Y572770D01*
X344170Y492760D02*
X383540Y532130D01*
X398780D01*
X406400Y531305D02*
X408432Y529273D01*
Y485648D02*
Y529273D01*
X391160Y502920D02*
X401320Y513080D01*
X421336Y496874D02*
X431800Y486410D01*
X421336Y496874D02*
Y504494D01*
X412496Y513334D02*
X421336Y504494D01*
X408432Y485648D02*
X420370Y473710D01*
X352474Y488477D02*
X366917Y502920D01*
X367073Y492087D02*
X372750Y486410D01*
X359586Y485420D02*
X360233D01*
X367073Y492087D02*
Y493019D01*
X360233Y485420D02*
X364939Y480715D01*
X366776Y458049D02*
X369084D01*
X360760Y453470D02*
X362680Y455390D01*
X364117D01*
X369084Y458049D02*
X374142Y452991D01*
X364117Y455390D02*
X366776Y458049D01*
X360760Y426330D02*
Y453470D01*
X374142Y452120D02*
Y452991D01*
X435760Y638330D02*
X435816Y638386D01*
X640080Y746760D02*
X671030Y777710D01*
X576580Y746760D02*
X640080D01*
X445239Y704088D02*
X490008D01*
X443346Y708660D02*
X489966D01*
X451888Y684806D02*
X505371D01*
X489966Y708660D02*
X495400Y708760D01*
X490008Y704088D02*
X497329Y704223D01*
X495400Y708760D02*
X541020Y754380D01*
X450148Y689599D02*
X504696Y690596D01*
X448254Y694171D02*
X502332Y695170D01*
X441960Y713740D02*
X492760D01*
X524510Y745490D01*
X502332Y695170D02*
X502983Y695817D01*
X447133Y699516D02*
X490050D01*
X500316Y699706D01*
X497329Y704223D02*
X549910Y756804D01*
X565150Y487680D02*
Y489330D01*
X642815Y660348D02*
X646608Y664141D01*
Y669359D01*
X642919Y673048D02*
X646608Y669359D01*
X621877Y673048D02*
X642919D01*
X525439Y657606D02*
X528394Y660561D01*
X499604Y657606D02*
X525439D01*
X490945Y648947D02*
X499604Y657606D01*
X490945Y638515D02*
Y648947D01*
X490760Y638330D02*
X490945Y638515D01*
X621326Y666750D02*
X634060D01*
X565150Y489330D02*
X568359Y492539D01*
X448884Y601900D02*
X471258Y624274D01*
X497854D01*
X622277Y679196D02*
X649224D01*
X661993Y666427D01*
X651510Y654050D02*
X661993Y664533D01*
Y666427D01*
X634060Y654050D02*
X651510D01*
X651118Y683768D02*
X670564Y664322D01*
Y655316D02*
Y664322D01*
X552614Y460502D02*
X611378D01*
X603250Y480060D02*
X660400Y537210D01*
X608330Y474980D02*
X664210Y530860D01*
X616636Y503504D02*
X654406Y541274D01*
X764117Y220454D02*
X765912Y222250D01*
X704850Y228600D02*
X709063Y221201D01*
X709851Y220412D01*
X763913D01*
X764117Y220454D01*
X604171Y341884D02*
X652214Y295402D01*
X602488Y337820D02*
X649478Y290830D01*
X607655Y346115D02*
X653796Y299974D01*
X652214Y295402D02*
X758203D01*
X653796Y299974D02*
X760097D01*
X649478Y290830D02*
X756309D01*
X758203Y295402D02*
X769153Y284452D01*
X756309Y290830D02*
X768339Y278800D01*
X584393Y337820D02*
X602488D01*
X607060Y346710D02*
X607655Y346115D01*
X583283Y346710D02*
X607060D01*
X581599Y342646D02*
X604171Y341884D01*
X579916Y338582D02*
X584393Y337820D01*
X571887Y352358D02*
X581599Y342646D01*
X573571Y356422D02*
X583283Y346710D01*
X526779Y344738D02*
X529827Y347786D01*
X570204Y348294D02*
X579916Y338582D01*
X683100Y323850D02*
X736220D01*
X682940Y365760D02*
X741680D01*
X736220Y323850D02*
X760097Y299974D01*
X771047Y289024D02*
X845943D01*
X760097Y299974D02*
X771047Y289024D01*
X628650Y341630D02*
X640060D01*
X365760Y638330D02*
X365945Y638145D01*
X399288Y572420D02*
Y579526D01*
X410760Y453940D02*
X445770Y488950D01*
X410760Y426330D02*
Y453940D01*
X454152Y463811D02*
Y505968D01*
X366917Y502920D02*
X391160D01*
X430784Y462432D02*
X434513D01*
X437262Y459683D01*
X438912D01*
X425760Y447350D02*
X431330Y452920D01*
X420760Y452408D02*
X430784Y462432D01*
X445760Y426330D02*
Y449672D01*
X450760Y448925D02*
X472440Y470605D01*
X425760Y426330D02*
Y447350D01*
X445760Y449672D02*
X458216Y462128D01*
X441350Y445262D02*
Y451009D01*
X454152Y463811D01*
X420760Y426330D02*
Y452408D01*
X450760Y426330D02*
Y448925D01*
X458216Y462128D02*
Y496316D01*
X467360Y505460D01*
X474878D01*
X472440Y470605D02*
Y497840D01*
X415556Y389636D02*
X460559D01*
X415760Y407200D02*
X420370Y402590D01*
X397901Y413039D02*
X417240Y393700D01*
X462243D01*
X415302Y389890D02*
X415556Y389636D01*
X495760Y412782D02*
Y426330D01*
Y412782D02*
X516205Y392337D01*
X460760Y408885D02*
Y426330D01*
Y408885D02*
X477266Y392379D01*
X464566Y379121D02*
Y385629D01*
X462243Y393700D02*
X468630Y387313D01*
X448310Y373634D02*
X453136Y378460D01*
X447904Y385572D02*
X458876D01*
X460502Y377438D02*
X489613Y348327D01*
X460559Y389636D02*
X464566Y385629D01*
X453136Y378460D02*
X453390D01*
X460502Y377438D02*
Y383946D01*
X477266Y384381D02*
Y392379D01*
X458876Y385572D02*
X460502Y383946D01*
X477266Y384381D02*
X496557Y365091D01*
X468630Y380804D02*
Y387313D01*
X409194Y385826D02*
X417322Y377698D01*
X415760Y407200D02*
Y426330D01*
X474878Y505460D02*
X482600Y497738D01*
Y481330D02*
Y497738D01*
X435760Y439672D02*
X441350Y445262D01*
X435760Y426330D02*
Y439672D01*
X395816Y414229D02*
Y426274D01*
X395760Y426330D02*
X395816Y426274D01*
X397006Y413039D02*
X397901D01*
X395816Y414229D02*
X397006Y413039D01*
X440030Y377698D02*
X447904Y385572D01*
X487228Y612958D02*
X493972Y619702D01*
X481685Y612958D02*
X487228D01*
X502210Y579830D02*
X514260D01*
X493972Y619702D02*
X499748D01*
X499876Y619830D02*
X514260D01*
X499748Y619702D02*
X499876Y619830D01*
X946024Y322706D02*
X957580Y311150D01*
X879625Y322706D02*
X946024D01*
X845943Y289024D02*
X879625Y322706D01*
X923902Y277687D02*
X923903Y277686D01*
X887768Y284452D02*
X900622Y297306D01*
X769153Y284452D02*
X887768D01*
X769009Y278130D02*
X923459D01*
X923902Y277687D01*
X940356Y277583D02*
X947040Y284267D01*
X768339Y278799D02*
Y278800D01*
Y278799D02*
X769009Y278130D01*
X700024Y541274D02*
X726440Y567690D01*
X654406Y541274D02*
X700024D01*
X664210Y530860D02*
X814070D01*
X660400Y537210D02*
X835660D01*
X832720Y512210D02*
X835660D01*
X814070Y530860D02*
X832720Y512210D01*
X608330Y474900D02*
Y474980D01*
X563187Y450157D02*
X607637D01*
X557860Y444830D02*
X563187Y450157D01*
X558300Y455930D02*
X608330D01*
X652018Y385318D02*
X823928D01*
X655320Y416560D02*
X889116D01*
X903086Y402590D01*
X652780Y411480D02*
X887730D01*
X652664Y405130D02*
X885190D01*
X887730Y411480D02*
X911860Y387350D01*
X885190Y405130D02*
X915670Y374650D01*
X877348Y350394D02*
X962367D01*
X903086Y402590D02*
X922020D01*
X834126Y375120D02*
X836930D01*
X823928Y385318D02*
X834126Y375120D01*
X611378Y460502D02*
X655320Y416560D01*
X607637Y450157D02*
X652664Y405130D01*
X608330Y455930D02*
X652780Y411480D01*
X552200Y449830D02*
X558300Y455930D01*
X514260Y444830D02*
X557860D01*
X700810Y641350D02*
X707060D01*
X640060Y341630D02*
X662295Y363865D01*
X522611Y337820D02*
X528462Y340674D01*
X531510Y343722D01*
X520989Y343408D02*
X522672Y343408D01*
X526779Y344738D01*
X492384Y357050D02*
X492979Y356455D01*
X501792Y348802D02*
X525095D01*
X528143Y351850D01*
X547077D01*
X551649Y356422D02*
X573571D01*
X468630Y380804D02*
X492384Y357050D01*
X492979Y356455D02*
X494139D01*
X501792Y348802D01*
X531510Y343722D02*
X550444D01*
X555016Y348294D01*
X570204D01*
X529827Y347786D02*
X548761D01*
X518383Y337820D02*
X522611D01*
X548761Y347786D02*
X553333Y352358D01*
X571887D01*
X547077Y351850D02*
X551649Y356422D01*
X519261Y343408D02*
X520989D01*
X644652Y366281D02*
Y377952D01*
X643462Y365091D02*
X644652Y366281D01*
X496557Y365091D02*
X643462D01*
X662940Y364510D02*
Y365760D01*
X417322Y377698D02*
X440030D01*
X464566Y379121D02*
X491296Y352391D01*
X546942Y454830D02*
X552614Y460502D01*
X514260Y449830D02*
X552200D01*
X514260Y454830D02*
X546942D01*
X644652Y377952D02*
X652018Y385318D01*
X489613Y348327D02*
X490053D01*
X492455Y352391D02*
X501438Y343408D01*
X491296Y352391D02*
X492455D01*
X490053Y348327D02*
X500560Y337820D01*
X372750Y486410D02*
X384272D01*
X381044Y474612D02*
X388905Y466750D01*
X360336Y474612D02*
X381044D01*
X388905Y459422D02*
Y466750D01*
X352474Y482474D02*
X360336Y474612D01*
X352474Y482474D02*
Y488477D01*
X344170Y268661D02*
Y355021D01*
Y268661D02*
X409449Y203383D01*
X410691D01*
X348742Y270555D02*
Y356915D01*
X410691Y203383D02*
X426113Y187960D01*
X412584Y207955D02*
X428007Y192532D01*
X348742Y270555D02*
X411342Y207955D01*
X412584D01*
X380760Y426330D02*
Y442933D01*
X381254Y449174D02*
Y463264D01*
X376501Y444421D02*
X381254Y449174D01*
X385318Y447491D02*
Y455834D01*
X390760Y426330D02*
Y441438D01*
X393446Y444124D02*
Y451749D01*
X389382Y454151D02*
X393700Y458469D01*
X385760Y442185D02*
X389382Y445807D01*
X381254Y463264D02*
X381794Y463804D01*
X393446Y451749D02*
X398272Y456575D01*
X390760Y441438D02*
X393446Y444124D01*
X380760Y442933D02*
X385318Y447491D01*
X389382Y445807D02*
Y454151D01*
X370303Y444421D02*
X376501D01*
X385760Y426330D02*
Y442185D01*
X385318Y455834D02*
X388905Y459422D01*
X366375Y480715D02*
X368300Y478790D01*
X393700Y458469D02*
Y467702D01*
X385426Y478790D02*
X387096Y477120D01*
Y474306D02*
Y477120D01*
X368300Y478790D02*
X385426D01*
X365760Y426330D02*
Y439878D01*
X370303Y444421D01*
X387096Y474306D02*
X393700Y467702D01*
X364939Y480715D02*
X366375D01*
X398272Y456575D02*
Y469596D01*
X394462Y473406D02*
X398272Y469596D01*
X384272Y486410D02*
X394462Y476220D01*
Y473406D02*
Y476220D01*
X960166Y477307D02*
X969136Y468337D01*
Y357163D02*
Y468337D01*
X962367Y350394D02*
X969136Y357163D01*
X500560Y337820D02*
X505237D01*
X501438Y343408D02*
X504359D01*
X505237Y337820D02*
X507583Y340166D01*
X516037D01*
X518383Y337820D01*
X587805Y209044D02*
X589581Y210820D01*
X435582D02*
X555959D01*
X589581D02*
X665720D01*
X504359Y343408D02*
X505689Y344738D01*
X555959Y210820D02*
X557734Y209044D01*
X517931Y344738D02*
X519261Y343408D01*
X557734Y209044D02*
X587805D01*
X505689Y344738D02*
X517931D01*
X665720Y210820D02*
X693570Y182970D01*
X443714Y132457D02*
X506321Y69850D01*
X426113Y187960D02*
X434280D01*
X431795Y201676D02*
X439995D01*
X429901Y197104D02*
X438102D01*
X428007Y192532D02*
X436208D01*
X420159Y226243D02*
X435582Y210820D01*
X414478Y212527D02*
X429901Y197104D01*
X418266Y221671D02*
X433688Y206248D01*
X416372Y217099D02*
X431795Y201676D01*
X433688Y206248D02*
X441889D01*
X439995Y201676D02*
X445907Y195765D01*
X436208Y192532D02*
X443230Y185510D01*
X284570Y459830D02*
X302260D01*
X279400Y454660D02*
X284570Y459830D01*
X233490Y566220D02*
X237490D01*
X204470Y580150D02*
X219560D01*
X279400Y438150D02*
X306174Y411376D01*
X237490Y541220D02*
X256740D01*
X237490Y566220D02*
X238880Y564830D01*
X302260D01*
X219830Y511930D02*
X234950Y527050D01*
Y538680D02*
X237490Y541220D01*
X234950Y527050D02*
Y538680D01*
X219560Y580150D02*
X233490Y566220D01*
X309984Y411376D02*
X311150Y410210D01*
X306174Y411376D02*
X309984D01*
X275350Y559830D02*
X302260D01*
X279400Y438150D02*
Y454660D01*
X270568Y435668D02*
Y454718D01*
Y435668D02*
X309938Y396298D01*
X683543Y183986D02*
X686586Y180943D01*
X683543Y183986D02*
X683543D01*
X693570Y172430D02*
Y182970D01*
X418917Y226243D02*
X420159D01*
X362458Y276236D02*
X417024Y221671D01*
X413236Y212527D02*
X414478D01*
X417024Y221671D02*
X418266D01*
X265430Y434340D02*
X308610Y391160D01*
X832691Y699840D02*
X834390D01*
X686586Y172914D02*
X687070Y172430D01*
X686586Y172914D02*
Y180943D01*
X256286Y430552D02*
Y462026D01*
X367030Y278130D02*
X418917Y226243D01*
X367030Y278130D02*
Y364490D01*
X362458Y276236D02*
Y362596D01*
X443230Y174970D02*
Y185510D01*
X806116Y172914D02*
Y180943D01*
Y172914D02*
X806600Y172430D01*
X813100D02*
Y185120D01*
X204470Y511930D02*
X219830D01*
X434280Y187960D02*
X436730Y185510D01*
X357886Y274342D02*
Y360703D01*
Y274342D02*
X415130Y217099D01*
X353314Y272449D02*
Y358809D01*
X957580Y260350D02*
X959063Y261833D01*
Y270890D01*
X900622Y297306D02*
X962367D01*
X969136Y280963D02*
Y290537D01*
X959063Y270890D02*
X969136Y280963D01*
X962367Y297306D02*
X969136Y290537D01*
X947040Y284267D02*
X956097D01*
X957580Y285750D01*
X415760Y668143D02*
X447133Y699516D01*
X410760Y669609D02*
X445239Y704088D01*
X420760Y666677D02*
X448254Y694171D01*
X405760Y671074D02*
X443346Y708660D01*
X449496Y688947D02*
X450148Y689599D01*
X400760Y672540D02*
X441960Y713740D01*
X524510Y745490D02*
Y758920D01*
X770890Y63500D02*
X806600Y99210D01*
Y138430D01*
X770890Y43180D02*
Y63500D01*
X753110Y25400D02*
X770890Y43180D01*
X577850Y25400D02*
X753110D01*
X519166Y37164D02*
X662053D01*
X672024Y47135D01*
X508070Y48260D02*
X519166Y37164D01*
X672024Y57936D02*
X687070Y72982D01*
Y138430D01*
X672024Y47135D02*
Y57936D01*
X693570Y117890D02*
Y138430D01*
Y117890D02*
X758120Y53340D01*
X813100Y61851D02*
Y138430D01*
X808120Y53340D02*
Y56871D01*
X813100Y61851D01*
X570380Y106530D02*
Y133874D01*
X443230Y140970D02*
X443714Y140486D01*
Y132457D02*
Y140486D01*
X943823Y477307D02*
X960166D01*
X932180Y488950D02*
X943823Y477307D01*
X939800Y374650D02*
X944880Y379730D01*
X915670Y374650D02*
X939800D01*
X911860Y387350D02*
X932180D01*
X922020Y402590D02*
X932180Y412750D01*
X944880Y379730D02*
Y425450D01*
X408070Y48260D02*
X436730Y76920D01*
Y140970D01*
X932180Y438150D02*
X944880Y425450D01*
X514260Y584830D02*
X531500D01*
X251714Y428659D02*
X304663Y375710D01*
X256286Y430552D02*
X306557Y380282D01*
X415130Y217099D02*
X416372D01*
X570380Y167873D02*
Y178414D01*
X553029Y195765D02*
X570380Y178414D01*
X563396Y168358D02*
Y176387D01*
X353314Y272449D02*
X413236Y212527D01*
X563396Y168358D02*
X563880Y167873D01*
X436730Y174970D02*
Y185510D01*
X302316Y579774D02*
X323234D01*
X405760Y638330D02*
Y671074D01*
X410760Y638330D02*
Y669609D01*
X400760Y638330D02*
Y672540D01*
X415760Y638330D02*
Y668143D01*
X420760Y638330D02*
Y666677D01*
X405400Y736210D02*
X406400Y735210D01*
X323850Y719060D02*
X353340D01*
X353490Y719210D01*
X320760Y694140D02*
X323850Y697230D01*
Y719060D01*
X320760Y638330D02*
Y694140D01*
X574435Y760335D02*
X606665D01*
X621030Y774700D02*
Y787400D01*
X606665Y760335D02*
X621030Y774700D01*
X572405Y751840D02*
X622300D01*
X646030Y775570D01*
Y787400D01*
X671030Y777710D02*
Y787400D01*
X572541Y764907D02*
X596030Y787400D01*
X521030D02*
X541020Y767410D01*
X570657Y787027D02*
X571030Y787400D01*
X549910Y756804D02*
Y779989D01*
X570657Y770047D02*
Y787027D01*
X546030Y783869D02*
X549910Y779989D01*
X541020Y754380D02*
Y767410D01*
X496030Y787400D02*
X524510Y758920D01*
X546030Y783869D02*
Y787400D01*
D23*
X34980Y713980D02*
G03*
X32891Y712854I0J-2500D01*
G01*
X37069D02*
G03*
X34980Y713980I-2089J-1374D01*
G01*
X32891Y712854D02*
G03*
X37480Y711480I2089J-1374D01*
G01*
D02*
G03*
X37069Y712854I-2500J0D01*
G01*
X27980Y637980D02*
G03*
X28480Y639480I-2000J1500D01*
G01*
X27480Y637480D02*
G03*
X27980Y637980I-1500J2000D01*
G01*
X28480Y639480D02*
G03*
X27480Y637480I-2500J0D01*
G01*
X37480Y639480D02*
G03*
X37480Y639480I-2500J0D01*
G01*
X28480Y711480D02*
G03*
X28480Y711480I-2500J0D01*
G01*
X21666Y631666D02*
X27480Y637480D01*
X15240Y619163D02*
X21666Y625589D01*
Y631666D01*
X15240Y618490D02*
Y619163D01*
X27980Y637980D02*
X30480Y640480D01*
Y685480D02*
Y710480D01*
Y640480D02*
Y665480D01*
D24*
X662940Y365760D02*
D03*
X768510Y739140D02*
D03*
X788510D02*
D03*
X663100Y323850D02*
D03*
X683100D02*
D03*
X682940Y365760D02*
D03*
X56990Y360680D02*
D03*
X36990D02*
D03*
X338930Y68580D02*
D03*
X318930D02*
D03*
D25*
X200660Y457200D02*
D03*
X312420Y335120D02*
D03*
Y315120D02*
D03*
X441960Y290830D02*
D03*
Y270830D02*
D03*
X485140Y235110D02*
D03*
Y255110D02*
D03*
X513182Y235110D02*
D03*
Y255110D02*
D03*
X572770Y233840D02*
D03*
Y253840D02*
D03*
X542290Y235110D02*
D03*
Y255110D02*
D03*
X861060Y144940D02*
D03*
X200660Y477200D02*
D03*
X861060Y164940D02*
D03*
D26*
X615950Y381000D02*
D03*
X560604Y704850D02*
D03*
X579120D02*
D03*
X565886Y381000D02*
D03*
X547370D02*
D03*
X573138Y645160D02*
D03*
X554622D02*
D03*
X500012Y381000D02*
D03*
X518528D02*
D03*
X597434D02*
D03*
X37732Y740410D02*
D03*
X554622Y607060D02*
D03*
X573138D02*
D03*
X56248Y740410D02*
D03*
D27*
X163830Y86360D02*
D03*
Y70244D02*
D03*
D28*
X767080Y115570D02*
D03*
X787400Y615950D02*
D03*
Y634466D02*
D03*
X234950Y477888D02*
D03*
Y459372D02*
D03*
X312420Y277228D02*
D03*
Y258712D02*
D03*
X443230Y346710D02*
D03*
Y328194D02*
D03*
X205740Y307708D02*
D03*
Y289192D02*
D03*
X557530Y513982D02*
D03*
Y532498D02*
D03*
X649393Y189844D02*
D03*
Y171329D02*
D03*
X401437Y115371D02*
D03*
X527050Y108106D02*
D03*
X649393Y112662D02*
D03*
X401437Y174038D02*
D03*
X789940Y482600D02*
D03*
X525780Y158004D02*
D03*
X793750Y330568D02*
D03*
X170180Y289192D02*
D03*
X205740Y409676D02*
D03*
X401437Y133887D02*
D03*
X527050Y126621D02*
D03*
X649393Y131178D02*
D03*
X767080Y134086D02*
D03*
X205740Y391160D02*
D03*
X170180Y307708D02*
D03*
X793750Y312052D02*
D03*
X525780Y176519D02*
D03*
X789940Y464084D02*
D03*
X401437Y192553D02*
D03*
D29*
X30480Y665480D02*
D03*
Y685480D02*
D03*
D30*
X57480Y668980D02*
D03*
Y688480D02*
D03*
Y662480D02*
D03*
Y681980D02*
D03*
Y675480D02*
D03*
D31*
X33020Y604520D02*
D03*
X48220D02*
D03*
D32*
X31982Y572770D02*
D03*
X61998D02*
D03*
X117878Y209550D02*
D03*
X87862D02*
D03*
X163024Y127000D02*
D03*
X193040D02*
D03*
D33*
X83680Y510850D02*
D03*
X106680D02*
D03*
X95390Y265910D02*
D03*
X72390D02*
D03*
D34*
X106680Y450850D02*
D03*
X72390Y325910D02*
D03*
D35*
X129680Y510850D02*
D03*
X49390Y265910D02*
D03*
D36*
X323850Y719060D02*
D03*
Y734060D02*
D03*
X406400Y735210D02*
D03*
Y720210D02*
D03*
X204470Y565150D02*
D03*
Y526930D02*
D03*
Y580150D02*
D03*
Y511930D02*
D03*
D37*
X634060Y666750D02*
D03*
Y654050D02*
D03*
X707060Y641350D02*
D03*
Y628650D02*
D03*
Y654050D02*
D03*
Y666750D02*
D03*
X634060Y641350D02*
D03*
Y628650D02*
D03*
D38*
X119140Y391160D02*
D03*
X89140D02*
D03*
D39*
X353490Y719210D02*
D03*
X375490Y736210D02*
D03*
Y719210D02*
D03*
X353490Y736210D02*
D03*
D40*
X271190Y338420D02*
D03*
Y258420D02*
D03*
X400730Y353660D02*
D03*
Y273660D02*
D03*
D41*
X440760Y638330D02*
D03*
X335760D02*
D03*
X325760Y426330D02*
D03*
X485760D02*
D03*
X480760D02*
D03*
X330760D02*
D03*
X320760D02*
D03*
X445760Y638330D02*
D03*
X495760D02*
D03*
X490760D02*
D03*
X485760D02*
D03*
X480760D02*
D03*
X475760D02*
D03*
X470760D02*
D03*
X465760D02*
D03*
X460760D02*
D03*
X455760D02*
D03*
X450760D02*
D03*
X435760D02*
D03*
X430760D02*
D03*
X425760D02*
D03*
X420760D02*
D03*
X415760D02*
D03*
X410760D02*
D03*
X405760D02*
D03*
X400760D02*
D03*
X395760D02*
D03*
X390760D02*
D03*
X385760D02*
D03*
X380760D02*
D03*
X375760D02*
D03*
X370760D02*
D03*
X365760D02*
D03*
X360760D02*
D03*
X355760D02*
D03*
X350760D02*
D03*
X345760D02*
D03*
X340760D02*
D03*
X330760D02*
D03*
X325760D02*
D03*
X320760D02*
D03*
X335760Y426330D02*
D03*
X340760D02*
D03*
X345760D02*
D03*
X350760D02*
D03*
X355760D02*
D03*
X360760D02*
D03*
X365760D02*
D03*
X370760D02*
D03*
X375760D02*
D03*
X380760D02*
D03*
X385760D02*
D03*
X390760D02*
D03*
X395760D02*
D03*
X400760D02*
D03*
X405760D02*
D03*
X410760D02*
D03*
X415760D02*
D03*
X420760D02*
D03*
X425760D02*
D03*
X430760D02*
D03*
X435760D02*
D03*
X440760D02*
D03*
X445760D02*
D03*
X450760D02*
D03*
X455760D02*
D03*
X460760D02*
D03*
X465760D02*
D03*
X470760D02*
D03*
X475760D02*
D03*
X490760D02*
D03*
X495760D02*
D03*
D42*
X302260Y584830D02*
D03*
Y574830D02*
D03*
Y534830D02*
D03*
Y514830D02*
D03*
X514260Y529830D02*
D03*
Y524830D02*
D03*
X302260Y494830D02*
D03*
Y519830D02*
D03*
Y544830D02*
D03*
Y599830D02*
D03*
Y539830D02*
D03*
Y549830D02*
D03*
Y554830D02*
D03*
Y619830D02*
D03*
Y614830D02*
D03*
Y609830D02*
D03*
Y604830D02*
D03*
Y594830D02*
D03*
Y589830D02*
D03*
Y579830D02*
D03*
Y569830D02*
D03*
Y564830D02*
D03*
Y559830D02*
D03*
Y529830D02*
D03*
Y524830D02*
D03*
Y509830D02*
D03*
Y504830D02*
D03*
Y499830D02*
D03*
Y489830D02*
D03*
Y484830D02*
D03*
Y479830D02*
D03*
Y474830D02*
D03*
Y469830D02*
D03*
Y464830D02*
D03*
Y459830D02*
D03*
Y454830D02*
D03*
Y449830D02*
D03*
Y444830D02*
D03*
X514260D02*
D03*
Y449830D02*
D03*
Y454830D02*
D03*
Y459830D02*
D03*
Y464830D02*
D03*
Y469830D02*
D03*
Y474830D02*
D03*
Y479830D02*
D03*
Y484830D02*
D03*
Y489830D02*
D03*
Y494830D02*
D03*
Y499830D02*
D03*
Y504830D02*
D03*
Y509830D02*
D03*
Y514830D02*
D03*
Y519830D02*
D03*
Y534830D02*
D03*
Y539830D02*
D03*
Y544830D02*
D03*
Y549830D02*
D03*
Y554830D02*
D03*
Y559830D02*
D03*
Y564830D02*
D03*
Y569830D02*
D03*
Y574830D02*
D03*
Y579830D02*
D03*
Y584830D02*
D03*
Y589830D02*
D03*
Y594830D02*
D03*
Y599830D02*
D03*
Y604830D02*
D03*
Y609830D02*
D03*
Y614830D02*
D03*
Y619830D02*
D03*
D43*
X128070Y687680D02*
D03*
Y678180D02*
D03*
Y668680D02*
D03*
X103070D02*
D03*
Y687680D02*
D03*
Y678180D02*
D03*
D44*
X257202Y127000D02*
D03*
X233680D02*
D03*
X259411Y83820D02*
D03*
X235889D02*
D03*
D45*
X265430Y184150D02*
D03*
X207010D02*
D03*
D46*
X39370Y486642D02*
D03*
Y516658D02*
D03*
X328930Y118342D02*
D03*
Y148358D02*
D03*
D47*
X35560Y435950D02*
D03*
Y414950D02*
D03*
D48*
X341970Y38100D02*
D03*
X320970D02*
D03*
D49*
X133350Y283450D02*
D03*
Y313450D02*
D03*
X237490Y541220D02*
D03*
Y566220D02*
D03*
D50*
X153670Y193650D02*
D03*
Y184150D02*
D03*
Y174650D02*
D03*
X175660Y184150D02*
D03*
Y193650D02*
D03*
Y174650D02*
D03*
D51*
X190062Y242570D02*
D03*
X206178D02*
D03*
D63*
X806600Y138430D02*
D03*
X813100D02*
D03*
X819600Y172430D02*
D03*
X813100D02*
D03*
X806600D02*
D03*
X800100D02*
D03*
X819600Y138430D02*
D03*
X800100D02*
D03*
X687070D02*
D03*
X693570D02*
D03*
Y172430D02*
D03*
X687070D02*
D03*
X680570D02*
D03*
X700070Y138430D02*
D03*
Y172430D02*
D03*
X680570Y138430D02*
D03*
X430230Y140970D02*
D03*
X557380Y133874D02*
D03*
X576880Y167873D02*
D03*
Y133874D02*
D03*
X449730Y174970D02*
D03*
Y140970D02*
D03*
X430230Y174970D02*
D03*
X557380Y167873D02*
D03*
X563880Y133874D02*
D03*
Y167873D02*
D03*
X570380D02*
D03*
Y133874D02*
D03*
X436730Y174970D02*
D03*
X443230D02*
D03*
Y140970D02*
D03*
X436730D02*
D03*
D81*
X15240Y618490D02*
D03*
X604520Y698500D02*
D03*
X19050Y730250D02*
D03*
X464820Y180340D02*
D03*
X554990Y75184D02*
D03*
X326390Y491490D02*
D03*
X277271Y527608D02*
D03*
X267970Y514350D02*
D03*
X275590Y494030D02*
D03*
X537210Y523240D02*
D03*
X577850Y582930D02*
D03*
X562610Y572770D02*
D03*
X552450Y585470D02*
D03*
X567690Y469900D02*
D03*
X454660Y256540D02*
D03*
X543560Y680720D02*
D03*
X441960Y657860D02*
D03*
X455709Y663362D02*
D03*
X417694Y619139D02*
D03*
X389890Y584200D02*
D03*
X372110Y586740D02*
D03*
X425680Y596670D02*
D03*
X441740Y613568D02*
D03*
X256540Y486410D02*
D03*
X332740Y403860D02*
D03*
X769620Y201676D02*
D03*
X740410Y205740D02*
D03*
X802640Y222250D02*
D03*
X530860Y636270D02*
D03*
X544830Y570230D02*
D03*
X123190Y553720D02*
D03*
X309880Y353060D02*
D03*
X593090Y75184D02*
D03*
X107421Y530536D02*
D03*
X336550Y586740D02*
D03*
X467360Y661670D02*
D03*
X490220Y589280D02*
D03*
X479508Y581198D02*
D03*
X472209Y603481D02*
D03*
X488899Y570281D02*
D03*
X457200Y575310D02*
D03*
X471170Y535940D02*
D03*
X455168Y544830D02*
D03*
X454985Y528320D02*
D03*
X409170Y580160D02*
D03*
X416306Y588009D02*
D03*
X419608Y548640D02*
D03*
X398780Y532130D02*
D03*
X401320Y513080D02*
D03*
X359586Y485420D02*
D03*
X367073Y493019D02*
D03*
X344170Y492760D02*
D03*
X565150Y487680D02*
D03*
X616636Y503504D02*
D03*
X542290Y480060D02*
D03*
X704850Y228600D02*
D03*
X628650Y341630D02*
D03*
X359410Y600710D02*
D03*
X346964Y607314D02*
D03*
X420370Y473710D02*
D03*
X431330Y452920D02*
D03*
X438912Y459683D02*
D03*
X445770Y488950D02*
D03*
X431800Y486410D02*
D03*
X420370Y402590D02*
D03*
X453390Y378460D02*
D03*
X472440Y497840D02*
D03*
X482600Y481330D02*
D03*
X463550Y514350D02*
D03*
X741680Y365760D02*
D03*
X726440Y567690D02*
D03*
X462280Y358140D02*
D03*
X374142Y452120D02*
D03*
X381794Y463804D02*
D03*
X485140Y543560D02*
D03*
X311150Y410210D02*
D03*
X577850Y25400D02*
D03*
D82*
X219345Y676373D02*
G03*
X216014Y673042I0J-3331D01*
G01*
X202123Y669722D02*
G03*
X216014Y669722I6946J0D01*
G01*
X202123Y687685D02*
G03*
X195460Y687685I-3331J0D01*
G01*
X181569Y669722D02*
G03*
X195460Y669722I6946J0D01*
G01*
X181569Y687685D02*
G03*
X174907Y687685I-3331J0D01*
G01*
X167961Y676373D02*
G03*
X174907Y683318I0J6946D01*
G01*
X219345Y679987D02*
G03*
X212400Y673042I0J-6946D01*
G01*
X205737Y669722D02*
G03*
X212400Y669722I3331J0D01*
G01*
X205737Y687685D02*
G03*
X191846Y687685I-6946J0D01*
G01*
X185183Y669722D02*
G03*
X191846Y669722I3331J0D01*
G01*
X185183Y687685D02*
G03*
X171292Y687685I-6946J0D01*
G01*
X167961Y679987D02*
G03*
X171292Y683318I0J3331D01*
G01*
X219345Y676373D02*
X227610D01*
X216014Y669722D02*
Y673042D01*
X202123Y669722D02*
Y687685D01*
X195460Y669722D02*
Y687685D01*
X181569Y669722D02*
Y687685D01*
X174907Y683318D02*
Y687685D01*
X165362Y676373D02*
X167961D01*
X219345Y679987D02*
X227610D01*
X212400Y669722D02*
Y673042D01*
X205737Y669722D02*
Y687685D01*
X191846Y669722D02*
Y687685D01*
X185183Y669722D02*
Y687685D01*
X171292Y683318D02*
Y687685D01*
X165362Y679987D02*
X167961D01*
X227610Y676373D02*
X249744D01*
X227610Y679987D02*
X251241D01*
X138609Y676373D02*
X165362D01*
X138609Y679987D02*
X165362D01*
X280670Y602471D02*
Y603834D01*
X280670Y603834D01*
X302260Y590101D02*
X313180D01*
X284480Y626110D02*
X311094D01*
X269471Y641119D02*
X284480Y626110D01*
X311094D02*
X323897Y613307D01*
X251241Y679987D02*
X269471Y661757D01*
Y641119D02*
Y661757D01*
X323897Y600818D02*
Y613307D01*
X313180Y590101D02*
X323897Y600818D01*
X134239Y684511D02*
X135450D01*
X137401Y682560D01*
X128070Y687680D02*
X131070D01*
X134239Y684511D01*
X137401Y681195D02*
Y682560D01*
Y681195D02*
X138609Y679987D01*
X280670Y603834D02*
Y622286D01*
X265857Y637099D02*
X280670Y622286D01*
X249744Y676373D02*
X265857Y660260D01*
Y637099D02*
Y660260D01*
X280670Y602471D02*
X288311Y594830D01*
X137401Y675165D02*
X138609Y676373D01*
X137401Y673800D02*
Y675165D01*
X134239Y671849D02*
X135450D01*
X137401Y673800D01*
X131070Y668680D02*
X134239Y671849D01*
X128070Y668680D02*
X131070D01*
X288311Y594830D02*
X302260D01*
X300763Y589830D02*
X302260D01*
X86946Y676923D02*
X87496Y676373D01*
X92531D01*
X65884Y680537D02*
X88443D01*
X88993Y679987D01*
X65884Y676923D02*
X86946D01*
X88993Y679987D02*
X92531D01*
X93739Y681195D02*
Y682560D01*
X95690Y684511D01*
X92531Y676373D02*
X93739Y675165D01*
X92531Y679987D02*
X93739Y681195D01*
Y673800D02*
Y675165D01*
Y673800D02*
X95690Y671849D01*
X57480Y681980D02*
X58649Y680811D01*
X65610D01*
Y676649D02*
X65884Y676923D01*
X65610Y680811D02*
X65884Y680537D01*
X95690Y671849D02*
X96901D01*
X95690Y684511D02*
X96901D01*
Y671849D02*
X100070Y668680D01*
X103070D01*
X96901Y684511D02*
X100070Y687680D01*
X57480Y675480D02*
X58649Y676649D01*
X100070Y687680D02*
X103070D01*
X58649Y676649D02*
X65610D01*
D83*
X224790Y30480D02*
X274320D01*
X280035Y36195D01*
X293370Y22860D01*
X259411Y56819D02*
X280035Y36195D01*
X421640Y749300D02*
Y756920D01*
Y744474D02*
Y749300D01*
X354490Y736210D02*
X367580Y749300D01*
X421640D01*
X786064Y319231D02*
X793242Y312052D01*
X773430Y330086D02*
X784286Y319231D01*
X793242Y312052D02*
X793750D01*
X784286Y319231D02*
X786064D01*
X773430Y330086D02*
Y368300D01*
X774700Y431800D02*
X789940Y447040D01*
Y464084D01*
X573138Y645160D02*
X600710D01*
X573138Y607060D02*
X690880D01*
X692150Y608330D01*
X722630D02*
X728980Y601980D01*
X741680D01*
X692150Y608330D02*
X722630D01*
X659130Y641350D02*
X692150Y608330D01*
X634060Y641350D02*
X659130D01*
X480065Y176525D02*
X525775D01*
X525780Y176519D01*
X406400Y720210D02*
X418664D01*
X421640Y723186D02*
Y744474D01*
X418664Y720210D02*
X421640Y723186D01*
X406600Y771960D02*
X421640Y756920D01*
X406600Y771960D02*
Y787230D01*
X231140Y346710D02*
X249138Y364708D01*
X231140Y333108D02*
Y346710D01*
X249138Y364708D02*
X319822D01*
X335280Y349250D01*
X212251Y314219D02*
X231140Y333108D01*
X494030Y102870D02*
X496092D01*
X501328Y108106D02*
X527050D01*
X496092Y102870D02*
X501328Y108106D01*
X624840Y105410D02*
X626902D01*
X634154Y112662D02*
X649393D01*
X626902Y105410D02*
X634154Y112662D01*
X751840Y115570D02*
X767080D01*
X739140Y102870D02*
X751840Y115570D01*
X854710Y114300D02*
Y115125D01*
X861060Y121475D02*
Y144940D01*
X854710Y115125D02*
X861060Y121475D01*
X491490Y140970D02*
X505839Y126621D01*
X98802Y450850D02*
X106680D01*
X41678Y514350D02*
X80789D01*
X107050Y511220D02*
Y530165D01*
X265430Y184150D02*
Y189230D01*
X259411Y127000D02*
X318264D01*
X505839Y126621D02*
X527050D01*
X205740Y307708D02*
X206248D01*
X212251Y313711D01*
Y314219D01*
X335280Y327660D02*
Y349250D01*
X322740Y315120D02*
X335280Y327660D01*
X312420Y315120D02*
X322740D01*
X153670Y234950D02*
X182880Y264160D01*
X228600D01*
X238760Y254000D01*
Y215900D02*
Y254000D01*
Y215900D02*
X265430Y189230D01*
X318264Y127000D02*
X326922Y118342D01*
X259411Y56819D02*
Y83820D01*
X326922Y118342D02*
X328930D01*
X326730Y22860D02*
X341970Y38100D01*
X293370Y22860D02*
X326730D01*
X170180Y307708D02*
X205740D01*
X164438Y313450D02*
X170180Y307708D01*
X72390Y265910D02*
Y325910D01*
X133350Y313450D02*
X164438D01*
X72390Y325910D02*
X116890D01*
X129350Y313450D02*
X133350D01*
X116890Y325910D02*
X129350Y313450D01*
X83902Y435950D02*
X98802Y450850D01*
X112628D02*
X119140Y444338D01*
X199410Y477200D02*
X200660D01*
X173060Y450850D02*
X199410Y477200D01*
X119140Y391160D02*
X205740D01*
X112628Y450850D02*
X173060D01*
X35560Y435950D02*
X83902D01*
X328930Y118342D02*
X398466D01*
X847772Y464293D02*
Y542227D01*
X834390Y555609D02*
X847772Y542227D01*
X790877Y463147D02*
X834723D01*
X835660Y462210D01*
X845689D02*
X847772Y464293D01*
X789940Y464084D02*
X790877Y463147D01*
X794258Y312052D02*
X806190Y300120D01*
X793750Y312052D02*
X794258D01*
X806190Y300120D02*
X836930D01*
X816008Y325120D02*
X836930D01*
X793750Y330568D02*
X810560D01*
X816008Y325120D01*
X828344Y482600D02*
X832954Y487210D01*
X789940Y482600D02*
X828344D01*
X832954Y487210D02*
X835660D01*
Y462210D02*
X845689D01*
X834390Y555609D02*
Y624840D01*
X819016Y634466D02*
X834390Y649840D01*
X787400Y634466D02*
X819016D01*
X787400Y615950D02*
X825500D01*
X834390Y624840D01*
X33020Y604520D02*
Y625061D01*
X49520Y604520D02*
X52050Y601990D01*
Y600690D02*
X61998Y590742D01*
Y572770D02*
Y590742D01*
X49520Y604520D02*
X57480Y612480D01*
Y650480D01*
X31982Y550531D02*
X39370Y543143D01*
X31982Y550531D02*
Y572770D01*
X39370Y516658D02*
Y543143D01*
X153670Y193650D02*
Y234950D01*
X140970Y247650D02*
X153670Y234950D01*
X113650Y247650D02*
X140970D01*
X100209Y261091D02*
X113650Y247650D01*
X98281Y261091D02*
X100209D01*
X95390Y263982D02*
X98281Y261091D01*
X95390Y263982D02*
Y265910D01*
X176530Y194520D02*
Y201930D01*
X190062Y215462D01*
Y242570D01*
X175660Y184150D02*
X207010D01*
X33020Y573808D02*
Y604520D01*
X312420Y277228D02*
Y315120D01*
X271190Y338420D02*
X274490Y335120D01*
X323850Y734060D02*
X351340D01*
D84*
X330200Y154708D02*
X332740Y152168D01*
X330200Y154708D02*
Y172720D01*
X330859Y173379D02*
X400778D01*
X330200Y172720D02*
X330859Y173379D01*
X400778D02*
X401389Y173990D01*
X625849Y148292D02*
X648885Y171329D01*
X616922Y148292D02*
X625849D01*
X615950Y147320D02*
X616922Y148292D01*
X648885Y171329D02*
X649393D01*
X257810Y128601D02*
X259411Y127000D01*
X265430Y149860D02*
Y184150D01*
X257810Y128601D02*
Y142240D01*
X265430Y149860D01*
X526415Y127256D02*
Y157368D01*
X525780Y158004D02*
X526415Y157368D01*
Y127256D02*
X527050Y126621D01*
X649393Y131178D02*
Y171329D01*
X768510Y740390D02*
X776668Y748548D01*
Y748810D01*
X780090Y752232D01*
X901731D01*
X978534Y675429D01*
Y636904D02*
Y675429D01*
X957580Y615950D02*
X978534Y636904D01*
X753440Y755460D02*
Y787400D01*
Y755460D02*
X768510Y740390D01*
X737121Y654571D02*
X772279Y619413D01*
X724942Y666750D02*
X737121Y654571D01*
X736600Y654050D02*
X737121Y654571D01*
X707060Y654050D02*
X736600D01*
X741680Y601980D02*
X755650Y615950D01*
X787400D01*
X707060Y666750D02*
X724942D01*
D85*
X287020Y184150D02*
X312420Y209550D01*
X265430Y184150D02*
X287020D01*
X106680Y450850D02*
Y510850D01*
X259411Y83820D02*
Y124791D01*
X30480Y665480D02*
Y685480D01*
D86*
X302260Y609830D02*
X314104D01*
X302260Y599830D02*
X311659D01*
X311942Y600112D01*
X314795D02*
X318025Y603250D01*
X311942Y600112D02*
X314795D01*
D87*
X309880Y337660D02*
X312420Y335120D01*
D88*
X224790Y30480D02*
D03*
X81280Y802640D02*
D03*
X182880Y30480D02*
D03*
D89*
X116360Y139440D02*
D03*
X58360D02*
D03*
D90*
X86360Y91440D02*
D03*
D91*
X273050Y789940D02*
D03*
X835660Y537210D02*
D03*
X621030Y787400D02*
D03*
X708120Y53340D02*
D03*
X758120D02*
D03*
X808120D02*
D03*
X833120D02*
D03*
X783120D02*
D03*
X683120D02*
D03*
X733120D02*
D03*
X458070Y48260D02*
D03*
X508070D02*
D03*
X558070D02*
D03*
X583070D02*
D03*
X533070D02*
D03*
X433070D02*
D03*
X483070D02*
D03*
X148050Y789940D02*
D03*
X173050D02*
D03*
X198050D02*
D03*
X223050D02*
D03*
X298050D02*
D03*
X248050D02*
D03*
X496030Y787400D02*
D03*
X521030D02*
D03*
X546030D02*
D03*
X571030D02*
D03*
X646030D02*
D03*
X596030D02*
D03*
X828440D02*
D03*
X803440D02*
D03*
X778440D02*
D03*
X753440D02*
D03*
X834390Y699840D02*
D03*
Y674840D02*
D03*
Y649840D02*
D03*
X835660Y512210D02*
D03*
Y487210D02*
D03*
X836930Y325120D02*
D03*
Y350120D02*
D03*
Y375120D02*
D03*
D92*
X853440Y787400D02*
D03*
X658120Y53340D02*
D03*
X408070Y48260D02*
D03*
X323050Y789940D02*
D03*
X671030Y787400D02*
D03*
D93*
X57480Y700480D02*
D03*
Y650480D02*
D03*
D94*
X431600Y787230D02*
D03*
D95*
X406600D02*
D03*
D96*
X834390Y624840D02*
D03*
X835660Y462210D02*
D03*
X836930Y300120D02*
D03*
D97*
X932180Y463550D02*
D03*
X957580D02*
D03*
X932180Y438150D02*
D03*
Y412750D02*
D03*
X957580Y438150D02*
D03*
Y412750D02*
D03*
X932180Y311150D02*
D03*
Y285750D02*
D03*
X957580Y311150D02*
D03*
Y285750D02*
D03*
X932180Y184150D02*
D03*
X957580Y209550D02*
D03*
X932180D02*
D03*
X957580Y234950D02*
D03*
X932180D02*
D03*
X957580Y260350D02*
D03*
X932180D02*
D03*
X957580Y336550D02*
D03*
X932180D02*
D03*
X957580Y361950D02*
D03*
Y387350D02*
D03*
X932180Y361950D02*
D03*
Y387350D02*
D03*
X957580Y488950D02*
D03*
Y514350D02*
D03*
Y539750D02*
D03*
Y565150D02*
D03*
X932180Y488950D02*
D03*
Y514350D02*
D03*
Y539750D02*
D03*
Y565150D02*
D03*
X957580Y590550D02*
D03*
Y641350D02*
D03*
Y666750D02*
D03*
X932180Y590550D02*
D03*
Y615950D02*
D03*
Y641350D02*
D03*
Y666750D02*
D03*
X957580Y615950D02*
D03*
D98*
Y184150D02*
D03*
D99*
X486410Y290830D02*
D03*
Y316230D02*
D03*
X511810Y290830D02*
D03*
Y316230D02*
D03*
X537210Y290830D02*
D03*
Y316230D02*
D03*
X562610Y290830D02*
D03*
Y316230D02*
D03*
X666750Y267970D02*
D03*
Y242570D02*
D03*
X641350Y267970D02*
D03*
Y242570D02*
D03*
X762000Y264160D02*
D03*
Y238760D02*
D03*
X736600Y264160D02*
D03*
Y238760D02*
D03*
D100*
X49530Y382270D02*
D03*
X36830Y461010D02*
D03*
X130810Y262890D02*
D03*
X57150Y232410D02*
D03*
X237490Y283210D02*
D03*
X359410Y68580D02*
D03*
X330200Y172720D02*
D03*
X162560Y262890D02*
D03*
X33020Y233680D02*
D03*
X92964Y572770D02*
D03*
X173990Y568960D02*
D03*
X251460Y504190D02*
D03*
X104140Y60960D02*
D03*
X172720Y508000D02*
D03*
X177800Y415290D02*
D03*
X127360Y81280D02*
D03*
X125730Y60960D02*
D03*
X773430Y368300D02*
D03*
X774700Y431800D02*
D03*
X615950Y147320D02*
D03*
X600710Y645160D02*
D03*
X591820Y180086D02*
D03*
X721402Y174474D02*
D03*
X604520Y622300D02*
D03*
X256540Y712470D02*
D03*
X292100D02*
D03*
X494030Y102870D02*
D03*
X624840Y105410D02*
D03*
X739140Y102870D02*
D03*
X854710Y114300D02*
D03*
X716280Y119380D02*
D03*
X594360Y106680D02*
D03*
X491490Y140970D02*
D03*
X312420Y209550D02*
D03*
X166370Y220980D02*
D03*
X741680Y601980D02*
D03*
X36830Y81280D02*
D03*
X201930Y92710D02*
D03*
Y68580D02*
D03*
X60960Y209550D02*
D03*
X35560Y210820D02*
D03*
X78740Y60960D02*
D03*
X58420D02*
D03*
X35560D02*
D03*
D101*
X425450Y307340D02*
D03*
X232410Y609600D02*
D03*
X544830Y421640D02*
D03*
X490220Y459740D02*
D03*
X486410Y523240D02*
D03*
X337820Y673100D02*
D03*
D102*
X322419Y447387D02*
D03*
X267970Y544830D02*
D03*
X256540Y571500D02*
D03*
X322580Y506730D02*
D03*
X317101Y611800D02*
D03*
X318025Y603250D02*
D03*
M02*
