G04*
G04 #@! TF.GenerationSoftware,Altium Limited,Altium Designer,24.2.2 (26)*
G04*
G04 Layer_Color=128*
%FSLAX44Y44*%
%MOMM*%
G71*
G04*
G04 #@! TF.SameCoordinates,251A4116-46B9-4EB5-9C36-AF9AACF17162*
G04*
G04*
G04 #@! TF.FilePolarity,Positive*
G04*
G01*
G75*
%ADD10C,0.1270*%
D10*
X219690Y30480D02*
X229890D01*
X224790Y25380D02*
Y35580D01*
X112360Y139440D02*
X120360D01*
X116360Y135440D02*
Y143440D01*
X82360Y91440D02*
X90360D01*
X86360Y87440D02*
Y95440D01*
X54360Y139440D02*
X62360D01*
X58360Y135440D02*
Y143440D01*
X76180Y802640D02*
X86380D01*
X81280Y797540D02*
Y807740D01*
X177780Y30480D02*
X187980D01*
X182880Y25380D02*
Y35580D01*
X268050Y789940D02*
X278050D01*
X273050Y784940D02*
Y794940D01*
X830660Y537210D02*
X840660D01*
X835660Y532210D02*
Y542210D01*
X616030Y787400D02*
X626030D01*
X621030Y782400D02*
Y792400D01*
X848440Y787400D02*
X858440D01*
X853440Y782400D02*
Y792400D01*
X27480Y710480D02*
X33480D01*
X30480Y707480D02*
Y713480D01*
X27480Y640480D02*
X33480D01*
X30480Y637480D02*
Y643480D01*
X53230Y700480D02*
X61730D01*
X57480Y696230D02*
Y704730D01*
X53230Y650480D02*
X61730D01*
X57480Y646230D02*
Y654730D01*
X703120Y53340D02*
X713120D01*
X708120Y48340D02*
Y58340D01*
X653120Y53340D02*
X663120D01*
X658120Y48340D02*
Y58340D01*
X753120Y53340D02*
X763120D01*
X758120Y48340D02*
Y58340D01*
X803120Y53340D02*
X813120D01*
X808120Y48340D02*
Y58340D01*
X828120Y53340D02*
X838120D01*
X833120Y48340D02*
Y58340D01*
X778120Y53340D02*
X788120D01*
X783120Y48340D02*
Y58340D01*
X678120Y53340D02*
X688120D01*
X683120Y48340D02*
Y58340D01*
X728120Y53340D02*
X738120D01*
X733120Y48340D02*
Y58340D01*
X453070Y48260D02*
X463070D01*
X458070Y43260D02*
Y53260D01*
X403070Y48260D02*
X413070D01*
X408070Y43260D02*
Y53260D01*
X503070Y48260D02*
X513070D01*
X508070Y43260D02*
Y53260D01*
X553070Y48260D02*
X563070D01*
X558070Y43260D02*
Y53260D01*
X578070Y48260D02*
X588070D01*
X583070Y43260D02*
Y53260D01*
X528070Y48260D02*
X538070D01*
X533070Y43260D02*
Y53260D01*
X428070Y48260D02*
X438070D01*
X433070Y43260D02*
Y53260D01*
X478070Y48260D02*
X488070D01*
X483070Y43260D02*
Y53260D01*
X426350Y787230D02*
X436850D01*
X431600Y781980D02*
Y792480D01*
X401350Y787230D02*
X411850D01*
X406600Y781980D02*
Y792480D01*
X143050Y789940D02*
X153050D01*
X148050Y784940D02*
Y794940D01*
X168050Y789940D02*
X178050D01*
X173050Y784940D02*
Y794940D01*
X193050Y789940D02*
X203050D01*
X198050Y784940D02*
Y794940D01*
X218050Y789940D02*
X228050D01*
X223050Y784940D02*
Y794940D01*
X318050Y789940D02*
X328050D01*
X323050Y784940D02*
Y794940D01*
X293050Y789940D02*
X303050D01*
X298050Y784940D02*
Y794940D01*
X243050Y789940D02*
X253050D01*
X248050Y784940D02*
Y794940D01*
X927610Y806450D02*
X959610D01*
X943610Y790450D02*
Y822450D01*
X11940Y27940D02*
X43940D01*
X27940Y11940D02*
Y43940D01*
X19560Y803910D02*
X51560D01*
X35560Y787910D02*
Y819910D01*
X932690Y46990D02*
X964690D01*
X948690Y30990D02*
Y62990D01*
X491030Y787400D02*
X501030D01*
X496030Y782400D02*
Y792400D01*
X516030Y787400D02*
X526030D01*
X521030Y782400D02*
Y792400D01*
X541030Y787400D02*
X551030D01*
X546030Y782400D02*
Y792400D01*
X566030Y787400D02*
X576030D01*
X571030Y782400D02*
Y792400D01*
X666030Y787400D02*
X676030D01*
X671030Y782400D02*
Y792400D01*
X641030Y787400D02*
X651030D01*
X646030Y782400D02*
Y792400D01*
X591030Y787400D02*
X601030D01*
X596030Y782400D02*
Y792400D01*
X823440Y787400D02*
X833440D01*
X828440Y782400D02*
Y792400D01*
X798440Y787400D02*
X808440D01*
X803440Y782400D02*
Y792400D01*
X773440Y787400D02*
X783440D01*
X778440Y782400D02*
Y792400D01*
X748440Y787400D02*
X758440D01*
X753440Y782400D02*
Y792400D01*
X829390Y699840D02*
X839390D01*
X834390Y694840D02*
Y704840D01*
X829390Y674840D02*
X839390D01*
X834390Y669840D02*
Y679840D01*
X829390Y624840D02*
X839390D01*
X834390Y619840D02*
Y629840D01*
X829390Y649840D02*
X839390D01*
X834390Y644840D02*
Y654840D01*
X830660Y512210D02*
X840660D01*
X835660Y507210D02*
Y517210D01*
X830660Y462210D02*
X840660D01*
X835660Y457210D02*
Y467210D01*
X830660Y487210D02*
X840660D01*
X835660Y482210D02*
Y492210D01*
X927080Y463550D02*
X937280D01*
X932180Y458450D02*
Y468650D01*
X952480Y463550D02*
X962680D01*
X957580Y458450D02*
Y468650D01*
X927080Y438150D02*
X937280D01*
X932180Y433050D02*
Y443250D01*
X927080Y412750D02*
X937280D01*
X932180Y407650D02*
Y417850D01*
X952480Y438150D02*
X962680D01*
X957580Y433050D02*
Y443250D01*
X952480Y412750D02*
X962680D01*
X957580Y407650D02*
Y417850D01*
X927080Y311150D02*
X937280D01*
X932180Y306050D02*
Y316250D01*
X927080Y285750D02*
X937280D01*
X932180Y280650D02*
Y290850D01*
X952480Y311150D02*
X962680D01*
X957580Y306050D02*
Y316250D01*
X952480Y285750D02*
X962680D01*
X957580Y280650D02*
Y290850D01*
X927080Y184150D02*
X937280D01*
X932180Y179050D02*
Y189250D01*
X952480Y209550D02*
X962680D01*
X957580Y204450D02*
Y214650D01*
X927080Y209550D02*
X937280D01*
X932180Y204450D02*
Y214650D01*
X952480Y234950D02*
X962680D01*
X957580Y229850D02*
Y240050D01*
X927080Y234950D02*
X937280D01*
X932180Y229850D02*
Y240050D01*
X952480Y260350D02*
X962680D01*
X957580Y255250D02*
Y265450D01*
X927080Y260350D02*
X937280D01*
X932180Y255250D02*
Y265450D01*
X952480Y336550D02*
X962680D01*
X957580Y331450D02*
Y341650D01*
X927080Y336550D02*
X937280D01*
X932180Y331450D02*
Y341650D01*
X952480Y361950D02*
X962680D01*
X957580Y356850D02*
Y367050D01*
X952480Y387350D02*
X962680D01*
X957580Y382250D02*
Y392450D01*
X927080Y361950D02*
X937280D01*
X932180Y356850D02*
Y367050D01*
X927080Y387350D02*
X937280D01*
X932180Y382250D02*
Y392450D01*
X952480Y488950D02*
X962680D01*
X957580Y483850D02*
Y494050D01*
X952480Y514350D02*
X962680D01*
X957580Y509250D02*
Y519450D01*
X952480Y539750D02*
X962680D01*
X957580Y534650D02*
Y544850D01*
X952480Y565150D02*
X962680D01*
X957580Y560050D02*
Y570250D01*
X927080Y488950D02*
X937280D01*
X932180Y483850D02*
Y494050D01*
X927080Y514350D02*
X937280D01*
X932180Y509250D02*
Y519450D01*
X927080Y539750D02*
X937280D01*
X932180Y534650D02*
Y544850D01*
X927080Y565150D02*
X937280D01*
X932180Y560050D02*
Y570250D01*
X952480Y590550D02*
X962680D01*
X957580Y585450D02*
Y595650D01*
X952480Y641350D02*
X962680D01*
X957580Y636250D02*
Y646450D01*
X952480Y666750D02*
X962680D01*
X957580Y661650D02*
Y671850D01*
X927080Y590550D02*
X937280D01*
X932180Y585450D02*
Y595650D01*
X927080Y615950D02*
X937280D01*
X932180Y610850D02*
Y621050D01*
X927080Y641350D02*
X937280D01*
X932180Y636250D02*
Y646450D01*
X927080Y666750D02*
X937280D01*
X932180Y661650D02*
Y671850D01*
X952480Y184150D02*
X962680D01*
X957580Y179050D02*
Y189250D01*
X952480Y615950D02*
X962680D01*
X957580Y610850D02*
Y621050D01*
X481310Y290830D02*
X491510D01*
X486410Y285730D02*
Y295930D01*
X481310Y316230D02*
X491510D01*
X486410Y311130D02*
Y321330D01*
X506710Y290830D02*
X516910D01*
X511810Y285730D02*
Y295930D01*
X506710Y316230D02*
X516910D01*
X511810Y311130D02*
Y321330D01*
X532110Y290830D02*
X542310D01*
X537210Y285730D02*
Y295930D01*
X532110Y316230D02*
X542310D01*
X537210Y311130D02*
Y321330D01*
X557510Y290830D02*
X567710D01*
X562610Y285730D02*
Y295930D01*
X557510Y316230D02*
X567710D01*
X562610Y311130D02*
Y321330D01*
X661650Y267970D02*
X671850D01*
X666750Y262870D02*
Y273070D01*
X661650Y242570D02*
X671850D01*
X666750Y237470D02*
Y247670D01*
X636250Y267970D02*
X646450D01*
X641350Y262870D02*
Y273070D01*
X636250Y242570D02*
X646450D01*
X641350Y237470D02*
Y247670D01*
X756900Y264160D02*
X767100D01*
X762000Y259060D02*
Y269260D01*
X756900Y238760D02*
X767100D01*
X762000Y233660D02*
Y243860D01*
X731500Y264160D02*
X741700D01*
X736600Y259060D02*
Y269260D01*
X731500Y238760D02*
X741700D01*
X736600Y233660D02*
Y243860D01*
X831930Y325120D02*
X841930D01*
X836930Y320120D02*
Y330120D01*
X831930Y300120D02*
X841930D01*
X836930Y295120D02*
Y305120D01*
X831930Y350120D02*
X841930D01*
X836930Y345120D02*
Y355120D01*
X831930Y375120D02*
X841930D01*
X836930Y370120D02*
Y380120D01*
X45974Y382270D02*
X53086D01*
X49530Y378714D02*
Y385826D01*
X33274Y461010D02*
X40386D01*
X36830Y457454D02*
Y464566D01*
X127254Y262890D02*
X134366D01*
X130810Y259334D02*
Y266446D01*
X13208Y618490D02*
X17272D01*
X15240Y616458D02*
Y620522D01*
X53594Y232410D02*
X60706D01*
X57150Y228854D02*
Y235966D01*
X602488Y698500D02*
X606552D01*
X604520Y696468D02*
Y700532D01*
X233934Y283210D02*
X241046D01*
X237490Y279654D02*
Y286766D01*
X355854Y68580D02*
X362966D01*
X359410Y65024D02*
Y72136D01*
X326644Y172720D02*
X333756D01*
X330200Y169164D02*
Y176276D01*
X423418Y307340D02*
X427482D01*
X425450Y305308D02*
Y309372D01*
X17018Y730250D02*
X21082D01*
X19050Y728218D02*
Y732282D01*
X159004Y262890D02*
X166116D01*
X162560Y259334D02*
Y266446D01*
X462788Y180340D02*
X466852D01*
X464820Y178308D02*
Y182372D01*
X29464Y233680D02*
X36576D01*
X33020Y230124D02*
Y237236D01*
X230378Y609600D02*
X234442D01*
X232410Y607568D02*
Y611632D01*
X89408Y572770D02*
X96520D01*
X92964Y569214D02*
Y576326D01*
X170434Y568960D02*
X177546D01*
X173990Y565404D02*
Y572516D01*
X247904Y504190D02*
X255016D01*
X251460Y500634D02*
Y507746D01*
X100584Y60960D02*
X107696D01*
X104140Y57404D02*
Y64516D01*
X169164Y508000D02*
X176276D01*
X172720Y504444D02*
Y511556D01*
X174244Y415290D02*
X181356D01*
X177800Y411734D02*
Y418846D01*
X552958Y75184D02*
X557022D01*
X554990Y73152D02*
Y77216D01*
X123804Y81280D02*
X130916D01*
X127360Y77724D02*
Y84836D01*
X122174Y60960D02*
X129286D01*
X125730Y57404D02*
Y64516D01*
X769874Y368300D02*
X776986D01*
X773430Y364744D02*
Y371856D01*
X771144Y431800D02*
X778256D01*
X774700Y428244D02*
Y435356D01*
X612394Y147320D02*
X619506D01*
X615950Y143764D02*
Y150876D01*
X320895Y447387D02*
X323943D01*
X322419Y445863D02*
Y448911D01*
X324358Y491490D02*
X328422D01*
X326390Y489458D02*
Y493522D01*
X266446Y544830D02*
X269494D01*
X267970Y543306D02*
Y546354D01*
X275239Y527608D02*
X279303D01*
X277271Y525576D02*
Y529640D01*
X265938Y514350D02*
X270002D01*
X267970Y512318D02*
Y516382D01*
X273558Y494030D02*
X277622D01*
X275590Y491998D02*
Y496062D01*
X597154Y645160D02*
X604266D01*
X600710Y641604D02*
Y648716D01*
X255016Y571500D02*
X258064D01*
X256540Y569976D02*
Y573024D01*
X321056Y506730D02*
X324104D01*
X322580Y505206D02*
Y508254D01*
X542798Y421640D02*
X546862D01*
X544830Y419608D02*
Y423672D01*
X488188Y459740D02*
X492252D01*
X490220Y457708D02*
Y461772D01*
X484378Y523240D02*
X488442D01*
X486410Y521208D02*
Y525272D01*
X335788Y673100D02*
X339852D01*
X337820Y671068D02*
Y675132D01*
X535178Y523240D02*
X539242D01*
X537210Y521208D02*
Y525272D01*
X575818Y582930D02*
X579882D01*
X577850Y580898D02*
Y584962D01*
X560578Y572770D02*
X564642D01*
X562610Y570738D02*
Y574802D01*
X550418Y585470D02*
X554482D01*
X552450Y583438D02*
Y587502D01*
X565658Y469900D02*
X569722D01*
X567690Y467868D02*
Y471932D01*
X452628Y256540D02*
X456692D01*
X454660Y254508D02*
Y258572D01*
X541528Y680720D02*
X545592D01*
X543560Y678688D02*
Y682752D01*
X439928Y657860D02*
X443992D01*
X441960Y655828D02*
Y659892D01*
X453677Y663362D02*
X457741D01*
X455709Y661330D02*
Y665394D01*
X415662Y619139D02*
X419726D01*
X417694Y617107D02*
Y621171D01*
X387858Y584200D02*
X391922D01*
X389890Y582168D02*
Y586232D01*
X370078Y586740D02*
X374142D01*
X372110Y584708D02*
Y588772D01*
X423648Y596670D02*
X427712D01*
X425680Y594638D02*
Y598702D01*
X439708Y613568D02*
X443772D01*
X441740Y611536D02*
Y615600D01*
X254508Y486410D02*
X258572D01*
X256540Y484378D02*
Y488442D01*
X330708Y403860D02*
X334772D01*
X332740Y401828D02*
Y405892D01*
X767588Y201676D02*
X771652D01*
X769620Y199644D02*
Y203708D01*
X588264Y180086D02*
X595376D01*
X591820Y176530D02*
Y183642D01*
X738378Y205740D02*
X742442D01*
X740410Y203708D02*
Y207772D01*
X717846Y174474D02*
X724958D01*
X721402Y170918D02*
Y178030D01*
X800608Y222250D02*
X804672D01*
X802640Y220218D02*
Y224282D01*
X600964Y622300D02*
X608076D01*
X604520Y618744D02*
Y625856D01*
X528828Y636270D02*
X532892D01*
X530860Y634238D02*
Y638302D01*
X542798Y570230D02*
X546862D01*
X544830Y568198D02*
Y572262D01*
X121158Y553720D02*
X125222D01*
X123190Y551688D02*
Y555752D01*
X307848Y353060D02*
X311912D01*
X309880Y351028D02*
Y355092D01*
X252984Y712470D02*
X260096D01*
X256540Y708914D02*
Y716026D01*
X288544Y712470D02*
X295656D01*
X292100Y708914D02*
Y716026D01*
X490474Y102870D02*
X497586D01*
X494030Y99314D02*
Y106426D01*
X621284Y105410D02*
X628396D01*
X624840Y101854D02*
Y108966D01*
X735584Y102870D02*
X742696D01*
X739140Y99314D02*
Y106426D01*
X851154Y114300D02*
X858266D01*
X854710Y110744D02*
Y117856D01*
X591058Y75184D02*
X595122D01*
X593090Y73152D02*
Y77216D01*
X712724Y119380D02*
X719836D01*
X716280Y115824D02*
Y122936D01*
X590804Y106680D02*
X597916D01*
X594360Y103124D02*
Y110236D01*
X487934Y140970D02*
X495046D01*
X491490Y137414D02*
Y144526D01*
X308864Y209550D02*
X315976D01*
X312420Y205994D02*
Y213106D01*
X105389Y530536D02*
X109453D01*
X107421Y528504D02*
Y532568D01*
X162814Y220980D02*
X169926D01*
X166370Y217424D02*
Y224536D01*
X738124Y601980D02*
X745236D01*
X741680Y598424D02*
Y605536D01*
X315577Y611800D02*
X318625D01*
X317101Y610276D02*
Y613324D01*
X334518Y586740D02*
X338582D01*
X336550Y584708D02*
Y588772D01*
X465328Y661670D02*
X469392D01*
X467360Y659638D02*
Y663702D01*
X488188Y589280D02*
X492252D01*
X490220Y587248D02*
Y591312D01*
X477476Y581198D02*
X481540D01*
X479508Y579166D02*
Y583230D01*
X470177Y603481D02*
X474240D01*
X472209Y601450D02*
Y605513D01*
X486867Y570281D02*
X490931D01*
X488899Y568249D02*
Y572313D01*
X455168Y575310D02*
X459232D01*
X457200Y573278D02*
Y577342D01*
X469138Y535940D02*
X473202D01*
X471170Y533908D02*
Y537972D01*
X453136Y544830D02*
X457200D01*
X455168Y542798D02*
Y546862D01*
X452952Y528320D02*
X457016D01*
X454985Y526288D02*
Y530352D01*
X407138Y580160D02*
X411202D01*
X409170Y578128D02*
Y582192D01*
X414274Y588009D02*
X418338D01*
X416306Y585977D02*
Y590041D01*
X417576Y548640D02*
X421640D01*
X419608Y546608D02*
Y550672D01*
X396748Y532130D02*
X400812D01*
X398780Y530098D02*
Y534162D01*
X399288Y513080D02*
X403352D01*
X401320Y511048D02*
Y515112D01*
X357554Y485420D02*
X361618D01*
X359586Y483388D02*
Y487452D01*
X365041Y493019D02*
X369105D01*
X367073Y490987D02*
Y495051D01*
X342138Y492760D02*
X346202D01*
X344170Y490728D02*
Y494792D01*
X563118Y487680D02*
X567182D01*
X565150Y485648D02*
Y489712D01*
X614604Y503504D02*
X618668D01*
X616636Y501472D02*
Y505536D01*
X540258Y480060D02*
X544322D01*
X542290Y478028D02*
Y482092D01*
X702818Y228600D02*
X706882D01*
X704850Y226568D02*
Y230632D01*
X626618Y341630D02*
X630682D01*
X628650Y339598D02*
Y343662D01*
X357378Y600710D02*
X361442D01*
X359410Y598678D02*
Y602742D01*
X344932Y607314D02*
X348996D01*
X346964Y605282D02*
Y609346D01*
X418338Y473710D02*
X422402D01*
X420370Y471678D02*
Y475742D01*
X429298Y452920D02*
X433362D01*
X431330Y450888D02*
Y454952D01*
X436880Y459683D02*
X440944D01*
X438912Y457651D02*
Y461715D01*
X443738Y488950D02*
X447802D01*
X445770Y486918D02*
Y490982D01*
X429768Y486410D02*
X433832D01*
X431800Y484378D02*
Y488442D01*
X418338Y402590D02*
X422402D01*
X420370Y400558D02*
Y404622D01*
X451358Y378460D02*
X455422D01*
X453390Y376428D02*
Y380492D01*
X470408Y497840D02*
X474472D01*
X472440Y495808D02*
Y499872D01*
X480568Y481330D02*
X484632D01*
X482600Y479298D02*
Y483362D01*
X461518Y514350D02*
X465582D01*
X463550Y512318D02*
Y516382D01*
X739648Y365760D02*
X743712D01*
X741680Y363728D02*
Y367792D01*
X724408Y567690D02*
X728472D01*
X726440Y565658D02*
Y569722D01*
X460248Y358140D02*
X464312D01*
X462280Y356108D02*
Y360172D01*
X372110Y452120D02*
X376174D01*
X374142Y450088D02*
Y454152D01*
X379762Y463804D02*
X383825D01*
X381794Y461772D02*
Y465836D01*
X316501Y603250D02*
X319549D01*
X318025Y601726D02*
Y604774D01*
X33274Y81280D02*
X40386D01*
X36830Y77724D02*
Y84836D01*
X198374Y92710D02*
X205486D01*
X201930Y89154D02*
Y96266D01*
X198374Y68580D02*
X205486D01*
X201930Y65024D02*
Y72136D01*
X57404Y209550D02*
X64516D01*
X60960Y205994D02*
Y213106D01*
X32004Y210820D02*
X39116D01*
X35560Y207264D02*
Y214376D01*
X75184Y60960D02*
X82296D01*
X78740Y57404D02*
Y64516D01*
X54864Y60960D02*
X61976D01*
X58420Y57404D02*
Y64516D01*
X32004Y60960D02*
X39116D01*
X35560Y57404D02*
Y64516D01*
X483108Y543560D02*
X487172D01*
X485140Y541528D02*
Y545592D01*
X309118Y410210D02*
X313182D01*
X311150Y408178D02*
Y412242D01*
X575818Y25400D02*
X579882D01*
X577850Y23368D02*
Y27432D01*
M02*
