G04*
G04 #@! TF.GenerationSoftware,Altium Limited,Altium Designer,24.2.2 (26)*
G04*
G04 Layer_Color=16711935*
%FSLAX44Y44*%
%MOMM*%
G71*
G04*
G04 #@! TF.SameCoordinates,251A4116-46B9-4EB5-9C36-AF9AACF17162*
G04*
G04*
G04 #@! TF.FilePolarity,Negative*
G04*
G01*
G75*
%ADD26R,1.4546X1.5562*%
%ADD28R,1.5562X1.4546*%
%ADD53R,1.4032X1.6532*%
%ADD66C,1.7332*%
G04:AMPARAMS|DCode=67|XSize=4.2032mm|YSize=2.0032mm|CornerRadius=0.5516mm|HoleSize=0mm|Usage=FLASHONLY|Rotation=90.000|XOffset=0mm|YOffset=0mm|HoleType=Round|Shape=RoundedRectangle|*
%AMROUNDEDRECTD67*
21,1,4.2032,0.9000,0,0,90.0*
21,1,3.1000,2.0032,0,0,90.0*
1,1,1.1032,0.4500,1.5500*
1,1,1.1032,0.4500,-1.5500*
1,1,1.1032,-0.4500,-1.5500*
1,1,1.1032,-0.4500,1.5500*
%
%ADD67ROUNDEDRECTD67*%
G04:AMPARAMS|DCode=68|XSize=4.2032mm|YSize=2.0032mm|CornerRadius=0.5516mm|HoleSize=0mm|Usage=FLASHONLY|Rotation=180.000|XOffset=0mm|YOffset=0mm|HoleType=Round|Shape=RoundedRectangle|*
%AMROUNDEDRECTD68*
21,1,4.2032,0.9000,0,0,180.0*
21,1,3.1000,2.0032,0,0,180.0*
1,1,1.1032,-1.5500,0.4500*
1,1,1.1032,1.5500,0.4500*
1,1,1.1032,1.5500,-0.4500*
1,1,1.1032,-1.5500,-0.4500*
%
%ADD68ROUNDEDRECTD68*%
%ADD69C,1.7112*%
%ADD70R,1.7112X1.7112*%
%ADD71C,1.6532*%
%ADD72R,1.7782X1.7782*%
%ADD73C,1.7782*%
%ADD74R,1.7112X1.7112*%
%ADD75C,1.8032*%
G04:AMPARAMS|DCode=76|XSize=1.8032mm|YSize=1.8032mm|CornerRadius=0.5016mm|HoleSize=0mm|Usage=FLASHONLY|Rotation=270.000|XOffset=0mm|YOffset=0mm|HoleType=Round|Shape=RoundedRectangle|*
%AMROUNDEDRECTD76*
21,1,1.8032,0.8000,0,0,270.0*
21,1,0.8000,1.8032,0,0,270.0*
1,1,1.0032,-0.4000,-0.4000*
1,1,1.0032,-0.4000,0.4000*
1,1,1.0032,0.4000,0.4000*
1,1,1.0032,0.4000,-0.4000*
%
%ADD76ROUNDEDRECTD76*%
%ADD77C,1.7232*%
%ADD78C,1.4732*%
%ADD79C,1.0160*%
%ADD80C,1.1176*%
%ADD81C,0.8128*%
D26*
X406400Y605790D02*
D03*
X387884D02*
D03*
D28*
X335280Y454660D02*
D03*
Y473176D02*
D03*
D53*
X271940Y739140D02*
D03*
X291940D02*
D03*
X222410Y740410D02*
D03*
X242410D02*
D03*
D66*
X224790Y30480D02*
D03*
X81280Y802640D02*
D03*
X182880Y30480D02*
D03*
D67*
X116360Y139440D02*
D03*
X58360D02*
D03*
D68*
X86360Y91440D02*
D03*
D69*
X273050Y789940D02*
D03*
X835660Y537210D02*
D03*
X621030Y787400D02*
D03*
X708120Y53340D02*
D03*
X758120D02*
D03*
X808120D02*
D03*
X833120D02*
D03*
X783120D02*
D03*
X683120D02*
D03*
X733120D02*
D03*
X458070Y48260D02*
D03*
X508070D02*
D03*
X558070D02*
D03*
X583070D02*
D03*
X533070D02*
D03*
X433070D02*
D03*
X483070D02*
D03*
X148050Y789940D02*
D03*
X173050D02*
D03*
X198050D02*
D03*
X223050D02*
D03*
X298050D02*
D03*
X248050D02*
D03*
X496030Y787400D02*
D03*
X521030D02*
D03*
X546030D02*
D03*
X571030D02*
D03*
X646030D02*
D03*
X596030D02*
D03*
X828440D02*
D03*
X803440D02*
D03*
X778440D02*
D03*
X753440D02*
D03*
X834390Y699840D02*
D03*
Y674840D02*
D03*
Y649840D02*
D03*
X835660Y512210D02*
D03*
Y487210D02*
D03*
X836930Y325120D02*
D03*
Y350120D02*
D03*
Y375120D02*
D03*
D70*
X853440Y787400D02*
D03*
X658120Y53340D02*
D03*
X408070Y48260D02*
D03*
X323050Y789940D02*
D03*
X671030Y787400D02*
D03*
D71*
X57480Y700480D02*
D03*
Y650480D02*
D03*
D72*
X431600Y787230D02*
D03*
D73*
X406600D02*
D03*
D74*
X834390Y624840D02*
D03*
X835660Y462210D02*
D03*
X836930Y300120D02*
D03*
D75*
X932180Y463550D02*
D03*
X957580D02*
D03*
X932180Y438150D02*
D03*
Y412750D02*
D03*
X957580Y438150D02*
D03*
Y412750D02*
D03*
X932180Y311150D02*
D03*
Y285750D02*
D03*
X957580Y311150D02*
D03*
Y285750D02*
D03*
X932180Y184150D02*
D03*
X957580Y209550D02*
D03*
X932180D02*
D03*
X957580Y234950D02*
D03*
X932180D02*
D03*
X957580Y260350D02*
D03*
X932180D02*
D03*
X957580Y336550D02*
D03*
X932180D02*
D03*
X957580Y361950D02*
D03*
Y387350D02*
D03*
X932180Y361950D02*
D03*
Y387350D02*
D03*
X957580Y488950D02*
D03*
Y514350D02*
D03*
Y539750D02*
D03*
Y565150D02*
D03*
X932180Y488950D02*
D03*
Y514350D02*
D03*
Y539750D02*
D03*
Y565150D02*
D03*
X957580Y590550D02*
D03*
Y641350D02*
D03*
Y666750D02*
D03*
X932180Y590550D02*
D03*
Y615950D02*
D03*
Y641350D02*
D03*
Y666750D02*
D03*
X957580Y615950D02*
D03*
D76*
Y184150D02*
D03*
D77*
X486410Y290830D02*
D03*
Y316230D02*
D03*
X511810Y290830D02*
D03*
Y316230D02*
D03*
X537210Y290830D02*
D03*
Y316230D02*
D03*
X562610Y290830D02*
D03*
Y316230D02*
D03*
X666750Y267970D02*
D03*
Y242570D02*
D03*
X641350Y267970D02*
D03*
Y242570D02*
D03*
X762000Y264160D02*
D03*
Y238760D02*
D03*
X736600Y264160D02*
D03*
Y238760D02*
D03*
D78*
X49530Y382270D02*
D03*
X36830Y461010D02*
D03*
X130810Y262890D02*
D03*
X57150Y232410D02*
D03*
X237490Y283210D02*
D03*
X359410Y68580D02*
D03*
X330200Y172720D02*
D03*
X162560Y262890D02*
D03*
X33020Y233680D02*
D03*
X92964Y572770D02*
D03*
X173990Y568960D02*
D03*
X251460Y504190D02*
D03*
X104140Y60960D02*
D03*
X172720Y508000D02*
D03*
X177800Y415290D02*
D03*
X127360Y81280D02*
D03*
X125730Y60960D02*
D03*
X773430Y368300D02*
D03*
X774700Y431800D02*
D03*
X615950Y147320D02*
D03*
X600710Y645160D02*
D03*
X591820Y180086D02*
D03*
X721402Y174474D02*
D03*
X604520Y622300D02*
D03*
X256540Y712470D02*
D03*
X292100D02*
D03*
X494030Y102870D02*
D03*
X624840Y105410D02*
D03*
X739140Y102870D02*
D03*
X854710Y114300D02*
D03*
X716280Y119380D02*
D03*
X594360Y106680D02*
D03*
X491490Y140970D02*
D03*
X312420Y209550D02*
D03*
X166370Y220980D02*
D03*
X741680Y601980D02*
D03*
X36830Y81280D02*
D03*
X201930Y92710D02*
D03*
Y68580D02*
D03*
X60960Y209550D02*
D03*
X35560Y210820D02*
D03*
X78740Y60960D02*
D03*
X58420D02*
D03*
X35560D02*
D03*
D79*
X15240Y618490D02*
D03*
X604520Y698500D02*
D03*
X19050Y730250D02*
D03*
X464820Y180340D02*
D03*
X554990Y75184D02*
D03*
X326390Y491490D02*
D03*
X277271Y527608D02*
D03*
X267970Y514350D02*
D03*
X275590Y494030D02*
D03*
X537210Y523240D02*
D03*
X577850Y582930D02*
D03*
X562610Y572770D02*
D03*
X552450Y585470D02*
D03*
X567690Y469900D02*
D03*
X454660Y256540D02*
D03*
X543560Y680720D02*
D03*
X441960Y657860D02*
D03*
X455709Y663362D02*
D03*
X417694Y619139D02*
D03*
X389890Y584200D02*
D03*
X372110Y586740D02*
D03*
X425680Y596670D02*
D03*
X441740Y613568D02*
D03*
X256540Y486410D02*
D03*
X332740Y403860D02*
D03*
X769620Y201676D02*
D03*
X740410Y205740D02*
D03*
X802640Y222250D02*
D03*
X530860Y636270D02*
D03*
X544830Y570230D02*
D03*
X123190Y553720D02*
D03*
X309880Y353060D02*
D03*
X593090Y75184D02*
D03*
X107421Y530536D02*
D03*
X336550Y586740D02*
D03*
X467360Y661670D02*
D03*
X490220Y589280D02*
D03*
X479508Y581198D02*
D03*
X472209Y603481D02*
D03*
X488899Y570281D02*
D03*
X457200Y575310D02*
D03*
X471170Y535940D02*
D03*
X455168Y544830D02*
D03*
X454985Y528320D02*
D03*
X409170Y580160D02*
D03*
X416306Y588009D02*
D03*
X419608Y548640D02*
D03*
X398780Y532130D02*
D03*
X401320Y513080D02*
D03*
X359586Y485420D02*
D03*
X367073Y493019D02*
D03*
X344170Y492760D02*
D03*
X565150Y487680D02*
D03*
X616636Y503504D02*
D03*
X542290Y480060D02*
D03*
X704850Y228600D02*
D03*
X628650Y341630D02*
D03*
X359410Y600710D02*
D03*
X346964Y607314D02*
D03*
X420370Y473710D02*
D03*
X431330Y452920D02*
D03*
X438912Y459683D02*
D03*
X445770Y488950D02*
D03*
X431800Y486410D02*
D03*
X420370Y402590D02*
D03*
X453390Y378460D02*
D03*
X472440Y497840D02*
D03*
X482600Y481330D02*
D03*
X463550Y514350D02*
D03*
X741680Y365760D02*
D03*
X726440Y567690D02*
D03*
X462280Y358140D02*
D03*
X374142Y452120D02*
D03*
X381794Y463804D02*
D03*
X485140Y543560D02*
D03*
X311150Y410210D02*
D03*
X577850Y25400D02*
D03*
D80*
X425450Y307340D02*
D03*
X232410Y609600D02*
D03*
X544830Y421640D02*
D03*
X490220Y459740D02*
D03*
X486410Y523240D02*
D03*
X337820Y673100D02*
D03*
D81*
X322419Y447387D02*
D03*
X267970Y544830D02*
D03*
X256540Y571500D02*
D03*
X322580Y506730D02*
D03*
X317101Y611800D02*
D03*
X318025Y603250D02*
D03*
M02*
