G04*
G04 #@! TF.GenerationSoftware,Altium Limited,Altium Designer,24.2.2 (26)*
G04*
G04 Layer_Color=255*
%FSLAX44Y44*%
%MOMM*%
G71*
G04*
G04 #@! TF.SameCoordinates,251A4116-46B9-4EB5-9C36-AF9AACF17162*
G04*
G04*
G04 #@! TF.FilePolarity,Positive*
G04*
G01*
G75*
%ADD24R,1.2000X1.4500*%
%ADD26R,1.4546X1.5562*%
%ADD28R,1.5562X1.4546*%
%ADD88C,1.5300*%
G04:AMPARAMS|DCode=89|XSize=4mm|YSize=1.8mm|CornerRadius=0.45mm|HoleSize=0mm|Usage=FLASHONLY|Rotation=90.000|XOffset=0mm|YOffset=0mm|HoleType=Round|Shape=RoundedRectangle|*
%AMROUNDEDRECTD89*
21,1,4.0000,0.9000,0,0,90.0*
21,1,3.1000,1.8000,0,0,90.0*
1,1,0.9000,0.4500,1.5500*
1,1,0.9000,0.4500,-1.5500*
1,1,0.9000,-0.4500,-1.5500*
1,1,0.9000,-0.4500,1.5500*
%
%ADD89ROUNDEDRECTD89*%
G04:AMPARAMS|DCode=90|XSize=4mm|YSize=1.8mm|CornerRadius=0.45mm|HoleSize=0mm|Usage=FLASHONLY|Rotation=180.000|XOffset=0mm|YOffset=0mm|HoleType=Round|Shape=RoundedRectangle|*
%AMROUNDEDRECTD90*
21,1,4.0000,0.9000,0,0,180.0*
21,1,3.1000,1.8000,0,0,180.0*
1,1,0.9000,-1.5500,0.4500*
1,1,0.9000,1.5500,0.4500*
1,1,0.9000,1.5500,-0.4500*
1,1,0.9000,-1.5500,-0.4500*
%
%ADD90ROUNDEDRECTD90*%
%ADD91C,1.5080*%
%ADD92R,1.5080X1.5080*%
%ADD93C,1.4500*%
%ADD94R,1.5750X1.5750*%
%ADD95C,1.5750*%
%ADD96R,1.5080X1.5080*%
%ADD97C,1.6000*%
G04:AMPARAMS|DCode=98|XSize=1.6mm|YSize=1.6mm|CornerRadius=0.4mm|HoleSize=0mm|Usage=FLASHONLY|Rotation=270.000|XOffset=0mm|YOffset=0mm|HoleType=Round|Shape=RoundedRectangle|*
%AMROUNDEDRECTD98*
21,1,1.6000,0.8000,0,0,270.0*
21,1,0.8000,1.6000,0,0,270.0*
1,1,0.8000,-0.4000,-0.4000*
1,1,0.8000,-0.4000,0.4000*
1,1,0.8000,0.4000,0.4000*
1,1,0.8000,0.4000,-0.4000*
%
%ADD98ROUNDEDRECTD98*%
%ADD99C,1.5200*%
D24*
X271940Y739140D02*
D03*
X291940D02*
D03*
X222410Y740410D02*
D03*
X242410D02*
D03*
D26*
X406400Y605790D02*
D03*
X387884D02*
D03*
D28*
X335280Y454660D02*
D03*
Y473176D02*
D03*
D88*
X224790Y30480D02*
D03*
X81280Y802640D02*
D03*
X182880Y30480D02*
D03*
D89*
X116360Y139440D02*
D03*
X58360D02*
D03*
D90*
X86360Y91440D02*
D03*
D91*
X273050Y789940D02*
D03*
X835660Y537210D02*
D03*
X621030Y787400D02*
D03*
X708120Y53340D02*
D03*
X758120D02*
D03*
X808120D02*
D03*
X833120D02*
D03*
X783120D02*
D03*
X683120D02*
D03*
X733120D02*
D03*
X458070Y48260D02*
D03*
X508070D02*
D03*
X558070D02*
D03*
X583070D02*
D03*
X533070D02*
D03*
X433070D02*
D03*
X483070D02*
D03*
X148050Y789940D02*
D03*
X173050D02*
D03*
X198050D02*
D03*
X223050D02*
D03*
X298050D02*
D03*
X248050D02*
D03*
X496030Y787400D02*
D03*
X521030D02*
D03*
X546030D02*
D03*
X571030D02*
D03*
X646030D02*
D03*
X596030D02*
D03*
X828440D02*
D03*
X803440D02*
D03*
X778440D02*
D03*
X753440D02*
D03*
X834390Y699840D02*
D03*
Y674840D02*
D03*
Y649840D02*
D03*
X835660Y512210D02*
D03*
Y487210D02*
D03*
X836930Y325120D02*
D03*
Y350120D02*
D03*
Y375120D02*
D03*
D92*
X853440Y787400D02*
D03*
X658120Y53340D02*
D03*
X408070Y48260D02*
D03*
X323050Y789940D02*
D03*
X671030Y787400D02*
D03*
D93*
X57480Y700480D02*
D03*
Y650480D02*
D03*
D94*
X431600Y787230D02*
D03*
D95*
X406600D02*
D03*
D96*
X834390Y624840D02*
D03*
X835660Y462210D02*
D03*
X836930Y300120D02*
D03*
D97*
X932180Y463550D02*
D03*
X957580D02*
D03*
X932180Y438150D02*
D03*
Y412750D02*
D03*
X957580Y438150D02*
D03*
Y412750D02*
D03*
X932180Y311150D02*
D03*
Y285750D02*
D03*
X957580Y311150D02*
D03*
Y285750D02*
D03*
X932180Y184150D02*
D03*
X957580Y209550D02*
D03*
X932180D02*
D03*
X957580Y234950D02*
D03*
X932180D02*
D03*
X957580Y260350D02*
D03*
X932180D02*
D03*
X957580Y336550D02*
D03*
X932180D02*
D03*
X957580Y361950D02*
D03*
Y387350D02*
D03*
X932180Y361950D02*
D03*
Y387350D02*
D03*
X957580Y488950D02*
D03*
Y514350D02*
D03*
Y539750D02*
D03*
Y565150D02*
D03*
X932180Y488950D02*
D03*
Y514350D02*
D03*
Y539750D02*
D03*
Y565150D02*
D03*
X957580Y590550D02*
D03*
Y641350D02*
D03*
Y666750D02*
D03*
X932180Y590550D02*
D03*
Y615950D02*
D03*
Y641350D02*
D03*
Y666750D02*
D03*
X957580Y615950D02*
D03*
D98*
Y184150D02*
D03*
D99*
X486410Y290830D02*
D03*
Y316230D02*
D03*
X511810Y290830D02*
D03*
Y316230D02*
D03*
X537210Y290830D02*
D03*
Y316230D02*
D03*
X562610Y290830D02*
D03*
Y316230D02*
D03*
X666750Y267970D02*
D03*
Y242570D02*
D03*
X641350Y267970D02*
D03*
Y242570D02*
D03*
X762000Y264160D02*
D03*
Y238760D02*
D03*
X736600Y264160D02*
D03*
Y238760D02*
D03*
M02*
